<svg width="1921" height="102" viewBox="0 0 1921 102" fill="none" xmlns="http://www.w3.org/2000/svg">
<rect width="22.1888" height="82.1122" transform="matrix(0.878702 0.477371 -0.522975 0.852348 360.635 10.3174)" fill="#020144"/>
<rect width="22.1888" height="91.9125" transform="matrix(-0.878702 0.477371 0.522975 0.852348 1864.87 9)" fill="#020144"/>
<rect width="22.1888" height="82.1122" transform="matrix(0.878702 0.477371 -0.522975 0.852348 1313.71 10.3174)" fill="#020144"/>
<rect width="22.1888" height="82.1122" transform="matrix(0.878702 0.477371 -0.522975 0.852348 466.532 10.3174)" fill="#020144"/>
<rect width="22.1888" height="82.1122" transform="matrix(0.878702 0.477371 -0.522975 0.852348 1419.61 10.3174)" fill="#020144"/>
<rect width="22.1888" height="82.1122" transform="matrix(0.878702 0.477371 -0.522975 0.852348 1525.46 10.3174)" fill="#020144"/>
<rect width="22.1888" height="82.1122" transform="matrix(0.878702 0.477371 -0.522975 0.852348 1631.31 10.3174)" fill="#020144"/>
<rect width="22.1888" height="82.1122" transform="matrix(0.878702 0.477371 -0.522975 0.852348 1737.15 10.3174)" fill="#020144"/>
<rect width="22.1888" height="82.1122" transform="matrix(0.878702 0.477371 -0.522975 0.852348 1843 10.3174)" fill="#020144"/>
<rect width="22.1888" height="82.1122" transform="matrix(0.878702 0.477371 -0.522975 0.852348 572.43 10.3174)" fill="#020144"/>
<rect width="22.1888" height="82.1122" transform="matrix(0.878702 0.477371 -0.522975 0.852348 678.327 10.3174)" fill="#020144"/>
<rect width="22.1888" height="82.1122" transform="matrix(0.878702 0.477371 -0.522975 0.852348 784.224 10.3174)" fill="#020144"/>
<rect width="22.1888" height="82.1122" transform="matrix(0.878702 0.477371 -0.522975 0.852348 890.122 10.3174)" fill="#020144"/>
<rect width="22.1888" height="82.1122" transform="matrix(0.878702 0.477371 -0.522975 0.852348 254.737 10.3174)" fill="#020144"/>
<rect width="22.1888" height="82.1122" transform="matrix(0.878702 0.477371 -0.522975 0.852348 1207.81 10.3174)" fill="#020144"/>
<rect width="22.1888" height="82.1122" transform="matrix(0.878702 0.477371 -0.522975 0.852348 148.84 10.3174)" fill="#020144"/>
<rect width="22.1888" height="82.1122" transform="matrix(0.878702 0.477371 -0.522975 0.852348 1101.92 10.3174)" fill="#020144"/>
<rect width="22.1888" height="82.1122" transform="matrix(0.878702 0.477371 -0.522975 0.852348 42.9427 10.3174)" fill="#020144"/>
<rect width="22.1888" height="82.1122" transform="matrix(0.878702 0.477371 -0.522975 0.852348 996.019 10.3174)" fill="#020144"/>
<rect width="22.1888" height="82.1122" transform="matrix(-0.878702 0.477371 0.522975 0.852348 380.5 10.9844)" fill="#020144"/>
<rect width="22.1888" height="82.1122" transform="matrix(-0.878702 0.477371 0.522975 0.852348 1333.58 10.9844)" fill="#020144"/>
<rect width="22.1888" height="82.1122" transform="matrix(-0.878702 0.477371 0.522975 0.852348 486.398 10.9844)" fill="#020144"/>
<rect width="22.1888" height="82.1122" transform="matrix(-0.878702 0.477371 0.522975 0.852348 1439.47 10.9844)" fill="#020144"/>
<rect width="22.1888" height="82.1122" transform="matrix(-0.878702 0.477371 0.522975 0.852348 1545.32 10.9844)" fill="#020144"/>
<rect width="22.1888" height="82.1122" transform="matrix(-0.878702 0.477371 0.522975 0.852348 1651.17 10.9844)" fill="#020144"/>
<rect width="22.1888" height="82.1122" transform="matrix(-0.878702 0.477371 0.522975 0.852348 1757.02 10.9844)" fill="#020144"/>
<rect width="22.1888" height="82.1122" transform="matrix(-0.878702 0.477371 0.522975 0.852348 592.295 10.9844)" fill="#020144"/>
<rect width="22.1888" height="82.1122" transform="matrix(-0.878702 0.477371 0.522975 0.852348 698.193 10.9844)" fill="#020144"/>
<rect width="22.1888" height="82.1122" transform="matrix(-0.878702 0.477371 0.522975 0.852348 804.09 10.9844)" fill="#020144"/>
<rect width="22.1888" height="82.1122" transform="matrix(-0.878702 0.477371 0.522975 0.852348 909.987 10.9844)" fill="#020144"/>
<rect width="22.1888" height="82.1122" transform="matrix(-0.878702 0.477371 0.522975 0.852348 274.603 10.9844)" fill="#020144"/>
<rect width="22.1888" height="82.1122" transform="matrix(-0.878702 0.477371 0.522975 0.852348 1227.68 10.9844)" fill="#020144"/>
<rect width="22.1888" height="82.1122" transform="matrix(-0.878702 0.477371 0.522975 0.852348 168.705 10.9844)" fill="#020144"/>
<rect width="22.1888" height="82.1122" transform="matrix(-0.878702 0.477371 0.522975 0.852348 1121.78 10.9844)" fill="#020144"/>
<rect width="22.1888" height="82.1122" transform="matrix(-0.878702 0.477371 0.522975 0.852348 62.8081 10.9844)" fill="#020144"/>
<rect width="22.1888" height="82.1122" transform="matrix(-0.878702 0.477371 0.522975 0.852348 1015.88 10.9844)" fill="#020144"/>
<rect width="20.9999" height="1920.92" transform="matrix(-5.86663e-08 1 1 3.25687e-08 0 0)" fill="#020144"/>
<rect width="20.9999" height="1920.92" transform="matrix(-5.86663e-08 1 1 3.25687e-08 0 81)" fill="#020144"/>
</svg>
