<svg width="3470" height="258" viewBox="0 0 3470 258" fill="none" xmlns="http://www.w3.org/2000/svg">
<g opacity="0.12">
<path d="M20.5 23L38.2535 53.75H2.74648L20.5 23Z" fill="#D9D9D9"/>
<path d="M635 23L652.321 53.75H617.679L635 23Z" fill="#D9D9D9"/>
<path d="M328 23L346.187 53.75H309.813L328 23Z" fill="#D9D9D9"/>
<path d="M943 23L961.187 53.75H924.813L943 23Z" fill="#D9D9D9"/>
<path d="M1407 23L1425.19 53.75H1388.81L1407 23Z" fill="#D9D9D9"/>
<path d="M174 23L192.187 53.75H155.813L174 23Z" fill="#D9D9D9"/>
<path d="M790 23L808.187 53.75H771.813L790 23Z" fill="#D9D9D9"/>
<path d="M1253 23L1270.32 53.75H1235.68L1253 23Z" fill="#D9D9D9"/>
<path d="M482 23L499.321 53.75H464.679L482 23Z" fill="#D9D9D9"/>
<path d="M1096 23L1114.19 53.75H1077.81L1096 23Z" fill="#D9D9D9"/>
<path d="M1561 23L1579.19 53.75H1542.81L1561 23Z" fill="#D9D9D9"/>
<path d="M98 23L116.187 53.75H79.8135L98 23Z" fill="#D9D9D9"/>
<path d="M712.5 23L730.254 53.75H694.746L712.5 23Z" fill="#D9D9D9"/>
<path d="M404 23L422.187 53.75H385.813L404 23Z" fill="#D9D9D9"/>
<path d="M1020 23L1038.19 53.75H1001.81L1020 23Z" fill="#D9D9D9"/>
<path d="M1484 23L1502.19 53.75H1465.81L1484 23Z" fill="#D9D9D9"/>
<path d="M251 23L269.187 53.75H232.813L251 23Z" fill="#D9D9D9"/>
<path d="M865.5 23L883.254 53.75H847.746L865.5 23Z" fill="#D9D9D9"/>
<path d="M1331 23L1349.19 53.75H1312.81L1331 23Z" fill="#D9D9D9"/>
<path d="M559 23L576.321 53.75H541.679L559 23Z" fill="#D9D9D9"/>
<path d="M1173 23L1191.19 53.75H1154.81L1173 23Z" fill="#D9D9D9"/>
<path d="M1637 23L1655.19 53.75H1618.81L1637 23Z" fill="#D9D9D9"/>
<path d="M1714.5 23L1732.25 53.75H1696.75L1714.5 23Z" fill="#D9D9D9"/>
<path d="M58.5 40L41.6125 10L75.3875 10L58.5 40Z" fill="#D9D9D9"/>
<path d="M673.5 40L655.746 10L691.254 10L673.5 40Z" fill="#D9D9D9"/>
<path d="M366 40L347.813 10L384.187 10L366 40Z" fill="#D9D9D9"/>
<path d="M980.5 40L963.613 10L997.387 10L980.5 40Z" fill="#D9D9D9"/>
<path d="M1445 40L1426.81 10L1463.19 10L1445 40Z" fill="#D9D9D9"/>
<path d="M212.5 40L194.746 10L230.254 10L212.5 40Z" fill="#D9D9D9"/>
<path d="M826.5 40L808.746 10L844.254 10L826.5 40Z" fill="#D9D9D9"/>
<path d="M1291.5 40L1273.75 10L1309.25 10L1291.5 40Z" fill="#D9D9D9"/>
<path d="M520 40L502.679 10L537.321 10L520 40Z" fill="#D9D9D9"/>
<path d="M1135 40L1116.81 10L1153.19 10L1135 40Z" fill="#D9D9D9"/>
<path d="M1598.5 40L1580.75 10L1616.25 10L1598.5 40Z" fill="#D9D9D9"/>
<path d="M135 40L117.679 10L152.321 10L135 40Z" fill="#D9D9D9"/>
<path d="M750 40L732.679 10L767.321 10L750 40Z" fill="#D9D9D9"/>
<path d="M1214.5 40L1196.75 10L1232.25 10L1214.5 40Z" fill="#D9D9D9"/>
<path d="M443.5 40L425.746 10L461.254 10L443.5 40Z" fill="#D9D9D9"/>
<path d="M1057.5 40L1039.75 10L1075.25 10L1057.5 40Z" fill="#D9D9D9"/>
<path d="M1522.5 40L1504.75 10L1540.25 10L1522.5 40Z" fill="#D9D9D9"/>
<path d="M289.5 40L271.746 10L307.254 10L289.5 40Z" fill="#D9D9D9"/>
<path d="M903.5 40L885.746 10L921.254 10L903.5 40Z" fill="#D9D9D9"/>
<path d="M1367.5 40L1349.75 10L1385.25 10L1367.5 40Z" fill="#D9D9D9"/>
<path d="M596.5 40L578.746 10L614.254 10L596.5 40Z" fill="#D9D9D9"/>
<path d="M1676 40L1658.68 10L1693.32 10L1676 40Z" fill="#D9D9D9"/>
<path d="M20 67L14.8038 57.25L25.1962 57.25L20 67Z" fill="#D9D9D9"/>
<path d="M635.5 67L629.871 57.25L641.129 57.25L635.5 67Z" fill="#D9D9D9"/>
<path d="M328.5 67L322.871 57.25L334.129 57.25L328.5 67Z" fill="#D9D9D9"/>
<path d="M943.5 67L937.005 57.25L949.995 57.25L943.5 67Z" fill="#D9D9D9"/>
<path d="M1407 67L1400.94 57.25L1413.06 57.25L1407 67Z" fill="#D9D9D9"/>
<path d="M174.5 67L168.005 57.25L180.995 57.25L174.5 67Z" fill="#D9D9D9"/>
<path d="M789.5 67L783.871 57.25L795.129 57.25L789.5 67Z" fill="#D9D9D9"/>
<path d="M1254 67L1247.94 57.25L1260.06 57.25L1254 67Z" fill="#D9D9D9"/>
<path d="M481.5 67L475.871 57.25L487.129 57.25L481.5 67Z" fill="#D9D9D9"/>
<path d="M1096.5 67L1090 57.25L1103 57.25L1096.5 67Z" fill="#D9D9D9"/>
<path d="M1561 67L1554.94 57.25L1567.06 57.25L1561 67Z" fill="#D9D9D9"/>
<path d="M98 67L91.9378 57.25L104.062 57.25L98 67Z" fill="#D9D9D9"/>
<path d="M712 67L706.804 57.25L717.196 57.25L712 67Z" fill="#D9D9D9"/>
<path d="M405 67L398.938 57.25L411.062 57.25L405 67Z" fill="#D9D9D9"/>
<path d="M1020 67L1013.94 57.25L1026.06 57.25L1020 67Z" fill="#D9D9D9"/>
<path d="M1484.5 67L1478 57.25L1491 57.25L1484.5 67Z" fill="#D9D9D9"/>
<path d="M251.5 67L245.871 57.25L257.129 57.25L251.5 67Z" fill="#D9D9D9"/>
<path d="M866.5 67L860.005 57.25L872.995 57.25L866.5 67Z" fill="#D9D9D9"/>
<path d="M1330.5 67L1324.87 57.25L1336.13 57.25L1330.5 67Z" fill="#D9D9D9"/>
<path d="M559 67L553.804 57.25L564.196 57.25L559 67Z" fill="#D9D9D9"/>
<path d="M1174 67L1167.94 57.25L1180.06 57.25L1174 67Z" fill="#D9D9D9"/>
<path d="M1637.5 67L1631 57.25L1644 57.25L1637.5 67Z" fill="#D9D9D9"/>
<path d="M1715.5 67L1709.87 57.25L1721.13 57.25L1715.5 67Z" fill="#D9D9D9"/>
<path d="M20.5 86L38.2535 116.75H2.74648L20.5 86Z" fill="#D9D9D9"/>
<path d="M635 86L652.321 116.75H617.679L635 86Z" fill="#D9D9D9"/>
<path d="M328 86L346.187 116.75H309.813L328 86Z" fill="#D9D9D9"/>
<path d="M943 86L961.187 116.75H924.813L943 86Z" fill="#D9D9D9"/>
<path d="M1407 86L1425.19 116.75H1388.81L1407 86Z" fill="#D9D9D9"/>
<path d="M174 86L192.187 116.75H155.813L174 86Z" fill="#D9D9D9"/>
<path d="M790 86L808.187 116.75H771.813L790 86Z" fill="#D9D9D9"/>
<path d="M1253 86L1270.32 116.75H1235.68L1253 86Z" fill="#D9D9D9"/>
<path d="M482 86L499.321 116.75H464.679L482 86Z" fill="#D9D9D9"/>
<path d="M1096 86L1114.19 116.75H1077.81L1096 86Z" fill="#D9D9D9"/>
<path d="M1561 86L1579.19 116.75H1542.81L1561 86Z" fill="#D9D9D9"/>
<path d="M98 86L116.187 116.75H79.8135L98 86Z" fill="#D9D9D9"/>
<path d="M712.5 86L730.254 116.75H694.746L712.5 86Z" fill="#D9D9D9"/>
<path d="M404 86L422.187 116.75H385.813L404 86Z" fill="#D9D9D9"/>
<path d="M1020 86L1038.19 116.75H1001.81L1020 86Z" fill="#D9D9D9"/>
<path d="M1484 86L1502.19 116.75H1465.81L1484 86Z" fill="#D9D9D9"/>
<path d="M251 86L269.187 116.75H232.813L251 86Z" fill="#D9D9D9"/>
<path d="M865.5 86L883.254 116.75H847.746L865.5 86Z" fill="#D9D9D9"/>
<path d="M1331 86L1349.19 116.75H1312.81L1331 86Z" fill="#D9D9D9"/>
<path d="M559 86L576.321 116.75H541.679L559 86Z" fill="#D9D9D9"/>
<path d="M1173 86L1191.19 116.75H1154.81L1173 86Z" fill="#D9D9D9"/>
<path d="M1637 86L1655.19 116.75H1618.81L1637 86Z" fill="#D9D9D9"/>
<path d="M1714.5 86L1732.25 116.75H1696.75L1714.5 86Z" fill="#D9D9D9"/>
<path d="M58.5 103L41.6125 73L75.3875 73L58.5 103Z" fill="#D9D9D9"/>
<path d="M673.5 103L655.746 73L691.254 73L673.5 103Z" fill="#D9D9D9"/>
<path d="M366 103L347.813 73L384.187 73L366 103Z" fill="#D9D9D9"/>
<path d="M980.5 103L963.613 73L997.387 73L980.5 103Z" fill="#D9D9D9"/>
<path d="M1445 103L1426.81 73L1463.19 73L1445 103Z" fill="#D9D9D9"/>
<path d="M212.5 103L194.746 73L230.254 73L212.5 103Z" fill="#D9D9D9"/>
<path d="M826.5 103L808.746 73L844.254 73L826.5 103Z" fill="#D9D9D9"/>
<path d="M1291.5 103L1273.75 73L1309.25 73L1291.5 103Z" fill="#D9D9D9"/>
<path d="M520 103L502.679 73L537.321 73L520 103Z" fill="#D9D9D9"/>
<path d="M1135 103L1116.81 73L1153.19 73L1135 103Z" fill="#D9D9D9"/>
<path d="M1598.5 103L1580.75 73L1616.25 73L1598.5 103Z" fill="#D9D9D9"/>
<path d="M135 103L117.679 73L152.321 73L135 103Z" fill="#D9D9D9"/>
<path d="M750 103L732.679 73L767.321 73L750 103Z" fill="#D9D9D9"/>
<path d="M1214.5 103L1196.75 73L1232.25 73L1214.5 103Z" fill="#D9D9D9"/>
<path d="M443.5 103L425.746 73L461.254 73L443.5 103Z" fill="#D9D9D9"/>
<path d="M1057.5 103L1039.75 73L1075.25 73L1057.5 103Z" fill="#D9D9D9"/>
<path d="M1522.5 103L1504.75 73L1540.25 73L1522.5 103Z" fill="#D9D9D9"/>
<path d="M289.5 103L271.746 73L307.254 73L289.5 103Z" fill="#D9D9D9"/>
<path d="M903.5 103L885.746 73L921.254 73L903.5 103Z" fill="#D9D9D9"/>
<path d="M1367.5 103L1349.75 73L1385.25 73L1367.5 103Z" fill="#D9D9D9"/>
<path d="M596.5 103L578.746 73L614.254 73L596.5 103Z" fill="#D9D9D9"/>
<path d="M1676 103L1658.68 73L1693.32 73L1676 103Z" fill="#D9D9D9"/>
<path d="M20 130L14.8038 120.25L25.1962 120.25L20 130Z" fill="#D9D9D9"/>
<path d="M635.5 130L629.871 120.25L641.129 120.25L635.5 130Z" fill="#D9D9D9"/>
<path d="M328.5 130L322.871 120.25L334.129 120.25L328.5 130Z" fill="#D9D9D9"/>
<path d="M943.5 130L937.005 120.25L949.995 120.25L943.5 130Z" fill="#D9D9D9"/>
<path d="M1407 130L1400.94 120.25L1413.06 120.25L1407 130Z" fill="#D9D9D9"/>
<path d="M174.5 130L168.005 120.25L180.995 120.25L174.5 130Z" fill="#D9D9D9"/>
<path d="M789.5 130L783.871 120.25L795.129 120.25L789.5 130Z" fill="#D9D9D9"/>
<path d="M1254 130L1247.94 120.25L1260.06 120.25L1254 130Z" fill="#D9D9D9"/>
<path d="M481.5 130L475.871 120.25L487.129 120.25L481.5 130Z" fill="#D9D9D9"/>
<path d="M1096.5 130L1090 120.25L1103 120.25L1096.5 130Z" fill="#D9D9D9"/>
<path d="M1561 130L1554.94 120.25L1567.06 120.25L1561 130Z" fill="#D9D9D9"/>
<path d="M98 130L91.9378 120.25L104.062 120.25L98 130Z" fill="#D9D9D9"/>
<path d="M712 130L706.804 120.25L717.196 120.25L712 130Z" fill="#D9D9D9"/>
<path d="M405 130L398.938 120.25L411.062 120.25L405 130Z" fill="#D9D9D9"/>
<path d="M1020 130L1013.94 120.25L1026.06 120.25L1020 130Z" fill="#D9D9D9"/>
<path d="M1484.5 130L1478 120.25L1491 120.25L1484.5 130Z" fill="#D9D9D9"/>
<path d="M251.5 130L245.871 120.25L257.129 120.25L251.5 130Z" fill="#D9D9D9"/>
<path d="M866.5 130L860.005 120.25L872.995 120.25L866.5 130Z" fill="#D9D9D9"/>
<path d="M1330.5 130L1324.87 120.25L1336.13 120.25L1330.5 130Z" fill="#D9D9D9"/>
<path d="M559 130L553.804 120.25L564.196 120.25L559 130Z" fill="#D9D9D9"/>
<path d="M1174 130L1167.94 120.25L1180.06 120.25L1174 130Z" fill="#D9D9D9"/>
<path d="M1637.5 130L1631 120.25L1644 120.25L1637.5 130Z" fill="#D9D9D9"/>
<path d="M1715.5 130L1709.87 120.25L1721.13 120.25L1715.5 130Z" fill="#D9D9D9"/>
<path d="M20.5 149L38.2535 179.75H2.74648L20.5 149Z" fill="#D9D9D9"/>
<path d="M635 149L652.321 179.75H617.679L635 149Z" fill="#D9D9D9"/>
<path d="M328 149L346.187 179.75H309.813L328 149Z" fill="#D9D9D9"/>
<path d="M943 149L961.187 179.75H924.813L943 149Z" fill="#D9D9D9"/>
<path d="M1407 149L1425.19 179.75H1388.81L1407 149Z" fill="#D9D9D9"/>
<path d="M174 149L192.187 179.75H155.813L174 149Z" fill="#D9D9D9"/>
<path d="M790 149L808.187 179.75H771.813L790 149Z" fill="#D9D9D9"/>
<path d="M1253 149L1270.32 179.75H1235.68L1253 149Z" fill="#D9D9D9"/>
<path d="M482 149L499.321 179.75H464.679L482 149Z" fill="#D9D9D9"/>
<path d="M1096 149L1114.19 179.75H1077.81L1096 149Z" fill="#D9D9D9"/>
<path d="M1561 149L1579.19 179.75H1542.81L1561 149Z" fill="#D9D9D9"/>
<path d="M98 149L116.187 179.75H79.8135L98 149Z" fill="#D9D9D9"/>
<path d="M712.5 149L730.254 179.75H694.746L712.5 149Z" fill="#D9D9D9"/>
<path d="M404 149L422.187 179.75H385.813L404 149Z" fill="#D9D9D9"/>
<path d="M1020 149L1038.19 179.75H1001.81L1020 149Z" fill="#D9D9D9"/>
<path d="M1484 149L1502.19 179.75H1465.81L1484 149Z" fill="#D9D9D9"/>
<path d="M251 149L269.187 179.75H232.813L251 149Z" fill="#D9D9D9"/>
<path d="M865.5 149L883.254 179.75H847.746L865.5 149Z" fill="#D9D9D9"/>
<path d="M1331 149L1349.19 179.75H1312.81L1331 149Z" fill="#D9D9D9"/>
<path d="M559 149L576.321 179.75H541.679L559 149Z" fill="#D9D9D9"/>
<path d="M1173 149L1191.19 179.75H1154.81L1173 149Z" fill="#D9D9D9"/>
<path d="M1637 149L1655.19 179.75H1618.81L1637 149Z" fill="#D9D9D9"/>
<path d="M1714.5 149L1732.25 179.75H1696.75L1714.5 149Z" fill="#D9D9D9"/>
<path d="M58.5 166L41.6125 136L75.3875 136L58.5 166Z" fill="#D9D9D9"/>
<path d="M673.5 166L655.746 136L691.254 136L673.5 166Z" fill="#D9D9D9"/>
<path d="M366 166L347.813 136L384.187 136L366 166Z" fill="#D9D9D9"/>
<path d="M980.5 166L963.613 136L997.387 136L980.5 166Z" fill="#D9D9D9"/>
<path d="M1445 166L1426.81 136L1463.19 136L1445 166Z" fill="#D9D9D9"/>
<path d="M212.5 166L194.746 136L230.254 136L212.5 166Z" fill="#D9D9D9"/>
<path d="M826.5 166L808.746 136L844.254 136L826.5 166Z" fill="#D9D9D9"/>
<path d="M1291.5 166L1273.75 136L1309.25 136L1291.5 166Z" fill="#D9D9D9"/>
<path d="M520 166L502.679 136L537.321 136L520 166Z" fill="#D9D9D9"/>
<path d="M1135 166L1116.81 136L1153.19 136L1135 166Z" fill="#D9D9D9"/>
<path d="M1598.5 166L1580.75 136L1616.25 136L1598.5 166Z" fill="#D9D9D9"/>
<path d="M135 166L117.679 136L152.321 136L135 166Z" fill="#D9D9D9"/>
<path d="M750 166L732.679 136L767.321 136L750 166Z" fill="#D9D9D9"/>
<path d="M1214.5 166L1196.75 136L1232.25 136L1214.5 166Z" fill="#D9D9D9"/>
<path d="M443.5 166L425.746 136L461.254 136L443.5 166Z" fill="#D9D9D9"/>
<path d="M1057.5 166L1039.75 136L1075.25 136L1057.5 166Z" fill="#D9D9D9"/>
<path d="M1522.5 166L1504.75 136L1540.25 136L1522.5 166Z" fill="#D9D9D9"/>
<path d="M289.5 166L271.746 136L307.254 136L289.5 166Z" fill="#D9D9D9"/>
<path d="M903.5 166L885.746 136L921.254 136L903.5 166Z" fill="#D9D9D9"/>
<path d="M1367.5 166L1349.75 136L1385.25 136L1367.5 166Z" fill="#D9D9D9"/>
<path d="M596.5 166L578.746 136L614.254 136L596.5 166Z" fill="#D9D9D9"/>
<path d="M1676 166L1658.68 136L1693.32 136L1676 166Z" fill="#D9D9D9"/>
<path d="M20 193L14.8038 183.25L25.1962 183.25L20 193Z" fill="#D9D9D9"/>
<path d="M635.5 193L629.871 183.25L641.129 183.25L635.5 193Z" fill="#D9D9D9"/>
<path d="M328.5 193L322.871 183.25L334.129 183.25L328.5 193Z" fill="#D9D9D9"/>
<path d="M943.5 193L937.005 183.25L949.995 183.25L943.5 193Z" fill="#D9D9D9"/>
<path d="M1407 193L1400.94 183.25L1413.06 183.25L1407 193Z" fill="#D9D9D9"/>
<path d="M174.5 193L168.005 183.25L180.995 183.25L174.5 193Z" fill="#D9D9D9"/>
<path d="M789.5 193L783.871 183.25L795.129 183.25L789.5 193Z" fill="#D9D9D9"/>
<path d="M1254 193L1247.94 183.25L1260.06 183.25L1254 193Z" fill="#D9D9D9"/>
<path d="M481.5 193L475.871 183.25L487.129 183.25L481.5 193Z" fill="#D9D9D9"/>
<path d="M1096.5 193L1090 183.25L1103 183.25L1096.5 193Z" fill="#D9D9D9"/>
<path d="M1561 193L1554.94 183.25L1567.06 183.25L1561 193Z" fill="#D9D9D9"/>
<path d="M98 193L91.9378 183.25L104.062 183.25L98 193Z" fill="#D9D9D9"/>
<path d="M712 193L706.804 183.25L717.196 183.25L712 193Z" fill="#D9D9D9"/>
<path d="M405 193L398.938 183.25L411.062 183.25L405 193Z" fill="#D9D9D9"/>
<path d="M1020 193L1013.94 183.25L1026.06 183.25L1020 193Z" fill="#D9D9D9"/>
<path d="M1484.5 193L1478 183.25L1491 183.25L1484.5 193Z" fill="#D9D9D9"/>
<path d="M251.5 193L245.871 183.25L257.129 183.25L251.5 193Z" fill="#D9D9D9"/>
<path d="M866.5 193L860.005 183.25L872.995 183.25L866.5 193Z" fill="#D9D9D9"/>
<path d="M1330.5 193L1324.87 183.25L1336.13 183.25L1330.5 193Z" fill="#D9D9D9"/>
<path d="M559 193L553.804 183.25L564.196 183.25L559 193Z" fill="#D9D9D9"/>
<path d="M1174 193L1167.94 183.25L1180.06 183.25L1174 193Z" fill="#D9D9D9"/>
<path d="M1637.5 193L1631 183.25L1644 183.25L1637.5 193Z" fill="#D9D9D9"/>
<path d="M1715.5 193L1709.87 183.25L1721.13 183.25L1715.5 193Z" fill="#D9D9D9"/>
<path d="M20.5 212L38.2535 242.75H2.74648L20.5 212Z" fill="#D9D9D9"/>
<path d="M635 212L652.321 242.75H617.679L635 212Z" fill="#D9D9D9"/>
<path d="M328 212L346.187 242.75H309.813L328 212Z" fill="#D9D9D9"/>
<path d="M943 212L961.187 242.75H924.813L943 212Z" fill="#D9D9D9"/>
<path d="M1407 212L1425.19 242.75H1388.81L1407 212Z" fill="#D9D9D9"/>
<path d="M174 212L192.187 242.75H155.813L174 212Z" fill="#D9D9D9"/>
<path d="M790 212L808.187 242.75H771.813L790 212Z" fill="#D9D9D9"/>
<path d="M1253 212L1270.32 242.75H1235.68L1253 212Z" fill="#D9D9D9"/>
<path d="M482 212L499.321 242.75H464.679L482 212Z" fill="#D9D9D9"/>
<path d="M1096 212L1114.19 242.75H1077.81L1096 212Z" fill="#D9D9D9"/>
<path d="M1561 212L1579.19 242.75H1542.81L1561 212Z" fill="#D9D9D9"/>
<path d="M98 212L116.187 242.75H79.8135L98 212Z" fill="#D9D9D9"/>
<path d="M712.5 212L730.254 242.75H694.746L712.5 212Z" fill="#D9D9D9"/>
<path d="M404 212L422.187 242.75H385.813L404 212Z" fill="#D9D9D9"/>
<path d="M1020 212L1038.19 242.75H1001.81L1020 212Z" fill="#D9D9D9"/>
<path d="M1484 212L1502.19 242.75H1465.81L1484 212Z" fill="#D9D9D9"/>
<path d="M251 212L269.187 242.75H232.813L251 212Z" fill="#D9D9D9"/>
<path d="M865.5 212L883.254 242.75H847.746L865.5 212Z" fill="#D9D9D9"/>
<path d="M1331 212L1349.19 242.75H1312.81L1331 212Z" fill="#D9D9D9"/>
<path d="M559 212L576.321 242.75H541.679L559 212Z" fill="#D9D9D9"/>
<path d="M1173 212L1191.19 242.75H1154.81L1173 212Z" fill="#D9D9D9"/>
<path d="M1637 212L1655.19 242.75H1618.81L1637 212Z" fill="#D9D9D9"/>
<path d="M1714.5 212L1732.25 242.75H1696.75L1714.5 212Z" fill="#D9D9D9"/>
<path d="M58.5 229L41.6125 199L75.3875 199L58.5 229Z" fill="#D9D9D9"/>
<path d="M673.5 229L655.746 199L691.254 199L673.5 229Z" fill="#D9D9D9"/>
<path d="M366 229L347.813 199L384.187 199L366 229Z" fill="#D9D9D9"/>
<path d="M980.5 229L963.613 199L997.387 199L980.5 229Z" fill="#D9D9D9"/>
<path d="M1445 229L1426.81 199L1463.19 199L1445 229Z" fill="#D9D9D9"/>
<path d="M212.5 229L194.746 199L230.254 199L212.5 229Z" fill="#D9D9D9"/>
<path d="M826.5 229L808.746 199L844.254 199L826.5 229Z" fill="#D9D9D9"/>
<path d="M1291.5 229L1273.75 199L1309.25 199L1291.5 229Z" fill="#D9D9D9"/>
<path d="M520 229L502.679 199L537.321 199L520 229Z" fill="#D9D9D9"/>
<path d="M1135 229L1116.81 199L1153.19 199L1135 229Z" fill="#D9D9D9"/>
<path d="M1598.5 229L1580.75 199L1616.25 199L1598.5 229Z" fill="#D9D9D9"/>
<path d="M135 229L117.679 199L152.321 199L135 229Z" fill="#D9D9D9"/>
<path d="M750 229L732.679 199L767.321 199L750 229Z" fill="#D9D9D9"/>
<path d="M1214.5 229L1196.75 199L1232.25 199L1214.5 229Z" fill="#D9D9D9"/>
<path d="M443.5 229L425.746 199L461.254 199L443.5 229Z" fill="#D9D9D9"/>
<path d="M1057.5 229L1039.75 199L1075.25 199L1057.5 229Z" fill="#D9D9D9"/>
<path d="M1522.5 229L1504.75 199L1540.25 199L1522.5 229Z" fill="#D9D9D9"/>
<path d="M289.5 229L271.746 199L307.254 199L289.5 229Z" fill="#D9D9D9"/>
<path d="M903.5 229L885.746 199L921.254 199L903.5 229Z" fill="#D9D9D9"/>
<path d="M1367.5 229L1349.75 199L1385.25 199L1367.5 229Z" fill="#D9D9D9"/>
<path d="M596.5 229L578.746 199L614.254 199L596.5 229Z" fill="#D9D9D9"/>
<path d="M1676 229L1658.68 199L1693.32 199L1676 229Z" fill="#D9D9D9"/>
<path d="M20 256L14.8038 246.25L25.1962 246.25L20 256Z" fill="#D9D9D9"/>
<path d="M635.5 256L629.871 246.25L641.129 246.25L635.5 256Z" fill="#D9D9D9"/>
<path d="M328.5 256L322.871 246.25L334.129 246.25L328.5 256Z" fill="#D9D9D9"/>
<path d="M943.5 256L937.005 246.25L949.995 246.25L943.5 256Z" fill="#D9D9D9"/>
<path d="M1407 256L1400.94 246.25L1413.06 246.25L1407 256Z" fill="#D9D9D9"/>
<path d="M174.5 256L168.005 246.25L180.995 246.25L174.5 256Z" fill="#D9D9D9"/>
<path d="M789.5 256L783.871 246.25L795.129 246.25L789.5 256Z" fill="#D9D9D9"/>
<path d="M1254 256L1247.94 246.25L1260.06 246.25L1254 256Z" fill="#D9D9D9"/>
<path d="M481.5 256L475.871 246.25L487.129 246.25L481.5 256Z" fill="#D9D9D9"/>
<path d="M1096.5 256L1090 246.25L1103 246.25L1096.5 256Z" fill="#D9D9D9"/>
<path d="M1561 256L1554.94 246.25L1567.06 246.25L1561 256Z" fill="#D9D9D9"/>
<path d="M98 256L91.9378 246.25L104.062 246.25L98 256Z" fill="#D9D9D9"/>
<path d="M712 256L706.804 246.25L717.196 246.25L712 256Z" fill="#D9D9D9"/>
<path d="M405 256L398.938 246.25L411.062 246.25L405 256Z" fill="#D9D9D9"/>
<path d="M1020 256L1013.94 246.25L1026.06 246.25L1020 256Z" fill="#D9D9D9"/>
<path d="M1484.5 256L1478 246.25L1491 246.25L1484.5 256Z" fill="#D9D9D9"/>
<path d="M251.5 256L245.871 246.25L257.129 246.25L251.5 256Z" fill="#D9D9D9"/>
<path d="M866.5 256L860.005 246.25L872.995 246.25L866.5 256Z" fill="#D9D9D9"/>
<path d="M1330.5 256L1324.87 246.25L1336.13 246.25L1330.5 256Z" fill="#D9D9D9"/>
<path d="M559 256L553.804 246.25L564.196 246.25L559 256Z" fill="#D9D9D9"/>
<path d="M1174 256L1167.94 246.25L1180.06 246.25L1174 256Z" fill="#D9D9D9"/>
<path d="M1637.5 256L1631 246.25L1644 246.25L1637.5 256Z" fill="#D9D9D9"/>
<path d="M1715.5 256L1709.87 246.25L1721.13 246.25L1715.5 256Z" fill="#D9D9D9"/>
</g>
<g opacity="0.12">
<path d="M1755.5 25L1773.25 55.75H1737.75L1755.5 25Z" fill="#D9D9D9"/>
<path d="M2370 25L2387.32 55.75H2352.68L2370 25Z" fill="#D9D9D9"/>
<path d="M2063 25L2081.19 55.75H2044.81L2063 25Z" fill="#D9D9D9"/>
<path d="M2678 25L2696.19 55.75H2659.81L2678 25Z" fill="#D9D9D9"/>
<path d="M3142 25L3160.19 55.75H3123.81L3142 25Z" fill="#D9D9D9"/>
<path d="M1909 25L1927.19 55.75H1890.81L1909 25Z" fill="#D9D9D9"/>
<path d="M2525 25L2543.19 55.75H2506.81L2525 25Z" fill="#D9D9D9"/>
<path d="M2988 25L3005.32 55.75H2970.68L2988 25Z" fill="#D9D9D9"/>
<path d="M2217 25L2234.32 55.75H2199.68L2217 25Z" fill="#D9D9D9"/>
<path d="M2831 25L2849.19 55.75H2812.81L2831 25Z" fill="#D9D9D9"/>
<path d="M3296 25L3314.19 55.75H3277.81L3296 25Z" fill="#D9D9D9"/>
<path d="M1833 25L1851.19 55.75H1814.81L1833 25Z" fill="#D9D9D9"/>
<path d="M2447.5 25L2465.25 55.75H2429.75L2447.5 25Z" fill="#D9D9D9"/>
<path d="M2139 25L2157.19 55.75H2120.81L2139 25Z" fill="#D9D9D9"/>
<path d="M2755 25L2773.19 55.75H2736.81L2755 25Z" fill="#D9D9D9"/>
<path d="M3219 25L3237.19 55.75H3200.81L3219 25Z" fill="#D9D9D9"/>
<path d="M1986 25L2004.19 55.75H1967.81L1986 25Z" fill="#D9D9D9"/>
<path d="M2600.5 25L2618.25 55.75H2582.75L2600.5 25Z" fill="#D9D9D9"/>
<path d="M3066 25L3084.19 55.75H3047.81L3066 25Z" fill="#D9D9D9"/>
<path d="M2294 25L2311.32 55.75H2276.68L2294 25Z" fill="#D9D9D9"/>
<path d="M2908 25L2926.19 55.75H2889.81L2908 25Z" fill="#D9D9D9"/>
<path d="M3372 25L3390.19 55.75H3353.81L3372 25Z" fill="#D9D9D9"/>
<path d="M3449.5 25L3467.25 55.75H3431.75L3449.5 25Z" fill="#D9D9D9"/>
<path d="M1793.5 42L1776.61 12L1810.39 12L1793.5 42Z" fill="#D9D9D9"/>
<path d="M2408.5 42L2390.75 12L2426.25 12L2408.5 42Z" fill="#D9D9D9"/>
<path d="M2101 42L2082.81 12L2119.19 12L2101 42Z" fill="#D9D9D9"/>
<path d="M2715.5 42L2698.61 12L2732.39 12L2715.5 42Z" fill="#D9D9D9"/>
<path d="M3180 42L3161.81 12L3198.19 12L3180 42Z" fill="#D9D9D9"/>
<path d="M1947.5 42L1929.75 12L1965.25 12L1947.5 42Z" fill="#D9D9D9"/>
<path d="M2561.5 42L2543.75 12L2579.25 12L2561.5 42Z" fill="#D9D9D9"/>
<path d="M3026.5 42L3008.75 12L3044.25 12L3026.5 42Z" fill="#D9D9D9"/>
<path d="M2255 42L2237.68 12L2272.32 12L2255 42Z" fill="#D9D9D9"/>
<path d="M2870 42L2851.81 12L2888.19 12L2870 42Z" fill="#D9D9D9"/>
<path d="M3333.5 42L3315.75 12L3351.25 12L3333.5 42Z" fill="#D9D9D9"/>
<path d="M1870 42L1852.68 12L1887.32 12L1870 42Z" fill="#D9D9D9"/>
<path d="M2485 42L2467.68 12L2502.32 12L2485 42Z" fill="#D9D9D9"/>
<path d="M2949.5 42L2931.75 12L2967.25 12L2949.5 42Z" fill="#D9D9D9"/>
<path d="M2178.5 42L2160.75 12L2196.25 12L2178.5 42Z" fill="#D9D9D9"/>
<path d="M2792.5 42L2774.75 12L2810.25 12L2792.5 42Z" fill="#D9D9D9"/>
<path d="M3257.5 42L3239.75 12L3275.25 12L3257.5 42Z" fill="#D9D9D9"/>
<path d="M2024.5 42L2006.75 12L2042.25 12L2024.5 42Z" fill="#D9D9D9"/>
<path d="M2638.5 42L2620.75 12L2656.25 12L2638.5 42Z" fill="#D9D9D9"/>
<path d="M3102.5 42L3084.75 12L3120.25 12L3102.5 42Z" fill="#D9D9D9"/>
<path d="M2331.5 42L2313.75 12L2349.25 12L2331.5 42Z" fill="#D9D9D9"/>
<path d="M3411 42L3393.68 12L3428.32 12L3411 42Z" fill="#D9D9D9"/>
<path d="M1755 69L1749.8 59.25L1760.2 59.25L1755 69Z" fill="#D9D9D9"/>
<path d="M2370.5 69L2364.87 59.25L2376.13 59.25L2370.5 69Z" fill="#D9D9D9"/>
<path d="M2063.5 69L2057.87 59.25L2069.13 59.25L2063.5 69Z" fill="#D9D9D9"/>
<path d="M2678.5 69L2672 59.25L2685 59.25L2678.5 69Z" fill="#D9D9D9"/>
<path d="M3142 69L3135.94 59.25L3148.06 59.25L3142 69Z" fill="#D9D9D9"/>
<path d="M1909.5 69L1903 59.25L1916 59.25L1909.5 69Z" fill="#D9D9D9"/>
<path d="M2524.5 69L2518.87 59.25L2530.13 59.25L2524.5 69Z" fill="#D9D9D9"/>
<path d="M2989 69L2982.94 59.25L2995.06 59.25L2989 69Z" fill="#D9D9D9"/>
<path d="M2216.5 69L2210.87 59.25L2222.13 59.25L2216.5 69Z" fill="#D9D9D9"/>
<path d="M2831.5 69L2825 59.25L2838 59.25L2831.5 69Z" fill="#D9D9D9"/>
<path d="M3296 69L3289.94 59.25L3302.06 59.25L3296 69Z" fill="#D9D9D9"/>
<path d="M1833 69L1826.94 59.25L1839.06 59.25L1833 69Z" fill="#D9D9D9"/>
<path d="M2447 69L2441.8 59.25L2452.2 59.25L2447 69Z" fill="#D9D9D9"/>
<path d="M2140 69L2133.94 59.25L2146.06 59.25L2140 69Z" fill="#D9D9D9"/>
<path d="M2755 69L2748.94 59.25L2761.06 59.25L2755 69Z" fill="#D9D9D9"/>
<path d="M3219.5 69L3213 59.25L3226 59.25L3219.5 69Z" fill="#D9D9D9"/>
<path d="M1986.5 69L1980.87 59.25L1992.13 59.25L1986.5 69Z" fill="#D9D9D9"/>
<path d="M2601.5 69L2595 59.25L2608 59.25L2601.5 69Z" fill="#D9D9D9"/>
<path d="M3065.5 69L3059.87 59.25L3071.13 59.25L3065.5 69Z" fill="#D9D9D9"/>
<path d="M2294 69L2288.8 59.25L2299.2 59.25L2294 69Z" fill="#D9D9D9"/>
<path d="M2909 69L2902.94 59.25L2915.06 59.25L2909 69Z" fill="#D9D9D9"/>
<path d="M3372.5 69L3366 59.25L3379 59.25L3372.5 69Z" fill="#D9D9D9"/>
<path d="M3450.5 69L3444.87 59.25L3456.13 59.25L3450.5 69Z" fill="#D9D9D9"/>
<path d="M1734.5 40L1717.61 10L1751.39 10L1734.5 40Z" fill="#D9D9D9"/>
<path d="M1755.5 88L1773.25 118.75H1737.75L1755.5 88Z" fill="#D9D9D9"/>
<path d="M2370 88L2387.32 118.75H2352.68L2370 88Z" fill="#D9D9D9"/>
<path d="M2063 88L2081.19 118.75H2044.81L2063 88Z" fill="#D9D9D9"/>
<path d="M2678 88L2696.19 118.75H2659.81L2678 88Z" fill="#D9D9D9"/>
<path d="M3142 88L3160.19 118.75H3123.81L3142 88Z" fill="#D9D9D9"/>
<path d="M1909 88L1927.19 118.75H1890.81L1909 88Z" fill="#D9D9D9"/>
<path d="M2525 88L2543.19 118.75H2506.81L2525 88Z" fill="#D9D9D9"/>
<path d="M2988 88L3005.32 118.75H2970.68L2988 88Z" fill="#D9D9D9"/>
<path d="M2217 88L2234.32 118.75H2199.68L2217 88Z" fill="#D9D9D9"/>
<path d="M2831 88L2849.19 118.75H2812.81L2831 88Z" fill="#D9D9D9"/>
<path d="M3296 88L3314.19 118.75H3277.81L3296 88Z" fill="#D9D9D9"/>
<path d="M1833 88L1851.19 118.75H1814.81L1833 88Z" fill="#D9D9D9"/>
<path d="M2447.5 88L2465.25 118.75H2429.75L2447.5 88Z" fill="#D9D9D9"/>
<path d="M2139 88L2157.19 118.75H2120.81L2139 88Z" fill="#D9D9D9"/>
<path d="M2755 88L2773.19 118.75H2736.81L2755 88Z" fill="#D9D9D9"/>
<path d="M3219 88L3237.19 118.75H3200.81L3219 88Z" fill="#D9D9D9"/>
<path d="M1986 88L2004.19 118.75H1967.81L1986 88Z" fill="#D9D9D9"/>
<path d="M2600.5 88L2618.25 118.75H2582.75L2600.5 88Z" fill="#D9D9D9"/>
<path d="M3066 88L3084.19 118.75H3047.81L3066 88Z" fill="#D9D9D9"/>
<path d="M2294 88L2311.32 118.75H2276.68L2294 88Z" fill="#D9D9D9"/>
<path d="M2908 88L2926.19 118.75H2889.81L2908 88Z" fill="#D9D9D9"/>
<path d="M3372 88L3390.19 118.75H3353.81L3372 88Z" fill="#D9D9D9"/>
<path d="M3449.5 88L3467.25 118.75H3431.75L3449.5 88Z" fill="#D9D9D9"/>
<path d="M1793.5 105L1776.61 75L1810.39 75L1793.5 105Z" fill="#D9D9D9"/>
<path d="M2408.5 105L2390.75 75L2426.25 75L2408.5 105Z" fill="#D9D9D9"/>
<path d="M2101 105L2082.81 75L2119.19 75L2101 105Z" fill="#D9D9D9"/>
<path d="M2715.5 105L2698.61 75L2732.39 75L2715.5 105Z" fill="#D9D9D9"/>
<path d="M3180 105L3161.81 75L3198.19 75L3180 105Z" fill="#D9D9D9"/>
<path d="M1947.5 105L1929.75 75L1965.25 75L1947.5 105Z" fill="#D9D9D9"/>
<path d="M2561.5 105L2543.75 75L2579.25 75L2561.5 105Z" fill="#D9D9D9"/>
<path d="M3026.5 105L3008.75 75L3044.25 75L3026.5 105Z" fill="#D9D9D9"/>
<path d="M2255 105L2237.68 75L2272.32 75L2255 105Z" fill="#D9D9D9"/>
<path d="M2870 105L2851.81 75L2888.19 75L2870 105Z" fill="#D9D9D9"/>
<path d="M3333.5 105L3315.75 75L3351.25 75L3333.5 105Z" fill="#D9D9D9"/>
<path d="M1870 105L1852.68 75L1887.32 75L1870 105Z" fill="#D9D9D9"/>
<path d="M2485 105L2467.68 75L2502.32 75L2485 105Z" fill="#D9D9D9"/>
<path d="M2949.5 105L2931.75 75L2967.25 75L2949.5 105Z" fill="#D9D9D9"/>
<path d="M2178.5 105L2160.75 75L2196.25 75L2178.5 105Z" fill="#D9D9D9"/>
<path d="M2792.5 105L2774.75 75L2810.25 75L2792.5 105Z" fill="#D9D9D9"/>
<path d="M3257.5 105L3239.75 75L3275.25 75L3257.5 105Z" fill="#D9D9D9"/>
<path d="M2024.5 105L2006.75 75L2042.25 75L2024.5 105Z" fill="#D9D9D9"/>
<path d="M2638.5 105L2620.75 75L2656.25 75L2638.5 105Z" fill="#D9D9D9"/>
<path d="M3102.5 105L3084.75 75L3120.25 75L3102.5 105Z" fill="#D9D9D9"/>
<path d="M2331.5 105L2313.75 75L2349.25 75L2331.5 105Z" fill="#D9D9D9"/>
<path d="M3411 105L3393.68 75L3428.32 75L3411 105Z" fill="#D9D9D9"/>
<path d="M1755 132L1749.8 122.25L1760.2 122.25L1755 132Z" fill="#D9D9D9"/>
<path d="M2370.5 132L2364.87 122.25L2376.13 122.25L2370.5 132Z" fill="#D9D9D9"/>
<path d="M2063.5 132L2057.87 122.25L2069.13 122.25L2063.5 132Z" fill="#D9D9D9"/>
<path d="M2678.5 132L2672 122.25L2685 122.25L2678.5 132Z" fill="#D9D9D9"/>
<path d="M3142 132L3135.94 122.25L3148.06 122.25L3142 132Z" fill="#D9D9D9"/>
<path d="M1909.5 132L1903 122.25L1916 122.25L1909.5 132Z" fill="#D9D9D9"/>
<path d="M2524.5 132L2518.87 122.25L2530.13 122.25L2524.5 132Z" fill="#D9D9D9"/>
<path d="M2989 132L2982.94 122.25L2995.06 122.25L2989 132Z" fill="#D9D9D9"/>
<path d="M2216.5 132L2210.87 122.25L2222.13 122.25L2216.5 132Z" fill="#D9D9D9"/>
<path d="M2831.5 132L2825 122.25L2838 122.25L2831.5 132Z" fill="#D9D9D9"/>
<path d="M3296 132L3289.94 122.25L3302.06 122.25L3296 132Z" fill="#D9D9D9"/>
<path d="M1833 132L1826.94 122.25L1839.06 122.25L1833 132Z" fill="#D9D9D9"/>
<path d="M2447 132L2441.8 122.25L2452.2 122.25L2447 132Z" fill="#D9D9D9"/>
<path d="M2140 132L2133.94 122.25L2146.06 122.25L2140 132Z" fill="#D9D9D9"/>
<path d="M2755 132L2748.94 122.25L2761.06 122.25L2755 132Z" fill="#D9D9D9"/>
<path d="M3219.5 132L3213 122.25L3226 122.25L3219.5 132Z" fill="#D9D9D9"/>
<path d="M1986.5 132L1980.87 122.25L1992.13 122.25L1986.5 132Z" fill="#D9D9D9"/>
<path d="M2601.5 132L2595 122.25L2608 122.25L2601.5 132Z" fill="#D9D9D9"/>
<path d="M3065.5 132L3059.87 122.25L3071.13 122.25L3065.5 132Z" fill="#D9D9D9"/>
<path d="M2294 132L2288.8 122.25L2299.2 122.25L2294 132Z" fill="#D9D9D9"/>
<path d="M2909 132L2902.94 122.25L2915.06 122.25L2909 132Z" fill="#D9D9D9"/>
<path d="M3372.5 132L3366 122.25L3379 122.25L3372.5 132Z" fill="#D9D9D9"/>
<path d="M3450.5 132L3444.87 122.25L3456.13 122.25L3450.5 132Z" fill="#D9D9D9"/>
<path d="M1755.5 151L1773.25 181.75H1737.75L1755.5 151Z" fill="#D9D9D9"/>
<path d="M2370 151L2387.32 181.75H2352.68L2370 151Z" fill="#D9D9D9"/>
<path d="M2063 151L2081.19 181.75H2044.81L2063 151Z" fill="#D9D9D9"/>
<path d="M2678 151L2696.19 181.75H2659.81L2678 151Z" fill="#D9D9D9"/>
<path d="M3142 151L3160.19 181.75H3123.81L3142 151Z" fill="#D9D9D9"/>
<path d="M1909 151L1927.19 181.75H1890.81L1909 151Z" fill="#D9D9D9"/>
<path d="M2525 151L2543.19 181.75H2506.81L2525 151Z" fill="#D9D9D9"/>
<path d="M2988 151L3005.32 181.75H2970.68L2988 151Z" fill="#D9D9D9"/>
<path d="M2217 151L2234.32 181.75H2199.68L2217 151Z" fill="#D9D9D9"/>
<path d="M2831 151L2849.19 181.75H2812.81L2831 151Z" fill="#D9D9D9"/>
<path d="M3296 151L3314.19 181.75H3277.81L3296 151Z" fill="#D9D9D9"/>
<path d="M1833 151L1851.19 181.75H1814.81L1833 151Z" fill="#D9D9D9"/>
<path d="M2447.5 151L2465.25 181.75H2429.75L2447.5 151Z" fill="#D9D9D9"/>
<path d="M2139 151L2157.19 181.75H2120.81L2139 151Z" fill="#D9D9D9"/>
<path d="M2755 151L2773.19 181.75H2736.81L2755 151Z" fill="#D9D9D9"/>
<path d="M3219 151L3237.19 181.75H3200.81L3219 151Z" fill="#D9D9D9"/>
<path d="M1986 151L2004.19 181.75H1967.81L1986 151Z" fill="#D9D9D9"/>
<path d="M2600.5 151L2618.25 181.75H2582.75L2600.5 151Z" fill="#D9D9D9"/>
<path d="M3066 151L3084.19 181.75H3047.81L3066 151Z" fill="#D9D9D9"/>
<path d="M2294 151L2311.32 181.75H2276.68L2294 151Z" fill="#D9D9D9"/>
<path d="M2908 151L2926.19 181.75H2889.81L2908 151Z" fill="#D9D9D9"/>
<path d="M3372 151L3390.19 181.75H3353.81L3372 151Z" fill="#D9D9D9"/>
<path d="M3449.5 151L3467.25 181.75H3431.75L3449.5 151Z" fill="#D9D9D9"/>
<path d="M1793.5 168L1776.61 138L1810.39 138L1793.5 168Z" fill="#D9D9D9"/>
<path d="M2408.5 168L2390.75 138L2426.25 138L2408.5 168Z" fill="#D9D9D9"/>
<path d="M2101 168L2082.81 138L2119.19 138L2101 168Z" fill="#D9D9D9"/>
<path d="M2715.5 168L2698.61 138L2732.39 138L2715.5 168Z" fill="#D9D9D9"/>
<path d="M3180 168L3161.81 138L3198.19 138L3180 168Z" fill="#D9D9D9"/>
<path d="M1947.5 168L1929.75 138L1965.25 138L1947.5 168Z" fill="#D9D9D9"/>
<path d="M2561.5 168L2543.75 138L2579.25 138L2561.5 168Z" fill="#D9D9D9"/>
<path d="M3026.5 168L3008.75 138L3044.25 138L3026.5 168Z" fill="#D9D9D9"/>
<path d="M2255 168L2237.68 138L2272.32 138L2255 168Z" fill="#D9D9D9"/>
<path d="M2870 168L2851.81 138L2888.19 138L2870 168Z" fill="#D9D9D9"/>
<path d="M3333.5 168L3315.75 138L3351.25 138L3333.5 168Z" fill="#D9D9D9"/>
<path d="M1870 168L1852.68 138L1887.32 138L1870 168Z" fill="#D9D9D9"/>
<path d="M2485 168L2467.68 138L2502.32 138L2485 168Z" fill="#D9D9D9"/>
<path d="M2949.5 168L2931.75 138L2967.25 138L2949.5 168Z" fill="#D9D9D9"/>
<path d="M2178.5 168L2160.75 138L2196.25 138L2178.5 168Z" fill="#D9D9D9"/>
<path d="M2792.5 168L2774.75 138L2810.25 138L2792.5 168Z" fill="#D9D9D9"/>
<path d="M3257.5 168L3239.75 138L3275.25 138L3257.5 168Z" fill="#D9D9D9"/>
<path d="M2024.5 168L2006.75 138L2042.25 138L2024.5 168Z" fill="#D9D9D9"/>
<path d="M2638.5 168L2620.75 138L2656.25 138L2638.5 168Z" fill="#D9D9D9"/>
<path d="M3102.5 168L3084.75 138L3120.25 138L3102.5 168Z" fill="#D9D9D9"/>
<path d="M2331.5 168L2313.75 138L2349.25 138L2331.5 168Z" fill="#D9D9D9"/>
<path d="M3411 168L3393.68 138L3428.32 138L3411 168Z" fill="#D9D9D9"/>
<path d="M1755 195L1749.8 185.25L1760.2 185.25L1755 195Z" fill="#D9D9D9"/>
<path d="M2370.5 195L2364.87 185.25L2376.13 185.25L2370.5 195Z" fill="#D9D9D9"/>
<path d="M2063.5 195L2057.87 185.25L2069.13 185.25L2063.5 195Z" fill="#D9D9D9"/>
<path d="M2678.5 195L2672 185.25L2685 185.25L2678.5 195Z" fill="#D9D9D9"/>
<path d="M3142 195L3135.94 185.25L3148.06 185.25L3142 195Z" fill="#D9D9D9"/>
<path d="M1909.5 195L1903 185.25L1916 185.25L1909.5 195Z" fill="#D9D9D9"/>
<path d="M2524.5 195L2518.87 185.25L2530.13 185.25L2524.5 195Z" fill="#D9D9D9"/>
<path d="M2989 195L2982.94 185.25L2995.06 185.25L2989 195Z" fill="#D9D9D9"/>
<path d="M2216.5 195L2210.87 185.25L2222.13 185.25L2216.5 195Z" fill="#D9D9D9"/>
<path d="M2831.5 195L2825 185.25L2838 185.25L2831.5 195Z" fill="#D9D9D9"/>
<path d="M3296 195L3289.94 185.25L3302.06 185.25L3296 195Z" fill="#D9D9D9"/>
<path d="M1833 195L1826.94 185.25L1839.06 185.25L1833 195Z" fill="#D9D9D9"/>
<path d="M2447 195L2441.8 185.25L2452.2 185.25L2447 195Z" fill="#D9D9D9"/>
<path d="M2140 195L2133.94 185.25L2146.06 185.25L2140 195Z" fill="#D9D9D9"/>
<path d="M2755 195L2748.94 185.25L2761.06 185.25L2755 195Z" fill="#D9D9D9"/>
<path d="M3219.5 195L3213 185.25L3226 185.25L3219.5 195Z" fill="#D9D9D9"/>
<path d="M1986.5 195L1980.87 185.25L1992.13 185.25L1986.5 195Z" fill="#D9D9D9"/>
<path d="M2601.5 195L2595 185.25L2608 185.25L2601.5 195Z" fill="#D9D9D9"/>
<path d="M3065.5 195L3059.87 185.25L3071.13 185.25L3065.5 195Z" fill="#D9D9D9"/>
<path d="M2294 195L2288.8 185.25L2299.2 185.25L2294 195Z" fill="#D9D9D9"/>
<path d="M2909 195L2902.94 185.25L2915.06 185.25L2909 195Z" fill="#D9D9D9"/>
<path d="M3372.5 195L3366 185.25L3379 185.25L3372.5 195Z" fill="#D9D9D9"/>
<path d="M3450.5 195L3444.87 185.25L3456.13 185.25L3450.5 195Z" fill="#D9D9D9"/>
<path d="M1755.5 214L1773.25 244.75H1737.75L1755.5 214Z" fill="#D9D9D9"/>
<path d="M2370 214L2387.32 244.75H2352.68L2370 214Z" fill="#D9D9D9"/>
<path d="M2063 214L2081.19 244.75H2044.81L2063 214Z" fill="#D9D9D9"/>
<path d="M2678 214L2696.19 244.75H2659.81L2678 214Z" fill="#D9D9D9"/>
<path d="M3142 214L3160.19 244.75H3123.81L3142 214Z" fill="#D9D9D9"/>
<path d="M1909 214L1927.19 244.75H1890.81L1909 214Z" fill="#D9D9D9"/>
<path d="M2525 214L2543.19 244.75H2506.81L2525 214Z" fill="#D9D9D9"/>
<path d="M2988 214L3005.32 244.75H2970.68L2988 214Z" fill="#D9D9D9"/>
<path d="M2217 214L2234.32 244.75H2199.68L2217 214Z" fill="#D9D9D9"/>
<path d="M2831 214L2849.19 244.75H2812.81L2831 214Z" fill="#D9D9D9"/>
<path d="M3296 214L3314.19 244.75H3277.81L3296 214Z" fill="#D9D9D9"/>
<path d="M1833 214L1851.19 244.75H1814.81L1833 214Z" fill="#D9D9D9"/>
<path d="M2447.5 214L2465.25 244.75H2429.75L2447.5 214Z" fill="#D9D9D9"/>
<path d="M2139 214L2157.19 244.75H2120.81L2139 214Z" fill="#D9D9D9"/>
<path d="M2755 214L2773.19 244.75H2736.81L2755 214Z" fill="#D9D9D9"/>
<path d="M3219 214L3237.19 244.75H3200.81L3219 214Z" fill="#D9D9D9"/>
<path d="M1986 214L2004.19 244.75H1967.81L1986 214Z" fill="#D9D9D9"/>
<path d="M2600.5 214L2618.25 244.75H2582.75L2600.5 214Z" fill="#D9D9D9"/>
<path d="M3066 214L3084.19 244.75H3047.81L3066 214Z" fill="#D9D9D9"/>
<path d="M2294 214L2311.32 244.75H2276.68L2294 214Z" fill="#D9D9D9"/>
<path d="M2908 214L2926.19 244.75H2889.81L2908 214Z" fill="#D9D9D9"/>
<path d="M3372 214L3390.19 244.75H3353.81L3372 214Z" fill="#D9D9D9"/>
<path d="M3449.5 214L3467.25 244.75H3431.75L3449.5 214Z" fill="#D9D9D9"/>
<path d="M1793.5 231L1776.61 201L1810.39 201L1793.5 231Z" fill="#D9D9D9"/>
<path d="M2408.5 231L2390.75 201L2426.25 201L2408.5 231Z" fill="#D9D9D9"/>
<path d="M2101 231L2082.81 201L2119.19 201L2101 231Z" fill="#D9D9D9"/>
<path d="M2715.5 231L2698.61 201L2732.39 201L2715.5 231Z" fill="#D9D9D9"/>
<path d="M3180 231L3161.81 201L3198.19 201L3180 231Z" fill="#D9D9D9"/>
<path d="M1947.5 231L1929.75 201L1965.25 201L1947.5 231Z" fill="#D9D9D9"/>
<path d="M2561.5 231L2543.75 201L2579.25 201L2561.5 231Z" fill="#D9D9D9"/>
<path d="M3026.5 231L3008.75 201L3044.25 201L3026.5 231Z" fill="#D9D9D9"/>
<path d="M2255 231L2237.68 201L2272.32 201L2255 231Z" fill="#D9D9D9"/>
<path d="M2870 231L2851.81 201L2888.19 201L2870 231Z" fill="#D9D9D9"/>
<path d="M3333.5 231L3315.75 201L3351.25 201L3333.5 231Z" fill="#D9D9D9"/>
<path d="M1870 231L1852.68 201L1887.32 201L1870 231Z" fill="#D9D9D9"/>
<path d="M2485 231L2467.68 201L2502.32 201L2485 231Z" fill="#D9D9D9"/>
<path d="M2949.5 231L2931.75 201L2967.25 201L2949.5 231Z" fill="#D9D9D9"/>
<path d="M2178.5 231L2160.75 201L2196.25 201L2178.5 231Z" fill="#D9D9D9"/>
<path d="M2792.5 231L2774.75 201L2810.25 201L2792.5 231Z" fill="#D9D9D9"/>
<path d="M3257.5 231L3239.75 201L3275.25 201L3257.5 231Z" fill="#D9D9D9"/>
<path d="M2024.5 231L2006.75 201L2042.25 201L2024.5 231Z" fill="#D9D9D9"/>
<path d="M2638.5 231L2620.75 201L2656.25 201L2638.5 231Z" fill="#D9D9D9"/>
<path d="M3102.5 231L3084.75 201L3120.25 201L3102.5 231Z" fill="#D9D9D9"/>
<path d="M2331.5 231L2313.75 201L2349.25 201L2331.5 231Z" fill="#D9D9D9"/>
<path d="M3411 231L3393.68 201L3428.32 201L3411 231Z" fill="#D9D9D9"/>
<path d="M1755 258L1749.8 248.25L1760.2 248.25L1755 258Z" fill="#D9D9D9"/>
<path d="M2370.5 258L2364.87 248.25L2376.13 248.25L2370.5 258Z" fill="#D9D9D9"/>
<path d="M2063.5 258L2057.87 248.25L2069.13 248.25L2063.5 258Z" fill="#D9D9D9"/>
<path d="M2678.5 258L2672 248.25L2685 248.25L2678.5 258Z" fill="#D9D9D9"/>
<path d="M3142 258L3135.94 248.25L3148.06 248.25L3142 258Z" fill="#D9D9D9"/>
<path d="M1909.5 258L1903 248.25L1916 248.25L1909.5 258Z" fill="#D9D9D9"/>
<path d="M2524.5 258L2518.87 248.25L2530.13 248.25L2524.5 258Z" fill="#D9D9D9"/>
<path d="M2989 258L2982.94 248.25L2995.06 248.25L2989 258Z" fill="#D9D9D9"/>
<path d="M2216.5 258L2210.87 248.25L2222.13 248.25L2216.5 258Z" fill="#D9D9D9"/>
<path d="M2831.5 258L2825 248.25L2838 248.25L2831.5 258Z" fill="#D9D9D9"/>
<path d="M3296 258L3289.94 248.25L3302.06 248.25L3296 258Z" fill="#D9D9D9"/>
<path d="M1833 258L1826.94 248.25L1839.06 248.25L1833 258Z" fill="#D9D9D9"/>
<path d="M2447 258L2441.8 248.25L2452.2 248.25L2447 258Z" fill="#D9D9D9"/>
<path d="M2140 258L2133.94 248.25L2146.06 248.25L2140 258Z" fill="#D9D9D9"/>
<path d="M2755 258L2748.94 248.25L2761.06 248.25L2755 258Z" fill="#D9D9D9"/>
<path d="M3219.5 258L3213 248.25L3226 248.25L3219.5 258Z" fill="#D9D9D9"/>
<path d="M1986.5 258L1980.87 248.25L1992.13 248.25L1986.5 258Z" fill="#D9D9D9"/>
<path d="M2601.5 258L2595 248.25L2608 248.25L2601.5 258Z" fill="#D9D9D9"/>
<path d="M3065.5 258L3059.87 248.25L3071.13 248.25L3065.5 258Z" fill="#D9D9D9"/>
<path d="M2294 258L2288.8 248.25L2299.2 248.25L2294 258Z" fill="#D9D9D9"/>
<path d="M2909 258L2902.94 248.25L2915.06 248.25L2909 258Z" fill="#D9D9D9"/>
<path d="M3372.5 258L3366 248.25L3379 248.25L3372.5 258Z" fill="#D9D9D9"/>
<path d="M3450.5 258L3444.87 248.25L3456.13 248.25L3450.5 258Z" fill="#D9D9D9"/>
</g>
</svg>
