<svg width="430" height="607" viewBox="0 0 430 607" fill="none" xmlns="http://www.w3.org/2000/svg">
<path d="M429.906 288.208C429.906 288.208 440.38 205.328 240.182 210.8C254.834 195.798 270.464 178.091 286.202 157.494C306.553 130.933 322.779 105.11 335.641 81.8688C322.128 83.0985 305.684 86.1726 287.721 92.9973C249.407 107.692 223.304 132.408 208.814 148.763C208.543 133.945 207.24 116.853 203.767 98.1005C196.549 58.751 182.928 28.1936 171.586 7.59664C167.516 -9.4958 162.414 7.59664 162.414 7.59664C151.072 28.1936 137.505 58.751 130.233 98.1005C126.814 116.853 125.457 134.007 125.186 148.763C110.696 132.408 84.6468 107.63 46.2787 92.9973C28.3157 86.1112 11.8179 83.0985 -1.64083 81.8688C11.2209 105.11 27.5016 130.871 47.7982 157.494C63.5362 178.091 79.1657 195.736 93.8183 210.8C-106.38 205.328 -95.906 288.208 -95.906 288.208C111.51 264.536 84.2127 296.385 84.2127 296.385C-28.3412 353.749 -22.6972 499.527 -22.6972 499.527C102.718 318.273 144.506 337.395 144.506 337.395C146.134 433.924 52.0312 607 52.0312 607H281.86C281.86 607 187.812 429.558 189.386 333.029C189.386 333.029 231.173 318.273 356.589 499.527C356.589 499.527 362.233 353.811 249.679 296.385C249.679 296.385 222.327 264.475 429.797 288.208H429.906Z" fill="#A67D5F" fill-opacity="0.18"/>
</svg>
