<svg width="488" height="100" viewBox="0 0 488 100" fill="none" xmlns="http://www.w3.org/2000/svg">
<path d="M409.464 0.00630723C410.298 0.00630723 411.472 0.22088 412.761 1.19904C415.65 3.38885 417.071 7.86943 417.523 9.44711C418.406 8.29225 419.521 7.04273 420.87 5.9636C422.947 4.29758 424.833 3.62234 426.245 3.34467C425.684 4.60681 425.097 5.87525 424.481 7.15632C422.571 11.1068 420.649 14.5525 418.779 17.5563C418.354 18.2379 417.826 18.6607 417.269 18.6797C417.266 18.6797 417.259 18.6797 417.256 18.6797C417.249 18.6797 417.246 18.6797 417.239 18.6797C416.616 18.6797 416.042 18.0549 415.686 17.0767L409.464 0V0.00630723Z" fill="#D5D5D5" fill-opacity="0.22"/>
<path d="M418.19 36.1201C418.991 36.1201 420.118 36.3346 421.355 37.3128C424.128 39.5026 425.493 43.9832 425.927 45.5609C426.775 44.406 427.845 43.1565 429.14 42.0774C431.134 40.4113 432.945 39.7361 434.3 39.4584C433.762 40.7206 433.198 41.989 432.606 43.2701C430.773 47.2206 428.928 50.6662 427.133 53.6701C426.724 54.3517 426.218 54.7745 425.683 54.7934C425.68 54.7934 425.673 54.7934 425.67 54.7934C425.664 54.7934 425.661 54.7934 425.654 54.7934C425.056 54.7934 424.505 54.1687 424.163 53.1905L418.19 36.1138V36.1201Z" fill="#D5D5D5" fill-opacity="0.22"/>
<path d="M425.574 70.9886C426.408 70.9886 427.582 71.1888 428.871 72.1018C431.76 74.1456 433.181 78.3275 433.633 79.8C434.517 78.7221 435.631 77.5559 436.98 76.5487C439.057 74.9937 440.944 74.3635 442.355 74.1044C441.794 75.2824 441.207 76.4662 440.591 77.6619C438.681 81.349 436.759 84.565 434.889 87.3686C434.464 88.0047 433.936 88.3993 433.379 88.417C433.376 88.417 433.369 88.417 433.366 88.417C433.359 88.417 433.356 88.417 433.349 88.417C432.726 88.417 432.152 87.8339 431.796 86.9209L425.574 70.9827V70.9886Z" fill="#D5D5D5" fill-opacity="0.22"/>
<path d="M318.845 0.00630723C319.679 0.00630723 320.853 0.22088 322.142 1.19904C325.031 3.38885 326.452 7.86943 326.904 9.44711C327.788 8.29225 328.902 7.04273 330.251 5.9636C332.328 4.29758 334.215 3.62234 335.626 3.34467C335.065 4.60681 334.478 5.87525 333.862 7.15632C331.952 11.1068 330.03 14.5525 328.16 17.5563C327.735 18.2379 327.207 18.6607 326.65 18.6797C326.647 18.6797 326.64 18.6797 326.637 18.6797C326.63 18.6797 326.627 18.6797 326.62 18.6797C325.997 18.6797 325.423 18.0549 325.067 17.0767L318.845 0V0.00630723Z" fill="#D5D5D5" fill-opacity="0.22"/>
<path d="M326.9 36.1201C327.7 36.1201 328.827 36.3346 330.065 37.3128C332.838 39.5026 334.203 43.9832 334.636 45.5609C335.485 44.406 336.555 43.1565 337.85 42.0774C339.844 40.4113 341.655 39.7361 343.01 39.4584C342.471 40.7206 341.908 41.989 341.316 43.2701C339.483 47.2206 337.637 50.6662 335.843 53.6701C335.434 54.3517 334.928 54.7745 334.393 54.7934C334.389 54.7934 334.383 54.7934 334.38 54.7934C334.374 54.7934 334.37 54.7934 334.364 54.7934C333.766 54.7934 333.215 54.1687 332.873 53.1905L326.9 36.1138V36.1201Z" fill="#D5D5D5" fill-opacity="0.22"/>
<path d="M334.283 70.9886C335.118 70.9886 336.292 71.1888 337.581 72.1018C340.47 74.1456 341.891 78.3275 342.343 79.8C343.226 78.7221 344.341 77.5559 345.69 76.5487C347.767 74.9937 349.653 74.3635 351.065 74.1044C350.504 75.2824 349.917 76.4662 349.301 77.6619C347.391 81.349 345.469 84.565 343.599 87.3686C343.174 88.0047 342.646 88.3993 342.089 88.417C342.085 88.417 342.079 88.417 342.076 88.417C342.069 88.417 342.066 88.417 342.059 88.417C341.436 88.417 340.862 87.8339 340.506 86.9209L334.283 70.9827V70.9886Z" fill="#D5D5D5" fill-opacity="0.22"/>
<path d="M227.555 0.00630723C228.389 0.00630723 229.563 0.22088 230.852 1.19904C233.741 3.38885 235.162 7.86943 235.614 9.44711C236.497 8.29225 237.612 7.04273 238.961 5.9636C241.038 4.29758 242.924 3.62234 244.336 3.34467C243.775 4.60681 243.188 5.87525 242.572 7.15632C240.662 11.1068 238.74 14.5525 236.87 17.5563C236.445 18.2379 235.917 18.6607 235.36 18.6797C235.357 18.6797 235.35 18.6797 235.347 18.6797C235.34 18.6797 235.337 18.6797 235.33 18.6797C234.707 18.6797 234.133 18.0549 233.777 17.0767L227.555 0V0.00630723Z" fill="#D5D5D5" fill-opacity="0.22"/>
<path d="M235.609 36.1201C236.444 36.1201 237.617 36.3346 238.907 37.3128C241.795 39.5026 243.217 43.9832 243.668 45.5609C244.552 44.406 245.667 43.1565 247.016 42.0774C249.093 40.4113 250.979 39.7361 252.391 39.4584C251.83 40.7206 251.243 41.989 250.626 43.2701C248.717 47.2206 246.795 50.6662 244.925 53.6701C244.499 54.3517 243.972 54.7745 243.415 54.7934C243.411 54.7934 243.405 54.7934 243.401 54.7934C243.395 54.7934 243.392 54.7934 243.385 54.7934C242.762 54.7934 242.188 54.1687 241.832 53.1905L235.609 36.1138V36.1201Z" fill="#D5D5D5" fill-opacity="0.22"/>
<path d="M243.664 70.9886C244.499 70.9886 245.673 71.1888 246.962 72.1018C249.851 74.1456 251.272 78.3275 251.724 79.8C252.607 78.7221 253.722 77.5559 255.071 76.5487C257.148 74.9937 259.034 74.3635 260.446 74.1044C259.885 75.2824 259.298 76.4662 258.682 77.6619C256.772 81.349 254.85 84.565 252.98 87.3686C252.555 88.0047 252.027 88.3993 251.47 88.417C251.466 88.417 251.46 88.417 251.457 88.417C251.45 88.417 251.447 88.417 251.44 88.417C250.817 88.417 250.243 87.8339 249.887 86.9209L243.664 70.9827V70.9886Z" fill="#D5D5D5" fill-opacity="0.22"/>
<path d="M136.935 0.00630723C137.77 0.00630723 138.944 0.22088 140.233 1.19904C143.122 3.38885 144.543 7.86943 144.995 9.44711C145.878 8.29225 146.993 7.04273 148.342 5.9636C150.419 4.29758 152.305 3.62234 153.717 3.34467C153.156 4.60681 152.569 5.87525 151.952 7.15632C150.043 11.1068 148.121 14.5525 146.251 17.5563C145.826 18.2379 145.298 18.6607 144.741 18.6797C144.737 18.6797 144.731 18.6797 144.728 18.6797C144.721 18.6797 144.718 18.6797 144.711 18.6797C144.088 18.6797 143.514 18.0549 143.158 17.0767L136.935 0V0.00630723Z" fill="#D5D5D5" fill-opacity="0.22"/>
<path d="M144.99 36.1201C145.791 36.1201 146.918 36.3346 148.156 37.3128C150.929 39.5026 152.293 43.9832 152.727 45.5609C153.576 44.406 154.646 43.1565 155.94 42.0774C157.935 40.4113 159.745 39.7361 161.1 39.4584C160.562 40.7206 159.999 41.989 159.407 43.2701C157.574 47.2206 155.728 50.6662 153.933 53.6701C153.525 54.3517 153.018 54.7745 152.483 54.7934C152.48 54.7934 152.474 54.7934 152.471 54.7934C152.464 54.7934 152.461 54.7934 152.455 54.7934C151.857 54.7934 151.306 54.1687 150.964 53.1905L144.99 36.1138V36.1201Z" fill="#D5D5D5" fill-opacity="0.22"/>
<path d="M152.374 70.9886C153.208 70.9886 154.382 71.1888 155.672 72.1018C158.56 74.1456 159.982 78.3275 160.433 79.8C161.317 78.7221 162.432 77.5559 163.78 76.5487C165.858 74.9937 167.744 74.3635 169.155 74.1044C168.595 75.2824 168.008 76.4662 167.391 77.6619C165.482 81.349 163.559 84.565 161.69 87.3686C161.264 88.0047 160.737 88.3993 160.179 88.417C160.176 88.417 160.17 88.417 160.166 88.417C160.16 88.417 160.156 88.417 160.15 88.417C159.527 88.417 158.953 87.8339 158.597 86.9209L152.374 70.9827V70.9886Z" fill="#D5D5D5" fill-opacity="0.22"/>
<path d="M45.645 0.00630723C46.4793 0.00630723 47.6532 0.22088 48.9426 1.19904C51.8312 3.38885 53.2525 7.86943 53.7043 9.44711C54.588 8.29225 55.7026 7.04273 57.0513 5.9636C59.1288 4.29758 61.015 3.62234 62.4263 3.34467C61.8657 4.60681 61.2788 5.87525 60.6621 7.15632C58.7528 11.1068 56.8304 14.5525 54.9606 17.5563C54.5352 18.2379 54.0076 18.6607 53.4503 18.6797C53.4471 18.6797 53.4405 18.6797 53.4372 18.6797C53.4306 18.6797 53.4273 18.6797 53.4207 18.6797C52.7974 18.6797 52.2237 18.0549 51.8675 17.0767L45.645 0V0.00630723Z" fill="#D5D5D5" fill-opacity="0.22"/>
<path d="M53.7001 36.1201C54.501 36.1201 55.628 36.3346 56.8657 37.3128C59.6389 39.5026 61.0033 43.9832 61.4369 45.5609C62.2853 44.406 63.3553 43.1565 64.6501 42.0774C66.6445 40.4113 68.4552 39.7361 69.8101 39.4584C69.272 40.7206 68.7085 41.989 68.1165 43.2701C66.2836 47.2206 64.438 50.6662 62.6431 53.6701C62.2347 54.3517 61.7282 54.7745 61.1932 54.7934C61.19 54.7934 61.1837 54.7934 61.1805 54.7934C61.1742 54.7934 61.171 54.7934 61.1647 54.7934C60.5664 54.7934 60.0156 54.1687 59.6737 53.1905L53.7001 36.1138V36.1201Z" fill="#D5D5D5" fill-opacity="0.22"/>
<path d="M61.7552 70.9886C62.5895 70.9886 63.7635 71.1888 65.0528 72.1018C67.9415 74.1456 69.3627 78.3275 69.8145 79.8C70.6982 78.7221 71.8128 77.5559 73.1615 76.5487C75.239 74.9937 77.1252 74.3635 78.5365 74.1044C77.976 75.2824 77.389 76.4662 76.7723 77.6619C74.8631 81.349 72.9406 84.565 71.0709 87.3686C70.6455 88.0047 70.1179 88.3993 69.5606 88.417C69.5573 88.417 69.5507 88.417 69.5474 88.417C69.5408 88.417 69.5375 88.417 69.5309 88.417C68.9077 88.417 68.3339 87.8339 67.9777 86.9209L61.7552 70.9827V70.9886Z" fill="#D5D5D5" fill-opacity="0.22"/>
<path d="M364.49 0.00630723C365.324 0.00630723 366.498 0.22088 367.787 1.19904C370.676 3.38885 372.097 7.86943 372.549 9.44711C373.433 8.29225 374.547 7.04273 375.896 5.9636C377.973 4.29758 379.86 3.62234 381.271 3.34467C380.71 4.60681 380.123 5.87525 379.507 7.15632C377.598 11.1068 375.675 14.5525 373.805 17.5563C373.38 18.2379 372.852 18.6607 372.295 18.6797C372.292 18.6797 372.285 18.6797 372.282 18.6797C372.275 18.6797 372.272 18.6797 372.265 18.6797C371.642 18.6797 371.068 18.0549 370.712 17.0767L364.49 0V0.00630723Z" fill="#D5D5D5" fill-opacity="0.22"/>
<path d="M372.545 36.1201C373.345 36.1201 374.472 36.3346 375.71 37.3128C378.483 39.5026 379.848 43.9832 380.281 45.5609C381.13 44.406 382.2 43.1565 383.495 42.0774C385.489 40.4113 387.3 39.7361 388.655 39.4584C388.116 40.7206 387.553 41.989 386.961 43.2701C385.128 47.2206 383.282 50.6662 381.488 53.6701C381.079 54.3517 380.573 54.7745 380.038 54.7934C380.035 54.7934 380.028 54.7934 380.025 54.7934C380.019 54.7934 380.016 54.7934 380.009 54.7934C379.411 54.7934 378.86 54.1687 378.518 53.1905L372.545 36.1138V36.1201Z" fill="#D5D5D5" fill-opacity="0.22"/>
<path d="M379.928 70.9886C380.763 70.9886 381.937 71.1888 383.226 72.1018C386.115 74.1456 387.536 78.3275 387.988 79.8C388.871 78.7221 389.986 77.5559 391.335 76.5487C393.412 74.9937 395.298 74.3635 396.71 74.1044C396.149 75.2824 395.562 76.4662 394.946 77.6619C393.036 81.349 391.114 84.565 389.244 87.3686C388.819 88.0047 388.291 88.3993 387.734 88.417C387.73 88.417 387.724 88.417 387.721 88.417C387.714 88.417 387.711 88.417 387.704 88.417C387.081 88.417 386.507 87.8339 386.151 86.9209L379.928 70.9827V70.9886Z" fill="#D5D5D5" fill-opacity="0.22"/>
<path d="M273.2 0.00630723C274.034 0.00630723 275.208 0.22088 276.497 1.19904C279.386 3.38885 280.807 7.86943 281.259 9.44711C282.143 8.29225 283.257 7.04273 284.606 5.9636C286.683 4.29758 288.569 3.62234 289.981 3.34467C289.42 4.60681 288.833 5.87525 288.217 7.15632C286.307 11.1068 284.385 14.5525 282.515 17.5563C282.09 18.2379 281.562 18.6607 281.005 18.6797C281.002 18.6797 280.995 18.6797 280.992 18.6797C280.985 18.6797 280.982 18.6797 280.975 18.6797C280.352 18.6797 279.778 18.0549 279.422 17.0767L273.2 0V0.00630723Z" fill="#D5D5D5" fill-opacity="0.22"/>
<path d="M281.254 36.1201C282.055 36.1201 283.182 36.3346 284.42 37.3128C287.193 39.5026 288.558 43.9832 288.991 45.5609C289.84 44.406 290.91 43.1565 292.204 42.0774C294.199 40.4113 296.01 39.7361 297.364 39.4584C296.826 40.7206 296.263 41.989 295.671 43.2701C293.838 47.2206 291.992 50.6662 290.197 53.6701C289.789 54.3517 289.283 54.7745 288.748 54.7934C288.744 54.7934 288.738 54.7934 288.735 54.7934C288.729 54.7934 288.725 54.7934 288.719 54.7934C288.121 54.7934 287.57 54.1687 287.228 53.1905L281.254 36.1138V36.1201Z" fill="#D5D5D5" fill-opacity="0.22"/>
<path d="M288.638 70.9886C289.506 70.9886 290.727 71.1888 292.068 72.1018C295.072 74.1456 296.55 78.3275 297.02 79.8C297.939 78.7221 299.098 77.5559 300.501 76.5487C302.661 74.9937 304.623 74.3635 306.091 74.1044C305.508 75.2824 304.897 76.4662 304.256 77.6619C302.27 81.349 300.271 84.565 298.326 87.3686C297.884 88.0047 297.335 88.3993 296.756 88.417C296.752 88.417 296.745 88.417 296.742 88.417C296.735 88.417 296.732 88.417 296.725 88.417C296.077 88.417 295.48 87.8339 295.11 86.9209L288.638 70.9827V70.9886Z" fill="#D5D5D5" fill-opacity="0.22"/>
<path d="M181.909 0.00630723C182.777 0.00630723 183.998 0.22088 185.339 1.19904C188.343 3.38885 189.821 7.86943 190.291 9.44711C191.21 8.29225 192.369 7.04273 193.772 5.9636C195.932 4.29758 197.894 3.62234 199.362 3.34467C198.779 4.60681 198.168 5.87525 197.527 7.15632C195.541 11.1068 193.542 14.5525 191.598 17.5563C191.155 18.2379 190.606 18.6607 190.027 18.6797C190.023 18.6797 190.017 18.6797 190.013 18.6797C190.006 18.6797 190.003 18.6797 189.996 18.6797C189.348 18.6797 188.751 18.0549 188.381 17.0767L181.909 0V0.00630723Z" fill="#D5D5D5" fill-opacity="0.22"/>
<path d="M190.636 36.1201C191.436 36.1201 192.563 36.3346 193.801 37.3128C196.574 39.5026 197.939 43.9832 198.372 45.5609C199.221 44.406 200.291 43.1565 201.586 42.0774C203.58 40.4113 205.391 39.7361 206.746 39.4584C206.207 40.7206 205.644 41.989 205.052 43.2701C203.219 47.2206 201.373 50.6662 199.579 53.6701C199.17 54.3517 198.664 54.7745 198.129 54.7934C198.126 54.7934 198.119 54.7934 198.116 54.7934C198.11 54.7934 198.107 54.7934 198.1 54.7934C197.502 54.7934 196.951 54.1687 196.609 53.1905L190.636 36.1138V36.1201Z" fill="#D5D5D5" fill-opacity="0.22"/>
<path d="M198.019 70.9886C198.853 70.9886 200.027 71.1888 201.317 72.1018C204.205 74.1456 205.627 78.3275 206.078 79.8C206.962 78.7221 208.077 77.5559 209.425 76.5487C211.503 74.9937 213.389 74.3635 214.8 74.1044C214.24 75.2824 213.653 76.4662 213.036 77.6619C211.127 81.349 209.204 84.565 207.335 87.3686C206.909 88.0047 206.382 88.3993 205.824 88.417C205.821 88.417 205.815 88.417 205.811 88.417C205.805 88.417 205.801 88.417 205.795 88.417C205.172 88.417 204.598 87.8339 204.242 86.9209L198.019 70.9827V70.9886Z" fill="#D5D5D5" fill-opacity="0.22"/>
<path d="M91.2903 0.00630723C92.1246 0.00630723 93.2985 0.22088 94.5878 1.19904C97.4765 3.38885 98.8978 7.86943 99.3495 9.44711C100.233 8.29225 101.348 7.04273 102.697 5.9636C104.774 4.29758 106.66 3.62234 108.072 3.34467C107.511 4.60681 106.924 5.87525 106.307 7.15632C104.398 11.1068 102.476 14.5525 100.606 17.5563C100.181 18.2379 99.6529 18.6607 99.0956 18.6797C99.0923 18.6797 99.0857 18.6797 99.0824 18.6797C99.0758 18.6797 99.0725 18.6797 99.0659 18.6797C98.4427 18.6797 97.8689 18.0549 97.5128 17.0767L91.2903 0V0.00630723Z" fill="#D5D5D5" fill-opacity="0.22"/>
<path d="M99.3452 36.1201C100.146 36.1201 101.273 36.3346 102.511 37.3128C105.284 39.5026 106.648 43.9832 107.082 45.5609C107.93 44.406 109 43.1565 110.295 42.0774C112.29 40.4113 114.1 39.7361 115.455 39.4584C114.917 40.7206 114.354 41.989 113.762 43.2701C111.929 47.2206 110.083 50.6662 108.288 53.6701C107.88 54.3517 107.373 54.7745 106.838 54.7934C106.835 54.7934 106.829 54.7934 106.826 54.7934C106.819 54.7934 106.816 54.7934 106.81 54.7934C106.212 54.7934 105.661 54.1687 105.319 53.1905L99.3452 36.1138V36.1201Z" fill="#D5D5D5" fill-opacity="0.22"/>
<path d="M106.729 70.9886C107.563 70.9886 108.737 71.1888 110.026 72.1018C112.915 74.1456 114.336 78.3275 114.788 79.8C115.672 78.7221 116.786 77.5559 118.135 76.5487C120.213 74.9937 122.099 74.3635 123.51 74.1044C122.95 75.2824 122.363 76.4662 121.746 77.6619C119.837 81.349 117.914 84.565 116.044 87.3686C115.619 88.0047 115.091 88.3993 114.534 88.417C114.531 88.417 114.524 88.417 114.521 88.417C114.514 88.417 114.511 88.417 114.505 88.417C113.881 88.417 113.308 87.8339 112.951 86.9209L106.729 70.9827V70.9886Z" fill="#D5D5D5" fill-opacity="0.22"/>
<path d="M0 0.00630723C0.834283 0.00630723 2.00822 0.22088 3.29756 1.19904C6.18623 3.38885 7.60748 7.86943 8.05924 9.44711C8.94299 8.29225 10.0576 7.04273 11.4063 5.9636C13.4837 4.29758 15.3699 3.62234 16.7813 3.34467C16.2207 4.60681 15.6337 5.87525 15.0171 7.15632C13.1078 11.1068 11.1853 14.5525 9.31561 17.5563C8.89023 18.2379 8.36262 18.6607 7.80533 18.6797C7.80203 18.6797 7.79544 18.6797 7.79214 18.6797C7.78554 18.6797 7.78225 18.6797 7.77565 18.6797C7.15241 18.6797 6.57864 18.0549 6.2225 17.0767L0 0V0.00630723Z" fill="#D5D5D5" fill-opacity="0.22"/>
<path d="M8.05493 36.1201C8.88921 36.1201 10.0631 36.3346 11.3525 37.3128C14.2412 39.5026 15.6624 43.9832 16.1142 45.5609C16.9979 44.406 18.1125 43.1565 19.4612 42.0774C21.5387 40.4113 23.4249 39.7361 24.8362 39.4584C24.2756 40.7206 23.6887 41.989 23.072 43.2701C21.1627 47.2206 19.2403 50.6662 17.3705 53.6701C16.9452 54.3517 16.4175 54.7745 15.8603 54.7934C15.857 54.7934 15.8504 54.7934 15.8471 54.7934C15.8405 54.7934 15.8372 54.7934 15.8306 54.7934C15.2073 54.7934 14.6336 54.1687 14.2774 53.1905L8.05493 36.1138V36.1201Z" fill="#D5D5D5" fill-opacity="0.22"/>
<path d="M16.1101 70.9886C16.9444 70.9886 18.1183 71.1888 19.4077 72.1018C22.2963 74.1456 23.7176 78.3275 24.1694 79.8C25.0531 78.7221 26.1677 77.5559 27.5164 76.5487C29.5938 74.9937 31.48 74.3635 32.8914 74.1044C32.3308 75.2824 31.7439 76.4662 31.1272 77.6619C29.2179 81.349 27.2954 84.565 25.4257 87.3686C25.0003 88.0047 24.4727 88.3993 23.9154 88.417C23.9121 88.417 23.9055 88.417 23.9022 88.417C23.8957 88.417 23.8924 88.417 23.8858 88.417C23.2625 88.417 22.6887 87.8339 22.3326 86.9209L16.1101 70.9827V70.9886Z" fill="#D5D5D5" fill-opacity="0.22"/>
<path d="M455.109 0.00630723C455.943 0.00630723 457.117 0.22088 458.406 1.19904C461.295 3.38885 462.716 7.86943 463.168 9.44711C464.052 8.29225 465.166 7.04273 466.515 5.9636C468.592 4.29758 470.478 3.62234 471.89 3.34467C471.329 4.60681 470.742 5.87525 470.126 7.15632C468.216 11.1068 466.294 14.5525 464.424 17.5563C463.999 18.2379 463.471 18.6607 462.914 18.6797C462.911 18.6797 462.904 18.6797 462.901 18.6797C462.894 18.6797 462.891 18.6797 462.884 18.6797C462.261 18.6797 461.687 18.0549 461.331 17.0767L455.109 0V0.00630723Z" fill="#D5D5D5" fill-opacity="0.22"/>
<path d="M463.164 36.1201C463.998 36.1201 465.172 36.3346 466.461 37.3128C469.35 39.5026 470.771 43.9832 471.223 45.5609C472.107 44.406 473.221 43.1565 474.57 42.0774C476.647 40.4113 478.534 39.7361 479.945 39.4584C479.384 40.7206 478.797 41.989 478.181 43.2701C476.271 47.2206 474.349 50.6662 472.479 53.6701C472.054 54.3517 471.526 54.7745 470.969 54.7934C470.966 54.7934 470.959 54.7934 470.956 54.7934C470.949 54.7934 470.946 54.7934 470.939 54.7934C470.316 54.7934 469.742 54.1687 469.386 53.1905L463.164 36.1138V36.1201Z" fill="#D5D5D5" fill-opacity="0.22"/>
<path d="M471.219 70.9886C472.053 70.9886 473.227 71.1888 474.516 72.1018C477.405 74.1456 478.826 78.3275 479.278 79.8C480.162 78.7221 481.276 77.5559 482.625 76.5487C484.702 74.9937 486.589 74.3635 488 74.1044C487.439 75.2824 486.852 76.4662 486.236 77.6619C484.326 81.349 482.404 84.565 480.534 87.3686C480.109 88.0047 479.581 88.3993 479.024 88.417C479.021 88.417 479.014 88.417 479.011 88.417C479.004 88.417 479.001 88.417 478.994 88.417C478.371 88.417 477.797 87.8339 477.441 86.9209L471.219 70.9827V70.9886Z" fill="#D5D5D5" fill-opacity="0.22"/>
<path d="M435.642 12.4589C436.477 12.4589 437.651 12.6592 438.94 13.5721C441.829 15.6159 443.25 19.7978 443.702 21.2703C444.585 20.1924 445.7 19.0262 447.049 18.019C449.126 16.4641 451.012 15.8339 452.424 15.5747C451.863 16.7527 451.276 17.9366 450.659 19.1322C448.75 22.8194 446.828 26.0353 444.958 28.8389C444.533 29.475 444.005 29.8697 443.448 29.8873C443.444 29.8873 443.438 29.8873 443.434 29.8873C443.428 29.8873 443.425 29.8873 443.418 29.8873C442.795 29.8873 442.221 29.3042 441.865 28.3913L435.642 12.453V12.4589Z" fill="#D5D5D5" fill-opacity="0.22"/>
<path d="M443.697 46.0827C444.532 46.0827 445.705 46.2973 446.995 47.2755C449.883 49.4653 451.305 53.9458 451.757 55.5235C452.64 54.3687 453.755 53.1191 455.104 52.04C457.181 50.374 459.067 49.6988 460.479 49.4211C459.918 50.6832 459.331 51.9517 458.714 53.2327C456.805 57.1832 454.883 60.6289 453.013 63.6328C452.587 64.3143 452.06 64.7371 451.503 64.7561C451.499 64.7561 451.493 64.7561 451.489 64.7561C451.483 64.7561 451.48 64.7561 451.473 64.7561C450.85 64.7561 450.276 64.1313 449.92 63.1531L443.697 46.0764V46.0827Z" fill="#D5D5D5" fill-opacity="0.22"/>
<path d="M451.081 80.9514C451.915 80.9514 453.089 81.1659 454.379 82.1441C457.267 84.3339 458.689 88.8145 459.14 90.3922C460.024 89.2373 461.139 87.9878 462.487 86.9087C464.565 85.2426 466.451 84.5674 467.862 84.2897C467.302 85.5519 466.715 86.8203 466.098 88.1014C464.189 92.0519 462.267 95.4975 460.397 98.5014C459.971 99.183 459.444 99.6058 458.887 99.6247C458.883 99.6247 458.877 99.6247 458.873 99.6247C458.867 99.6247 458.863 99.6247 458.857 99.6247C458.234 99.6247 457.66 99 457.304 98.0218L451.081 80.9451V80.9514Z" fill="#D5D5D5" fill-opacity="0.22"/>
<path d="M344.352 12.4589C345.186 12.4589 346.36 12.6592 347.65 13.5721C350.538 15.6159 351.96 19.7978 352.411 21.2703C353.295 20.1924 354.41 19.0262 355.758 18.019C357.836 16.4641 359.722 15.8339 361.133 15.5747C360.573 16.7527 359.986 17.9366 359.369 19.1322C357.46 22.8194 355.538 26.0353 353.668 28.8389C353.242 29.475 352.715 29.8697 352.158 29.8873C352.154 29.8873 352.148 29.8873 352.144 29.8873C352.138 29.8873 352.134 29.8873 352.128 29.8873C351.505 29.8873 350.931 29.3042 350.575 28.3913L344.352 12.453V12.4589Z" fill="#D5D5D5" fill-opacity="0.22"/>
<path d="M352.407 46.0827C353.241 46.0827 354.415 46.2973 355.705 47.2755C358.593 49.4653 360.015 53.9458 360.466 55.5235C361.35 54.3687 362.465 53.1191 363.813 52.04C365.891 50.374 367.777 49.6988 369.188 49.4211C368.628 50.6832 368.041 51.9517 367.424 53.2327C365.515 57.1832 363.592 60.6289 361.723 63.6328C361.297 64.3143 360.77 64.7371 360.212 64.7561C360.209 64.7561 360.203 64.7561 360.199 64.7561C360.193 64.7561 360.189 64.7561 360.183 64.7561C359.56 64.7561 358.986 64.1313 358.63 63.1531L352.407 46.0764V46.0827Z" fill="#D5D5D5" fill-opacity="0.22"/>
<path d="M359.791 80.9514C360.659 80.9514 361.88 81.1659 363.22 82.1441C366.225 84.3339 367.703 88.8145 368.173 90.3922C369.092 89.2373 370.251 87.9878 371.654 86.9087C373.814 85.2426 375.776 84.5674 377.244 84.2897C376.661 85.5519 376.05 86.8203 375.409 88.1014C373.423 92.0519 371.424 95.4975 369.479 98.5014C369.037 99.183 368.488 99.6058 367.909 99.6247C367.905 99.6247 367.898 99.6247 367.895 99.6247C367.888 99.6247 367.885 99.6247 367.878 99.6247C367.23 99.6247 366.633 99 366.262 98.0218L359.791 80.9451V80.9514Z" fill="#D5D5D5" fill-opacity="0.22"/>
<path d="M253.062 12.4589C253.93 12.4589 255.15 12.6592 256.491 13.5721C259.496 15.6159 260.974 19.7978 261.444 21.2703C262.363 20.1924 263.522 19.0262 264.924 18.019C267.085 16.4641 269.047 15.8339 270.514 15.5747C269.931 16.7527 269.321 17.9366 268.68 19.1322C266.694 22.8194 264.695 26.0353 262.75 28.8389C262.308 29.475 261.759 29.8697 261.179 29.8873C261.176 29.8873 261.169 29.8873 261.166 29.8873C261.159 29.8873 261.155 29.8873 261.149 29.8873C260.5 29.8873 259.904 29.3042 259.533 28.3913L253.062 12.453V12.4589Z" fill="#D5D5D5" fill-opacity="0.22"/>
<path d="M261.788 46.0827C262.589 46.0827 263.716 46.2973 264.954 47.2755C267.727 49.4653 269.091 53.9458 269.525 55.5235C270.373 54.3687 271.443 53.1191 272.738 52.04C274.733 50.374 276.543 49.6988 277.898 49.4211C277.36 50.6832 276.797 51.9517 276.205 53.2327C274.372 57.1832 272.526 60.6289 270.731 63.6328C270.323 64.3143 269.816 64.7371 269.281 64.7561C269.278 64.7561 269.272 64.7561 269.269 64.7561C269.262 64.7561 269.259 64.7561 269.253 64.7561C268.654 64.7561 268.104 64.1313 267.762 63.1531L261.788 46.0764V46.0827Z" fill="#D5D5D5" fill-opacity="0.22"/>
<path d="M269.172 80.9514C270.006 80.9514 271.18 81.1659 272.47 82.1441C275.358 84.3339 276.779 88.8145 277.231 90.3922C278.115 89.2373 279.23 87.9878 280.578 86.9087C282.656 85.2426 284.542 84.5674 285.953 84.2897C285.393 85.5519 284.806 86.8203 284.189 88.1014C282.28 92.0519 280.357 95.4975 278.488 98.5014C278.062 99.183 277.535 99.6058 276.977 99.6247C276.974 99.6247 276.967 99.6247 276.964 99.6247C276.958 99.6247 276.954 99.6247 276.948 99.6247C276.324 99.6247 275.751 99 275.394 98.0218L269.172 80.9451V80.9514Z" fill="#D5D5D5" fill-opacity="0.22"/>
<path d="M162.443 12.4589C163.277 12.4589 164.451 12.6592 165.741 13.5721C168.629 15.6159 170.05 19.7978 170.502 21.2703C171.386 20.1924 172.501 19.0262 173.849 18.019C175.927 16.4641 177.813 15.8339 179.224 15.5747C178.664 16.7527 178.077 17.9366 177.46 19.1322C175.551 22.8194 173.628 26.0353 171.759 28.8389C171.333 29.475 170.806 29.8697 170.248 29.8873C170.245 29.8873 170.238 29.8873 170.235 29.8873C170.229 29.8873 170.225 29.8873 170.219 29.8873C169.595 29.8873 169.022 29.3042 168.665 28.3913L162.443 12.453V12.4589Z" fill="#D5D5D5" fill-opacity="0.22"/>
<path d="M170.498 46.0827C171.332 46.0827 172.506 46.2973 173.795 47.2755C176.684 49.4653 178.105 53.9458 178.557 55.5235C179.441 54.3687 180.555 53.1191 181.904 52.04C183.982 50.374 185.868 49.6988 187.279 49.4211C186.719 50.6832 186.132 51.9517 185.515 53.2327C183.606 57.1832 181.683 60.6289 179.814 63.6328C179.388 64.3143 178.861 64.7371 178.303 64.7561C178.3 64.7561 178.293 64.7561 178.29 64.7561C178.283 64.7561 178.28 64.7561 178.274 64.7561C177.65 64.7561 177.077 64.1313 176.72 63.1531L170.498 46.0764V46.0827Z" fill="#D5D5D5" fill-opacity="0.22"/>
<path d="M177.881 80.9514C178.716 80.9514 179.89 81.1659 181.179 82.1441C184.068 84.3339 185.489 88.8145 185.941 90.3922C186.824 89.2373 187.939 87.9878 189.288 86.9087C191.365 85.2426 193.251 84.5674 194.663 84.2897C194.102 85.5519 193.515 86.8203 192.899 88.1014C190.989 92.0519 189.067 95.4975 187.197 98.5014C186.772 99.183 186.244 99.6058 185.687 99.6247C185.684 99.6247 185.677 99.6247 185.674 99.6247C185.667 99.6247 185.664 99.6247 185.657 99.6247C185.034 99.6247 184.46 99 184.104 98.0218L177.881 80.9451V80.9514Z" fill="#D5D5D5" fill-opacity="0.22"/>
<path d="M71.1526 12.4589C71.9869 12.4589 73.1608 12.6592 74.4502 13.5721C77.3388 15.6159 78.7601 19.7978 79.2118 21.2703C80.0956 20.1924 81.2102 19.0262 82.5589 18.019C84.6363 16.4641 86.5225 15.8339 87.9339 15.5747C87.3733 16.7527 86.7863 17.9366 86.1697 19.1322C84.2604 22.8194 82.3379 26.0353 80.4682 28.8389C80.0428 29.475 79.5152 29.8697 78.9579 29.8873C78.9546 29.8873 78.948 29.8873 78.9447 29.8873C78.9381 29.8873 78.9348 29.8873 78.9282 29.8873C78.305 29.8873 77.7312 29.3042 77.3751 28.3913L71.1526 12.453V12.4589Z" fill="#D5D5D5" fill-opacity="0.22"/>
<path d="M79.879 46.0827C80.6799 46.0827 81.8069 46.2973 83.0447 47.2755C85.8178 49.4653 87.1822 53.9458 87.6159 55.5235C88.4643 54.3687 89.5343 53.1191 90.829 52.04C92.8234 50.374 94.6342 49.6988 95.9891 49.4211C95.4509 50.6832 94.8874 51.9517 94.2954 53.2327C92.4625 57.1832 90.6169 60.6289 88.822 63.6328C88.4136 64.3143 87.9071 64.7371 87.3721 64.7561C87.369 64.7561 87.3626 64.7561 87.3595 64.7561C87.3532 64.7561 87.35 64.7561 87.3437 64.7561C86.7453 64.7561 86.1945 64.1313 85.8526 63.1531L79.879 46.0764V46.0827Z" fill="#D5D5D5" fill-opacity="0.22"/>
<path d="M87.2628 80.9514C88.0971 80.9514 89.271 81.1659 90.5604 82.1441C93.449 84.3339 94.8703 88.8145 95.3221 90.3922C96.2058 89.2373 97.3204 87.9878 98.6691 86.9087C100.747 85.2426 102.633 84.5674 104.044 84.2897C103.484 85.5519 102.897 86.8203 102.28 88.1014C100.371 92.0519 98.4481 95.4975 96.5784 98.5014C96.153 99.183 95.6254 99.6058 95.0681 99.6247C95.0648 99.6247 95.0583 99.6247 95.055 99.6247C95.0484 99.6247 95.0451 99.6247 95.0385 99.6247C94.4152 99.6247 93.8415 99 93.4853 98.0218L87.2628 80.9451V80.9514Z" fill="#D5D5D5" fill-opacity="0.22"/>
<path d="M389.997 12.4589C390.831 12.4589 392.005 12.6592 393.295 13.5721C396.183 15.6159 397.605 19.7978 398.056 21.2703C398.94 20.1924 400.055 19.0262 401.403 18.019C403.481 16.4641 405.367 15.8339 406.778 15.5747C406.218 16.7527 405.631 17.9366 405.014 19.1322C403.105 22.8194 401.183 26.0353 399.313 28.8389C398.887 29.475 398.36 29.8697 397.803 29.8873C397.799 29.8873 397.793 29.8873 397.789 29.8873C397.783 29.8873 397.779 29.8873 397.773 29.8873C397.15 29.8873 396.576 29.3042 396.22 28.3913L389.997 12.453V12.4589Z" fill="#D5D5D5" fill-opacity="0.22"/>
<path d="M398.052 46.0827C398.886 46.0827 400.06 46.2973 401.35 47.2755C404.238 49.4653 405.66 53.9458 406.111 55.5235C406.995 54.3687 408.11 53.1191 409.458 52.04C411.536 50.374 413.422 49.6988 414.833 49.4211C414.273 50.6832 413.686 51.9517 413.069 53.2327C411.16 57.1832 409.237 60.6289 407.368 63.6328C406.942 64.3143 406.415 64.7371 405.857 64.7561C405.854 64.7561 405.848 64.7561 405.844 64.7561C405.838 64.7561 405.834 64.7561 405.828 64.7561C405.205 64.7561 404.631 64.1313 404.275 63.1531L398.052 46.0764V46.0827Z" fill="#D5D5D5" fill-opacity="0.22"/>
<path d="M405.436 80.9514C406.27 80.9514 407.444 81.1659 408.734 82.1441C411.622 84.3339 413.044 88.8145 413.495 90.3922C414.379 89.2373 415.494 87.9878 416.842 86.9087C418.92 85.2426 420.806 84.5674 422.217 84.2897C421.657 85.5519 421.07 86.8203 420.453 88.1014C418.544 92.0519 416.621 95.4975 414.752 98.5014C414.326 99.183 413.799 99.6058 413.241 99.6247C413.238 99.6247 413.231 99.6247 413.228 99.6247C413.222 99.6247 413.218 99.6247 413.212 99.6247C412.588 99.6247 412.015 99 411.659 98.0218L405.436 80.9451V80.9514Z" fill="#D5D5D5" fill-opacity="0.22"/>
<path d="M298.707 12.4589C299.541 12.4589 300.715 12.6592 302.005 13.5721C304.893 15.6159 306.315 19.7978 306.766 21.2703C307.65 20.1924 308.765 19.0262 310.113 18.019C312.191 16.4641 314.077 15.8339 315.488 15.5747C314.928 16.7527 314.341 17.9366 313.724 19.1322C311.815 22.8194 309.892 26.0353 308.023 28.8389C307.597 29.475 307.07 29.8697 306.512 29.8873C306.509 29.8873 306.503 29.8873 306.499 29.8873C306.493 29.8873 306.489 29.8873 306.483 29.8873C305.86 29.8873 305.286 29.3042 304.93 28.3913L298.707 12.453V12.4589Z" fill="#D5D5D5" fill-opacity="0.22"/>
<path d="M306.762 46.0827C307.596 46.0827 308.77 46.2973 310.06 47.2755C312.948 49.4653 314.37 53.9458 314.821 55.5235C315.705 54.3687 316.82 53.1191 318.168 52.04C320.246 50.374 322.132 49.6988 323.543 49.4211C322.983 50.6832 322.396 51.9517 321.779 53.2327C319.87 57.1832 317.947 60.6289 316.078 63.6328C315.652 64.3143 315.125 64.7371 314.567 64.7561C314.564 64.7561 314.558 64.7561 314.554 64.7561C314.548 64.7561 314.544 64.7561 314.538 64.7561C313.914 64.7561 313.341 64.1313 312.985 63.1531L306.762 46.0764V46.0827Z" fill="#D5D5D5" fill-opacity="0.22"/>
<path d="M314.817 80.9514C315.651 80.9514 316.825 81.1659 318.115 82.1441C321.003 84.3339 322.424 88.8145 322.876 90.3922C323.76 89.2373 324.875 87.9878 326.223 86.9087C328.301 85.2426 330.187 84.5674 331.598 84.2897C331.038 85.5519 330.451 86.8203 329.834 88.1014C327.925 92.0519 326.002 95.4975 324.133 98.5014C323.707 99.183 323.18 99.6058 322.622 99.6247C322.619 99.6247 322.612 99.6247 322.609 99.6247C322.603 99.6247 322.599 99.6247 322.593 99.6247C321.969 99.6247 321.396 99 321.04 98.0218L314.817 80.9451V80.9514Z" fill="#D5D5D5" fill-opacity="0.22"/>
<path d="M208.088 12.4589C208.922 12.4589 210.096 12.6592 211.386 13.5721C214.274 15.6159 215.695 19.7978 216.147 21.2703C217.031 20.1924 218.146 19.0262 219.494 18.019C221.572 16.4641 223.458 15.8339 224.869 15.5747C224.309 16.7527 223.722 17.9366 223.105 19.1322C221.196 22.8194 219.273 26.0353 217.404 28.8389C216.978 29.475 216.451 29.8697 215.893 29.8873C215.89 29.8873 215.883 29.8873 215.88 29.8873C215.874 29.8873 215.87 29.8873 215.864 29.8873C215.24 29.8873 214.667 29.3042 214.311 28.3913L208.088 12.453V12.4589Z" fill="#D5D5D5" fill-opacity="0.22"/>
<path d="M216.143 46.0827C216.977 46.0827 218.151 46.2973 219.441 47.2755C222.329 49.4653 223.75 53.9458 224.202 55.5235C225.086 54.3687 226.201 53.1191 227.549 52.04C229.627 50.374 231.513 49.6988 232.924 49.4211C232.364 50.6832 231.777 51.9517 231.16 53.2327C229.251 57.1832 227.328 60.6289 225.459 63.6328C225.033 64.3143 224.506 64.7371 223.948 64.7561C223.945 64.7561 223.938 64.7561 223.935 64.7561C223.928 64.7561 223.925 64.7561 223.919 64.7561C223.295 64.7561 222.722 64.1313 222.365 63.1531L216.143 46.0764V46.0827Z" fill="#D5D5D5" fill-opacity="0.22"/>
<path d="M223.527 80.9514C224.361 80.9514 225.535 81.1659 226.824 82.1441C229.713 84.3339 231.134 88.8145 231.586 90.3922C232.47 89.2373 233.584 87.9878 234.933 86.9087C237.01 85.2426 238.897 84.5674 240.308 84.2897C239.747 85.5519 239.16 86.8203 238.544 88.1014C236.634 92.0519 234.712 95.4975 232.842 98.5014C232.417 99.183 231.889 99.6058 231.332 99.6247C231.329 99.6247 231.322 99.6247 231.319 99.6247C231.312 99.6247 231.309 99.6247 231.302 99.6247C230.679 99.6247 230.105 99 229.749 98.0218L223.527 80.9451V80.9514Z" fill="#D5D5D5" fill-opacity="0.22"/>
<path d="M116.798 12.4589C117.632 12.4589 118.806 12.6592 120.095 13.5721C122.984 15.6159 124.405 19.7978 124.857 21.2703C125.741 20.1924 126.855 19.0262 128.204 18.019C130.282 16.4641 132.168 15.8339 133.579 15.5747C133.019 16.7527 132.432 17.9366 131.815 19.1322C129.906 22.8194 127.983 26.0353 126.113 28.8389C125.688 29.475 125.16 29.8697 124.603 29.8873C124.6 29.8873 124.593 29.8873 124.59 29.8873C124.583 29.8873 124.58 29.8873 124.574 29.8873C123.95 29.8873 123.376 29.3042 123.02 28.3913L116.798 12.453V12.4589Z" fill="#D5D5D5" fill-opacity="0.22"/>
<path d="M124.853 46.0827C125.687 46.0827 126.861 46.2973 128.15 47.2755C131.039 49.4653 132.46 53.9458 132.912 55.5235C133.796 54.3687 134.91 53.1191 136.259 52.04C138.336 50.374 140.223 49.6988 141.634 49.4211C141.073 50.6832 140.486 51.9517 139.87 53.2327C137.96 57.1832 136.038 60.6289 134.168 63.6328C133.743 64.3143 133.215 64.7371 132.658 64.7561C132.655 64.7561 132.648 64.7561 132.645 64.7561C132.638 64.7561 132.635 64.7561 132.628 64.7561C132.005 64.7561 131.431 64.1313 131.075 63.1531L124.853 46.0764V46.0827Z" fill="#D5D5D5" fill-opacity="0.22"/>
<path d="M132.908 80.9514C133.742 80.9514 134.916 81.1659 136.205 82.1441C139.094 84.3339 140.515 88.8145 140.967 90.3922C141.851 89.2373 142.965 87.9878 144.314 86.9087C146.392 85.2426 148.278 84.5674 149.689 84.2897C149.129 85.5519 148.542 86.8203 147.925 88.1014C146.016 92.0519 144.093 95.4975 142.223 98.5014C141.798 99.183 141.27 99.6058 140.713 99.6247C140.71 99.6247 140.703 99.6247 140.7 99.6247C140.693 99.6247 140.69 99.6247 140.683 99.6247C140.06 99.6247 139.486 99 139.13 98.0218L132.908 80.9451V80.9514Z" fill="#D5D5D5" fill-opacity="0.22"/>
<path d="M26.1788 12.4589C27.0131 12.4589 28.187 12.6592 29.4764 13.5721C32.3651 15.6159 33.7863 19.7978 34.2381 21.2703C35.1218 20.1924 36.2364 19.0262 37.5851 18.019C39.6626 16.4641 41.5488 15.8339 42.9601 15.5747C42.3995 16.7527 41.8126 17.9366 41.1959 19.1322C39.2866 22.8194 37.3642 26.0353 35.4944 28.8389C35.0691 29.475 34.5415 29.8697 33.9842 29.8873C33.9809 29.8873 33.9743 29.8873 33.971 29.8873C33.9644 29.8873 33.9611 29.8873 33.9545 29.8873C33.3312 29.8873 32.7575 29.3042 32.4013 28.3913L26.1788 12.453V12.4589Z" fill="#D5D5D5" fill-opacity="0.22"/>
<path d="M34.2339 46.0827C35.0348 46.0827 36.1618 46.2973 37.3995 47.2755C40.1727 49.4653 41.5371 53.9458 41.9708 55.5235C42.8192 54.3687 43.8892 53.1191 45.1839 52.04C47.1783 50.374 48.989 49.6988 50.3439 49.4211C49.8058 50.6832 49.2423 51.9517 48.6503 53.2327C46.8174 57.1832 44.9718 60.6289 43.1769 63.6328C42.7685 64.3143 42.262 64.7371 41.727 64.7561C41.7238 64.7561 41.7175 64.7561 41.7143 64.7561C41.708 64.7561 41.7048 64.7561 41.6985 64.7561C41.1002 64.7561 40.5494 64.1313 40.2075 63.1531L34.2339 46.0764V46.0827Z" fill="#D5D5D5" fill-opacity="0.22"/>
<path d="M41.6176 80.9514C42.4518 80.9514 43.6258 81.1659 44.9151 82.1441C47.8038 84.3339 49.225 88.8145 49.6768 90.3922C50.5605 89.2373 51.6751 87.9878 53.0238 86.9087C55.1013 85.2426 56.9875 84.5674 58.3988 84.2897C57.8383 85.5519 57.2513 86.8203 56.6347 88.1014C54.7254 92.0519 52.8029 95.4975 50.9332 98.5014C50.5078 99.183 49.9802 99.6058 49.4229 99.6247C49.4196 99.6247 49.413 99.6247 49.4097 99.6247C49.4031 99.6247 49.3998 99.6247 49.3932 99.6247C48.77 99.6247 48.1962 99 47.8401 98.0218L41.6176 80.9451V80.9514Z" fill="#D5D5D5" fill-opacity="0.22"/>
</svg>
