<svg width="44" height="44" viewBox="0 0 44 44" fill="none" xmlns="http://www.w3.org/2000/svg">
<g clip-path="url(#clip0_164_227)">
<path d="M17.4169 13.75C17.4169 11.2182 19.4684 9.16667 22.0003 9.16667C24.5321 9.16667 26.5836 11.2182 26.5836 13.75C26.5836 16.2818 24.5321 18.3333 22.0003 18.3333C19.4684 18.3333 17.4169 16.2818 17.4169 13.75ZM29.3336 25.6667V31.1667C29.3336 32.7855 28.6168 34.2283 27.5003 35.2367V42.1667C27.5003 43.1805 26.6808 44 25.6669 44C24.6531 44 23.8336 43.1805 23.8336 42.1667V36.6667H20.1669V42.1667C20.1669 43.1805 19.3456 44 18.3336 44C17.3216 44 16.5003 43.1805 16.5003 42.1667V35.2367C15.3838 34.2302 14.6669 32.7855 14.6669 31.1667V25.6667C14.6669 22.6343 17.1346 20.1667 20.1669 20.1667H23.8336C26.8659 20.1667 29.3336 22.6343 29.3336 25.6667ZM23.8336 33C24.8456 33 25.6669 32.1787 25.6669 31.1667V25.6667C25.6669 24.6547 24.8456 23.8333 23.8336 23.8333H20.1669C19.1568 23.8333 18.3336 24.6547 18.3336 25.6667V31.1667C18.3336 32.1787 19.1568 33 20.1669 33H23.8336ZM34.8336 9.16667C37.3654 9.16667 39.4169 7.11517 39.4169 4.58333C39.4169 2.0515 37.3654 0 34.8336 0C32.3018 0 30.2503 2.0515 30.2503 4.58333C30.2503 7.11517 32.3018 9.16667 34.8336 9.16667ZM43.9581 30.4847L42.3521 17.6367C41.8809 13.8545 38.6488 11 34.8336 11C33.0699 11 31.3539 11.6197 29.9954 12.7453C29.2163 13.3925 29.1099 14.5475 29.7553 15.3267C30.3988 16.1022 31.5556 16.214 32.3366 15.5668C33.0369 14.9875 33.9224 14.6667 34.8318 14.6667C36.799 14.6667 38.4673 16.1388 38.7111 18.0913L40.3171 30.9393C40.3831 31.4692 40.2254 31.9788 39.8734 32.3803C39.5215 32.78 39.0319 33 38.4984 33H32.9984C31.9846 33 31.1651 33.8195 31.1651 34.8333C31.1651 35.8472 31.9846 36.6667 32.9984 36.6667H36.6651V42.1667C36.6651 43.1805 37.4846 44 38.4984 44C39.5123 44 40.3318 43.1805 40.3318 42.1667V36.3202C41.2008 36.0103 41.9983 35.5117 42.6216 34.8058C43.6648 33.6215 44.1524 32.0485 43.9581 30.4847ZM9.16695 9.16667C11.6988 9.16667 13.7503 7.11517 13.7503 4.58333C13.7503 2.0515 11.6988 0 9.16695 0C6.63511 0 4.58361 2.0515 4.58361 4.58333C4.58361 7.11517 6.63511 9.16667 9.16695 9.16667ZM9.16695 11C5.35361 11 2.12145 13.8545 1.64845 17.6367L0.0424467 30.4847C-0.15372 32.0503 0.332113 33.6233 1.37711 34.8058C2.00045 35.5117 2.79795 36.0103 3.66695 36.3202V42.1667C3.66695 43.1805 4.48828 44 5.50028 44C6.51228 44 7.33361 43.1805 7.33361 42.1667V36.6667H11.0003C12.0123 36.6667 12.8336 35.8472 12.8336 34.8333C12.8336 33.8195 12.0123 33 11.0003 33H5.50028C4.96678 33 4.47911 32.78 4.12528 32.3803C3.77328 31.9788 3.61378 31.4692 3.67978 30.9393L5.28578 18.0913C5.52961 16.1388 7.19795 14.6667 9.16511 14.6667C10.0744 14.6667 10.9599 14.9875 11.6603 15.5668C12.4413 16.2158 13.5963 16.1077 14.2416 15.3267C14.8888 14.5475 14.7806 13.3907 14.0014 12.7453C12.6448 11.6197 10.9269 11 9.16328 11H9.16695Z" fill="#A67D5F"/>
</g>
<defs>
<clipPath id="clip0_164_227">
<rect width="44" height="44" fill="white"/>
</clipPath>
</defs>
</svg>
