<svg width="44" height="44" viewBox="0 0 44 44" fill="none" xmlns="http://www.w3.org/2000/svg">
<g clip-path="url(#clip0_245_441)">
<path d="M18.3333 34.8333C18.3333 32.8166 19.9833 31.1666 22 31.1666C24.0167 31.1666 25.6667 32.8166 25.6667 34.8333C25.6667 36.85 24.0167 38.5 22 38.5C19.9833 38.5 18.3333 36.85 18.3333 34.8333ZM43.4133 17.49C44.165 16.7933 44.2017 15.6383 43.505 14.905C37.9683 8.94664 30.1217 5.51831 22 5.51831C13.8783 5.51831 6.03167 8.92831 0.495 14.8866C-0.201667 15.6383 -0.146667 16.7933 0.586666 17.4716C1.32 18.1683 2.49333 18.1133 3.17167 17.38C8.01167 12.155 14.8683 9.16664 22 9.16664C29.1317 9.16664 35.97 12.155 40.8283 17.38C41.195 17.765 41.6717 17.9666 42.1667 17.9666C42.6067 17.9666 43.065 17.8016 43.4133 17.4716V17.49ZM34.2283 26.3083C34.98 25.6116 35.0167 24.4566 34.32 23.7233C31.1483 20.295 26.6567 18.3333 22 18.3333C17.3433 18.3333 12.8517 20.295 9.68 23.7233C8.98333 24.4566 9.03833 25.63 9.77167 26.3083C10.505 27.005 11.6783 26.95 12.3567 26.2166C14.8317 23.54 18.3517 22.0183 22 22.0183C25.6483 22.0183 29.15 23.5583 31.6433 26.2166C32.01 26.6016 32.4867 26.8033 32.9817 26.8033C33.4217 26.8033 33.88 26.6383 34.2283 26.3083Z" fill="#A67D5F"/>
</g>
<defs>
<clipPath id="clip0_245_441">
<rect width="44" height="44" fill="white"/>
</clipPath>
</defs>
</svg>
