<svg width="51" height="59" viewBox="0 0 51 59" fill="none" xmlns="http://www.w3.org/2000/svg">
<path d="M0 29.01C2.53 29.01 6.09 29.35 10 30.9C18.76 34.37 23.07 41.47 24.44 43.97C27.12 42.14 30.5 40.16 34.59 38.45C40.89 35.81 46.61 34.74 50.89 34.3C49.19 36.3 47.41 38.31 45.54 40.34C39.75 46.6 33.92 52.06 28.25 56.82C26.96 57.9 25.36 58.57 23.67 58.6C23.66 58.6 23.64 58.6 23.63 58.6C23.61 58.6 23.6 58.6 23.58 58.6C21.69 58.6 19.95 57.61 18.87 56.06L0 29V29.01Z" fill="#A67D5F"/>
<path d="M4 13.0034C4.84516 13.0034 6.03439 13.1182 7.34054 13.6419C10.2668 14.8142 11.7066 17.2128 12.1643 18.0574C13.0595 17.4392 14.1886 16.7703 15.5549 16.1926C17.6595 15.3007 19.5702 14.9392 21 14.7905C20.4321 15.4662 19.8375 16.1453 19.2128 16.8311C17.2786 18.9459 15.3311 20.7905 13.437 22.3986C13.0061 22.7635 12.4716 22.9899 11.9071 23C11.9037 23 11.897 23 11.8937 23C11.887 23 11.8837 23 11.877 23C11.2456 23 10.6644 22.6655 10.3036 22.1419L4 13V13.0034Z" fill="#A67D5F"/>
<path d="M30 19.0034C30.8452 19.0034 32.0344 19.1182 33.3405 19.6419C36.2668 20.8142 37.7066 23.2128 38.1643 24.0574C39.0595 23.4392 40.1886 22.7703 41.5549 22.1926C43.6595 21.3007 45.5702 20.9392 47 20.7905C46.4321 21.4662 45.8375 22.1453 45.2128 22.8311C43.2786 24.9459 41.3311 26.7905 39.437 28.3986C39.0061 28.7635 38.4716 28.9899 37.9071 29C37.9037 29 37.897 29 37.8937 29C37.887 29 37.8837 29 37.877 29C37.2456 29 36.6644 28.6655 36.3036 28.1419L30 19V19.0034Z" fill="#A67D5F"/>
<path d="M22 0.00337652C22.8452 0.00337652 24.0344 0.118246 25.3405 0.641895C28.2668 1.81419 29.7066 4.21284 30.1643 5.05743C31.0595 4.43919 32.1886 3.77027 33.5549 3.19257C35.6595 2.30067 37.5702 1.93919 39 1.79054C38.4321 2.46622 37.8375 3.14527 37.2128 3.83108C35.2786 5.94594 33.3311 7.79054 31.437 9.39865C31.0061 9.76351 30.4716 9.98986 29.9071 10C29.9037 10 29.897 10 29.8937 10C29.887 10 29.8837 10 29.877 10C29.2456 10 28.6644 9.66554 28.3036 9.14189L22 0V0.00337652Z" fill="#A67D5F"/>
</svg>
