<svg width="425" height="95" viewBox="0 0 425 95" fill="none" xmlns="http://www.w3.org/2000/svg">
<g opacity="0.34">
<path d="M246.46 11L255.05 26H237.87L246.46 11Z" fill="#D9D9D9" fill-opacity="0.37"/>
<path d="M96.1896 11L104.35 26H88.0292L96.1896 11Z" fill="#D9D9D9" fill-opacity="0.37"/>
<path d="M396.731 11L405.751 26H387.712L396.731 11Z" fill="#D9D9D9" fill-opacity="0.37"/>
<path d="M20.8063 11L29.8258 26H11.7868L20.8063 11Z" fill="#D9D9D9" fill-opacity="0.37"/>
<path d="M320.852 11L329.442 26H312.262L320.852 11Z" fill="#D9D9D9" fill-opacity="0.37"/>
<path d="M171.573 11L180.592 26H162.554L171.573 11Z" fill="#D9D9D9" fill-opacity="0.37"/>
<path d="M283.656 11L292.676 26H274.637L283.656 11Z" fill="#D9D9D9" fill-opacity="0.37"/>
<path d="M133.881 11L142.901 26H124.862L133.881 11Z" fill="#D9D9D9" fill-opacity="0.37"/>
<path d="M58.002 11L66.592 26H49.412L58.002 11Z" fill="#D9D9D9" fill-opacity="0.37"/>
<path d="M359.04 11L367.2 26H350.879L359.04 11Z" fill="#D9D9D9" fill-opacity="0.37"/>
<path d="M208.769 11L217.359 26H200.179L208.769 11Z" fill="#D9D9D9" fill-opacity="0.37"/>
<path d="M264.81 20L256.65 5L272.971 5L264.81 20Z" fill="#D9D9D9" fill-opacity="0.37"/>
<path d="M114.54 20L105.95 5L123.129 5L114.54 20Z" fill="#D9D9D9" fill-opacity="0.37"/>
<path d="M415.081 20L406.491 5L423.671 5L415.081 20Z" fill="#D9D9D9" fill-opacity="0.37"/>
<path d="M40.148 20L31.558 5L48.738 5L40.148 20Z" fill="#D9D9D9" fill-opacity="0.37"/>
<path d="M340.194 20L331.174 5L349.213 5L340.194 20Z" fill="#D9D9D9" fill-opacity="0.37"/>
<path d="M189.427 20L180.408 5L198.446 5L189.427 20Z" fill="#D9D9D9" fill-opacity="0.37"/>
<path d="M1.96044 20L-6.20005 5L10.1209 5L1.96044 20Z" fill="#D9D9D9" fill-opacity="0.37"/>
<path d="M302.998 20L294.408 5L311.588 5L302.998 20Z" fill="#D9D9D9" fill-opacity="0.37"/>
<path d="M152.231 20L143.641 5L160.821 5L152.231 20Z" fill="#D9D9D9" fill-opacity="0.37"/>
<path d="M77.3438 20L68.3243 5L86.3633 5L77.3438 20Z" fill="#D9D9D9" fill-opacity="0.37"/>
<path d="M377.389 20L368.799 5L385.979 5L377.389 20Z" fill="#D9D9D9" fill-opacity="0.37"/>
<path d="M227.119 20L218.099 5L236.138 5L227.119 20Z" fill="#D9D9D9" fill-opacity="0.37"/>
<path d="M246.956 33L243.95 27.75L249.963 27.75L246.956 33Z" fill="#D9D9D9" fill-opacity="0.37"/>
<path d="M96.1897 33L93.1832 27.75L99.1961 27.75L96.1897 33Z" fill="#D9D9D9" fill-opacity="0.37"/>
<path d="M396.731 33L393.725 27.75L399.738 27.75L396.731 33Z" fill="#D9D9D9" fill-opacity="0.37"/>
<path d="M21.7982 33L18.7917 27.75L24.8047 27.75L21.7982 33Z" fill="#D9D9D9" fill-opacity="0.37"/>
<path d="M321.348 33L318.341 27.75L324.354 27.75L321.348 33Z" fill="#D9D9D9" fill-opacity="0.37"/>
<path d="M171.077 33L168.5 27.75L173.654 27.75L171.077 33Z" fill="#D9D9D9" fill-opacity="0.37"/>
<path d="M283.656 33L280.65 27.75L286.663 27.75L283.656 33Z" fill="#D9D9D9" fill-opacity="0.37"/>
<path d="M134.377 33L131.8 27.75L136.954 27.75L134.377 33Z" fill="#D9D9D9" fill-opacity="0.37"/>
<path d="M58.498 33L55.4915 27.75L61.5045 27.75L58.498 33Z" fill="#D9D9D9" fill-opacity="0.37"/>
<path d="M359.04 33L356.033 27.75L362.046 27.75L359.04 33Z" fill="#D9D9D9" fill-opacity="0.37"/>
<path d="M208.769 33L206.192 27.75L211.346 27.75L208.769 33Z" fill="#D9D9D9" fill-opacity="0.37"/>
<path d="M246.46 42L255.05 57H237.87L246.46 42Z" fill="#D9D9D9" fill-opacity="0.37"/>
<path d="M96.1896 42L104.35 57H88.0292L96.1896 42Z" fill="#D9D9D9" fill-opacity="0.37"/>
<path d="M396.731 42L405.751 57H387.712L396.731 42Z" fill="#D9D9D9" fill-opacity="0.37"/>
<path d="M20.8063 42L29.8258 57H11.7868L20.8063 42Z" fill="#D9D9D9" fill-opacity="0.37"/>
<path d="M320.852 42L329.442 57H312.262L320.852 42Z" fill="#D9D9D9" fill-opacity="0.37"/>
<path d="M171.573 42L180.592 57H162.554L171.573 42Z" fill="#D9D9D9" fill-opacity="0.37"/>
<path d="M283.656 42L292.676 57H274.637L283.656 42Z" fill="#D9D9D9" fill-opacity="0.37"/>
<path d="M133.881 42L142.901 57H124.862L133.881 42Z" fill="#D9D9D9" fill-opacity="0.37"/>
<path d="M58.002 42L66.592 57H49.412L58.002 42Z" fill="#D9D9D9" fill-opacity="0.37"/>
<path d="M359.04 42L367.2 57H350.879L359.04 42Z" fill="#D9D9D9" fill-opacity="0.37"/>
<path d="M208.769 42L217.359 57H200.179L208.769 42Z" fill="#D9D9D9" fill-opacity="0.37"/>
<path d="M264.81 51L256.65 36L272.971 36L264.81 51Z" fill="#D9D9D9" fill-opacity="0.37"/>
<path d="M114.54 51L105.95 36L123.129 36L114.54 51Z" fill="#D9D9D9" fill-opacity="0.37"/>
<path d="M415.081 51L406.491 36L423.671 36L415.081 51Z" fill="#D9D9D9" fill-opacity="0.37"/>
<path d="M40.148 51L31.558 36L48.738 36L40.148 51Z" fill="#D9D9D9" fill-opacity="0.37"/>
<path d="M340.194 51L331.174 36L349.213 36L340.194 51Z" fill="#D9D9D9" fill-opacity="0.37"/>
<path d="M189.427 51L180.408 36L198.446 36L189.427 51Z" fill="#D9D9D9" fill-opacity="0.37"/>
<path d="M1.96044 51L-6.20005 36L10.1209 36L1.96044 51Z" fill="#D9D9D9" fill-opacity="0.37"/>
<path d="M302.998 51L294.408 36L311.588 36L302.998 51Z" fill="#D9D9D9" fill-opacity="0.37"/>
<path d="M152.231 51L143.641 36L160.821 36L152.231 51Z" fill="#D9D9D9" fill-opacity="0.37"/>
<path d="M77.3438 51L68.3243 36L86.3633 36L77.3438 51Z" fill="#D9D9D9" fill-opacity="0.37"/>
<path d="M377.389 51L368.799 36L385.979 36L377.389 51Z" fill="#D9D9D9" fill-opacity="0.37"/>
<path d="M227.119 51L218.099 36L236.138 36L227.119 51Z" fill="#D9D9D9" fill-opacity="0.37"/>
<path d="M246.956 64L243.95 58.75L249.963 58.75L246.956 64Z" fill="#D9D9D9" fill-opacity="0.37"/>
<path d="M96.1897 64L93.1832 58.75L99.1961 58.75L96.1897 64Z" fill="#D9D9D9" fill-opacity="0.37"/>
<path d="M396.731 64L393.725 58.75L399.738 58.75L396.731 64Z" fill="#D9D9D9" fill-opacity="0.37"/>
<path d="M21.7982 64L18.7917 58.75L24.8047 58.75L21.7982 64Z" fill="#D9D9D9" fill-opacity="0.37"/>
<path d="M321.348 64L318.341 58.75L324.354 58.75L321.348 64Z" fill="#D9D9D9" fill-opacity="0.37"/>
<path d="M171.077 64L168.5 58.75L173.654 58.75L171.077 64Z" fill="#D9D9D9" fill-opacity="0.37"/>
<path d="M283.656 64L280.65 58.75L286.663 58.75L283.656 64Z" fill="#D9D9D9" fill-opacity="0.37"/>
<path d="M134.377 64L131.8 58.75L136.954 58.75L134.377 64Z" fill="#D9D9D9" fill-opacity="0.37"/>
<path d="M58.498 64L55.4915 58.75L61.5045 58.75L58.498 64Z" fill="#D9D9D9" fill-opacity="0.37"/>
<path d="M359.04 64L356.033 58.75L362.046 58.75L359.04 64Z" fill="#D9D9D9" fill-opacity="0.37"/>
<path d="M208.769 64L206.192 58.75L211.346 58.75L208.769 64Z" fill="#D9D9D9" fill-opacity="0.37"/>
<path d="M246.46 73L255.05 88H237.87L246.46 73Z" fill="#D9D9D9" fill-opacity="0.37"/>
<path d="M96.1896 73L104.35 88H88.0292L96.1896 73Z" fill="#D9D9D9" fill-opacity="0.37"/>
<path d="M396.731 73L405.751 88H387.712L396.731 73Z" fill="#D9D9D9" fill-opacity="0.37"/>
<path d="M20.8063 73L29.8258 88H11.7868L20.8063 73Z" fill="#D9D9D9" fill-opacity="0.37"/>
<path d="M320.852 73L329.442 88H312.262L320.852 73Z" fill="#D9D9D9" fill-opacity="0.37"/>
<path d="M171.573 73L180.592 88H162.554L171.573 73Z" fill="#D9D9D9" fill-opacity="0.37"/>
<path d="M283.656 73L292.676 88H274.637L283.656 73Z" fill="#D9D9D9" fill-opacity="0.37"/>
<path d="M133.881 73L142.901 88H124.862L133.881 73Z" fill="#D9D9D9" fill-opacity="0.37"/>
<path d="M58.002 73L66.592 88H49.412L58.002 73Z" fill="#D9D9D9" fill-opacity="0.37"/>
<path d="M359.04 73L367.2 88H350.879L359.04 73Z" fill="#D9D9D9" fill-opacity="0.37"/>
<path d="M208.769 73L217.359 88H200.179L208.769 73Z" fill="#D9D9D9" fill-opacity="0.37"/>
<path d="M264.81 82L256.65 67L272.971 67L264.81 82Z" fill="#D9D9D9" fill-opacity="0.37"/>
<path d="M114.54 82L105.95 67L123.129 67L114.54 82Z" fill="#D9D9D9" fill-opacity="0.37"/>
<path d="M415.081 82L406.491 67L423.671 67L415.081 82Z" fill="#D9D9D9" fill-opacity="0.37"/>
<path d="M40.148 82L31.558 67L48.738 67L40.148 82Z" fill="#D9D9D9" fill-opacity="0.37"/>
<path d="M340.194 82L331.174 67L349.213 67L340.194 82Z" fill="#D9D9D9" fill-opacity="0.37"/>
<path d="M189.427 82L180.408 67L198.446 67L189.427 82Z" fill="#D9D9D9" fill-opacity="0.37"/>
<path d="M1.96044 82L-6.20005 67L10.1209 67L1.96044 82Z" fill="#D9D9D9" fill-opacity="0.37"/>
<path d="M302.998 82L294.408 67L311.588 67L302.998 82Z" fill="#D9D9D9" fill-opacity="0.37"/>
<path d="M152.231 82L143.641 67L160.821 67L152.231 82Z" fill="#D9D9D9" fill-opacity="0.37"/>
<path d="M77.3438 82L68.3243 67L86.3633 67L77.3438 82Z" fill="#D9D9D9" fill-opacity="0.37"/>
<path d="M377.389 82L368.799 67L385.979 67L377.389 82Z" fill="#D9D9D9" fill-opacity="0.37"/>
<path d="M227.119 82L218.099 67L236.138 67L227.119 82Z" fill="#D9D9D9" fill-opacity="0.37"/>
<path d="M246.956 95L243.95 89.75L249.963 89.75L246.956 95Z" fill="#D9D9D9" fill-opacity="0.37"/>
<path d="M96.1897 95L93.1832 89.75L99.1961 89.75L96.1897 95Z" fill="#D9D9D9" fill-opacity="0.37"/>
<path d="M396.731 95L393.725 89.75L399.738 89.75L396.731 95Z" fill="#D9D9D9" fill-opacity="0.37"/>
<path d="M21.7982 95L18.7917 89.75L24.8047 89.75L21.7982 95Z" fill="#D9D9D9" fill-opacity="0.37"/>
<path d="M321.348 95L318.341 89.75L324.354 89.75L321.348 95Z" fill="#D9D9D9" fill-opacity="0.37"/>
<path d="M171.077 95L168.5 89.75L173.654 89.75L171.077 95Z" fill="#D9D9D9" fill-opacity="0.37"/>
<path d="M283.656 95L280.65 89.75L286.663 89.75L283.656 95Z" fill="#D9D9D9" fill-opacity="0.37"/>
<path d="M134.377 95L131.8 89.75L136.954 89.75L134.377 95Z" fill="#D9D9D9" fill-opacity="0.37"/>
<path d="M58.498 95L55.4915 89.75L61.5045 89.75L58.498 95Z" fill="#D9D9D9" fill-opacity="0.37"/>
<path d="M359.04 95L356.033 89.75L362.046 89.75L359.04 95Z" fill="#D9D9D9" fill-opacity="0.37"/>
<path d="M208.769 95L206.192 89.75L211.346 89.75L208.769 95Z" fill="#D9D9D9" fill-opacity="0.37"/>
</g>
</svg>
