<svg width="35" height="35" viewBox="0 0 35 35" fill="none" xmlns="http://www.w3.org/2000/svg">
<g clip-path="url(#clip0_41_2012)">
<path d="M31.6764 30.625L28.7598 21.875H18.9583C18.5715 21.875 18.2006 21.7214 17.9271 21.4479C17.6536 21.1744 17.5 20.8034 17.5 20.4167V18.9583H27.7083V16.0417H17.5V11.4596C18.8747 11.1046 20.0728 10.2605 20.8696 9.08541C21.6665 7.91031 22.0074 6.48494 21.8285 5.07646C21.6496 3.66798 20.9631 2.3731 19.8978 1.43453C18.8325 0.495964 17.4614 -0.0218506 16.0416 -0.0218506C14.6218 -0.0218506 13.2508 0.495964 12.1855 1.43453C11.1201 2.3731 10.4337 3.66798 10.2548 5.07646C10.0759 6.48494 10.4168 7.91031 11.2137 9.08541C12.0105 10.2605 13.2086 11.1046 14.5833 11.4596V20.4167C14.5833 21.577 15.0442 22.6898 15.8647 23.5103C16.6852 24.3307 17.798 24.7917 18.9583 24.7917H20.2854C20.0073 26.4369 19.2645 27.9684 18.1447 29.2055C17.0249 30.4425 15.5747 31.3336 13.9652 31.7736C12.3556 32.2136 10.6538 32.1843 9.0604 31.6889C7.46699 31.1936 6.04843 30.253 4.97199 28.978C3.89555 27.7031 3.2061 26.1469 2.98496 24.493C2.76381 22.8391 3.02019 21.1564 3.72385 19.6434C4.4275 18.1304 5.54911 16.8502 6.95641 15.9536C8.36371 15.0571 9.99802 14.5816 11.6666 14.5833V11.6667C9.42103 11.6649 7.22263 12.3113 5.33533 13.5282C3.44803 14.7451 1.95202 16.4808 1.02689 18.527C0.101765 20.5732 -0.213174 22.8429 0.119881 25.0637C0.452935 27.2844 1.41983 29.3619 2.9045 31.0467C4.38917 32.7315 6.32853 33.952 8.48978 34.5617C10.651 35.1714 12.9423 35.1445 15.0886 34.4841C17.2349 33.8236 19.145 32.5578 20.5896 30.8386C22.0342 29.1193 22.952 27.0197 23.2327 24.7917H26.6569L29.5735 33.5417H35V30.625H31.6764ZM13.125 5.83333C13.125 5.25647 13.296 4.69256 13.6165 4.21292C13.937 3.73328 14.3925 3.35944 14.9255 3.13868C15.4584 2.91793 16.0449 2.86017 16.6107 2.97271C17.1764 3.08525 17.6961 3.36304 18.104 3.77094C18.5119 4.17884 18.7897 4.69854 18.9023 5.26432C19.0148 5.8301 18.957 6.41654 18.7363 6.94949C18.5155 7.48244 18.1417 7.93797 17.6621 8.25845C17.1824 8.57894 16.6185 8.75 16.0416 8.75C15.2681 8.75 14.5262 8.44271 13.9792 7.89573C13.4323 7.34875 13.125 6.60688 13.125 5.83333Z" fill="#020144"/>
</g>
<defs>
<clipPath id="clip0_41_2012">
<rect width="35" height="35" fill="white"/>
</clipPath>
</defs>
</svg>
