<svg xmlns="http://www.w3.org/2000/svg" xmlns:xlink="http://www.w3.org/1999/xlink" width="500" zoomAndPan="magnify" viewBox="0 0 375 374.999991" height="500" preserveAspectRatio="xMidYMid meet" version="1.0"><defs><clipPath id="92b9e6e586"><path d="M 65 0 L 310.335938 0 L 310.335938 374.988281 L 65 374.988281 Z M 65 0 " clip-rule="nonzero"/></clipPath><clipPath id="4c92e0d691"><path d="M 64.527344 186.503906 L 174 186.503906 L 174 374.988281 L 64.527344 374.988281 Z M 64.527344 186.503906 " clip-rule="nonzero"/></clipPath></defs><g clip-path="url(#92b9e6e586)"><path fill="#c2ab9b" d="M 66.828125 372.871094 L 308.667969 372.871094 L 308.667969 122.644531 C 308.667969 90.335938 296.085938 59.960938 273.246094 37.113281 C 250.410156 14.265625 220.046875 1.683594 187.746094 1.683594 C 155.449219 1.683594 125.082031 14.265625 102.246094 37.113281 C 79.40625 59.960938 66.828125 90.335938 66.828125 122.644531 Z M 310.34375 374.550781 L 65.152344 374.550781 L 65.152344 122.644531 C 65.152344 89.890625 77.902344 59.089844 101.058594 35.921875 C 124.214844 12.761719 155 0.00390625 187.746094 0.00390625 C 220.492188 0.00390625 251.277344 12.761719 274.433594 35.921875 C 297.589844 59.089844 310.34375 89.890625 310.34375 122.644531 L 310.34375 374.550781 " fill-opacity="1" fill-rule="nonzero"/></g><path fill="#c2ab9b" d="M 72.421875 367.273438 L 303.070312 367.273438 L 303.070312 122.644531 C 303.070312 59.035156 251.335938 7.28125 187.746094 7.28125 C 124.160156 7.28125 72.421875 59.035156 72.421875 122.644531 Z M 304.75 368.953125 L 70.742188 368.953125 L 70.742188 122.644531 C 70.742188 58.105469 123.230469 5.601562 187.746094 5.601562 C 252.261719 5.601562 304.75 58.105469 304.75 122.644531 L 304.75 368.953125 " fill-opacity="1" fill-rule="nonzero"/><g clip-path="url(#4c92e0d691)"><path fill="#c2ab9b" d="M 143.824219 271.242188 C 143.917969 271.242188 144.011719 271.238281 144.109375 271.238281 C 144.0625 270.957031 144.019531 270.671875 143.960938 270.300781 C 143.089844 270.757812 143.871094 270.957031 143.824219 271.242188 Z M 93.0625 262.535156 C 93.257812 262.042969 93.394531 261.707031 93.542969 261.328125 C 92.34375 261.320312 92.859375 261.890625 93.0625 262.535156 Z M 104.757812 248.441406 C 105.113281 249.019531 105.148438 249.015625 106.003906 248.261719 C 105.988281 248.203125 105.972656 248.148438 105.957031 248.089844 C 105.5625 248.207031 105.164062 248.320312 104.757812 248.441406 Z M 170.800781 261.363281 C 170.613281 261.351562 170.4375 261.195312 170.25 261.136719 C 170.175781 261.117188 170.050781 261.164062 169.988281 261.226562 C 169.953125 261.257812 169.972656 261.433594 170.011719 261.453125 C 170.390625 261.640625 170.777344 261.808594 171.1875 261.996094 C 171.277344 261.609375 171.230469 261.390625 170.800781 261.363281 Z M 132.945312 259.800781 C 132.433594 260.351562 132.585938 260.65625 133.542969 260.734375 C 133.347656 260.429688 133.152344 260.121094 132.945312 259.800781 Z M 88.550781 206.835938 C 88.4375 206.851562 88.347656 206.996094 88.246094 207.078125 C 88.34375 207.148438 88.453125 207.203125 88.539062 207.28125 C 88.652344 207.398438 88.746094 207.535156 88.855469 207.660156 C 88.917969 207.726562 88.996094 207.78125 89.070312 207.84375 C 89.046875 207.769531 89.023438 207.691406 89.007812 207.617188 C 88.996094 207.554688 88.996094 207.492188 88.988281 207.386719 C 89.238281 206.941406 89.042969 206.761719 88.550781 206.835938 Z M 113.871094 253.574219 C 113.796875 253.011719 113.644531 252.542969 112.914062 252.488281 C 112.792969 253.261719 113.425781 253.320312 113.871094 253.574219 Z M 133.179688 256.097656 C 132.960938 255.867188 132.804688 255.703125 132.613281 255.5 C 132.453125 256.285156 133.09375 256.078125 133.367188 256.269531 C 133.585938 255.980469 133.796875 255.699219 134.023438 255.398438 C 133.847656 255.269531 133.703125 255.167969 133.621094 255.105469 C 133.46875 255.445312 133.335938 255.742188 133.179688 256.097656 Z M 143.929688 215.902344 C 143.714844 216.035156 143.5625 216.164062 143.386719 216.226562 C 142.90625 216.40625 142.828125 216.683594 143.226562 217.125 C 143.535156 216.765625 143.839844 216.414062 144.144531 216.0625 C 144.015625 215.964844 143.921875 215.894531 143.929688 215.902344 Z M 141.382812 213.136719 C 141.320312 213.585938 141.261719 213.996094 141.207031 214.402344 C 141.277344 214.4375 141.347656 214.46875 141.417969 214.5 C 141.6875 214.164062 141.957031 213.824219 142.277344 213.417969 C 141.90625 213.296875 141.691406 213.230469 141.382812 213.136719 Z M 91.449219 199.851562 C 91.476562 199.792969 91.507812 199.730469 91.539062 199.667969 C 90.984375 198.925781 90.054688 198.941406 89.335938 198.539062 C 89.300781 198.605469 89.269531 198.667969 89.234375 198.734375 C 89.972656 199.105469 90.710938 199.480469 91.449219 199.851562 Z M 141.667969 215.074219 C 142.527344 214.734375 142.886719 214.121094 142.640625 213.144531 C 142.324219 213.773438 142.007812 214.40625 141.667969 215.074219 Z M 115.261719 256.085938 C 115.476562 255.167969 114.722656 254.753906 114.464844 254.144531 C 114.429688 254.058594 114.148438 254.070312 113.832031 254.011719 C 114.359375 254.777344 114.777344 255.386719 115.261719 256.085938 Z M 168.839844 260.789062 C 169 260.863281 169.242188 260.757812 169.449219 260.734375 C 169.421875 260.550781 169.457031 260.296875 169.347656 260.199219 C 169.109375 259.980469 168.800781 259.839844 168.515625 259.667969 C 168.417969 259.832031 168.511719 260.632812 168.839844 260.789062 Z M 109.449219 368.71875 C 109.503906 368.621094 109.492188 368.457031 109.449219 368.347656 C 109.378906 368.15625 109.261719 367.984375 109.167969 367.804688 C 109.007812 367.972656 108.808594 368.117188 108.710938 368.3125 C 108.625 368.480469 108.566406 368.769531 108.65625 368.90625 C 108.917969 369.308594 109.082031 369.695312 108.867188 370.191406 C 109.605469 369.882812 109.199219 369.1875 109.449219 368.71875 Z M 113.71875 244.5 C 113.355469 245.160156 113.019531 245.769531 112.683594 246.386719 C 112.734375 246.410156 112.78125 246.4375 112.835938 246.460938 C 113.519531 246.167969 114.203125 245.871094 114.96875 245.542969 C 114.542969 245.191406 114.179688 244.886719 113.71875 244.5 Z M 105.929688 239.273438 C 105.976562 239.183594 106.039062 239.121094 106.042969 239.054688 C 106.078125 238.636719 105.375 237.976562 104.972656 237.964844 C 104.519531 237.945312 104.070312 237.832031 103.625 237.800781 C 103.34375 237.78125 103.054688 237.84375 102.769531 237.867188 C 102.757812 237.96875 102.75 238.0625 102.738281 238.160156 C 103.789062 238.527344 104.84375 238.894531 105.929688 239.273438 Z M 104.253906 246.496094 C 103.796875 245.925781 103.277344 245.449219 102.617188 245.523438 C 102.003906 245.589844 101.5 246.097656 101.253906 246.683594 C 101.121094 247.011719 101.089844 247.265625 100.644531 247.304688 C 100.425781 247.320312 100.230469 247.585938 100.023438 247.742188 C 100.058594 247.8125 100.089844 247.882812 100.125 247.949219 C 101.480469 247.472656 102.839844 246.992188 104.253906 246.496094 Z M 163.851562 249.03125 C 163.402344 249.203125 162.949219 249.371094 162.503906 249.546875 C 161.910156 249.773438 161.152344 249.855469 160.777344 250.277344 C 160.457031 250.648438 160.238281 250.582031 159.917969 250.570312 C 159.800781 250.566406 159.679688 250.589844 159.496094 250.605469 C 159.570312 250.871094 159.632812 251.082031 159.707031 251.347656 C 160.066406 251.132812 160.453125 250.996094 160.675781 250.726562 C 161.011719 250.316406 161.363281 250.449219 161.734375 250.539062 C 161.949219 250.589844 162.15625 250.679688 162.375 250.753906 C 162.363281 250.832031 162.347656 250.949219 162.328125 251.066406 C 162.480469 251.078125 162.628906 251.085938 162.773438 251.097656 C 163.019531 251.117188 163.269531 251.113281 163.503906 251.171875 C 163.730469 251.226562 163.9375 251.367188 164.160156 251.449219 C 164.660156 251.628906 165.183594 251.75 165.660156 251.976562 C 166.574219 252.410156 167.488281 252.859375 168.363281 253.371094 C 168.921875 253.699219 169.414062 254.140625 169.917969 254.550781 C 170.121094 254.71875 170.273438 254.953125 170.570312 255.296875 C 170.558594 255.59375 170.183594 255.871094 169.789062 256.003906 C 169.167969 256.21875 167.824219 255.730469 167.503906 255.242188 C 167.425781 255.476562 167.363281 255.667969 167.289062 255.886719 C 169.488281 257.246094 171.253906 258.992188 172.78125 260.988281 C 172.746094 261.03125 172.707031 261.070312 172.671875 261.109375 C 172.472656 260.941406 172.277344 260.777344 172.085938 260.617188 C 171.617188 260.746094 171.15625 260.871094 170.792969 260.972656 C 171.710938 261.714844 172.574219 262.417969 173.433594 263.117188 C 173.382812 263.191406 173.328125 263.265625 173.273438 263.339844 C 172.675781 262.910156 172.070312 262.472656 171.464844 262.035156 C 171.386719 262.136719 171.273438 262.371094 171.21875 262.359375 C 170.664062 262.234375 170.035156 262.316406 169.636719 261.753906 C 169.253906 261.21875 169.128906 261.230469 168.789062 261.773438 C 168.65625 261.679688 168.523438 261.589844 168.390625 261.5 C 168.355469 261.539062 168.320312 261.574219 168.285156 261.613281 C 168.574219 261.933594 168.863281 262.25 169.148438 262.566406 C 169.191406 262.53125 169.234375 262.5 169.277344 262.464844 C 169.1875 262.28125 169.105469 262.097656 169.015625 261.914062 C 169.046875 261.886719 169.074219 261.859375 169.105469 261.832031 C 169.523438 262.304688 169.941406 262.773438 170.382812 263.265625 C 169.667969 263.148438 168.945312 263.027344 168.148438 262.902344 C 168.375 263.65625 168.570312 264.316406 168.761719 264.945312 C 167.785156 264.929688 167.175781 264.226562 166.476562 263.683594 C 165.820312 263.175781 165.484375 262.394531 164.570312 262.054688 C 163.859375 261.789062 163.324219 260.949219 163.085938 260.082031 C 163.046875 259.941406 162.792969 259.839844 162.625 259.753906 C 162.183594 259.53125 161.710938 259.359375 161.300781 259.097656 C 161.101562 258.972656 161.003906 258.6875 160.871094 258.496094 C 159.953125 259.3125 160.527344 260.007812 160.703125 260.675781 C 160.863281 261.3125 161.175781 261.914062 161.292969 262.558594 C 161.355469 262.917969 161.15625 263.320312 161.097656 263.605469 C 160.691406 263.226562 160.195312 262.769531 159.582031 262.191406 C 159.753906 261.4375 158.847656 261.199219 158.34375 260.742188 C 157.722656 261.253906 157.367188 259.964844 156.761719 260.460938 C 156.152344 259.953125 155.535156 259.441406 154.886719 258.898438 C 154.789062 258.921875 154.582031 258.972656 154.34375 259.03125 C 154.347656 259.078125 154.359375 259.195312 154.363281 259.207031 C 154.078125 259.207031 153.828125 259.207031 153.578125 259.207031 C 153.589844 259.402344 153.554688 259.542969 153.613281 259.628906 C 153.878906 260.050781 153.777344 260.175781 153.289062 260.117188 C 153.046875 260.085938 152.128906 259.796875 151.910156 259.574219 C 151.773438 259.425781 151.582031 259.273438 151.550781 259.097656 C 151.417969 258.382812 151.023438 258.066406 150.300781 258.152344 C 150.367188 257.753906 149.636719 256.925781 149.308594 256.773438 C 148.78125 256.53125 148.28125 256.195312 147.835938 255.820312 C 147.386719 255.449219 147.027344 254.972656 146.625 254.542969 C 146.558594 254.585938 146.488281 254.632812 146.421875 254.679688 C 146.507812 255.226562 146.601562 255.765625 146.671875 256.316406 C 146.730469 256.792969 146.96875 257.460938 146.75 257.710938 C 146.332031 258.179688 146.636719 258.628906 146.414062 259.089844 C 146.3125 258.949219 146.328125 258.757812 146.25 258.613281 C 146.121094 258.375 145.976562 258.109375 145.761719 257.953125 C 145.40625 257.6875 144.882812 257.648438 144.863281 257.003906 C 144.859375 256.789062 144.613281 256.425781 144.15625 256.515625 C 143.96875 256.554688 143.667969 256.40625 143.527344 256.242188 C 142.988281 255.613281 142.507812 254.925781 141.972656 254.289062 C 141.1875 253.375 140.429688 252.429688 139.558594 251.601562 C 138.875 250.957031 138.035156 250.472656 137.265625 249.917969 C 137.242188 249.953125 137.21875 249.992188 137.195312 250.027344 C 137.792969 251.070312 138.386719 252.105469 138.980469 253.132812 C 138.929688 253.371094 138.863281 253.664062 138.773438 254.082031 C 139.105469 253.945312 139.269531 253.878906 139.632812 253.730469 C 139.085938 254.382812 139.058594 254.816406 139.527344 255.359375 C 139.910156 255.796875 140.078125 256.429688 140.40625 257.097656 C 139.726562 256.808594 139.015625 256.941406 138.628906 256.292969 C 138.574219 256.203125 138.492188 256.097656 138.402344 256.074219 C 137.117188 255.707031 136.242188 254.75 135.273438 253.925781 C 135.160156 253.828125 134.964844 253.773438 134.808594 253.78125 C 134.34375 253.800781 133.9375 253.792969 133.679688 253.277344 C 133.589844 253.097656 133.28125 253.027344 133.074219 252.910156 C 133.035156 252.964844 132.996094 253.019531 132.957031 253.078125 C 133.65625 254.277344 134.359375 255.480469 135.0625 256.679688 C 134.988281 256.734375 134.914062 256.789062 134.84375 256.84375 C 134.671875 256.710938 134.496094 256.585938 134.34375 256.4375 C 134.21875 256.3125 134.101562 256.347656 133.984375 256.460938 C 133.734375 256.707031 133.441406 256.914062 133.25 257.066406 C 133.375 257.273438 133.507812 257.492188 133.65625 257.742188 C 133.144531 257.777344 132.703125 257.804688 132.203125 257.839844 C 132.582031 258.6875 133.316406 259.074219 134.238281 259.085938 C 133.871094 259.296875 133.503906 259.511719 133.140625 259.730469 C 133.421875 259.828125 133.660156 259.808594 133.894531 259.761719 C 134.296875 259.683594 134.75 259.425781 135.085938 259.539062 C 135.773438 259.773438 136.394531 260.195312 137.042969 260.550781 C 137.640625 260.878906 138.242188 261.214844 138.894531 261.578125 C 138.902344 261.554688 138.847656 261.667969 138.84375 261.785156 C 138.839844 261.890625 138.890625 262 138.917969 262.125 C 139.136719 262.125 139.359375 262.152344 139.570312 262.113281 C 139.722656 262.085938 139.863281 261.96875 140.09375 261.851562 C 140.378906 262.070312 140.777344 262.371094 141.21875 262.714844 C 141.09375 262.914062 140.929688 263.175781 140.757812 263.449219 C 140.550781 263.320312 140.339844 263.191406 140.074219 263.023438 C 139.816406 263.898438 139.109375 263.632812 138.476562 263.597656 C 138.550781 263.789062 138.59375 263.910156 138.640625 264.035156 C 138.617188 264.050781 138.589844 264.0625 138.566406 264.074219 C 138.765625 264.546875 138.964844 265.023438 139.175781 265.527344 C 139.71875 265.269531 139.832031 265.851562 140.089844 266.21875 C 140.191406 266.367188 140.316406 266.601562 140.445312 266.613281 C 141.464844 266.699219 142.472656 266.777344 143.339844 267.4375 C 143.636719 267.667969 144.007812 267.835938 144.375 267.949219 C 145.019531 268.160156 145.683594 268.179688 146.078125 268.960938 C 146.402344 269.605469 146.472656 270.015625 145.714844 270.574219 C 145.710938 269.800781 145.054688 270.019531 144.652344 269.835938 C 144.539062 269.785156 144.351562 269.851562 144.222656 269.914062 C 144.175781 269.933594 144.148438 270.140625 144.195312 270.191406 C 144.375 270.398438 144.621094 270.5625 144.777344 270.785156 C 144.863281 270.910156 144.898438 271.160156 144.832031 271.285156 C 144.6875 271.566406 144.457031 271.796875 144.25 272.0625 C 144.308594 272.25 144.390625 272.503906 144.449219 272.695312 C 144.621094 272.679688 144.839844 272.589844 144.9375 272.664062 C 145.632812 273.191406 146.34375 273.71875 146.972656 274.328125 C 147.390625 274.738281 147.589844 275.390625 148.292969 275.484375 C 148.335938 275.492188 148.394531 275.496094 148.410156 275.523438 C 148.628906 275.898438 148.847656 276.273438 149.050781 276.621094 C 148.617188 276.546875 147.964844 276.179688 147.679688 276.90625 C 147.359375 276.945312 147.117188 276.972656 146.859375 277.003906 C 146.949219 277.195312 147.011719 277.332031 147.058594 277.433594 C 146.75 277.417969 146.484375 277.40625 146.214844 277.394531 C 146.203125 277.441406 146.195312 277.492188 146.183594 277.539062 C 146.363281 277.652344 146.539062 277.765625 146.730469 277.890625 C 146.410156 278.371094 145.984375 278.136719 145.777344 277.96875 C 145.472656 277.726562 145.359375 277.710938 145.160156 278.03125 C 145.085938 278.148438 144.90625 278.191406 144.761719 278.28125 C 144.839844 278.472656 144.867188 278.667969 144.980469 278.765625 C 145.476562 279.210938 146.019531 279.605469 146.496094 280.070312 C 146.859375 280.421875 147.542969 280.425781 147.613281 281.097656 C 147.617188 281.140625 147.785156 281.164062 147.871094 281.207031 C 148.066406 281.304688 148.304688 281.363281 148.453125 281.511719 C 148.851562 281.894531 149.148438 282.414062 149.601562 282.707031 C 150.890625 283.53125 151.601562 284.734375 152.023438 286.144531 C 152.066406 286.28125 151.875 286.558594 151.722656 286.65625 C 151.328125 286.910156 150.789062 286.941406 150.605469 287.492188 C 150.585938 287.550781 150.417969 287.582031 150.316406 287.589844 C 149.714844 287.632812 149.105469 287.660156 148.402344 287.703125 C 148.769531 288.25 149.160156 288.773438 149.488281 289.332031 C 150.117188 290.417969 150.757812 291.503906 151.316406 292.625 C 152.03125 294.046875 152.582031 295.523438 152.140625 297.160156 C 150.949219 297.433594 150.789062 297.390625 150.3125 296.570312 C 150.074219 296.160156 149.886719 295.722656 149.671875 295.296875 C 149.527344 295.585938 149.484375 295.871094 149.53125 296.144531 C 149.71875 297.164062 149.949219 298.179688 150.125 299.207031 C 150.320312 300.3125 150.496094 301.421875 150.628906 302.535156 C 150.726562 303.335938 150.753906 304.144531 150.792969 304.953125 C 150.796875 305.039062 150.675781 305.136719 150.613281 305.230469 C 150.238281 304.878906 149.761719 304.589844 149.527344 304.164062 C 149.179688 303.546875 148.992188 302.828125 148.769531 302.144531 C 148.660156 301.804688 148.625 301.441406 148.535156 300.992188 C 148.28125 301.515625 148.011719 301.921875 147.894531 302.371094 C 147.726562 302.992188 147.476562 303.257812 146.839844 302.867188 C 147.117188 302.367188 146.792969 302.136719 146.386719 301.925781 C 146.238281 301.847656 146.035156 301.699219 146.027344 301.574219 C 146 301.15625 145.996094 300.722656 146.082031 300.316406 C 146.386719 298.921875 146.59375 297.511719 146.683594 296.089844 C 146.734375 295.347656 146.691406 294.601562 146.691406 293.851562 C 146.472656 294.175781 146.417969 294.515625 146.3125 294.839844 C 146.242188 295.054688 146.097656 295.238281 145.992188 295.441406 C 145.894531 295.253906 145.796875 295.074219 145.703125 294.886719 C 145.667969 294.820312 145.632812 294.753906 145.582031 294.652344 C 145.441406 294.871094 145.328125 295.042969 145.117188 295.367188 C 144.984375 294.925781 144.898438 294.648438 144.800781 294.320312 C 144.703125 294.363281 144.636719 294.390625 144.570312 294.425781 C 143.914062 294.777344 143.941406 294.769531 143.753906 294.03125 C 143.710938 293.851562 143.421875 293.734375 143.246094 293.589844 C 143.175781 293.617188 143.105469 293.644531 143.03125 293.667969 C 143.070312 293.269531 143.09375 292.867188 143.144531 292.46875 C 143.214844 291.898438 143.316406 291.324219 143.386719 290.75 C 143.398438 290.660156 143.339844 290.480469 143.296875 290.472656 C 142.695312 290.386719 142.972656 289.863281 142.828125 289.480469 C 142.550781 289.964844 142.304688 290.402344 142.066406 290.832031 C 141.863281 290.472656 141.820312 290.109375 141.734375 289.757812 C 141.695312 289.59375 141.597656 289.414062 141.472656 289.304688 C 141.34375 289.195312 141.015625 289.164062 141.011719 289.082031 C 140.996094 288.867188 141.128906 288.648438 141.171875 288.425781 C 141.273438 287.886719 142.132812 287.695312 141.71875 287.078125 C 141.414062 286.761719 141.105469 286.445312 140.789062 286.117188 C 140.242188 286.425781 140.242188 286.425781 139.785156 285.972656 C 139.707031 285.738281 139.632812 285.5 139.546875 285.230469 C 139.777344 285.078125 139.785156 284.957031 139.449219 284.644531 C 139.265625 284.472656 139.207031 284.382812 139.242188 284.054688 C 139.296875 283.582031 139.867188 282.964844 139.03125 282.511719 C 138.644531 283.082031 138.242188 283.675781 137.898438 284.183594 C 137.355469 283.621094 136.84375 283.085938 136.257812 282.480469 C 136.363281 282.074219 136.238281 281.34375 136.929688 281.09375 C 136.828125 280.773438 136.734375 280.496094 136.636719 280.191406 C 136.582031 280.21875 136.5 280.277344 136.410156 280.296875 C 136.136719 280.347656 135.859375 280.398438 135.585938 280.410156 C 135.53125 280.410156 135.398438 280.1875 135.425781 280.125 C 135.730469 279.4375 135.191406 279.289062 134.78125 279.070312 C 134.601562 278.335938 135.203125 277.480469 134.414062 276.84375 C 134.390625 276.824219 134.375 276.746094 134.394531 276.730469 C 134.90625 276.125 134.4375 275.472656 134.480469 274.84375 C 134.519531 274.285156 134.386719 273.710938 134.316406 273.035156 C 134.074219 273.898438 133.832031 274.632812 133.671875 275.378906 C 133.515625 276.117188 133.511719 276.898438 132.769531 277.414062 C 132.792969 276.957031 132.8125 276.550781 132.832031 276.144531 C 132.808594 276.152344 132.789062 276.160156 132.765625 276.167969 C 132.847656 275.921875 132.925781 275.671875 133.003906 275.421875 C 132.957031 275.394531 132.90625 275.371094 132.859375 275.34375 C 132.640625 275.523438 132.417969 275.703125 132.085938 275.972656 C 131.957031 274.988281 131.835938 274.113281 131.695312 273.058594 C 131.390625 273.503906 131.203125 273.785156 131.066406 273.984375 C 129.070312 272.703125 128.851562 270.804688 129.226562 268.683594 C 129.363281 268.777344 129.488281 268.859375 129.621094 268.953125 C 129.652344 268.917969 129.6875 268.878906 129.71875 268.84375 C 129.527344 268.566406 129.339844 268.289062 129.128906 267.980469 C 128.777344 269.007812 128.457031 269.949219 128.105469 270.988281 C 128.042969 270.75 128 270.597656 127.945312 270.398438 C 127.761719 270.609375 127.632812 270.757812 127.601562 270.792969 C 127.601562 270.179688 127.601562 269.46875 127.601562 268.765625 C 127.550781 268.753906 127.503906 268.746094 127.453125 268.738281 C 127.34375 268.867188 127.234375 269 127.027344 269.25 C 126.808594 267.945312 126.601562 266.757812 126.394531 265.570312 C 126.339844 265.570312 126.28125 265.566406 126.222656 265.5625 C 126.144531 265.691406 126.066406 265.820312 126.027344 265.878906 C 125.753906 265.421875 125.492188 264.980469 125.195312 264.480469 C 124.894531 264.851562 124.730469 265.128906 124.492188 265.324219 C 124.269531 265.511719 123.914062 265.777344 123.714844 265.710938 C 123.386719 265.601562 122.894531 265.238281 122.910156 265.007812 C 122.945312 264.417969 122.449219 264.292969 122.234375 263.945312 C 122.140625 263.792969 122.007812 263.667969 122.011719 263.675781 C 122.230469 263.449219 122.480469 263.3125 122.484375 263.167969 C 122.503906 262.605469 122.46875 262.03125 122.414062 261.46875 C 122.390625 261.265625 122.25 261.070312 122.128906 260.785156 C 121.535156 261.652344 121.855469 262.785156 120.921875 263.320312 C 120.691406 263.449219 120.476562 263.605469 120.371094 263.675781 C 119.941406 263.214844 119.648438 262.90625 119.292969 262.527344 C 119.144531 262.515625 118.882812 262.496094 118.613281 262.476562 C 118.894531 261.1875 118.894531 261.1875 118.566406 260.917969 C 118.75 260.316406 118.921875 259.75 119.144531 259.007812 C 118.5625 259.074219 118.042969 259.128906 117.527344 259.1875 C 117.441406 258.640625 117.355469 258.113281 117.269531 257.578125 C 116.507812 257.738281 116.402344 258.21875 116.832031 259.035156 C 117.105469 259.550781 117.410156 260.125 117.433594 260.683594 C 117.472656 261.710938 117.992188 262.613281 118.039062 263.65625 C 118.074219 264.414062 118.628906 265.152344 118.949219 265.898438 C 118.925781 265.917969 118.898438 265.9375 118.871094 265.957031 C 118.675781 265.800781 118.480469 265.640625 118.285156 265.476562 C 118.230469 265.496094 118.171875 265.515625 118.117188 265.535156 C 118.550781 267.007812 118.984375 268.480469 119.453125 270.085938 C 119.128906 269.933594 118.960938 269.855469 118.707031 269.738281 C 118.910156 271.578125 119.101562 273.324219 119.300781 275.171875 C 118.570312 273.945312 117.886719 272.816406 117.207031 271.683594 C 117.167969 271.6875 117.125 271.6875 117.085938 271.6875 C 117.085938 273.324219 117.085938 274.964844 117.085938 276.605469 C 117.027344 276.609375 116.96875 276.617188 116.910156 276.621094 C 116.855469 276.4375 116.800781 276.253906 116.75 276.09375 C 115.988281 275.921875 115.878906 276.34375 115.941406 276.929688 C 115.761719 276.988281 115.597656 277.042969 115.5 277.078125 C 115.429688 277.539062 115.332031 277.925781 115.320312 278.320312 C 115.304688 278.9375 115.214844 279.585938 115.378906 280.15625 C 115.753906 281.410156 115.976562 282.667969 115.945312 283.972656 C 115.921875 285.027344 115.941406 286.082031 115.941406 287.1875 C 115.765625 286.667969 115.609375 286.175781 115.425781 285.6875 C 115.339844 285.453125 115.242188 285.082031 115.089844 285.046875 C 114.550781 284.925781 114.4375 284.566406 114.335938 284.125 C 114.234375 283.703125 114.066406 283.300781 113.964844 282.878906 C 113.847656 282.394531 113.898438 281.808594 113.632812 281.445312 C 113.414062 281.152344 112.898438 281.058594 112.535156 280.785156 C 111.917969 280.332031 111.644531 280.023438 111.757812 279.277344 C 111.777344 279.164062 111.839844 278.980469 111.796875 278.949219 C 111.039062 278.425781 111.558594 277.859375 111.742188 277.316406 C 111.835938 277.027344 111.964844 276.753906 112.078125 276.476562 C 112.265625 276.546875 112.453125 276.515625 112.5 276.417969 C 112.871094 275.664062 112.445312 274.066406 111.75 273.585938 C 111.652344 273.515625 111.480469 273.425781 111.414062 273.464844 C 110.914062 273.742188 110.746094 273.320312 110.453125 273.09375 C 110.601562 272.890625 110.746094 272.738281 110.84375 272.554688 C 111.089844 272.097656 111.367188 271.648438 111.519531 271.164062 C 111.609375 270.878906 111.484375 270.53125 111.460938 270.214844 C 111.269531 270.285156 111.066406 270.332031 110.890625 270.429688 C 110.339844 270.734375 109.792969 270.753906 109.316406 270.539062 C 109.269531 268.8125 109.328125 267.164062 111.046875 266.003906 C 110.742188 265.980469 110.628906 265.9375 110.550781 265.96875 C 109.277344 266.519531 109.28125 266.523438 108.566406 265.417969 C 108.226562 264.898438 108.417969 263.613281 108.785156 263.089844 C 109.082031 262.664062 109.453125 262.101562 109.398438 261.648438 C 109.273438 260.644531 109.605469 259.835938 110.066406 259.027344 C 109.988281 258.96875 109.917969 258.921875 109.859375 258.867188 C 109.269531 258.339844 108.820312 258.464844 108.628906 259.210938 C 108.554688 259.511719 108.492188 259.820312 108.441406 260.125 C 108.183594 261.699219 107.921875 263.277344 107.675781 264.859375 C 107.414062 266.5625 107.167969 268.273438 106.914062 269.980469 C 106.832031 270.519531 106.816406 271.082031 106.671875 271.605469 C 106.117188 273.667969 105.667969 275.71875 105.714844 277.90625 C 105.746094 279.386719 105.246094 280.882812 104.960938 282.367188 C 104.804688 283.164062 104.59375 283.941406 104.375 284.867188 C 104.234375 284.460938 104.152344 284.21875 104.015625 283.816406 C 103.996094 284.1875 104 284.378906 103.976562 284.566406 C 103.8125 285.933594 103.65625 287.296875 103.484375 288.660156 C 103.402344 289.300781 103.324219 289.941406 103.1875 290.570312 C 102.996094 291.449219 102.835938 292.320312 102.835938 293.234375 C 102.832031 294.457031 102.789062 295.6875 102.679688 296.90625 C 102.574219 298.125 102.355469 299.339844 102.21875 300.558594 C 102.105469 301.597656 102.121094 302.65625 101.933594 303.683594 C 101.636719 305.320312 101.324219 306.9375 101.441406 308.617188 C 101.523438 309.84375 101.539062 311.078125 101.578125 312.304688 C 101.605469 313.082031 101.585938 313.859375 101.648438 314.632812 C 101.773438 316.171875 101.957031 317.707031 102.078125 319.246094 C 102.144531 320.082031 102.144531 320.925781 102.164062 321.761719 C 102.183594 322.585938 102.214844 323.40625 102.203125 324.230469 C 102.191406 324.949219 102.125 325.675781 102.089844 326.394531 C 102.058594 326.964844 101.980469 327.535156 102.023438 328.101562 C 102.074219 328.777344 102.265625 329.441406 102.335938 330.117188 C 102.484375 331.582031 102.636719 333.050781 102.695312 334.519531 C 102.722656 335.246094 102.8125 335.902344 103.0625 336.605469 C 103.492188 337.824219 103.6875 339.125 103.964844 340.398438 C 104.238281 341.632812 104.527344 342.863281 104.753906 344.105469 C 104.964844 345.269531 105.054688 346.457031 105.273438 347.621094 C 105.605469 349.324219 105.941406 351.039062 106.800781 352.578125 C 107.5625 353.933594 108.402344 355.246094 109.132812 356.621094 C 109.800781 357.863281 110.503906 359.113281 110.945312 360.441406 C 111.617188 362.496094 112.164062 364.597656 112.605469 366.714844 C 112.917969 368.222656 112.984375 369.785156 113.136719 371.324219 C 113.167969 371.664062 113.042969 372.023438 113.082031 372.367188 C 113.136719 372.867188 113.273438 373.359375 113.371094 373.859375 C 113.332031 373.886719 113.289062 373.914062 113.246094 373.941406 C 113.046875 373.675781 112.847656 373.40625 112.589844 373.054688 C 112.476562 373.445312 112.402344 373.710938 112.320312 373.988281 C 111.789062 373.328125 111.433594 373.347656 110.917969 374.039062 C 110.734375 374.277344 110.582031 374.570312 110.347656 374.742188 C 110.125 374.902344 109.796875 375.011719 109.53125 374.984375 C 109.40625 374.972656 109.296875 374.605469 109.207031 374.386719 C 109.128906 374.207031 109.144531 373.898438 109.023438 373.835938 C 108.40625 373.527344 107.773438 373.199219 107.109375 373.027344 C 106.136719 372.785156 105.09375 372.863281 104.175781 372.296875 C 103.699219 372 103.640625 371.820312 103.914062 371.332031 C 104.117188 370.976562 104.238281 370.4375 104.117188 370.066406 C 103.851562 369.265625 103.945312 368.492188 104.015625 367.699219 C 104.066406 367.160156 104.300781 366.375 104.042969 366.128906 C 103.410156 365.519531 103.6875 364.773438 103.5625 364.148438 C 103.429688 363.503906 103.28125 362.847656 103.046875 362.253906 C 102.660156 361.285156 102.445312 360.332031 102.585938 359.292969 C 102.613281 359.128906 102.523438 358.921875 102.4375 358.765625 C 102.230469 358.40625 101.933594 358.125 101.996094 357.628906 C 102.054688 357.179688 102.019531 356.691406 101.894531 356.261719 C 101.707031 355.609375 101.375 355.003906 101.179688 354.355469 C 101.085938 354.058594 101.222656 353.695312 101.148438 353.382812 C 101.027344 352.878906 100.816406 352.394531 100.632812 351.90625 C 100.574219 351.75 100.457031 351.609375 100.425781 351.449219 C 100.300781 350.875 100.253906 350.289062 100.074219 349.738281 C 99.988281 349.472656 99.714844 349.332031 99.765625 348.933594 C 99.820312 348.507812 99.75 347.984375 99.53125 347.621094 C 98.933594 346.609375 98.75 345.539062 98.773438 344.398438 C 98.78125 344.089844 98.726562 343.777344 98.679688 343.472656 C 98.5625 342.65625 98.347656 341.847656 98.320312 341.027344 C 98.277344 339.714844 98.378906 338.402344 98.378906 337.089844 C 98.378906 336.203125 98.296875 335.320312 98.285156 334.4375 C 98.277344 334.066406 98.410156 333.6875 98.390625 333.316406 C 98.332031 332.019531 98.207031 330.726562 98.152344 329.433594 C 98.089844 327.984375 98.082031 326.53125 98.03125 325.082031 C 98.011719 324.492188 97.941406 323.910156 97.894531 323.320312 C 97.867188 322.925781 97.84375 322.523438 97.8125 322.125 C 97.710938 320.925781 97.578125 319.730469 97.523438 318.53125 C 97.496094 317.84375 97.605469 317.148438 97.640625 316.460938 C 97.691406 315.496094 97.828125 314.511719 97.730469 313.558594 C 97.652344 312.761719 97.886719 311.867188 97.261719 311.164062 C 97.1875 311.082031 97.234375 310.871094 97.253906 310.722656 C 97.28125 310.539062 97.355469 310.363281 97.371094 310.179688 C 97.421875 309.507812 97.449219 308.828125 97.503906 308.160156 C 97.523438 307.910156 97.699219 307.617188 97.613281 307.429688 C 97.085938 306.277344 97.640625 305.070312 97.394531 303.910156 C 97.367188 303.765625 97.523438 303.589844 97.558594 303.421875 C 97.640625 303.042969 97.730469 302.65625 97.761719 302.273438 C 97.800781 301.804688 97.730469 301.328125 97.800781 300.871094 C 97.882812 300.328125 98.097656 299.804688 98.199219 299.265625 C 98.308594 298.691406 98.457031 298.09375 98.382812 297.527344 C 98.3125 297.015625 98.414062 296.621094 98.609375 296.175781 C 98.78125 295.78125 98.847656 295.332031 98.941406 294.910156 C 98.996094 294.648438 99.019531 294.378906 99.027344 294.113281 C 99.050781 293.644531 99.085938 293.171875 99.046875 292.703125 C 98.976562 291.851562 98.578125 290.964844 99.359375 290.214844 C 99.417969 290.15625 99.40625 290.015625 99.417969 289.914062 C 99.503906 289.039062 99.566406 288.160156 99.683594 287.292969 C 99.761719 286.695312 99.957031 286.117188 100.023438 285.519531 C 100.144531 284.476562 100.175781 283.425781 100.296875 282.378906 C 100.382812 281.664062 100.558594 280.957031 100.6875 280.246094 C 100.902344 279.027344 101.101562 277.800781 101.335938 276.585938 C 101.386719 276.3125 101.605469 276.078125 101.699219 275.804688 C 102.054688 274.789062 101.984375 273.667969 102.570312 272.710938 C 102.835938 272.28125 102.964844 271.753906 103.09375 271.257812 C 103.273438 270.554688 103.363281 269.835938 103.550781 269.136719 C 103.777344 268.308594 104.097656 267.5 104.324219 266.671875 C 104.546875 265.855469 104.808594 265.023438 104.847656 264.191406 C 104.878906 263.546875 105.074219 263.039062 105.332031 262.480469 C 105.621094 261.839844 106.144531 261.148438 105.429688 260.40625 C 105.335938 260.3125 105.484375 259.988281 105.527344 259.769531 C 105.597656 259.433594 105.835938 259.003906 105.710938 258.78125 C 105.296875 258.035156 105.757812 257.632812 106.242188 257.355469 C 106.746094 257.070312 106.71875 256.761719 106.550781 256.339844 C 106.464844 256.121094 106.292969 255.90625 106.296875 255.695312 C 106.3125 254.78125 106.441406 253.921875 107.316406 253.339844 C 107.929688 252.933594 108.042969 251.351562 107.550781 250.824219 C 107.292969 250.546875 107.074219 250.484375 106.902344 250.949219 C 106.804688 251.222656 106.609375 251.621094 106.398438 251.664062 C 105.746094 251.792969 105.8125 252.292969 105.707031 252.71875 C 105.691406 252.789062 105.742188 252.902344 105.707031 252.933594 C 105.289062 253.316406 104.863281 253.6875 104.382812 254.109375 C 104.398438 253.875 104.417969 253.652344 104.433594 253.429688 C 104.277344 253.714844 104.242188 254.035156 104.121094 254.3125 C 103.847656 254.960938 103.523438 255.585938 103.234375 256.222656 C 102.796875 257.195312 102.414062 258.199219 101.433594 258.792969 C 101.386719 258.824219 101.324219 258.917969 101.339844 258.941406 C 101.648438 259.511719 101.109375 259.828125 100.921875 260.210938 C 100.617188 260.84375 100.183594 261.414062 99.796875 262 C 99.722656 262.109375 99.507812 262.199219 99.515625 262.273438 C 99.609375 262.972656 98.855469 263.152344 98.664062 263.683594 C 98.648438 263.742188 98.355469 263.703125 98.261719 263.710938 C 97.996094 264.03125 97.761719 264.3125 97.488281 264.644531 C 97.402344 263.710938 97.335938 262.933594 97.25 261.933594 C 97.023438 262.292969 96.929688 262.59375 96.730469 262.707031 C 96.550781 262.808594 96.253906 262.707031 96.113281 262.699219 C 95.976562 263.320312 95.859375 263.894531 95.710938 264.457031 C 95.679688 264.582031 95.558594 264.765625 95.460938 264.777344 C 94.878906 264.855469 95.113281 265.292969 95.050781 265.609375 C 94.96875 266.011719 94.878906 266.421875 94.761719 266.820312 C 94.703125 267.007812 94.542969 267.164062 94.472656 267.34375 C 94.363281 267.632812 94.3125 267.941406 94.203125 268.230469 C 94.003906 268.773438 93.796875 269.308594 93.5625 269.832031 C 93.054688 270.964844 92.527344 272.085938 92.007812 273.207031 C 91.945312 273.191406 91.878906 273.167969 91.8125 273.148438 C 91.75 272.78125 91.6875 272.417969 91.609375 271.984375 C 91.421875 272.179688 91.316406 272.289062 91.199219 272.410156 C 90.695312 271.371094 90.695312 271.371094 90.117188 271.160156 C 89.910156 272.210938 89.722656 273.246094 89.496094 274.28125 C 89.445312 274.511719 89.207031 274.695312 89.136719 274.925781 C 89.066406 275.179688 89.089844 275.460938 89.074219 275.730469 C 88.816406 275.660156 88.558594 275.59375 88.304688 275.523438 C 88.214844 276.019531 88.121094 276.523438 88.03125 277.03125 C 87.9375 277.023438 87.847656 277.015625 87.757812 277.007812 C 87.757812 276.34375 87.757812 275.679688 87.757812 274.882812 C 87.386719 275.105469 87.136719 275.253906 86.792969 275.457031 C 86.792969 274.859375 86.792969 274.320312 86.792969 273.777344 C 86.742188 273.765625 86.6875 273.753906 86.632812 273.742188 C 86.175781 274.609375 85.707031 275.46875 85.273438 276.347656 C 85.089844 276.714844 84.894531 276.898438 84.503906 276.609375 C 83.59375 278.113281 83.828125 279.789062 83.613281 281.347656 C 83.308594 281.5625 83.015625 281.773438 82.601562 282.066406 C 82.332031 280.699219 82.085938 279.429688 81.804688 277.972656 C 80.996094 279.90625 80.273438 281.644531 79.546875 283.382812 C 79.476562 283.398438 79.410156 283.410156 79.339844 283.425781 C 79.175781 282.921875 78.941406 282.433594 78.859375 281.921875 C 78.742188 281.1875 78.730469 280.4375 78.667969 279.566406 C 77.996094 281.699219 77.375 283.667969 76.695312 285.832031 C 76.285156 285.28125 75.9375 284.875 75.652344 284.421875 C 75.4375 284.070312 75.324219 283.652344 75.105469 283.304688 C 74.644531 282.554688 74.332031 282.488281 73.703125 283.078125 C 73.117188 283.625 72.589844 284.238281 72.0625 284.847656 C 71.339844 285.6875 70.734375 286.601562 70.476562 287.722656 C 70.449219 287.445312 70.488281 287.183594 70.5 286.917969 C 70.503906 286.769531 70.5 286.566406 70.417969 286.480469 C 70.21875 286.292969 70.230469 286.175781 70.402344 285.976562 C 70.496094 285.859375 70.53125 285.671875 70.546875 285.511719 C 70.605469 284.941406 70.511719 284.316406 70.722656 283.816406 C 71.0625 283.023438 70.617188 282.109375 71.199219 281.394531 C 71.511719 281.003906 71.632812 280.597656 71.484375 280.082031 C 71.421875 279.859375 71.589844 279.535156 71.726562 279.300781 C 72.089844 278.660156 72.5 278.039062 72.890625 277.410156 C 72.851562 277.359375 72.808594 277.308594 72.769531 277.257812 C 72.101562 277.492188 71.441406 277.726562 70.601562 278.023438 C 70.585938 277.761719 70.550781 277.503906 70.5625 277.246094 C 70.578125 276.980469 70.699219 276.710938 70.675781 276.449219 C 70.628906 275.960938 70.925781 275.71875 71.265625 275.484375 C 71.71875 275.175781 71.996094 274.800781 71.773438 274.210938 C 71.734375 274.09375 71.730469 273.875 71.796875 273.8125 C 72.199219 273.46875 72.324219 272.824219 73.027344 272.789062 C 73.292969 272.777344 73.617188 272.550781 73.804688 272.332031 C 74.238281 271.816406 74.597656 271.25 74.996094 270.707031 C 75.050781 270.632812 75.136719 270.574219 75.21875 270.53125 C 75.570312 270.332031 75.933594 270.164062 76.277344 269.953125 C 76.578125 269.769531 76.867188 269.5625 77.132812 269.339844 C 77.335938 269.167969 77.554688 268.9375 77.058594 268.796875 C 77.464844 268.507812 77.523438 268.199219 76.972656 267.816406 C 77.429688 267.621094 77.839844 267.511719 78.15625 267.285156 C 78.445312 267.074219 78.949219 266.933594 78.765625 266.285156 C 78.421875 266.34375 78.050781 266.332031 77.753906 266.472656 C 77.003906 266.820312 76.609375 266.773438 76.050781 266.144531 C 76.304688 265.953125 76.667969 265.8125 76.785156 265.554688 C 77.117188 264.820312 78.199219 264.949219 78.394531 264.085938 C 78.402344 264.039062 78.65625 264.078125 78.738281 264.011719 C 78.910156 263.863281 79.199219 263.628906 79.164062 263.507812 C 79.015625 262.992188 79.066406 262.65625 79.640625 262.523438 C 79.738281 262.5 79.824219 262.429688 79.917969 262.390625 C 80.574219 262.101562 81.230469 261.816406 81.890625 261.53125 C 81.875 261.472656 81.863281 261.417969 81.847656 261.359375 C 81.976562 261.4375 82.101562 261.515625 82.15625 261.550781 C 82.390625 261.128906 82.546875 260.710938 82.820312 260.398438 C 82.984375 260.210938 83.449219 260.261719 83.566406 260.070312 C 83.882812 259.570312 84.085938 258.988281 84.359375 258.386719 C 84.589844 258.25 84.953125 258.058594 85.292969 257.839844 C 85.863281 257.46875 86.402344 257.027344 87.164062 257.328125 C 87.765625 257.570312 88.378906 257.601562 88.996094 257.34375 C 88.714844 257.132812 88.472656 256.960938 88.207031 256.761719 C 88.363281 256.613281 88.441406 256.511719 88.546875 256.445312 C 89.257812 255.980469 89.757812 255.316406 89.71875 254.488281 C 89.691406 253.804688 90.121094 253.425781 90.480469 253.15625 C 91.371094 252.484375 92.464844 252.265625 93.632812 252.246094 C 93.777344 251.722656 93.921875 251.1875 94.078125 250.65625 C 94.113281 250.53125 94.167969 250.363281 94.261719 250.320312 C 94.628906 250.15625 94.921875 250.015625 95.011719 249.527344 C 95.054688 249.285156 95.464844 249.023438 95.757812 248.9375 C 96.1875 248.808594 96.664062 248.800781 97.125 248.789062 C 98.023438 248.765625 98.921875 248.800781 99.824219 248.769531 C 100.042969 248.761719 100.257812 248.597656 100.476562 248.503906 C 100.453125 248.425781 100.429688 248.347656 100.402344 248.273438 C 99.90625 248.273438 99.402344 248.234375 98.90625 248.28125 C 97.832031 248.378906 97.359375 248.128906 97.136719 247.257812 C 97.042969 246.878906 96.945312 246.507812 96.84375 246.105469 C 96.503906 246.105469 96.210938 246.105469 96.035156 246.105469 C 95.777344 245.671875 95.574219 245.3125 95.351562 244.964844 C 95.050781 244.5 95.144531 243.917969 95.554688 243.625 C 95.535156 243.390625 95.515625 243.179688 95.492188 242.90625 C 95.292969 242.96875 95.066406 243 94.878906 243.109375 C 93.761719 243.753906 92.605469 244.246094 91.28125 244.207031 C 91.007812 244.199219 90.714844 244.269531 90.464844 244.191406 C 89.945312 244.023438 89.8125 243.609375 89.878906 243.089844 C 89.933594 242.640625 89.726562 242.488281 89.273438 242.589844 C 88.914062 242.671875 88.535156 242.664062 88.105469 242.699219 C 88.15625 242.152344 88.203125 241.683594 88.242188 241.28125 C 87.945312 241.121094 87.726562 241.003906 87.472656 240.871094 C 88.085938 240.042969 88.851562 239.636719 89.859375 239.675781 C 89.867188 239.597656 89.886719 239.511719 89.882812 239.433594 C 89.871094 239.253906 89.84375 239.078125 89.824219 238.894531 C 89.636719 238.96875 89.433594 239.023438 89.25 239.121094 C 89.039062 239.226562 88.851562 239.390625 88.636719 239.496094 C 88.386719 239.617188 88.109375 239.699219 87.847656 239.816406 C 86.769531 240.289062 85.714844 240.820312 84.613281 241.226562 C 83.894531 241.492188 83.113281 241.585938 82.296875 241.773438 C 82.085938 241.167969 81.851562 240.5 81.558594 239.671875 C 81.6875 239.507812 81.996094 239.226562 82.164062 238.875 C 82.335938 238.523438 82.648438 238.074219 82.070312 237.851562 C 81.726562 237.984375 81.375 238.046875 81.023438 238.109375 C 80.941406 238.125 80.808594 238.109375 80.785156 238.148438 C 80.417969 238.863281 79.972656 238.5625 79.589844 238.25 C 79.441406 238.5 79.320312 238.714844 79.132812 239.027344 C 78.96875 238.703125 78.890625 238.546875 78.832031 238.433594 C 78.757812 238.65625 78.679688 238.878906 78.601562 239.101562 C 78.316406 238.964844 78.035156 238.828125 77.730469 238.679688 C 77.730469 238.746094 77.730469 238.863281 77.730469 238.980469 C 77.671875 239.015625 77.613281 239.046875 77.554688 239.082031 C 77.324219 238.777344 77.09375 238.472656 76.769531 238.039062 C 76.523438 238.140625 76.15625 238.292969 75.761719 238.453125 C 75.195312 238.453125 74.542969 238.453125 73.890625 238.453125 C 74.75 238.089844 74.761719 238.066406 74.382812 237.496094 C 75.613281 237.304688 76.785156 236.980469 77.773438 235.945312 C 77.175781 235.824219 76.625 235.539062 76.179688 235.65625 C 75.238281 235.914062 74.335938 236.269531 73.320312 236.234375 C 72.8125 236.214844 72.527344 236.097656 72.335938 235.640625 C 72.273438 235.488281 72.113281 235.378906 71.957031 235.207031 C 71.957031 235.683594 71.957031 236.035156 71.957031 236.421875 C 71.308594 236.011719 71.335938 235.996094 71.011719 235.347656 C 70.914062 235.15625 70.625 234.996094 70.398438 234.953125 C 70.0625 234.886719 69.699219 234.9375 69.347656 234.9375 C 69.34375 234.898438 69.34375 234.859375 69.339844 234.824219 C 70.121094 234.632812 70.894531 234.4375 71.855469 234.199219 C 71.617188 234.046875 71.511719 233.945312 71.386719 233.910156 C 71.164062 233.851562 70.917969 233.867188 70.707031 233.789062 C 70.453125 233.695312 70.21875 233.414062 69.980469 233.425781 C 69.398438 233.445312 68.828125 233.585938 68.160156 233.691406 C 68.074219 233.636719 67.75 233.523438 67.726562 233.367188 C 67.628906 232.707031 67.160156 232.75 66.617188 232.753906 C 66.816406 232.503906 66.140625 232.253906 66.71875 232.023438 C 66.734375 232.019531 66.6875 231.710938 66.597656 231.621094 C 66.265625 231.292969 65.902344 230.996094 65.535156 230.679688 C 65.195312 231.058594 64.863281 230.984375 64.527344 230.328125 C 65.519531 230.191406 66.457031 230.0625 67.46875 229.925781 C 67.308594 229.570312 67.199219 229.324219 67.078125 229.050781 C 67.757812 228.628906 67.871094 229.402344 68.195312 229.597656 C 68.300781 229.476562 68.414062 229.371094 68.5 229.25 C 68.765625 228.875 68.714844 228.914062 69 229.25 C 69.171875 229.460938 69.460938 229.949219 69.78125 229.605469 C 70.074219 229.292969 70.355469 229.367188 70.660156 229.316406 C 70.894531 229.28125 71.121094 229.175781 71.441406 229.070312 C 71.457031 229.085938 71.574219 229.210938 71.773438 229.421875 C 72.003906 228.921875 72.234375 228.511719 72.371094 228.070312 C 72.488281 227.710938 72.492188 227.316406 72.542969 226.933594 C 72.488281 226.929688 72.433594 226.925781 72.378906 226.925781 C 72.460938 226.796875 72.546875 226.667969 72.613281 226.5625 C 72.921875 227.023438 73.191406 227.425781 73.460938 227.824219 C 73.515625 227.792969 73.570312 227.765625 73.625 227.734375 C 73.546875 227.566406 73.46875 227.402344 73.371094 227.203125 C 73.496094 227.210938 73.601562 227.214844 73.742188 227.21875 C 73.707031 227.039062 73.671875 226.871094 73.671875 226.867188 C 73.960938 226.667969 74.164062 226.53125 74.386719 226.371094 C 74.417969 226.40625 74.511719 226.503906 74.746094 226.753906 C 74.582031 225.851562 75.027344 225.464844 75.746094 225.15625 C 75.722656 225.496094 75.703125 225.785156 75.679688 226.070312 C 76.308594 225.757812 77.964844 226.679688 78.734375 227.753906 C 79.070312 227.664062 79.390625 227.578125 79.824219 227.460938 C 79.78125 227.296875 79.632812 227.023438 79.667969 226.78125 C 79.707031 226.53125 79.9375 226.316406 80.058594 226.074219 C 80.113281 225.96875 80.097656 225.832031 80.113281 225.710938 C 80.242188 225.757812 80.386719 225.785156 80.496094 225.859375 C 80.683594 225.992188 80.851562 226.15625 81.089844 226.351562 C 80.496094 226.65625 80.917969 226.859375 81.046875 227.09375 C 80.804688 226.886719 80.570312 226.683594 80.296875 226.449219 C 80.21875 226.574219 80.109375 226.761719 80 226.945312 C 80.199219 227.0625 80.386719 227.171875 80.640625 227.320312 C 80.394531 227.46875 80.21875 227.582031 80.160156 227.617188 C 80.09375 227.96875 80.042969 228.234375 79.984375 228.554688 C 80.527344 228.152344 80.882812 227.695312 81.03125 227.078125 C 81.273438 226.738281 81.539062 226.632812 81.878906 226.964844 C 82.066406 227.152344 82.292969 227.304688 82.488281 227.492188 C 83.164062 228.125 83.984375 228.402344 84.914062 228.613281 C 84.914062 228.277344 84.914062 228.046875 84.914062 227.78125 C 85.101562 227.921875 85.242188 228.03125 85.480469 228.214844 C 85.480469 227.785156 85.480469 227.460938 85.480469 227.136719 C 85.910156 227.441406 86.316406 227.753906 86.75 228.023438 C 87.097656 228.242188 87.53125 228.636719 87.8125 228.550781 C 88.367188 228.386719 88.347656 228.777344 88.574219 228.960938 C 88.808594 229.035156 89.035156 229.15625 89.113281 229.339844 C 89.289062 229.753906 89.550781 229.933594 89.992188 229.921875 C 89.917969 229.316406 88.898438 228.886719 89.855469 228.128906 C 89.972656 228.40625 90.078125 228.65625 90.203125 228.957031 C 90.464844 228.9375 90.804688 228.914062 91.15625 228.886719 C 91.007812 228.648438 90.886719 228.453125 90.765625 228.257812 C 90.824219 228.230469 90.878906 228.199219 90.9375 228.167969 C 91.066406 228.738281 91.9375 228.96875 91.460938 229.855469 C 91.910156 229.597656 92.121094 229.625 92.339844 230.019531 C 92.699219 230.664062 93.320312 231.019531 94.078125 231.171875 C 93.984375 230.972656 93.910156 230.808594 93.835938 230.652344 C 94.320312 231.042969 94.644531 231.609375 95.128906 231.886719 C 95.769531 232.25 95.96875 233.160156 96.835938 233.203125 C 96.898438 233.207031 97 233.449219 96.988281 233.570312 C 96.976562 233.726562 96.867188 233.878906 96.769531 234.097656 C 97.34375 234.183594 97.847656 234.253906 98.453125 234.34375 C 98.382812 234.0625 98.394531 233.816406 98.300781 233.769531 C 97.835938 233.53125 97.964844 233.164062 98.007812 232.78125 C 98.042969 232.476562 98.28125 232.09375 97.785156 231.894531 C 97.742188 231.878906 97.777344 231.664062 97.777344 231.664062 C 99.871094 232.234375 101.957031 232.800781 104.058594 233.375 C 104.164062 232.640625 103.910156 232.285156 103.335938 232.191406 C 102.859375 232.113281 102.375 232.078125 101.902344 231.984375 C 101.773438 231.960938 101.675781 231.789062 101.648438 231.765625 C 101.050781 231.871094 100.472656 231.972656 99.804688 232.09375 C 99.734375 231.511719 99.679688 231.042969 99.648438 230.761719 C 99.394531 230.738281 99.226562 230.722656 99.054688 230.710938 C 99.039062 230.828125 99.019531 230.988281 99.011719 231.046875 C 98.671875 230.96875 98.355469 230.894531 97.941406 230.800781 C 97.902344 230.734375 97.800781 230.558594 97.695312 230.367188 C 97.441406 230.535156 97.195312 230.695312 96.921875 230.875 C 96.828125 229.925781 95.761719 228.910156 94.851562 228.839844 C 94.84375 228.609375 94.824219 228.375 94.824219 228.144531 C 94.824219 227.957031 94.789062 227.683594 94.882812 227.613281 C 95.257812 227.335938 95.160156 227.03125 95.042969 226.699219 C 94.929688 226.382812 94.816406 226.074219 94.703125 225.757812 C 94.699219 225.742188 94.683594 225.726562 94.667969 225.722656 C 94.207031 225.507812 94.207031 225.507812 94.328125 225.246094 C 93.945312 224.765625 93.59375 224.324219 93.167969 223.78125 C 93.464844 223.808594 93.566406 223.816406 93.585938 223.820312 C 93.511719 223.503906 93.441406 223.246094 93.386719 222.976562 C 93.300781 222.554688 93.222656 222.128906 93.121094 221.609375 C 93.351562 221.738281 93.597656 221.894531 93.867188 222.019531 C 94.273438 222.214844 94.71875 222.167969 95.144531 222.226562 C 95.878906 222.328125 96.585938 222.570312 97.3125 222.734375 C 97.613281 222.800781 97.929688 222.84375 98.242188 222.835938 C 98.648438 222.824219 98.8125 222.503906 98.5625 222.195312 C 98.25 221.828125 97.949219 221.441406 97.417969 221.308594 C 97.179688 221.25 96.988281 220.992188 96.734375 220.792969 C 96.503906 220.917969 96.136719 221.117188 95.796875 221.304688 C 94.765625 220.351562 94.003906 219.179688 92.535156 218.996094 C 92.585938 218.777344 92.621094 218.617188 92.648438 218.507812 C 91.898438 218.121094 91.074219 217.863281 90.980469 216.816406 C 90.96875 216.617188 90.730469 216.433594 90.589844 216.246094 C 90.503906 216.136719 90.363281 216.058594 90.320312 215.941406 C 90.179688 215.542969 90.070312 215.132812 89.941406 214.703125 C 89.917969 214.714844 90.03125 214.660156 90.199219 214.585938 C 89.789062 214.300781 89.445312 214.0625 89.101562 213.824219 C 90.59375 214.265625 90.859375 214.300781 91.378906 213.933594 C 90.789062 213.71875 90.183594 213.519531 89.570312 213.445312 C 88.738281 213.34375 88.519531 213.132812 88.605469 212.261719 C 88.644531 211.871094 88.78125 211.464844 88.707031 211.097656 C 88.632812 210.742188 88.347656 210.425781 88.164062 210.105469 C 88.253906 210.074219 88.464844 210.015625 88.460938 210 C 88.410156 209.703125 88.417969 209.285156 88.230469 209.148438 C 87.609375 208.703125 86.941406 208.332031 86.535156 207.640625 C 86.460938 207.515625 86.300781 207.441406 86.097656 207.28125 C 86.355469 207.226562 86.5 207.195312 86.648438 207.164062 C 86.644531 207.113281 86.644531 207.0625 86.640625 207.015625 C 86.503906 207.015625 86.367188 207.015625 86.058594 207.015625 C 86.273438 206.808594 86.410156 206.695312 86.519531 206.5625 C 86.667969 206.386719 86.949219 206.105469 86.902344 206.015625 C 86.644531 205.546875 86.894531 204.863281 86.285156 204.542969 C 86.1875 204.492188 86.132812 204.351562 86.0625 204.253906 C 85.992188 204.152344 85.929688 204.046875 85.816406 203.859375 C 87.941406 204.980469 90.125 205.460938 92.535156 205.808594 C 92.300781 205.65625 92.226562 205.566406 92.140625 205.558594 C 91.511719 205.5 91.84375 204.78125 91.511719 204.613281 C 91.164062 204.433594 90.601562 204.589844 90.449219 204.105469 C 90.125 203.085938 88.90625 202.910156 88.523438 201.96875 C 88.511719 201.9375 88.460938 201.898438 88.425781 201.898438 C 87.753906 201.851562 87.824219 201.226562 87.597656 200.835938 C 87.433594 200.554688 87.308594 200.25 87.164062 199.957031 C 87.011719 200.195312 86.855469 200.433594 86.695312 200.679688 C 85.917969 200.351562 85.847656 199.679688 86.492188 199.117188 C 86.34375 198.875 86.085938 198.648438 86.101562 198.445312 C 86.152344 197.742188 85.667969 197.484375 85.214844 197.15625 C 84.648438 196.75 84.105469 196.304688 83.550781 195.871094 C 83.578125 195.824219 83.605469 195.78125 83.632812 195.734375 C 85.191406 196.582031 86.746094 197.421875 88.300781 198.273438 C 88.339844 198.234375 88.378906 198.199219 88.414062 198.160156 C 88.289062 197.992188 88.113281 197.84375 88.046875 197.65625 C 87.816406 196.984375 87.261719 196.691406 86.691406 196.398438 C 86.289062 196.1875 85.734375 196.046875 85.535156 195.707031 C 85.054688 194.890625 84.4375 194.347656 83.550781 194.046875 C 83.226562 193.933594 82.816406 192.875 82.90625 192.5625 C 82.988281 192.292969 83.058594 192.019531 83.140625 191.714844 C 84 192.199219 84.898438 192.699219 85.804688 193.203125 C 85.851562 193.128906 85.90625 193.054688 85.957031 192.980469 C 85.769531 192.761719 85.613281 192.460938 85.371094 192.347656 C 84.960938 192.164062 83.835938 190.898438 83.792969 190.429688 C 83.792969 190.40625 83.832031 190.378906 83.859375 190.347656 C 83.957031 190.390625 84.0625 190.417969 84.148438 190.476562 C 85.335938 191.296875 86.527344 192.121094 87.699219 192.960938 C 88.082031 193.234375 88.367188 193.285156 88.546875 192.90625 C 88.335938 192.6875 88.121094 192.539062 87.992188 192.328125 C 87.671875 191.792969 87.375 191.242188 87.105469 190.683594 C 87.035156 190.539062 87.097656 190.328125 87.097656 190.148438 C 87.175781 190.097656 87.261719 190.042969 87.347656 189.992188 C 87.0625 189.660156 86.777344 189.320312 86.535156 189.039062 C 87.40625 188.550781 86.773438 187.664062 86.5 186.703125 C 87.566406 188.003906 88.511719 189.167969 89.472656 190.320312 C 90.429688 191.472656 90.914062 192.972656 92.164062 194.089844 C 92.21875 193.460938 92.289062 192.984375 92.289062 192.511719 C 92.285156 191.921875 92.664062 191.683594 93.132812 191.578125 C 93.453125 191.503906 94.007812 191.4375 94.097656 191.585938 C 94.355469 192.015625 94.496094 192.550781 94.566406 193.054688 C 94.664062 193.761719 94.664062 194.484375 94.6875 195.199219 C 94.703125 195.699219 94.691406 196.199219 94.691406 196.71875 C 94.808594 196.878906 94.953125 197.074219 95.175781 197.371094 C 95.640625 196.425781 96.527344 196.183594 97.464844 195.894531 C 97.550781 196.175781 97.640625 196.472656 97.75 196.832031 C 97.917969 196.578125 98.046875 196.378906 98.257812 196.058594 C 98.34375 196.710938 98.414062 197.214844 98.484375 197.722656 C 98.449219 197.910156 98.671875 198.128906 98.632812 198.253906 C 98.242188 199.386719 98.992188 200.441406 98.777344 201.605469 C 98.613281 202.511719 98.984375 203.511719 99.109375 204.398438 C 99.464844 204.214844 99.871094 203.960938 100.300781 203.777344 C 100.71875 203.601562 101.160156 204.085938 101.601562 203.78125 C 101.632812 203.757812 101.808594 203.855469 101.824219 203.921875 C 101.910156 204.246094 101.980469 204.574219 102.027344 204.90625 C 102.070312 205.210938 102.058594 205.515625 102.105469 205.8125 C 102.160156 206.203125 102.257812 206.585938 102.320312 206.972656 C 102.332031 207.0625 102.222656 207.183594 102.253906 207.257812 C 102.664062 208.320312 102.382812 209.414062 102.421875 210.488281 C 102.433594 210.796875 102.371094 211.101562 102.378906 211.410156 C 102.386719 211.691406 102.457031 211.976562 102.480469 212.261719 C 102.535156 212.980469 102.582031 213.695312 102.632812 214.402344 C 103.332031 214.257812 103.070312 213.84375 102.960938 213.464844 C 103.085938 213.253906 103.132812 213.035156 103.175781 212.808594 C 103.199219 212.703125 103.21875 212.597656 103.238281 212.496094 C 103.34375 212.550781 103.445312 212.609375 103.523438 212.652344 C 103.734375 212.253906 104.046875 211.902344 104.09375 211.519531 C 104.179688 210.761719 104.097656 209.992188 104.117188 209.226562 C 104.121094 209.03125 104.238281 208.835938 104.304688 208.644531 C 104.351562 208.664062 104.398438 208.683594 104.441406 208.703125 C 104.515625 209.453125 104.585938 210.207031 104.664062 211.015625 C 104.96875 210.902344 105.148438 210.835938 105.226562 210.804688 C 105.324219 212.003906 105.386719 213.191406 105.535156 214.375 C 105.640625 215.25 105.851562 216.117188 106.03125 216.988281 C 106.1875 217.753906 106.347656 218.523438 106.535156 219.28125 C 106.640625 219.71875 106.800781 220.144531 106.9375 220.570312 C 106.820312 220.652344 106.597656 220.742188 106.597656 220.824219 C 106.609375 221.355469 106.304688 221.730469 106.085938 222.164062 C 105.984375 222.363281 106.183594 222.714844 106.25 222.996094 C 106.328125 222.980469 106.402344 222.96875 106.476562 222.953125 C 106.46875 222.800781 106.464844 222.644531 106.453125 222.425781 C 106.648438 222.546875 106.796875 222.632812 107.027344 222.773438 C 107.324219 221.96875 107.050781 221.261719 106.917969 220.550781 C 107.046875 220.429688 107.222656 220.175781 107.292969 220.199219 C 107.992188 220.453125 107.871094 220.015625 107.835938 219.613281 C 107.824219 219.523438 107.925781 219.429688 107.976562 219.339844 C 108.246094 219.46875 108.519531 219.59375 108.71875 219.6875 C 108.6875 219.984375 108.65625 220.242188 108.632812 220.496094 C 108.601562 220.914062 108.558594 221.332031 108.550781 221.75 C 108.542969 222.046875 108.480469 222.417969 108.628906 222.621094 C 108.742188 222.777344 109.144531 222.722656 109.367188 222.753906 C 109.421875 222.175781 109.46875 221.691406 109.515625 221.207031 C 109.605469 221.214844 109.699219 221.226562 109.789062 221.238281 C 109.714844 221.757812 109.753906 222.328125 109.539062 222.777344 C 109.300781 223.269531 109.238281 224.316406 109.621094 224.707031 C 109.769531 224.464844 109.921875 224.214844 110.167969 223.804688 C 110.195312 224.148438 110.238281 224.296875 110.207031 224.425781 C 110.1875 224.507812 110.003906 224.554688 109.992188 224.632812 C 109.96875 224.792969 110.058594 224.972656 110.011719 225.121094 C 109.929688 225.375 110.171875 225.820312 109.636719 225.84375 C 109.75 226.101562 109.863281 226.359375 110.03125 226.746094 C 110.085938 226.425781 110.113281 226.253906 110.144531 226.074219 C 110.203125 226.078125 110.269531 226.078125 110.332031 226.078125 C 110.433594 227.546875 110.53125 229.019531 110.621094 230.351562 C 110.414062 230.46875 110.324219 230.515625 110.234375 230.566406 C 110.382812 230.761719 110.527344 230.960938 110.625 231.089844 C 110.503906 231.226562 110.375 231.375 110.242188 231.523438 C 110.304688 231.582031 110.367188 231.644531 110.429688 231.703125 C 110.464844 231.5625 110.496094 231.425781 110.53125 231.285156 C 110.574219 231.3125 110.621094 231.339844 110.664062 231.367188 C 110.714844 231.605469 110.761719 231.847656 110.8125 232.101562 C 110.59375 231.953125 110.449219 231.859375 110.304688 231.761719 C 110.308594 231.933594 110.261719 232.121094 110.316406 232.269531 C 110.511719 232.808594 110.992188 233.234375 110.867188 233.894531 C 110.808594 234.210938 110.859375 234.550781 110.859375 234.914062 C 110.605469 235.109375 110.304688 235.339844 109.980469 235.59375 C 109.929688 237.164062 110.300781 238.664062 110.710938 238.910156 C 110.6875 239.277344 110.664062 239.582031 110.644531 239.890625 C 110.910156 239.71875 111.085938 239.554688 111.183594 239.355469 C 111.550781 238.601562 111.886719 237.835938 112.257812 237.085938 C 112.527344 236.542969 112.980469 236.042969 113.082031 235.476562 C 113.207031 234.765625 113.050781 234.007812 113.027344 233.269531 C 113 232.394531 112.828125 231.511719 113.5 230.746094 C 113.699219 230.527344 113.703125 230.128906 113.796875 229.800781 C 114.179688 230.035156 114.585938 230.074219 114.703125 229.539062 C 114.824219 229.703125 114.96875 229.894531 115.113281 230.085938 C 115.242188 229.871094 115.386719 229.664062 115.492188 229.433594 C 115.546875 229.3125 115.523438 229.160156 115.535156 229.019531 C 115.582031 229.023438 115.625 229.027344 115.671875 229.03125 C 115.671875 229.5 115.671875 229.976562 115.671875 230.449219 C 115.738281 230.46875 115.804688 230.484375 115.871094 230.5 C 116.105469 229.988281 116.339844 229.480469 116.574219 228.96875 C 116.398438 230.113281 117.027344 231.015625 117.472656 232.148438 C 117.640625 231.910156 117.820312 231.769531 117.828125 231.621094 C 117.863281 230.984375 117.878906 230.34375 117.839844 229.707031 C 117.78125 228.726562 118.21875 227.898438 118.574219 227.042969 C 118.617188 226.941406 118.582031 226.722656 118.507812 226.675781 C 117.851562 226.265625 118.128906 225.773438 118.34375 225.257812 C 118.433594 225.042969 118.417969 224.785156 118.445312 224.542969 C 118.464844 224.390625 118.421875 224.15625 118.503906 224.097656 C 119.015625 223.738281 118.875 223.28125 118.707031 222.757812 C 119.019531 222.632812 119.308594 222.515625 119.546875 222.421875 C 119.695312 222.734375 119.804688 222.960938 119.914062 223.1875 C 120.023438 223.128906 120.121094 223.074219 120.242188 223.011719 C 120.203125 223.21875 120.175781 223.390625 120.144531 223.558594 C 120.398438 223.386719 120.507812 223.144531 120.664062 222.9375 C 120.796875 222.761719 120.96875 222.511719 121.144531 222.496094 C 121.296875 222.480469 121.480469 222.742188 121.671875 222.902344 C 121.800781 222.730469 121.949219 222.542969 122.109375 222.339844 C 122.230469 222.484375 122.328125 222.605469 122.425781 222.722656 C 122.496094 222.703125 122.570312 222.679688 122.640625 222.65625 C 122.574219 222.339844 122.472656 222.023438 122.453125 221.707031 C 122.4375 221.394531 122.507812 221.078125 122.539062 220.765625 C 122.75 220.835938 122.960938 220.894531 123.164062 220.980469 C 123.238281 221.007812 123.289062 221.089844 123.445312 221.230469 C 123.65625 220.875 123.84375 220.550781 123.980469 220.320312 C 124.300781 220.414062 124.605469 220.496094 124.90625 220.582031 C 124.699219 220.230469 124.304688 220.039062 124.257812 219.78125 C 124.203125 219.511719 124.480469 219.171875 124.613281 218.867188 C 124.65625 218.882812 124.699219 218.894531 124.746094 218.90625 C 124.734375 219.046875 124.726562 219.195312 124.722656 219.296875 C 124.929688 219.382812 125.121094 219.417969 125.257812 219.523438 C 125.5625 219.757812 125.753906 219.730469 125.949219 219.378906 C 126.230469 218.875 126.558594 218.390625 126.957031 217.746094 C 127.019531 218.226562 127.066406 218.566406 127.109375 218.90625 C 127.179688 218.914062 127.25 218.925781 127.316406 218.933594 C 127.464844 218.71875 127.714844 218.511719 127.738281 218.28125 C 127.8125 217.605469 128.230469 217.949219 128.53125 217.96875 C 128.632812 217.976562 128.730469 218.082031 128.757812 218.101562 C 129.359375 217.710938 128.871094 216.625 129.875 216.621094 C 129.707031 216.347656 129.539062 216.074219 129.355469 215.773438 C 129.613281 215.648438 129.773438 215.574219 129.929688 215.496094 C 129.882812 215.472656 129.835938 215.445312 129.789062 215.417969 C 130.074219 214.625 130.359375 213.835938 130.710938 212.859375 C 131.085938 213.214844 131.355469 213.472656 131.699219 213.800781 C 132.078125 213.203125 132.535156 212.492188 132.992188 211.777344 C 133.039062 211.792969 133.085938 211.808594 133.128906 211.828125 C 133.128906 212.316406 133.128906 212.808594 133.128906 213.292969 C 133.175781 213.300781 133.21875 213.304688 133.261719 213.308594 C 133.417969 212.96875 133.578125 212.625 133.734375 212.285156 C 133.796875 212.296875 133.859375 212.308594 133.921875 212.320312 C 133.988281 213.65625 134.054688 214.996094 134.132812 216.527344 C 134.523438 216.253906 134.773438 216.074219 134.957031 215.949219 C 134.824219 215.570312 134.65625 215.292969 134.636719 215.007812 C 134.574219 214.144531 135.261719 213.582031 136.09375 213.523438 C 136.804688 213.472656 136.394531 213.183594 136.351562 212.890625 C 136.742188 212.832031 137.117188 212.777344 137.625 212.703125 C 137.382812 212.566406 137.273438 212.503906 137.160156 212.441406 C 137.171875 212.371094 137.183594 212.304688 137.191406 212.238281 C 137.515625 212.269531 137.839844 212.296875 138.007812 212.308594 C 137.96875 212.671875 137.9375 212.972656 137.902344 213.269531 C 137.972656 213.304688 138.042969 213.335938 138.113281 213.371094 C 138.554688 212.867188 139.050781 212.398438 139.4375 211.847656 C 139.851562 211.25 140.167969 210.574219 140.46875 210.042969 C 140.699219 210.066406 140.890625 210.089844 141.101562 210.113281 C 141.074219 210.242188 141.042969 210.414062 140.976562 210.753906 C 141.363281 210.582031 141.644531 210.453125 141.886719 210.34375 C 141.867188 211.171875 141.214844 211.980469 141.582031 213.003906 C 141.722656 212.816406 141.804688 212.703125 141.890625 212.589844 C 142.023438 212.714844 142.144531 212.832031 142.304688 212.984375 C 142.667969 212.523438 142.996094 212.105469 143.339844 211.667969 C 143.382812 211.792969 143.414062 211.890625 143.457031 212.023438 C 143.757812 211.691406 144.050781 211.375 144.34375 211.058594 C 144.238281 211.648438 144.011719 212.167969 143.777344 212.683594 C 143.523438 213.238281 143.015625 213.71875 143.210938 214.5625 C 143.671875 213.710938 143.917969 212.882812 144.507812 212.28125 C 144.558594 212.3125 144.613281 212.34375 144.667969 212.375 C 144.273438 213.4375 143.882812 214.503906 143.488281 215.578125 C 143.839844 215.320312 144.191406 215.066406 144.539062 214.8125 C 144.542969 214.890625 144.542969 214.964844 144.546875 215.042969 C 144.679688 215.070312 144.835938 215.152344 144.945312 215.105469 C 145.214844 214.988281 145.460938 214.816406 145.820312 214.605469 C 145.191406 215.535156 144.65625 216.335938 144.03125 217.265625 C 145.964844 216.894531 147.6875 216.566406 149.457031 216.230469 C 149.539062 215.992188 149.628906 215.65625 149.765625 215.335938 C 150.101562 214.550781 150.5625 213.925781 151.570312 214.054688 C 151.683594 214.070312 151.855469 213.945312 151.945312 213.839844 C 152.121094 213.628906 152.257812 213.390625 152.410156 213.167969 C 153.863281 214.609375 155.371094 214.539062 157.007812 214.027344 C 156.8125 214.3125 156.578125 214.515625 156.320312 214.667969 C 155.390625 215.238281 154.507812 216.054688 153.496094 216.289062 C 152.140625 216.609375 150.753906 217.207031 149.273438 216.75 C 148.496094 216.511719 147.910156 217.074219 147.3125 217.464844 C 147.175781 217.550781 146.976562 217.726562 146.988281 217.839844 C 147.003906 217.976562 147.203125 218.171875 147.347656 218.195312 C 148.132812 218.332031 148.925781 218.4375 149.71875 218.53125 C 150.296875 218.597656 150.882812 218.621094 151.460938 218.679688 C 151.953125 218.730469 152.238281 218.996094 152.210938 219.429688 C 152.480469 219.480469 152.710938 219.519531 152.933594 219.5625 C 152.925781 219.621094 152.917969 219.683594 152.90625 219.742188 C 152.542969 219.871094 152.179688 220.117188 151.824219 220.101562 C 151.425781 220.089844 151.386719 220.097656 151.484375 220.484375 C 151.59375 220.933594 151.199219 221.285156 150.703125 221.351562 C 150.074219 221.4375 149.445312 221.535156 148.839844 221.714844 C 148.613281 221.785156 148.429688 222.078125 148.277344 222.304688 C 148.164062 222.46875 148.136719 222.6875 148.070312 222.878906 C 148.019531 222.894531 147.96875 222.90625 147.917969 222.921875 C 147.785156 222.246094 147.355469 222.558594 147.121094 222.648438 C 146.242188 222.980469 145.347656 223.015625 144.4375 222.976562 C 143.988281 222.957031 143.476562 222.808594 143.105469 222.972656 C 142.199219 223.375 141.316406 223.214844 140.40625 223.113281 C 139.980469 223.066406 139.527344 223.128906 139.109375 223.234375 C 138.785156 223.320312 138.503906 223.554688 138.058594 223.804688 C 138.421875 223.882812 138.664062 223.957031 138.910156 223.980469 C 139.722656 224.058594 140.550781 224.0625 141.359375 224.191406 C 142.457031 224.363281 143.554688 224.542969 144.554688 225.125 C 145.109375 225.453125 145.394531 225.949219 145.015625 226.222656 C 144.707031 226.441406 144.421875 226.648438 144.429688 227.074219 C 144.0625 227.058594 143.691406 227.039062 143.324219 227.039062 C 143.207031 227.039062 143.085938 227.097656 142.96875 227.128906 C 142.660156 227.203125 142.347656 227.257812 142.054688 227.355469 C 141.371094 227.585938 140.6875 227.121094 139.988281 227.402344 C 139.769531 227.488281 139.453125 227.332031 139.183594 227.285156 C 138.957031 227.246094 138.726562 227.148438 138.511719 227.179688 C 137.945312 227.261719 137.386719 227.402344 136.761719 227.535156 C 136.875 227.632812 136.992188 227.796875 137.070312 227.78125 C 137.539062 227.679688 137.769531 228.035156 138.070312 228.261719 C 138.1875 228.351562 138.277344 228.503906 138.402344 228.539062 C 139.101562 228.742188 138.839844 229.042969 138.5 229.347656 C 138.234375 229.589844 137.917969 229.789062 137.695312 230.0625 C 137.292969 230.554688 136.328125 230.695312 135.894531 230.277344 C 135.390625 229.785156 134.929688 229.8125 134.648438 230.417969 C 134.460938 230.824219 134.234375 230.804688 133.867188 230.734375 C 133.449219 230.65625 133.011719 230.675781 132.582031 230.679688 C 132.3125 230.679688 132.042969 230.757812 131.777344 230.75 C 131.375 230.734375 130.972656 230.679688 130.574219 230.640625 C 131.53125 231.085938 132.492188 231.402344 133.441406 231.753906 C 133.6875 231.847656 133.910156 232.023438 134.113281 232.191406 C 134.417969 232.453125 134.355469 232.972656 134 233.125 C 133.050781 233.53125 132.050781 233.757812 131.035156 233.894531 C 130.878906 233.914062 130.710938 233.785156 130.546875 233.75 C 130.421875 233.722656 130.285156 233.71875 130.160156 233.742188 C 129.941406 233.78125 129.722656 233.910156 129.511719 233.894531 C 128.835938 233.839844 128.164062 233.703125 127.488281 233.65625 C 126.457031 233.589844 125.417969 233.589844 124.382812 233.515625 C 124.023438 233.488281 123.675781 233.285156 123.308594 233.226562 C 122.992188 233.171875 122.640625 233.144531 122.332031 233.226562 C 122.222656 233.253906 122.199219 233.628906 122.121094 233.898438 C 122.910156 233.898438 123.566406 233.867188 124.21875 233.90625 C 125.199219 233.964844 126.171875 234.066406 127.148438 234.15625 C 127.988281 234.234375 128.886719 234.152344 129.398438 235.050781 C 129.464844 235.171875 129.609375 235.351562 129.566406 235.421875 C 129.496094 235.546875 129.324219 235.652344 129.175781 235.675781 C 128.699219 235.746094 128.214844 235.765625 127.742188 235.835938 C 127.652344 235.851562 127.515625 236.003906 127.511719 236.097656 C 127.503906 236.695312 127.074219 236.570312 126.722656 236.574219 C 126.503906 236.578125 126.28125 236.574219 126.058594 236.574219 C 126.050781 236.632812 126.042969 236.691406 126.035156 236.75 C 126.503906 236.84375 126.972656 236.933594 127.472656 237.03125 C 127.589844 237.460938 127.722656 237.933594 127.855469 238.410156 C 127.050781 238.625 126.433594 238.789062 125.800781 238.960938 C 125.726562 238.609375 125.691406 238.425781 125.617188 238.0625 C 125.375 238.8125 125.191406 239.371094 124.96875 240.050781 C 125.800781 239.683594 126.152344 239.832031 126.488281 240.566406 C 126.363281 240.679688 126.234375 240.796875 126.019531 240.988281 C 126.609375 241.085938 127.085938 241.207031 127.574219 241.242188 C 128.117188 241.285156 128.664062 241.253906 129.214844 241.253906 C 129.210938 241.292969 129.203125 241.398438 129.183594 241.625 C 129.730469 241.453125 130.207031 241.175781 130.667969 241.195312 C 131.078125 241.214844 131.503906 241.367188 131.703125 240.9375 C 131.976562 240.335938 132.363281 241.007812 132.644531 240.792969 C 132.691406 240.757812 132.753906 240.738281 132.808594 240.710938 C 132.902344 240.667969 133.011719 240.570312 133.09375 240.589844 C 133.40625 240.667969 133.710938 240.78125 134.113281 240.910156 C 134.054688 240.535156 134.027344 240.355469 134.023438 240.339844 C 134.523438 240.117188 135.023438 240.003906 135.378906 239.710938 C 135.984375 239.210938 136.296875 239.148438 136.644531 239.640625 C 137.101562 239.640625 137.539062 239.640625 137.96875 239.640625 C 138.265625 238.695312 138.738281 239.0625 139.25 239.472656 C 139.234375 239.242188 139.226562 239.074219 139.214844 238.828125 C 139.894531 239.109375 140.273438 238.691406 140.691406 238.332031 C 140.847656 238.195312 141.0625 238.132812 141.234375 238.050781 C 141.367188 238.40625 141.457031 238.648438 141.566406 238.953125 C 141.875 238.617188 143.394531 238.367188 143.570312 238.542969 C 143.511719 238.660156 143.453125 238.785156 143.390625 238.90625 C 143.558594 239.007812 143.695312 239.09375 143.902344 239.214844 C 142.3125 240.480469 140.757812 241.71875 139.207031 242.949219 C 139.511719 243.105469 139.699219 243.238281 139.910156 243.308594 C 140.152344 243.390625 140.414062 243.421875 140.664062 243.472656 C 140.707031 243.421875 140.75 243.371094 140.789062 243.324219 C 140.660156 243.097656 140.535156 242.875 140.390625 242.628906 C 140.765625 241.867188 141.082031 241.765625 141.859375 242.21875 C 142.160156 242.394531 142.613281 242.375 142.996094 242.269531 C 143.195312 242.214844 143.453125 242.378906 143.648438 242.328125 C 143.984375 242.246094 144.300781 241.945312 144.617188 241.960938 C 145.167969 241.992188 145.6875 241.144531 146.25 241.890625 C 146.253906 241.894531 146.320312 241.847656 146.359375 241.835938 C 146.664062 241.742188 146.964844 241.613281 147.277344 241.570312 C 147.613281 241.527344 147.964844 241.558594 148.332031 241.558594 C 148.355469 241.601562 148.425781 241.828125 148.488281 241.824219 C 148.734375 241.816406 148.980469 241.738281 149.191406 241.691406 C 149.191406 241.800781 149.191406 241.980469 149.191406 242.308594 C 149.710938 241.859375 150.570312 242.355469 150.710938 241.46875 C 150.980469 241.445312 151.261719 241.488281 151.46875 241.378906 C 152.15625 241.027344 152.765625 241.046875 153.367188 241.546875 C 153.367188 241.398438 153.367188 241.285156 153.367188 241.082031 C 153.511719 241.199219 153.597656 241.253906 153.667969 241.320312 C 153.757812 241.410156 153.835938 241.507812 153.960938 241.640625 C 152.085938 242.59375 150.238281 243.539062 148.46875 244.859375 C 149.015625 245.011719 149.402344 245.121094 149.683594 245.199219 C 150.058594 244.839844 150.371094 244.542969 150.554688 244.367188 C 150.957031 244.5 151.316406 244.753906 151.589844 244.679688 C 152.214844 244.511719 152.464844 244.421875 153.167969 244.574219 C 153.210938 244.582031 153.253906 244.582031 153.296875 244.574219 C 153.652344 244.492188 154.003906 244.386719 154.367188 244.324219 C 154.671875 244.273438 155.105469 244.128906 155.265625 244.269531 C 155.8125 244.753906 156.335938 244.292969 156.792969 244.222656 C 157.097656 244.175781 157.402344 244.183594 157.59375 244.28125 C 157.988281 244.496094 158.25 244.488281 158.519531 244.117188 C 158.738281 243.816406 158.980469 243.65625 159.292969 244.066406 C 159.460938 244.285156 159.722656 244.429688 159.925781 244.597656 C 160.132812 244.4375 160.289062 244.3125 160.417969 244.207031 C 160.765625 244.488281 161.070312 244.734375 161.414062 245.011719 C 161.359375 245.074219 161.257812 245.191406 161.160156 245.308594 C 161.324219 245.34375 161.480469 245.371094 161.828125 245.445312 C 159.339844 246.191406 157.03125 246.886719 154.695312 247.589844 C 155.285156 247.925781 155.761719 248.195312 156.328125 248.511719 C 156.527344 248.445312 156.890625 248.328125 157.328125 248.191406 C 157.058594 248.015625 156.890625 247.90625 156.71875 247.796875 C 156.738281 247.742188 156.757812 247.691406 156.777344 247.636719 C 157.089844 247.652344 157.398438 247.671875 157.753906 247.691406 C 157.59375 247.96875 157.484375 248.144531 157.382812 248.316406 C 157.425781 248.347656 157.472656 248.378906 157.515625 248.410156 C 157.65625 248.292969 157.800781 248.179688 157.898438 248.097656 C 158.382812 248.359375 158.855469 248.617188 159.347656 248.886719 C 159.402344 248.835938 159.46875 248.726562 159.558594 248.703125 C 159.921875 248.613281 160.539062 248.394531 160.609375 248.507812 C 160.96875 249.082031 161.160156 248.761719 161.445312 248.488281 C 161.546875 248.394531 161.757812 248.371094 161.910156 248.386719 C 162.496094 248.449219 163.074219 248.542969 163.6875 248.625 C 163.730469 248.726562 163.800781 248.886719 163.871094 249.050781 L 163.851562 249.03125 " fill-opacity="1" fill-rule="nonzero"/></g><path fill="#c2ab9b" d="M 163.851562 249.03125 C 164.257812 249 164.742188 249.203125 165.070312 248.515625 C 164.757812 248.488281 164.472656 248.382812 164.273438 248.472656 C 164.089844 248.554688 164 248.847656 163.871094 249.050781 L 163.851562 249.03125 " fill-opacity="1" fill-rule="nonzero"/></svg>