<svg width="24" height="25" viewBox="0 0 24 25" fill="none" xmlns="http://www.w3.org/2000/svg">
<path d="M2.6755 5.80496C3.30162 5.13479 4.3276 4.11035 5.17195 3.27774C5.95363 2.50693 7.20988 2.52201 7.98044 3.30393L9.93784 5.29019C10.5182 5.87915 10.4958 6.81449 9.96559 7.44899C8.35877 9.37168 8.65627 10.5719 11.2682 13.1839C13.8825 15.7982 15.0465 16.0578 16.9692 14.443C17.6003 13.9129 18.5326 13.8936 19.1196 14.4721L21.1385 16.4619C21.9209 17.233 21.9354 18.4903 21.1637 19.2721C20.3329 20.1139 19.3112 21.1369 18.6387 21.7682C14.5751 25.5831 -1.13002 9.87822 2.6755 5.80496Z" stroke="#020144" stroke-width="1.5"/>
</svg>
