<svg width="840" height="61" viewBox="0 0 840 61" fill="none" xmlns="http://www.w3.org/2000/svg">
<g opacity="0.05">
<rect x="24.781" y="6.26538" width="12.7359" height="48.585" transform="rotate(30 24.781 6.26538)" fill="#020144"/>
<rect x="563.929" y="6.26538" width="12.7359" height="48.585" transform="rotate(30 563.929 6.26538)" fill="#020144"/>
<rect x="84.6868" y="6.26538" width="12.7359" height="48.585" transform="rotate(30 84.6868 6.26538)" fill="#020144"/>
<rect x="623.835" y="6.26538" width="12.7359" height="48.585" transform="rotate(30 623.835 6.26538)" fill="#020144"/>
<rect x="683.713" y="6.26538" width="12.7359" height="48.585" transform="rotate(30 683.713 6.26538)" fill="#020144"/>
<rect x="743.591" y="6.26538" width="12.7359" height="48.585" transform="rotate(30 743.591 6.26538)" fill="#020144"/>
<rect x="803.469" y="6.26538" width="12.7359" height="48.585" transform="rotate(30 803.469 6.26538)" fill="#020144"/>
<rect x="144.593" y="6.26538" width="12.7359" height="48.585" transform="rotate(30 144.593 6.26538)" fill="#020144"/>
<rect x="204.499" y="6.26538" width="12.7359" height="48.585" transform="rotate(30 204.499 6.26538)" fill="#020144"/>
<rect x="264.404" y="6.26538" width="12.7359" height="48.585" transform="rotate(30 264.404 6.26538)" fill="#020144"/>
<rect x="324.31" y="6.26538" width="12.7359" height="48.585" transform="rotate(30 324.31 6.26538)" fill="#020144"/>
<rect x="504.025" y="6.26538" width="12.7359" height="48.585" transform="rotate(30 504.025 6.26538)" fill="#020144"/>
<rect x="444.119" y="6.26538" width="12.7359" height="48.585" transform="rotate(30 444.119 6.26538)" fill="#020144"/>
<rect x="384.214" y="6.26538" width="12.7359" height="48.585" transform="rotate(30 384.214 6.26538)" fill="#020144"/>
<rect width="12.7359" height="48.585" transform="matrix(-0.866025 0.5 0.5 0.866025 36.0193 6.66602)" fill="#020144"/>
<rect width="12.7359" height="48.585" transform="matrix(-0.866025 0.5 0.5 0.866025 575.167 6.66602)" fill="#020144"/>
<rect width="12.7359" height="48.585" transform="matrix(-0.866025 0.5 0.5 0.866025 95.9248 6.66602)" fill="#020144"/>
<rect width="12.7359" height="48.585" transform="matrix(-0.866025 0.5 0.5 0.866025 635.073 6.66602)" fill="#020144"/>
<rect width="12.7359" height="48.585" transform="matrix(-0.866025 0.5 0.5 0.866025 694.951 6.66602)" fill="#020144"/>
<rect width="12.7359" height="48.585" transform="matrix(-0.866025 0.5 0.5 0.866025 754.829 6.66602)" fill="#020144"/>
<rect width="12.7359" height="48.585" transform="matrix(-0.866025 0.5 0.5 0.866025 814.708 6.66602)" fill="#020144"/>
<rect width="12.7359" height="48.585" transform="matrix(-0.866025 0.5 0.5 0.866025 155.831 6.66602)" fill="#020144"/>
<rect width="12.7359" height="48.585" transform="matrix(-0.866025 0.5 0.5 0.866025 215.737 6.66602)" fill="#020144"/>
<rect width="12.7359" height="48.585" transform="matrix(-0.866025 0.5 0.5 0.866025 275.642 6.66602)" fill="#020144"/>
<rect width="12.7359" height="48.585" transform="matrix(-0.866025 0.5 0.5 0.866025 335.548 6.66602)" fill="#020144"/>
<rect width="12.7359" height="48.585" transform="matrix(-0.866025 0.5 0.5 0.866025 515.263 6.66602)" fill="#020144"/>
<rect width="12.7359" height="48.585" transform="matrix(-0.866025 0.5 0.5 0.866025 455.357 6.66602)" fill="#020144"/>
<rect width="12.7359" height="48.585" transform="matrix(-0.866025 0.5 0.5 0.866025 395.451 6.66602)" fill="#020144"/>
<rect width="12.2891" height="835.663" transform="matrix(-4.47308e-08 1 1 4.27152e-08 2.72632 0)" fill="#020144"/>
<rect width="13" height="837" transform="matrix(-4.47308e-08 1 1 4.27152e-08 3 48)" fill="#020144"/>
</g>
</svg>
