<svg width="836" height="163" viewBox="0 0 836 163" fill="none" xmlns="http://www.w3.org/2000/svg">
<g opacity="0.34">
<path d="M16.9574 18.8057L31.6429 44.4498H2.27186L16.9574 18.8057Z" fill="#D9D9D9"/>
<path d="M530.767 18.8057L545.452 44.4498H516.081L530.767 18.8057Z" fill="#D9D9D9"/>
<path d="M273.862 18.8057L287.813 44.4498H259.911L273.862 18.8057Z" fill="#D9D9D9"/>
<path d="M787.671 18.8057L803.091 44.4498H772.251L787.671 18.8057Z" fill="#D9D9D9"/>
<path d="M144.986 18.8057L160.406 44.4498H129.566L144.986 18.8057Z" fill="#D9D9D9"/>
<path d="M657.947 18.8057L672.633 44.4498H643.262L657.947 18.8057Z" fill="#D9D9D9"/>
<path d="M402.738 18.8057L418.158 44.4498H387.319L402.738 18.8057Z" fill="#D9D9D9"/>
<path d="M81.3959 18.8057L96.0814 44.4498H66.7103L81.3959 18.8057Z" fill="#D9D9D9"/>
<path d="M594.358 18.8057L609.777 44.4498H578.938L594.358 18.8057Z" fill="#D9D9D9"/>
<path d="M338.3 18.8057L353.72 44.4498H322.88L338.3 18.8057Z" fill="#D9D9D9"/>
<path d="M208.576 18.8057L223.262 44.4498H193.891L208.576 18.8057Z" fill="#D9D9D9"/>
<path d="M723.233 18.8057L737.185 44.4498H709.282L723.233 18.8057Z" fill="#D9D9D9"/>
<path d="M466.328 18.8057L481.014 44.4498H451.643L466.328 18.8057Z" fill="#D9D9D9"/>
<path d="M48.3288 34.1924L32.9089 8.54821L63.7486 8.54821L48.3288 34.1924Z" fill="#D9D9D9"/>
<path d="M562.138 34.1924L548.187 8.54821L576.089 8.54821L562.138 34.1924Z" fill="#D9D9D9"/>
<path d="M305.234 34.1924L290.548 8.54821L319.919 8.54821L305.234 34.1924Z" fill="#D9D9D9"/>
<path d="M819.043 34.1924L804.357 8.54821L833.728 8.54821L819.043 34.1924Z" fill="#D9D9D9"/>
<path d="M178.053 34.1924L163.367 8.54821L192.738 8.54821L178.053 34.1924Z" fill="#D9D9D9"/>
<path d="M691.014 34.1924L675.594 8.54821L706.433 8.54821L691.014 34.1924Z" fill="#D9D9D9"/>
<path d="M433.262 34.1924L417.842 8.54821L448.681 8.54821L433.262 34.1924Z" fill="#D9D9D9"/>
<path d="M112.767 34.1924L98.8154 8.54821L126.718 8.54821L112.767 34.1924Z" fill="#D9D9D9"/>
<path d="M627.424 34.1924L612.738 8.54821L642.109 8.54821L627.424 34.1924Z" fill="#D9D9D9"/>
<path d="M369.671 34.1924L354.986 8.54821L384.357 8.54821L369.671 34.1924Z" fill="#D9D9D9"/>
<path d="M241.642 34.1924L226.223 8.54821L257.062 8.54821L241.642 34.1924Z" fill="#D9D9D9"/>
<path d="M754.605 34.1924L739.919 8.54821L769.29 8.54821L754.605 34.1924Z" fill="#D9D9D9"/>
<path d="M497.7 34.1924L482.28 8.54821L513.12 8.54821L497.7 34.1924Z" fill="#D9D9D9"/>
<path d="M16.9572 56.417L12.5516 47.4415L21.3629 47.4415L16.9572 56.417Z" fill="#D9D9D9"/>
<path d="M531.614 56.417L526.475 47.4415L536.754 47.4415L531.614 56.417Z" fill="#D9D9D9"/>
<path d="M273.862 56.417L268.722 47.4415L279.002 47.4415L273.862 56.417Z" fill="#D9D9D9"/>
<path d="M787.672 56.417L782.532 47.4415L792.812 47.4415L787.672 56.417Z" fill="#D9D9D9"/>
<path d="M146.682 56.417L141.542 47.4415L151.822 47.4415L146.682 56.417Z" fill="#D9D9D9"/>
<path d="M658.795 56.417L653.655 47.4415L663.935 47.4415L658.795 56.417Z" fill="#D9D9D9"/>
<path d="M401.891 56.417L397.485 47.4415L406.296 47.4415L401.891 56.417Z" fill="#D9D9D9"/>
<path d="M81.3957 56.417L76.99 47.4415L85.8014 47.4415L81.3957 56.417Z" fill="#D9D9D9"/>
<path d="M594.357 56.417L589.217 47.4415L599.497 47.4415L594.357 56.417Z" fill="#D9D9D9"/>
<path d="M339.148 56.417L334.743 47.4415L343.554 47.4415L339.148 56.417Z" fill="#D9D9D9"/>
<path d="M209.424 56.417L204.284 47.4415L214.564 47.4415L209.424 56.417Z" fill="#D9D9D9"/>
<path d="M723.234 56.417L718.094 47.4415L728.374 47.4415L723.234 56.417Z" fill="#D9D9D9"/>
<path d="M466.328 56.417L461.923 47.4415L470.734 47.4415L466.328 56.417Z" fill="#D9D9D9"/>
<path d="M16.9574 71.8037L31.6429 97.4479H2.27186L16.9574 71.8037Z" fill="#D9D9D9"/>
<path d="M530.767 71.8037L545.452 97.4479H516.081L530.767 71.8037Z" fill="#D9D9D9"/>
<path d="M273.862 71.8037L287.813 97.4479H259.911L273.862 71.8037Z" fill="#D9D9D9"/>
<path d="M787.671 71.8037L803.091 97.4479H772.251L787.671 71.8037Z" fill="#D9D9D9"/>
<path d="M144.986 71.8037L160.406 97.4479H129.566L144.986 71.8037Z" fill="#D9D9D9"/>
<path d="M657.947 71.8037L672.633 97.4479H643.262L657.947 71.8037Z" fill="#D9D9D9"/>
<path d="M402.738 71.8037L418.158 97.4479H387.319L402.738 71.8037Z" fill="#D9D9D9"/>
<path d="M81.3959 71.8037L96.0814 97.4479H66.7103L81.3959 71.8037Z" fill="#D9D9D9"/>
<path d="M594.358 71.8037L609.777 97.4479H578.938L594.358 71.8037Z" fill="#D9D9D9"/>
<path d="M338.3 71.8037L353.72 97.4479H322.88L338.3 71.8037Z" fill="#D9D9D9"/>
<path d="M208.576 71.8037L223.262 97.4479H193.891L208.576 71.8037Z" fill="#D9D9D9"/>
<path d="M723.233 71.8037L737.185 97.4479H709.282L723.233 71.8037Z" fill="#D9D9D9"/>
<path d="M466.328 71.8037L481.014 97.4479H451.643L466.328 71.8037Z" fill="#D9D9D9"/>
<path d="M48.3288 87.1904L32.9089 61.5463L63.7486 61.5463L48.3288 87.1904Z" fill="#D9D9D9"/>
<path d="M562.138 87.1904L548.187 61.5463L576.089 61.5463L562.138 87.1904Z" fill="#D9D9D9"/>
<path d="M305.234 87.1904L290.548 61.5463L319.919 61.5463L305.234 87.1904Z" fill="#D9D9D9"/>
<path d="M819.043 87.1904L804.357 61.5463L833.728 61.5463L819.043 87.1904Z" fill="#D9D9D9"/>
<path d="M178.053 87.1904L163.367 61.5463L192.738 61.5463L178.053 87.1904Z" fill="#D9D9D9"/>
<path d="M691.014 87.1904L675.594 61.5463L706.433 61.5463L691.014 87.1904Z" fill="#D9D9D9"/>
<path d="M433.262 87.1904L417.842 61.5463L448.681 61.5463L433.262 87.1904Z" fill="#D9D9D9"/>
<path d="M112.767 87.1904L98.8154 61.5463L126.718 61.5463L112.767 87.1904Z" fill="#D9D9D9"/>
<path d="M627.424 87.1904L612.738 61.5463L642.109 61.5463L627.424 87.1904Z" fill="#D9D9D9"/>
<path d="M369.671 87.1904L354.986 61.5463L384.357 61.5463L369.671 87.1904Z" fill="#D9D9D9"/>
<path d="M241.642 87.1904L226.223 61.5463L257.062 61.5463L241.642 87.1904Z" fill="#D9D9D9"/>
<path d="M754.605 87.1904L739.919 61.5463L769.29 61.5463L754.605 87.1904Z" fill="#D9D9D9"/>
<path d="M497.7 87.1904L482.28 61.5463L513.12 61.5463L497.7 87.1904Z" fill="#D9D9D9"/>
<path d="M16.9572 109.415L12.5516 100.44L21.3629 100.44L16.9572 109.415Z" fill="#D9D9D9"/>
<path d="M531.614 109.415L526.475 100.44L536.754 100.44L531.614 109.415Z" fill="#D9D9D9"/>
<path d="M273.862 109.415L268.722 100.44L279.002 100.44L273.862 109.415Z" fill="#D9D9D9"/>
<path d="M787.672 109.415L782.532 100.44L792.812 100.44L787.672 109.415Z" fill="#D9D9D9"/>
<path d="M146.682 109.415L141.542 100.44L151.822 100.44L146.682 109.415Z" fill="#D9D9D9"/>
<path d="M658.795 109.415L653.655 100.44L663.935 100.44L658.795 109.415Z" fill="#D9D9D9"/>
<path d="M401.891 109.415L397.485 100.44L406.296 100.44L401.891 109.415Z" fill="#D9D9D9"/>
<path d="M81.3957 109.415L76.99 100.44L85.8014 100.44L81.3957 109.415Z" fill="#D9D9D9"/>
<path d="M594.357 109.415L589.217 100.44L599.497 100.44L594.357 109.415Z" fill="#D9D9D9"/>
<path d="M339.148 109.415L334.743 100.44L343.554 100.44L339.148 109.415Z" fill="#D9D9D9"/>
<path d="M209.424 109.415L204.284 100.44L214.564 100.44L209.424 109.415Z" fill="#D9D9D9"/>
<path d="M723.234 109.415L718.094 100.44L728.374 100.44L723.234 109.415Z" fill="#D9D9D9"/>
<path d="M466.328 109.415L461.923 100.44L470.734 100.44L466.328 109.415Z" fill="#D9D9D9"/>
<path d="M16.9574 124.802L31.6429 150.446H2.27186L16.9574 124.802Z" fill="#D9D9D9"/>
<path d="M530.767 124.802L545.452 150.446H516.081L530.767 124.802Z" fill="#D9D9D9"/>
<path d="M273.862 124.802L287.813 150.446H259.911L273.862 124.802Z" fill="#D9D9D9"/>
<path d="M787.671 124.802L803.091 150.446H772.251L787.671 124.802Z" fill="#D9D9D9"/>
<path d="M144.986 124.802L160.406 150.446H129.566L144.986 124.802Z" fill="#D9D9D9"/>
<path d="M657.947 124.802L672.633 150.446H643.262L657.947 124.802Z" fill="#D9D9D9"/>
<path d="M402.738 124.802L418.158 150.446H387.319L402.738 124.802Z" fill="#D9D9D9"/>
<path d="M81.3959 124.802L96.0814 150.446H66.7103L81.3959 124.802Z" fill="#D9D9D9"/>
<path d="M594.358 124.802L609.777 150.446H578.938L594.358 124.802Z" fill="#D9D9D9"/>
<path d="M338.3 124.802L353.72 150.446H322.88L338.3 124.802Z" fill="#D9D9D9"/>
<path d="M208.576 124.802L223.262 150.446H193.891L208.576 124.802Z" fill="#D9D9D9"/>
<path d="M723.233 124.802L737.185 150.446H709.282L723.233 124.802Z" fill="#D9D9D9"/>
<path d="M466.328 124.802L481.014 150.446H451.643L466.328 124.802Z" fill="#D9D9D9"/>
<path d="M48.3288 140.188L32.9089 114.544L63.7486 114.544L48.3288 140.188Z" fill="#D9D9D9"/>
<path d="M562.138 140.188L548.187 114.544L576.089 114.544L562.138 140.188Z" fill="#D9D9D9"/>
<path d="M305.234 140.188L290.548 114.544L319.919 114.544L305.234 140.188Z" fill="#D9D9D9"/>
<path d="M819.043 140.188L804.357 114.544L833.728 114.544L819.043 140.188Z" fill="#D9D9D9"/>
<path d="M178.053 140.188L163.367 114.544L192.738 114.544L178.053 140.188Z" fill="#D9D9D9"/>
<path d="M691.014 140.188L675.594 114.544L706.433 114.544L691.014 140.188Z" fill="#D9D9D9"/>
<path d="M433.262 140.188L417.842 114.544L448.681 114.544L433.262 140.188Z" fill="#D9D9D9"/>
<path d="M112.767 140.188L98.8154 114.544L126.718 114.544L112.767 140.188Z" fill="#D9D9D9"/>
<path d="M627.424 140.188L612.738 114.544L642.109 114.544L627.424 140.188Z" fill="#D9D9D9"/>
<path d="M369.671 140.188L354.986 114.544L384.357 114.544L369.671 140.188Z" fill="#D9D9D9"/>
<path d="M241.642 140.188L226.223 114.544L257.062 114.544L241.642 140.188Z" fill="#D9D9D9"/>
<path d="M754.605 140.188L739.919 114.544L769.29 114.544L754.605 140.188Z" fill="#D9D9D9"/>
<path d="M497.7 140.188L482.28 114.544L513.12 114.544L497.7 140.188Z" fill="#D9D9D9"/>
<path d="M16.9572 162.413L12.5516 153.438L21.3629 153.438L16.9572 162.413Z" fill="#D9D9D9"/>
<path d="M531.614 162.413L526.475 153.438L536.754 153.438L531.614 162.413Z" fill="#D9D9D9"/>
<path d="M273.862 162.413L268.722 153.438L279.002 153.438L273.862 162.413Z" fill="#D9D9D9"/>
<path d="M787.672 162.413L782.532 153.438L792.812 153.438L787.672 162.413Z" fill="#D9D9D9"/>
<path d="M146.682 162.413L141.542 153.438L151.822 153.438L146.682 162.413Z" fill="#D9D9D9"/>
<path d="M658.795 162.413L653.655 153.438L663.935 153.438L658.795 162.413Z" fill="#D9D9D9"/>
<path d="M401.891 162.413L397.485 153.438L406.296 153.438L401.891 162.413Z" fill="#D9D9D9"/>
<path d="M81.3957 162.413L76.99 153.438L85.8014 153.438L81.3957 162.413Z" fill="#D9D9D9"/>
<path d="M594.357 162.413L589.217 153.438L599.497 153.438L594.357 162.413Z" fill="#D9D9D9"/>
<path d="M339.148 162.413L334.743 153.438L343.554 153.438L339.148 162.413Z" fill="#D9D9D9"/>
<path d="M209.424 162.413L204.284 153.438L214.564 153.438L209.424 162.413Z" fill="#D9D9D9"/>
<path d="M723.234 162.413L718.094 153.438L728.374 153.438L723.234 162.413Z" fill="#D9D9D9"/>
<path d="M466.328 162.413L461.923 153.438L470.734 153.438L466.328 162.413Z" fill="#D9D9D9"/>
</g>
</svg>
