<svg width="77" height="48" viewBox="0 0 77 48" fill="none" xmlns="http://www.w3.org/2000/svg">
<g clip-path="url(#clip0_247_57)">
<path d="M-91.936 -68.4275C-45.67 -68.4275 -8.16408 -30.6733 -8.16408 15.899C-8.16408 29.7194 -11.4668 42.7634 -17.3213 54.2746C-17.5457 54.2436 -17.7711 54.2168 -17.9976 54.1937L-17.9976 55.5757C-17.7685 55.1445 -17.543 54.7106 -17.3213 54.2746C-6.05118 55.7827 2.64365 65.4958 2.64365 77.2529C2.64365 89.0099 -6.4008 99.1092 -17.9976 100.312C-18.7829 100.394 -19.5798 100.436 -20.3865 100.436C-30.7956 100.436 -39.5916 93.4844 -42.4435 83.9414C-56.0436 93.9829 -72.7642 99.9911 -90.8688 100.219C-91.7314 100.192 -92.5971 100.179 -93.4665 100.179C-93.8229 100.179 -94.1783 100.181 -94.5337 100.186C-94.9986 100.171 -95.4625 100.153 -95.9254 100.131C-140.339 98.0355 -175.708 61.1249 -175.708 15.899C-175.708 -29.327 -138.202 -68.4275 -91.936 -68.4275Z" fill="#E3D5C6"/>
<path d="M1.53052 24.2336C7.81968 24.771 15.666 26.0285 24.352 28.8562C36.1522 32.6981 45.2369 38.0503 51.4874 42.4438C52.9533 39.7759 56.1401 34.8235 62.0635 30.8176C67.1253 27.3937 71.9951 26.1436 74.8657 25.6346C71.9439 24.9417 66.1547 23.1457 60.6717 18.2106C56.2549 14.2347 53.9129 9.91051 52.7398 7.28458C45.3475 11.8 35.1691 16.9279 22.404 20.452C14.6897 22.5816 7.61252 23.6889 1.53052 24.2341L1.53052 24.2336Z" fill="#E3D5C6"/>
</g>
<defs>
<clipPath id="clip0_247_57">
<rect width="48" height="77" fill="white" transform="translate(2.09815e-06 48) rotate(-90)"/>
</clipPath>
</defs>
</svg>
