<svg width="77" height="48" viewBox="0 0 77 48" fill="none" xmlns="http://www.w3.org/2000/svg">
<g clip-path="url(#clip0_247_50)">
<path d="M168.936 -68.4275C122.67 -68.4275 85.1641 -30.6733 85.1641 15.899C85.1641 29.7194 88.4668 42.7634 94.3213 54.2746C94.5457 54.2436 94.7711 54.2168 94.9976 54.1937L94.9976 55.5757C94.7685 55.1445 94.5431 54.7106 94.3213 54.2746C83.0512 55.7827 74.3564 65.4958 74.3564 77.2529C74.3564 89.0099 83.4009 99.1092 94.9976 100.312C95.783 100.394 96.5798 100.436 97.3866 100.436C107.796 100.436 116.592 93.4844 119.444 83.9414C133.044 93.9829 149.764 99.9911 167.869 100.219C168.731 100.192 169.597 100.179 170.467 100.179C170.823 100.179 171.178 100.181 171.534 100.186C171.999 100.171 172.463 100.153 172.925 100.131C217.339 98.0355 252.708 61.1249 252.708 15.899C252.708 -29.327 215.202 -68.4275 168.936 -68.4275Z" fill="#E3D5C6"/>
<path d="M75.4695 24.2336C69.1803 24.771 61.334 26.0285 52.648 28.8562C40.8478 32.6981 31.7631 38.0503 25.5126 42.4438C24.0467 39.7759 20.8599 34.8235 14.9365 30.8176C9.87473 27.3937 5.00494 26.1436 2.13433 25.6346C5.05608 24.9417 10.8453 23.1457 16.3283 18.2106C20.7451 14.2347 23.0871 9.91051 24.2602 7.28458C31.6525 11.8 41.8309 16.9279 54.5961 20.452C62.3104 22.5816 69.3875 23.6889 75.4695 24.2341L75.4695 24.2336Z" fill="#E3D5C6"/>
</g>
<defs>
<clipPath id="clip0_247_50">
<rect width="48" height="77" fill="white" transform="matrix(4.37114e-08 -1 -1 -4.37114e-08 77 48)"/>
</clipPath>
</defs>
</svg>
