<svg width="116" height="78" viewBox="0 0 116 78" fill="none" xmlns="http://www.w3.org/2000/svg">
<path d="M15.7907 16.2919H14.4104V4.0659H15.7907V16.2875V16.2919ZM27.0759 12.9739V13.0092C27.0759 15.1051 25.3307 16.4683 22.9024 16.4683C20.9654 16.4683 19.377 15.8243 17.9078 14.5137L18.764 13.4989C20.039 14.6506 21.2625 15.2284 22.9562 15.2284C24.6499 15.2284 25.6793 14.3549 25.6793 13.1503V13.1152C25.6793 11.9811 25.064 11.3326 22.5 10.7898C19.6904 10.1811 18.3967 9.27203 18.3967 7.26458V7.22926C18.3967 5.31 20.0928 3.89372 22.4135 3.89372C24.1961 3.89372 25.4711 4.40114 26.7063 5.3982L25.9039 6.4617C24.7693 5.5395 23.637 5.13361 22.3737 5.13361C20.7853 5.13361 19.77 6.00715 19.77 7.10574V7.14106C19.77 8.29275 20.4016 8.93679 23.0872 9.51486C25.815 10.1105 27.0712 11.1075 27.0712 12.9739M39.3554 3.8584C35.6358 3.8584 33.1046 6.81027 33.1046 10.1811V10.2165C33.1046 13.5871 35.6007 16.5036 39.3203 16.5036C43.0399 16.5036 45.5735 13.5517 45.5735 10.1811V10.1458C45.5735 6.77495 43.0751 3.8584 39.3554 3.8584ZM44.1372 10.2165C44.1372 12.9915 42.1487 15.2284 39.3554 15.2284C36.5622 15.2284 34.5363 12.9608 34.5363 10.1811V10.1458C34.5363 7.36611 36.5271 5.13361 39.3203 5.13361C42.1135 5.13361 44.1372 7.40144 44.1372 10.1811V10.2165ZM29.3452 4.07035H30.7254V16.2919H29.3452V4.0659V4.07035ZM6.05178 16.3801L0.797485 4.07035H2.33443L3.08305 5.88807L6.67868 14.5977L7.02258 15.4315L6.89157 14.0903L11.0441 4.07035H12.5249L7.27059 16.3801H6.04942H6.05178ZM56.8237 4.07035H58.1688V16.2919H57.0717L48.4136 5.2969L49.1762 7.0793V16.2919H47.831V4.0659H49.1247L57.3922 14.5799L56.826 13.0799V4.0659L56.8237 4.07035Z" fill="#8A8A8A"/>
<path d="M95.4775 17.5827H96.7712V18.8755H95.4775V17.5827ZM98.0626 17.5827H99.3563V18.8755H98.0626V17.5827ZM71.4145 2.78457H70.1208V1.49181H71.4145V2.78457ZM103.062 11.8339C103.551 12.1869 104.122 12.4426 104.77 12.6103C105.418 12.7781 106.103 12.8618 106.826 12.8618H107.165L107.596 11.9485V13.2368C107.596 13.9164 107.404 14.4016 107.015 14.6929C106.627 14.9841 106.084 15.1296 105.383 15.1296C104.987 15.1296 104.622 15.0899 104.306 15.015C103.988 14.9399 103.623 14.812 103.216 14.6267L102.809 15.871C103.305 16.0561 103.747 16.1931 104.129 16.2811C104.512 16.3737 104.898 16.4224 105.287 16.4224C106.548 16.4224 107.465 16.1225 108.035 15.5224C108.609 14.9221 108.896 14.1193 108.896 13.1046V4.07733H106.826C106.028 4.07733 105.298 4.19196 104.641 4.41701C103.984 4.64206 103.42 4.95531 102.952 5.3481C102.484 5.74065 102.119 6.2083 101.862 6.75549C101.602 7.29823 101.473 7.8894 101.473 8.52923C101.473 9.29235 101.614 9.94995 101.901 10.4925C102.187 11.0352 102.578 11.4853 103.067 11.8339M103.067 7.24957C103.265 6.86146 103.53 6.53044 103.86 6.25251C104.187 5.97904 104.561 5.76264 104.987 5.61268C105.397 5.46717 105.813 5.39208 106.255 5.38763H108.349L107.61 5.75843V11.5691H106.3C105.813 11.5691 105.361 11.5029 104.933 11.3662C104.505 11.2338 104.133 11.0352 103.808 10.7748C103.485 10.5147 103.23 10.197 103.05 9.81754C102.863 9.44253 102.776 9.00997 102.776 8.52478C102.776 8.03935 102.872 7.63347 103.076 7.24513M74.0159 2.78013H72.7246V1.48737H74.0159V2.78013ZM112.188 16.418C111.842 16.418 111.488 16.3695 111.135 16.2724L111.474 15.0283C111.626 15.0723 111.746 15.0943 111.835 15.1076C111.916 15.1163 112.022 15.1252 112.141 15.1252C112.391 15.1252 112.59 15.0899 112.747 15.0192C112.901 14.9488 113.03 14.8339 113.117 14.6795C113.21 14.5209 113.271 14.3179 113.311 14.0619C113.351 13.806 113.367 13.4972 113.367 13.1311V4.07733H114.661V13.1353C114.661 13.6427 114.623 14.0973 114.537 14.5031C114.459 14.9046 114.317 15.2487 114.127 15.5358C113.931 15.8223 113.678 16.0385 113.36 16.1885C113.042 16.3386 112.649 16.418 112.188 16.418ZM108.915 2.78013H106.075V1.72575C106.075 1.15657 106.206 0.737352 106.473 0.476976C106.737 0.221044 107.118 0.0888672 107.614 0.0888672H108.529V0.988838H107.635C107.432 0.988838 107.296 1.02861 107.24 1.09902C107.17 1.18745 107.139 1.31542 107.139 1.47848V1.77862H108.915V2.77568V2.78013ZM70.488 16.2371H73.1784V15.2709C73.2065 15.3149 73.2322 15.3636 73.2579 15.4034C73.4521 15.6899 73.7095 15.9061 74.0253 16.056C74.3434 16.2062 74.7364 16.2855 75.1996 16.2855H99.375V4.07733H98.0813V14.993H75.2464C75.0007 14.993 74.7972 14.9575 74.6428 14.887C74.4861 14.8164 74.3621 14.7018 74.2732 14.5471C74.1796 14.3885 74.1141 14.1855 74.079 13.934C74.0393 13.678 74.0206 13.3692 74.0206 13.0029V4.07733H70.5208C66.9439 4.07733 64.5085 6.91433 64.5085 10.1572V10.1925C64.5085 13.4354 66.9088 16.2416 70.488 16.2416M65.8865 10.1263C65.8865 7.45708 67.8001 5.30833 70.488 5.30833H73.5176L72.7246 5.70088V13.0073C72.7246 13.5147 72.7643 13.9693 72.8462 14.3752C72.8953 14.6091 72.9631 14.8208 73.0497 15.015H70.5278C67.8398 15.015 65.8911 12.8309 65.8911 10.1617V10.1263H65.8865Z" fill="#8A8A8A"/>
<path d="M5.59539 77.5046H4.64087L2.79743 75.0779L1.88975 76.0045V77.5046H1.09436V72.3291H1.88975V75.1132L4.52157 72.3291H5.47138L3.33081 74.5396L5.59539 77.5046Z" fill="#8A8A8A"/>
<path d="M7.45062 72.3242H6.65759V77.5037H7.45062V72.3242Z" fill="#8A8A8A"/>
<path d="M13.5331 72.3242V77.5084H12.8523L9.81807 73.5859V77.5084H9.03674V72.3242H9.79936L12.7564 76.1407V72.3242H13.5331Z" fill="#8A8A8A"/>
<path d="M19.6693 74.6747V76.8059C19.2319 77.172 18.5137 77.5954 17.5148 77.5954C15.938 77.5954 14.8245 76.5013 14.8245 74.9264V74.9131C14.8245 73.4084 16.0035 72.2305 17.4983 72.2305C18.3007 72.2305 18.874 72.4246 19.4424 72.8923L18.9418 73.4926C18.5441 73.166 18.1347 72.9496 17.4633 72.9496C16.469 72.9496 15.6666 73.8234 15.6666 74.9131C15.6666 76.0736 16.4386 76.8852 17.5452 76.8852C18.0411 76.8852 18.5137 76.7352 18.8739 76.4662L18.902 76.444V75.3454H17.5381V74.6705H19.6647L19.6693 74.6747Z" fill="#8A8A8A"/>
<path d="M23.0171 72.3242H21.1082V77.5037H23.0171C24.6149 77.5037 25.7753 76.4142 25.7753 74.9139C25.7753 73.4139 24.6149 72.3242 23.0171 72.3242ZM23.0171 76.7934H21.8965V73.0342H23.0171C24.1471 73.0342 24.9378 73.8065 24.9378 74.9139C24.9378 76.0214 24.1471 76.7934 23.0171 76.7934Z" fill="#8A8A8A"/>
<path d="M29.5086 72.2305C27.96 72.2305 26.7903 73.3822 26.7903 74.9131V74.9306C26.7903 76.4529 27.9506 77.5954 29.4946 77.5954C31.0386 77.5954 32.2177 76.4442 32.2177 74.9131C32.2177 73.3822 31.0527 72.2305 29.511 72.2305M31.3802 74.9264C31.3802 76.0383 30.5754 76.8763 29.511 76.8763C28.4489 76.8763 27.6324 76.0161 27.6324 74.9086C27.6324 73.8014 28.4349 72.9454 29.4993 72.9454C30.5614 72.9454 31.3802 73.8098 31.3802 74.9086V74.9264Z" fill="#8A8A8A"/>
<path d="M38.6089 72.3242V77.5084H37.8158V73.5288L36.0473 76.1625L34.2998 73.5419V77.5084H33.5184V72.3242H34.4051L36.0637 74.9008L37.7176 72.3242H38.6089Z" fill="#8A8A8A"/>
<path d="M45.246 72.2305C43.6973 72.2305 42.5276 73.3822 42.5276 74.9131V74.9306C42.5276 76.4529 43.6879 77.5954 45.2319 77.5954C46.7759 77.5954 47.955 76.4442 47.955 74.9131C47.955 73.3822 46.79 72.2305 45.2506 72.2305M47.1175 74.9264C47.1175 76.0383 46.3127 76.8763 45.2506 76.8763C44.1862 76.8763 43.3721 76.0161 43.3721 74.9086C43.3721 73.8014 44.1699 72.9454 45.2319 72.9454C46.2964 72.9454 47.1129 73.8098 47.1129 74.9086V74.9264H47.1175Z" fill="#8A8A8A"/>
<path d="M50.051 73.0342V74.6271H52.7319V75.3376H50.051V77.5084H49.2556V72.3242H53.0758V73.0342H50.051Z" fill="#8A8A8A"/>
<path d="M60.6578 76.0661C60.6578 76.9883 59.9373 77.5839 58.8261 77.5839C58.0424 77.5839 57.3078 77.3104 56.7042 76.7939L57.1745 76.2336C57.7219 76.6926 58.2436 76.8954 58.8471 76.8954C59.4531 76.8954 59.8624 76.6046 59.8624 76.1365C59.8624 75.6688 59.5724 75.4791 58.6062 75.2543C57.495 74.985 56.8891 74.6631 56.8891 73.7187C56.8891 72.8541 57.6096 72.2451 58.6319 72.2451C59.3431 72.2451 59.9233 72.444 60.4683 72.8585L60.0449 73.4539C59.563 73.1053 59.0927 72.9334 58.6202 72.9334C58.0681 72.9334 57.6844 73.2246 57.6844 73.6525C57.6844 74.1159 57.9675 74.3146 58.9992 74.5616C60.19 74.8529 60.6532 75.2674 60.6532 76.0661" fill="#8A8A8A"/>
<path d="M64.4126 72.291H63.6359L61.355 77.506H62.1621L62.7048 76.2219H65.3156L65.8584 77.506H66.6888L64.4079 72.291H64.4126ZM62.9926 75.5381L64.0102 73.1557L65.0396 75.5381H62.9926Z" fill="#8A8A8A"/>
<path d="M71.8332 72.3242V75.2714C71.8332 76.7497 71.0261 77.5921 69.6178 77.5921C68.2118 77.5921 67.4211 76.7628 67.4211 75.3198V72.3284H68.2165V75.2803C68.2165 76.2905 68.7312 76.873 69.6318 76.873C70.5325 76.873 71.0425 76.3082 71.0425 75.3154V72.3242H71.8379H71.8332Z" fill="#8A8A8A"/>
<path d="M75.2628 72.3242H73.3445V77.5037H75.2628C76.8583 77.5037 78.0186 76.4142 78.0186 74.9139C78.0186 73.4139 76.863 72.3242 75.2628 72.3242ZM75.2628 76.7934H74.1399V73.0342H75.2628C76.3904 73.0342 77.1811 73.8065 77.1811 74.9139C77.1811 76.0214 76.3904 76.7934 75.2628 76.7934Z" fill="#8A8A8A"/>
<path d="M80.1356 72.3242H79.3425V77.5037H80.1356V72.3242Z" fill="#8A8A8A"/>
<path d="M87.1257 72.291H86.3537L84.0728 77.506H84.8752L85.4226 76.2219H88.0333L88.5714 77.506H89.4066L87.1257 72.291ZM85.7056 75.5381L86.7233 73.1557L87.7526 75.5381H85.7056Z" fill="#8A8A8A"/>
<path d="M93.3601 75.5229L93.4561 75.492C94.2421 75.267 94.6749 74.7198 94.6749 73.9478C94.6749 73.4977 94.5298 73.1138 94.2561 72.8361C93.9145 72.5006 93.3999 72.3242 92.7683 72.3242H90.4686V77.5037H91.264V75.6464H92.5273L92.56 75.6773L93.8491 77.5037H94.7801L93.3625 75.5184L93.3601 75.5229ZM91.2593 74.9626V73.0342H92.6934C93.4396 73.0342 93.8654 73.383 93.8654 73.9829C93.8654 74.5829 93.4069 74.9579 92.7027 74.9579H91.264L91.2593 74.9626Z" fill="#8A8A8A"/>
<path d="M98.7643 72.291H97.9876L95.7067 77.506H96.5091L97.0566 76.2219H99.665L100.203 77.506H101.036L98.7549 72.291H98.7643ZM97.3396 75.5381L98.3573 73.1557L99.3865 75.5381H97.3396Z" fill="#8A8A8A"/>
<path d="M105.39 74.8789L105.228 74.8213L105.373 74.7464C105.86 74.4947 106.098 74.1286 106.098 73.6214C106.098 73.2729 105.988 73.0036 105.757 72.7741C105.464 72.4828 104.999 72.3242 104.416 72.3242H102.096V77.5037H104.487C105.677 77.5037 106.384 76.9832 106.384 76.1141C106.384 75.492 106.075 75.1123 105.373 74.8742M102.872 73.008H104.288C104.919 73.008 105.296 73.2902 105.296 73.7536C105.296 74.2741 104.905 74.5654 104.222 74.5654H102.872V73.008ZM104.491 76.8157H102.872V75.2141H104.426C105.439 75.2141 105.588 75.7037 105.588 75.9992C105.588 76.5244 105.186 76.8157 104.491 76.8157Z" fill="#8A8A8A"/>
<path d="M108.494 72.3242H107.698V77.5037H108.494V72.3242Z" fill="#8A8A8A"/>
<path d="M112.616 72.291H111.842L109.561 77.506H110.365L110.91 76.2219H113.524L114.066 77.506H114.894L112.616 72.291ZM111.194 75.5381L112.213 73.1557L113.241 75.5381H111.194Z" fill="#8A8A8A"/>
<path d="M83.102 60.6759H82.337V61.4392H83.102V60.6759ZM73.7748 67.3603H74.5188V60.6759H73.7748V67.3603ZM8.68347 62.3039H7.9372V66.6147H4.97547V62.3039H3.80113C3.33559 62.3039 2.9168 62.3656 2.53548 62.4936C2.1565 62.6216 1.83366 62.7982 1.56697 63.023C1.30027 63.2481 1.09446 63.5173 0.949418 63.8261C0.802036 64.1394 0.727173 64.4746 0.727173 64.8321C0.727173 65.2733 0.811379 65.6525 0.977476 65.9704C1.14825 66.2881 1.3728 66.5485 1.64885 66.7513C1.93192 66.9588 2.25945 67.1088 2.62908 67.2059C2.9987 67.3074 3.39408 67.3558 3.80113 67.3558H8.68347V62.2997V62.3039ZM4.23156 66.6147H3.49464C3.21625 66.6147 2.9519 66.5747 2.70861 66.4954C2.46063 66.4159 2.2501 66.297 2.06529 66.1471C1.87814 65.9969 1.73778 65.8069 1.6325 65.5865C1.52489 65.3659 1.47344 65.1145 1.47344 64.8365C1.47344 64.5586 1.52953 64.3247 1.6465 64.1041C1.75879 63.8837 1.91553 63.694 2.10034 63.5349C2.28983 63.3763 2.50508 63.257 2.74837 63.1732C2.99167 63.0895 3.23731 63.0452 3.49464 63.0452H4.23156V66.6147ZM6.61308 69.0103H7.37569V68.2472H6.61308V69.0103ZM4.97318 60.6759H4.20814V61.4392H4.97318V60.6759ZM50.4791 60.6759H49.7142V61.4392H50.4791V60.6759ZM7.92078 69.0103H8.68347V68.2472H7.92078V69.0103ZM51.7845 60.6759H51.0219V61.4392H51.7845V60.6759ZM81.7943 60.6759H81.0317V61.4392H81.7943V60.6759ZM3.67012 60.6759H2.90744V61.4392H3.67012V60.6759ZM54.2642 69.0103H55.0269V68.2472H54.2642V69.0103ZM59.046 62.3039H58.2997V66.6147H55.4854V62.3039H54.7415V66.6147H51.7798V62.3039H50.6054C50.1399 62.3039 49.7212 62.3656 49.3398 62.4936C48.9609 62.6216 48.638 62.7982 48.3736 63.023C48.1046 63.2481 47.9011 63.5173 47.7561 63.8261C47.6087 64.1394 47.5338 64.4746 47.5338 64.8321C47.5338 65.2733 47.6204 65.6525 47.7865 65.9704C47.9549 66.2881 48.1795 66.5485 48.4579 66.7513C48.7363 66.9588 49.0614 67.1088 49.4381 67.2059C49.8077 67.3074 50.2007 67.3558 50.6101 67.3558H59.0507V62.2997L59.046 62.3039ZM51.0382 66.6147H50.3013C50.0252 66.6147 49.7586 66.5747 49.5176 66.4954C49.2696 66.4159 49.0568 66.297 48.8719 66.1471C48.6871 65.9969 48.5468 65.8069 48.4392 65.5865C48.3339 65.3659 48.2801 65.1145 48.2801 64.8365C48.2801 64.5586 48.3386 64.3247 48.4532 64.1041C48.5679 63.8837 48.7222 63.694 48.9117 63.5349C49.1012 63.3763 49.3187 63.257 49.555 63.1732C49.7983 63.0895 50.0463 63.0452 50.3013 63.0452H51.0382V66.6147ZM55.5697 69.0103H56.3323V68.2472H55.5697V69.0103ZM13.4909 62.9526C13.2944 62.7364 13.0721 62.5731 12.8242 62.4627C12.5785 62.3525 12.2838 62.2997 11.9258 62.2997H11.3784V63.0452H12.0311C12.2136 63.0452 12.3797 63.0848 12.5435 63.1643C12.7072 63.2436 12.8405 63.3407 12.9435 63.4687C13.0511 63.5966 13.1213 63.7421 13.1657 63.8968C13.2102 64.0512 13.2265 64.2365 13.2265 64.4571V66.6189H9.7338V67.3647H13.9728V64.4306C13.9728 64.1394 13.933 63.8659 13.8582 63.61C13.7786 63.354 13.6593 63.1379 13.5003 62.957M70.8693 66.6189H67.7018L69.0048 63.4998C68.8059 63.3232 68.5931 63.1643 68.3732 63.0099C68.1486 62.8555 67.9193 62.7229 67.6854 62.6085C67.4467 62.4936 67.2082 62.401 66.9672 62.3392C66.7239 62.273 66.4853 62.2421 66.2466 62.2421C66.0104 62.2421 65.7624 62.2774 65.5191 62.3392C65.2758 62.4056 65.0349 62.4936 64.7962 62.6038C64.5576 62.7142 64.3283 62.8508 64.1061 63.0052C63.8862 63.1599 63.678 63.3232 63.4908 63.4998L64.8032 66.6189H62.0287V62.3083H61.2824V67.5233C61.2824 67.7353 61.2754 67.9119 61.252 68.0574C61.231 68.2029 61.1959 68.322 61.1421 68.4104C61.0906 68.4984 61.0205 68.5649 60.9245 68.6044C60.838 68.6442 60.7186 68.6664 60.5759 68.6664C60.5104 68.6664 60.4496 68.6664 60.4005 68.6575C60.3514 68.6488 60.2812 68.6353 60.1946 68.6088L60.0004 69.328C60.2016 69.3853 60.4052 69.4119 60.6041 69.4119C60.8731 69.4119 61.0953 69.368 61.2778 69.2837C61.4603 69.1958 61.61 69.072 61.7199 68.9087C61.8299 68.7455 61.9094 68.5471 61.9585 68.3134C62.0076 68.0794 62.0287 67.8193 62.0287 67.5278V67.3692H71.6132V60.6848H70.867V66.6234L70.8693 66.6189ZM65.5916 66.6189L64.4243 63.7599C64.712 63.5173 65.0021 63.3407 65.3085 63.2305C65.608 63.1157 65.9238 63.063 66.2514 63.063C66.5789 63.063 66.9181 63.129 67.2479 63.2658C67.5801 63.398 67.8585 63.566 68.0877 63.7644L66.9227 66.6234H65.5916V66.6189ZM58.3044 69.0147H59.0694V68.2514H58.3044V69.0147ZM113.863 67.3647H114.609V60.6803H113.863V67.3647ZM110.948 66.6189H108.386C108.541 66.2792 108.623 65.9131 108.623 65.5206C108.623 65.1278 108.55 64.7792 108.41 64.4437C108.269 64.113 108.077 63.8261 107.834 63.5835C107.593 63.3407 107.308 63.151 106.976 63.0099C106.643 62.8686 106.281 62.7982 105.899 62.7982C105.513 62.7982 105.179 62.8686 104.854 63.0144C104.531 63.1557 104.25 63.3496 104.009 63.5966C103.773 63.8437 103.581 64.1307 103.445 64.4571C103.307 64.7837 103.242 65.1409 103.242 65.5206C103.242 65.719 103.265 65.9087 103.305 66.094C103.345 66.2792 103.399 66.4514 103.466 66.6189H101.155C101.31 66.2792 101.389 65.9131 101.389 65.5206C101.389 65.1278 101.319 64.7792 101.181 64.4437C101.041 64.113 100.851 63.8261 100.608 63.5835C100.367 63.3407 100.079 63.151 99.7492 63.0099C99.417 62.8686 99.0543 62.7982 98.673 62.7982C98.287 62.7982 97.9525 62.8686 97.6297 63.0144C97.3068 63.1557 97.0261 63.3496 96.7875 63.5966C96.5488 63.8437 96.3594 64.1307 96.2237 64.4571C96.0857 64.7837 96.0201 65.1409 96.0201 65.5206C96.0201 65.719 96.0412 65.9087 96.081 66.094C96.1207 66.2792 96.1746 66.4514 96.2447 66.6189H93.8796V60.6803H93.1334V66.6189H90.7612V65.4761C90.7612 65.1895 90.7214 64.9203 90.6513 64.6601C90.5764 64.3995 90.4594 64.1834 90.298 64.0028C90.1038 63.7864 89.8863 63.6231 89.6453 63.5173C89.402 63.4114 89.0979 63.3585 88.7236 63.3585H85.4274L86.831 60.6759H86.0169L84.5875 63.3496C84.6109 63.5129 84.6507 63.6495 84.7022 63.7688C84.756 63.8879 84.8262 63.9981 84.9244 64.1041H88.7236C88.9575 64.1041 89.1587 64.1394 89.3319 64.2098C89.505 64.2807 89.6383 64.3778 89.7459 64.5013C89.8512 64.6248 89.9213 64.7706 89.9611 64.9292C90.0032 65.0925 90.0196 65.2689 90.0196 65.4675V66.61H83.1277V62.2997H81.9557C81.4878 62.2997 81.0667 62.3614 80.6878 62.4894C80.3088 62.6171 79.9859 62.7938 79.7169 63.0188C79.4479 63.2436 79.2443 63.5129 79.0993 63.8217C78.9542 64.1349 78.8794 64.4704 78.8794 64.8276C78.8794 65.2689 78.9636 65.6483 79.132 65.966C79.2981 66.2839 79.5227 66.5438 79.8011 66.7469C80.0795 66.9544 80.407 67.1046 80.7766 67.2014C81.1509 67.3027 81.5393 67.3516 81.9511 67.3516H96.7314C96.9746 67.6118 97.2601 67.8193 97.5899 67.969C97.9221 68.1192 98.2824 68.1983 98.6754 68.1983C99.0684 68.1983 99.4451 68.1234 99.7866 67.9737C100.13 67.8233 100.428 67.6162 100.68 67.3516H103.955C104.201 67.6118 104.486 67.8193 104.819 67.969C105.149 68.1192 105.511 68.1983 105.902 68.1983C106.295 68.1983 106.671 68.1234 107.015 67.9737C107.357 67.8233 107.654 67.6162 107.907 67.3516H111.696V60.667H110.95V66.6058L110.948 66.6189ZM82.3721 66.6189H81.6376C81.3592 66.6189 81.0925 66.5794 80.8515 66.4998C80.6036 66.4205 80.3906 66.3015 80.2081 66.1513C80.021 66.0013 79.8806 65.8116 79.7754 65.591C79.6677 65.3701 79.6163 65.1189 79.6163 64.8407C79.6163 64.5631 79.6724 64.3291 79.7871 64.1085C79.9017 63.8879 80.0585 63.6982 80.2456 63.5393C80.4375 63.3802 80.6526 63.2612 80.8959 63.1774C81.1369 63.0937 81.3849 63.0497 81.6376 63.0497H82.3721V66.6189ZM100.493 66.2881C100.393 66.5263 100.252 66.7338 100.074 66.9102C99.8989 67.0824 99.6907 67.219 99.4521 67.3163C99.2134 67.4132 98.9537 67.4618 98.673 67.4618C98.39 67.4618 98.1467 67.4087 97.9128 67.3074C97.6788 67.2059 97.48 67.0646 97.3068 66.8882C97.1361 66.7116 97.005 66.5043 96.9068 66.2706C96.8085 66.0369 96.7618 65.7852 96.7618 65.5159C96.7618 65.2469 96.8085 64.9951 96.9068 64.757C97.005 64.5188 97.1361 64.3113 97.3045 64.1349C97.4706 63.9586 97.6695 63.8173 97.9034 63.7115C98.1373 63.6055 98.3946 63.5524 98.673 63.5524C98.9491 63.5524 99.2181 63.6013 99.4614 63.7026C99.7 63.8042 99.9059 63.941 100.084 64.113C100.259 64.2893 100.397 64.4922 100.498 64.7306C100.601 64.9687 100.65 65.2338 100.65 65.5206C100.65 65.8069 100.601 66.0586 100.493 66.297M107.722 66.297C107.621 66.5352 107.479 66.7427 107.301 66.9188C107.125 67.091 106.919 67.2279 106.676 67.325C106.438 67.422 106.178 67.4707 105.899 67.4707C105.621 67.4707 105.373 67.4176 105.139 67.3163C104.905 67.2148 104.702 67.0732 104.531 66.8971C104.358 66.7205 104.227 66.5132 104.128 66.2792C104.033 66.0453 103.983 65.7938 103.983 65.5245C103.983 65.2557 104.033 65.004 104.128 64.7659C104.227 64.5275 104.358 64.3202 104.526 64.1438C104.695 63.9674 104.893 63.8261 105.125 63.7204C105.361 63.6144 105.614 63.5613 105.895 63.5613C106.173 63.5613 106.442 63.61 106.681 63.7115C106.919 63.813 107.125 63.9497 107.301 64.1218C107.479 64.2982 107.614 64.5013 107.717 64.7394C107.813 64.9776 107.867 65.2422 107.867 65.5292C107.867 65.816 107.813 66.0675 107.71 66.3057M39.3997 66.6365H38.1786C37.7458 66.6365 37.4019 66.5747 37.1539 66.4514C36.9059 66.3277 36.7071 66.1426 36.5667 65.8911C36.6111 65.7014 36.6322 65.4675 36.6322 65.1938V62.7938H35.886V65.3175C35.886 65.7454 35.7737 66.0895 35.5421 66.3455C35.3128 66.6012 34.9642 66.7338 34.5034 66.7338C34.2858 66.7338 34.0869 66.6985 33.9068 66.6323C33.7267 66.5663 33.5723 66.469 33.439 66.3541C33.308 66.235 33.205 66.0984 33.1301 65.9396C33.0553 65.7807 33.0155 65.613 33.0108 65.4319V62.7982H32.2646V65.379C32.2646 65.6088 32.2318 65.8029 32.164 65.9616C32.0985 66.1204 32.0002 66.2484 31.8856 66.3541C31.7663 66.4556 31.6352 66.5307 31.4855 66.5794C31.3335 66.6234 31.1744 66.65 31.013 66.65H29.5696V62.8024H28.8233V66.65H24.9118L26.2149 63.5307C26.016 63.354 25.8055 63.1952 25.5809 63.0406C25.3563 62.8862 25.1271 62.7542 24.8885 62.6394C24.6545 62.5247 24.4159 62.4318 24.1679 62.3701C23.927 62.3039 23.6883 62.273 23.4497 62.273C23.2111 62.273 22.9654 62.3083 22.7221 62.3701C22.4788 62.4363 22.2403 62.5245 22.0016 62.6349C21.7654 62.7451 21.5361 62.8819 21.3138 63.0366C21.0939 63.191 20.8881 63.354 20.6916 63.5307L22.0086 66.65H19.4259V62.3392H18.2352C17.7767 62.3392 17.3579 62.4056 16.9766 62.5336C16.5976 62.6658 16.2701 62.8422 16.0011 63.0672C15.7344 63.2923 15.5215 63.566 15.3718 63.879C15.2197 64.1923 15.1449 64.5322 15.1449 64.8983C15.1449 65.3395 15.2291 65.719 15.3928 66.0322C15.5566 66.3455 15.7812 66.6011 16.0643 66.8044C16.345 67.0073 16.6725 67.1528 17.0468 67.2499C17.4187 67.3469 17.8165 67.3954 18.2305 67.3954H18.675V67.6118C18.675 68.0001 18.5651 68.2825 18.3405 68.45C18.1159 68.6175 17.8024 68.7017 17.4 68.7017C17.1708 68.7017 16.9649 68.6795 16.7824 68.6353C16.6023 68.591 16.3917 68.5162 16.1578 68.4104L15.9215 69.1293C16.2093 69.2353 16.4619 69.3149 16.6818 69.368C16.9017 69.4206 17.1216 69.447 17.3462 69.447C18.0714 69.447 18.6001 69.2751 18.9323 68.9312C19.2598 68.5868 19.4259 68.1234 19.4259 67.5369V67.3954H31.0036C31.3615 67.3954 31.6821 67.3163 31.9651 67.1619C32.2482 67.0073 32.4774 66.7955 32.6482 66.5352C32.8307 66.8353 33.0717 67.0646 33.3851 67.2323C33.6939 67.4001 34.0636 67.4838 34.494 67.4838C34.9221 67.4838 35.3175 67.4043 35.6357 67.2499C35.9491 67.0957 36.1924 66.8571 36.3562 66.5307C36.417 66.6365 36.4966 66.7427 36.5855 66.844C36.6744 66.9455 36.7913 67.0381 36.934 67.1177C37.0744 67.2014 37.2522 67.2632 37.451 67.3116C37.6054 67.3516 37.7855 67.3692 37.982 67.3778V67.3865H40.1366V60.7023H39.3903V66.6412L39.3997 66.6365ZM18.6867 66.6365H17.931C17.6527 66.6365 17.3883 66.5969 17.145 66.5221C16.897 66.4425 16.6818 66.3324 16.4947 66.1819C16.3122 66.0322 16.1648 65.8511 16.0595 65.6352C15.9543 65.4188 15.9005 65.1673 15.9005 64.8894C15.9005 64.6115 15.959 64.3778 16.0713 64.1525C16.1882 63.9274 16.3426 63.7379 16.5275 63.5791C16.7169 63.4202 16.9345 63.2967 17.1754 63.2085C17.4187 63.1201 17.669 63.0761 17.931 63.0761H18.6867V66.6323V66.6365ZM22.7923 66.6365L21.6273 63.7775C21.9151 63.5349 22.2052 63.3585 22.507 63.2481C22.8111 63.1332 23.1222 63.0806 23.4497 63.0806C23.7772 63.0806 24.1164 63.1468 24.4463 63.2836C24.7738 63.4156 25.0569 63.5835 25.2861 63.7819L24.1188 66.6412H22.7877L22.7923 66.6365ZM42.3146 67.3823H43.0609V60.6979H42.3146V67.3823Z" fill="#8A8A8A"/>
<path d="M100.203 22.8677C91.0699 22.8677 84.433 29.7592 84.433 38.1731V38.2571C84.433 46.671 90.9857 53.4745 100.119 53.4745C109.254 53.4745 115.889 46.5828 115.889 38.1691V38.0851C115.889 29.6712 109.336 22.8633 100.203 22.8633M109.079 38.2526C109.079 43.3266 105.446 47.4697 100.203 47.4697C94.9603 47.4697 91.2406 43.2428 91.2406 38.1691V38.0851C91.2406 33.0112 94.8784 28.8683 100.119 28.8683C105.361 28.8683 109.079 33.0949 109.079 38.1691V38.2526ZM11.3479 47.3417H22.6285V52.9671H0.731689V47.8094L10.5852 39.7351C14.2604 36.6908 15.6968 35.089 15.6968 32.6317C15.6968 30.1742 14.0475 28.7843 11.7222 28.7843C9.39681 28.7843 7.8739 30.0507 5.67721 32.7597L1.11071 29.08C4.02794 25.1047 6.86091 22.9515 12.1456 22.9515C18.2748 22.9515 22.3337 26.5474 22.3337 32.0845V32.1683C22.3337 37.1143 19.7954 39.5632 14.5552 43.6223L8.08678 48.6169L6.83284 49.5873L11.3479 47.3459V47.3417ZM82.758 43.7063V43.79C82.758 49.3711 78.6968 53.47 72.102 53.47C66.7752 53.47 63.0977 51.3566 60.5595 48.3563L65.0417 44.0855C67.0723 46.3664 69.1872 47.6372 72.1863 47.6372C74.638 47.6372 76.3715 46.2431 76.3715 44.0459V43.962C76.3715 41.5531 74.2145 40.1986 70.5791 40.1986H67.8748L66.8618 36.0555L76.3551 26.5076L72.5512 28.9563H62.2977V23.3749H82.2925V28.2769L74.8111 35.4203C78.8255 36.095 82.758 38.2131 82.758 43.7063Z" fill="#8A8A8A"/>
<path d="M51.0383 39.5505C50.8488 39.4403 50.4979 39.2595 50.0113 39.1051C49.3142 38.88 48.3386 38.7169 47.1876 38.8978C46.7993 38.9593 46.3875 39.0608 45.9641 39.2152C45.9267 39.2286 45.8846 39.2417 45.8425 39.2595C45.625 39.339 45.4074 39.4403 45.1921 39.5463C45.0073 39.6389 44.8226 39.7447 44.6424 39.8506C44.226 40.1023 43.8119 40.3889 43.4095 40.6977C42.9557 37.9358 43.178 35.3767 43.2809 34.1193C43.2809 34.1193 43.2902 34.1104 43.2972 34.1149C44.2704 34.7325 43.9968 36.4489 43.7956 36.9385C43.7956 36.9477 43.8026 36.9563 43.8119 36.9477C45.0261 35.5091 44.4342 33.9207 44.1815 33.5192C44.1792 33.5104 44.1862 33.5015 44.1956 33.5104C44.3734 33.6517 44.5137 33.8016 44.6377 33.9605C45.012 34.4414 45.1523 34.962 45.1874 35.421C45.2108 35.6635 45.2015 35.8886 45.1874 36.0828C45.1874 36.1356 45.1805 36.1799 45.1758 36.2283C45.1758 36.2372 45.1828 36.2372 45.1874 36.2372C45.1874 36.2372 45.1875 36.2372 45.1921 36.2372C45.5197 35.5929 45.6787 34.6181 45.1874 33.6694C45.0564 33.4135 44.8763 33.1576 44.6377 32.9103C44.5722 32.8399 44.4973 32.7692 44.4155 32.703C44.4061 32.6944 44.4155 32.6852 44.4248 32.6852C44.4997 32.703 44.5722 32.7208 44.6377 32.7472C44.8436 32.8177 45.0284 32.919 45.1874 33.0383C45.5594 33.3117 45.805 33.687 45.9548 34.0751C46.0788 34.3972 46.1372 34.7325 46.1372 35.024C46.1372 35.0326 46.1537 35.0371 46.1537 35.024C46.3829 34.1813 46.2472 33.5457 45.9548 33.0825C45.7536 32.7515 45.4705 32.5086 45.1874 32.3411C44.9956 32.222 44.8038 32.1427 44.6377 32.0941C44.5395 32.0634 44.4529 32.0456 44.3733 32.037C44.3593 32.037 44.364 32.0192 44.3733 32.0192C44.4646 32.0103 44.5488 32.0059 44.6307 32.0059C44.8342 32.0059 45.0214 32.0192 45.1828 32.0501C45.5103 32.1119 45.763 32.2263 45.9525 32.3547C46.2589 32.5617 46.4157 32.8088 46.4672 32.9103C46.4742 32.919 46.4905 32.9103 46.4859 32.9059C46.4414 32.4604 46.2379 32.1119 45.9525 31.8648C45.7302 31.6706 45.4612 31.5382 45.1828 31.4587C45.0003 31.4058 44.8132 31.3838 44.6307 31.3796C44.3851 31.3796 44.1488 31.4149 43.9453 31.5029C43.9359 31.5029 43.9265 31.4985 43.9312 31.4898C44.1113 31.2339 44.364 31.0748 44.6307 30.991C44.8179 30.9337 45.0073 30.9162 45.1828 30.9251C45.3512 30.9337 45.5103 30.9735 45.6343 31.0308C45.6436 31.0353 45.653 31.0219 45.6436 31.0133C45.5056 30.8542 45.3489 30.7309 45.1804 30.638C45.0026 30.5412 44.8132 30.4792 44.6284 30.4574C44.1324 30.3996 43.6341 30.6071 43.2996 31.119C43.2996 31.119 43.2856 31.1235 43.2809 31.119C43.2201 31.0046 43.1592 30.8764 43.0984 30.744C42.9651 30.4352 42.8551 30.0866 42.7966 29.7383C42.7966 29.7292 42.7802 29.7292 42.7802 29.7383C42.7217 30.0866 42.6118 30.4352 42.4761 30.7484C42.4176 30.8809 42.3568 31.0088 42.2936 31.119C42.2936 31.119 42.2796 31.1235 42.2773 31.119C41.6947 30.2321 40.5953 30.2541 39.9332 31.0133C39.9285 31.0219 39.9332 31.0353 39.9426 31.0308C40.3871 30.8189 41.2269 30.8809 41.6456 31.4851C41.6503 31.494 41.6456 31.5029 41.6363 31.4985C40.9883 31.225 39.9823 31.4014 39.449 32.0412C39.2571 32.2707 39.1261 32.5575 39.091 32.9014C39.091 32.9103 39.105 32.9147 39.1073 32.9059C39.1495 32.8265 39.2548 32.659 39.449 32.4869C39.7601 32.2132 40.3075 31.9308 41.2081 32.0145C41.2222 32.0145 41.2222 32.0323 41.2081 32.0323C40.7449 32.0896 39.7975 32.5 39.4442 33.4444C39.2898 33.8634 39.2501 34.3841 39.4232 35.024C39.4232 35.0371 39.4395 35.0326 39.4395 35.024C39.4395 35.0106 39.4395 34.9973 39.4395 34.9795C39.4489 34.1235 39.9379 32.9721 41.152 32.6808C41.1591 32.6808 41.1684 32.6897 41.159 32.6986C39.8069 33.8898 39.9379 35.3634 40.3823 36.2325C40.3823 36.2414 40.4011 36.2372 40.4011 36.2325C40.3449 35.5751 40.2958 34.4017 41.3813 33.5192C41.3906 33.5148 41.4024 33.5192 41.3953 33.5279C41.1474 33.9296 40.5508 35.5178 41.7649 36.9563C41.7696 36.9652 41.786 36.9563 41.7813 36.9477C41.5801 36.4578 41.3064 34.7414 42.2796 34.1235C42.2843 34.1235 42.2936 34.1235 42.2983 34.1282C42.4036 35.3856 42.6259 37.9447 42.172 40.7066C41.3836 40.1066 40.5602 39.5772 39.739 39.2681C39.6384 39.2286 39.5401 39.1933 39.4395 39.1624C38.5974 38.8845 37.8207 38.8049 37.1446 38.836C36.0591 38.88 35.231 39.2064 34.7772 39.4361C34.6836 39.4845 34.6087 39.524 34.5479 39.5594C34.5245 39.5771 34.5409 39.6078 34.569 39.5991C34.6392 39.5771 34.7093 39.5594 34.7772 39.5374C35.61 39.3034 36.4007 39.2375 37.1446 39.3034C37.9611 39.3743 38.726 39.5991 39.4395 39.9213C40.4455 40.3714 41.3556 41.0199 42.172 41.7037C41.014 42.7141 40.0337 43.698 39.4395 44.0421C39.4091 44.0597 39.3811 44.0775 39.353 44.0908C39.2103 43.8964 38.9623 43.782 38.6886 43.8438C38.4547 43.8964 38.2652 44.0819 38.2091 44.3156C38.16 44.5273 38.2184 44.7524 38.333 44.8673C38.6512 45.185 39.0161 45.2069 39.4349 45.0306C40.2373 44.6951 41.2339 43.6318 42.4621 42.5068C42.5627 42.4142 42.6703 42.3215 42.7709 42.2242C42.8761 42.3168 42.979 42.4095 43.0796 42.5026C43.6341 43.0142 44.1417 43.5083 44.6049 43.9317C44.7968 44.1039 44.9816 44.2672 45.157 44.4127C45.4307 44.638 45.6881 44.8186 45.9267 44.9466C46.3969 45.1936 46.7993 45.2245 47.1479 44.9201C47.1643 44.9026 47.1876 44.8892 47.204 44.8673C47.2835 44.7877 47.3771 44.5231 47.328 44.3156C47.3023 44.1965 47.2344 44.0861 47.1479 44.0024C47.0637 43.9231 46.9608 43.8655 46.8485 43.8438C46.5771 43.782 46.3315 43.8964 46.1841 44.0908C46.1045 44.0508 46.018 43.9979 45.9221 43.9317C45.6998 43.7773 45.4448 43.5656 45.1524 43.3097C44.9816 43.16 44.7968 42.992 44.6026 42.8156C44.2236 42.4715 43.8072 42.0923 43.3651 41.7081C43.7534 41.3818 44.1698 41.0641 44.6026 40.7728C44.7827 40.6491 44.9676 40.5344 45.1524 40.4198C45.4004 40.2741 45.6601 40.133 45.9221 40.0095C46.3127 39.8197 46.7198 39.6609 47.1432 39.5374C48.0158 39.2903 48.9562 39.2021 49.9668 39.3608C50.2943 39.4139 50.6289 39.4887 50.9728 39.5991C50.9986 39.6078 51.0172 39.5729 50.9962 39.5594" fill="#8A8A8A"/>
<path d="M42.8083 54.4688L40.9579 56.3213L42.8083 58.1751L44.6612 56.3225L42.8083 54.4688Z" fill="#8A8A8A"/>
<path d="M27.8874 43.832L27.2161 45.8968L29.2817 46.5668L29.9508 44.502L27.8874 43.832Z" fill="#8A8A8A"/>
<path d="M33.9162 25.7109L33.6355 27.4889L35.4135 27.7708L35.6942 25.9928L33.9162 25.7109Z" fill="#8A8A8A"/>
<path d="M56.6787 36.6924L55.406 37.9655L56.6787 39.2381L57.9513 37.9655L56.6787 36.6924Z" fill="#8A8A8A"/>
<path d="M55.5954 32.4561L54.7789 34.06L56.3814 34.8773L57.1979 33.2734L55.5954 32.4561Z" fill="#8A8A8A"/>
<path d="M35.4019 48.1611L33.6216 48.443L33.9047 50.221L35.6826 49.9391L35.4019 48.1611Z" fill="#8A8A8A"/>
<path d="M51.7072 25.708L49.9316 25.9908L50.2124 27.7686L51.9903 27.4857L51.7072 25.708Z" fill="#8A8A8A"/>
<path d="M38.9084 49.9365L37.3059 50.7539L38.1224 52.3578L39.7272 51.5407L38.9084 49.9365Z" fill="#8A8A8A"/>
<path d="M42.8013 22.8135L41.531 24.0863L42.8013 25.3592L44.0763 24.0863L42.8013 22.8135Z" fill="#8A8A8A"/>
<path d="M40.7497 25L39.8724 26.2067L41.0795 27.083L41.9568 25.8763L40.7497 25Z" fill="#8A8A8A"/>
<path d="M44.5229 48.8262L43.6456 50.0328L44.8528 50.9092L45.7277 49.7025L44.5229 48.8262Z" fill="#8A8A8A"/>
<path d="M32.5313 31.5361L31.116 31.9954L31.5768 33.414L32.9898 32.9548L32.5313 31.5361Z" fill="#8A8A8A"/>
<path d="M54.0305 42.4902L52.6151 42.9492L53.0736 44.3676L54.489 43.9089L54.0305 42.4902Z" fill="#8A8A8A"/>
<path d="M30.7181 38.7969L29.8408 40.0035L31.048 40.8799L31.9229 39.6732L30.7181 38.7969Z" fill="#8A8A8A"/>
<path d="M60.831 41.8857L58.4916 43.0779L59.6823 45.4129L62.0217 44.2207L60.831 41.8857Z" fill="#8A8A8A"/>
<path d="M33.109 51.2881L30.5193 51.6977L30.9287 54.2907L33.5184 53.8811L33.109 51.2881Z" fill="#8A8A8A"/>
<path d="M54.6809 21.6162L52.0912 22.0261L52.5029 24.6191L55.0903 24.209L54.6809 21.6162Z" fill="#8A8A8A"/>
<path d="M26.8115 38.9502L25.5365 40.7064L27.291 41.9821L28.5684 40.2256L26.8115 38.9502Z" fill="#8A8A8A"/>
<path d="M38.1342 23.5635L37.3154 25.1671L38.9179 25.9852L39.7367 24.3816L38.1342 23.5635Z" fill="#8A8A8A"/>
<path d="M30.0023 32.4561L28.3976 33.2734L29.2163 34.8773L30.8212 34.06L30.0023 32.4561Z" fill="#8A8A8A"/>
<path d="M42.8013 50.5605L41.531 51.8337L42.8013 53.1065L44.0763 51.8337L42.8013 50.5605Z" fill="#8A8A8A"/>
<path d="M53.0548 31.5342L52.594 32.9528L54.0094 33.4113L54.4678 31.9927L53.0548 31.5342Z" fill="#8A8A8A"/>
<path d="M35.0226 45.7461H33.5323V47.2375H35.0226V45.7461Z" fill="#8A8A8A"/>
<path d="M25.9319 30.543L23.5925 31.7347L24.7833 34.0699L27.1203 32.8782L25.9319 30.543Z" fill="#8A8A8A"/>
<path d="M24.795 41.876L23.6042 44.2107L25.9413 45.4036L27.1344 43.0691L24.795 41.876Z" fill="#8A8A8A"/>
<path d="M34.8683 22.3818L34.1992 24.4466L36.2626 25.1171L36.934 23.0523L34.8683 22.3818Z" fill="#8A8A8A"/>
<path d="M49.3562 50.8135L48.6848 52.878L50.7481 53.5487L51.4195 51.4842L49.3562 50.8135Z" fill="#8A8A8A"/>
<path d="M57.7102 43.8154L55.6444 44.4871L56.3182 46.5516L58.3839 45.8793L57.7102 43.8154Z" fill="#8A8A8A"/>
<path d="M58.7934 38.9238L57.0388 40.2004L58.3161 41.9559L60.0707 40.6791L58.7934 38.9238Z" fill="#8A8A8A"/>
<path d="M56.323 29.3516L55.6539 31.4161L57.7173 32.0866L58.3864 30.022L56.323 29.3516Z" fill="#8A8A8A"/>
<path d="M55.1696 25.5967H52.9987V27.7674H55.1696V25.5967Z" fill="#8A8A8A"/>
<path d="M36.2581 50.8066L34.1924 51.4771L34.8638 53.5416L36.9294 52.8712L36.2581 50.8066Z" fill="#8A8A8A"/>
<path d="M45.0704 52.2188L43.7908 53.974L45.5477 55.2511L46.825 53.4956L45.0704 52.2188Z" fill="#8A8A8A"/>
<path d="M29.2185 41.0439L28.4021 42.6478L30.0046 43.4652L30.8234 41.8611L29.2185 41.0439Z" fill="#8A8A8A"/>
<path d="M35.018 28.6846H33.5278V30.1759H35.018V28.6846Z" fill="#8A8A8A"/>
<path d="M31.0597 35.043L29.8525 35.9193L30.7298 37.126L31.937 36.2496L31.0597 35.043Z" fill="#8A8A8A"/>
<path d="M48.762 26.2891L47.342 26.749L47.8029 28.1676L49.2229 27.7077L48.762 26.2891Z" fill="#8A8A8A"/>
<path d="M44.8598 25.0098L43.6527 25.8861L44.53 27.0928L45.7371 26.2164L44.8598 25.0098Z" fill="#8A8A8A"/>
<path d="M51.8033 43.4189L50.5845 43.614L50.7787 44.8338L51.9998 44.6389L51.8033 43.4189Z" fill="#8A8A8A"/>
<path d="M53.3053 37.1035L52.4327 37.9775L53.3077 38.8506L54.1803 37.9768L53.3053 37.1035Z" fill="#8A8A8A"/>
<path d="M59.6941 30.543L58.5033 32.8777L60.8427 34.0706L62.0335 31.7361L59.6941 30.543Z" fill="#8A8A8A"/>
<path d="M55.1696 48.1543H52.9987V50.3253H55.1696V48.1543Z" fill="#8A8A8A"/>
<path d="M29.2843 29.3496L27.2185 30.0201L27.89 32.0846L29.9556 31.4144L29.2843 29.3496Z" fill="#8A8A8A"/>
<path d="M50.7436 22.3789L48.6803 23.0494L49.3494 25.1139L51.4151 24.4434L50.7436 22.3789Z" fill="#8A8A8A"/>
<path d="M40.0805 20.6982L38.8032 22.4537L40.5578 23.7306L41.8351 21.9751L40.0805 20.6982Z" fill="#8A8A8A"/>
<path d="M56.3887 41.0283L54.7838 41.8457L55.6003 43.4498L57.2051 42.6322L56.3887 41.0283Z" fill="#8A8A8A"/>
<path d="M28.9309 36.6924L27.6582 37.9653L28.9309 39.2381L30.2034 37.9653L28.9309 36.6924Z" fill="#8A8A8A"/>
<path d="M54.8889 38.8145L53.6794 39.6908L54.5567 40.8975L55.7639 40.0214L54.8889 38.8145Z" fill="#8A8A8A"/>
<path d="M37.8042 47.7568L36.3842 48.2172L36.8427 49.6356L38.2627 49.1755L37.8042 47.7568Z" fill="#8A8A8A"/>
<path d="M42.806 47.5791L41.931 48.4526L42.806 49.3262L43.6786 48.4526L42.806 47.5791Z" fill="#8A8A8A"/>
<path d="M36.1245 28.7646L35.9303 29.9849L37.1515 30.1788L37.3433 28.9588L36.1245 28.7646Z" fill="#8A8A8A"/>
<path d="M32.5618 40.373L32.0027 41.474L33.1022 42.0345L33.6636 40.9336L32.5618 40.373Z" fill="#8A8A8A"/>
<path d="M32.606 25.5967H30.4351V27.7674H32.606V25.5967Z" fill="#8A8A8A"/>
<path d="M45.5313 20.6729L43.7767 21.9485L45.0517 23.7047L46.8063 22.4293L45.5313 20.6729Z" fill="#8A8A8A"/>
<path d="M46.7059 49.9541L45.8894 51.558L47.4942 52.3752L48.3107 50.7713L46.7059 49.9541Z" fill="#8A8A8A"/>
<path d="M30.8398 45.0879L30.5591 46.8658L32.3347 47.148L32.6178 45.3698L30.8398 45.0879Z" fill="#8A8A8A"/>
<path d="M53.2771 28.7734L52.994 30.5514L54.772 30.8342L55.0551 29.0565L53.2771 28.7734Z" fill="#8A8A8A"/>
<path d="M52.0793 45.7461H50.5891V47.2375H52.0793V45.7461Z" fill="#8A8A8A"/>
<path d="M54.5473 35.0273L53.67 36.2342L54.8772 37.1106L55.7545 35.9037L54.5473 35.0273Z" fill="#8A8A8A"/>
<path d="M41.0864 48.8398L39.8793 49.7162L40.7542 50.9229L41.9613 50.0465L41.0864 48.8398Z" fill="#8A8A8A"/>
<path d="M39.3061 27.1641L38.7446 28.265L39.8465 28.8255L40.4057 27.7246L39.3061 27.1641Z" fill="#8A8A8A"/>
<path d="M45.7885 47.1172L45.2271 48.2184L46.3289 48.7789L46.8904 47.6779L45.7885 47.1172Z" fill="#8A8A8A"/>
<path d="M48.4555 45.7422L48.2614 46.9624L49.4825 47.1564L49.6766 45.9364L48.4555 45.7422Z" fill="#8A8A8A"/>
<path d="M33.1044 33.8984L32.0049 34.4599L32.564 35.5604L33.6658 34.9984L33.1044 33.8984Z" fill="#8A8A8A"/>
<path d="M53.0523 40.373L51.9529 40.934L52.5143 42.0347L53.6138 41.4733L53.0523 40.373Z" fill="#8A8A8A"/>
<path d="M33.7945 43.4189L33.6027 44.6392L34.8215 44.8329L35.0157 43.6131L33.7945 43.4189Z" fill="#8A8A8A"/>
<path d="M49.4847 28.7695L48.2635 28.9635L48.4577 30.1832L49.6789 29.9895L49.4847 28.7695Z" fill="#8A8A8A"/>
<path d="M39.8397 47.126L38.7378 47.6856L39.2992 48.7867L40.3987 48.2271L39.8397 47.126Z" fill="#8A8A8A"/>
<path d="M30.9267 21.6143L30.5126 24.207L33.1023 24.6178L33.514 22.0251L30.9267 21.6143Z" fill="#8A8A8A"/>
<path d="M52.5002 51.3018L52.0885 53.8948L54.6782 54.3049L55.0876 51.7119L52.5002 51.3018Z" fill="#8A8A8A"/>
<path d="M42.799 17.7607L40.9462 19.614L42.799 21.4673L44.6518 19.614L42.799 17.7607Z" fill="#8A8A8A"/>
<path d="M27.291 33.96L25.5365 35.2356L26.8115 36.9921L28.5661 35.7162L27.291 33.96Z" fill="#8A8A8A"/>
<path d="M58.3114 33.9424L57.0364 35.6983L58.7933 36.9745L60.0683 35.2183L58.3114 33.9424Z" fill="#8A8A8A"/>
<path d="M32.6085 48.1543H30.4375V50.3253H32.6085V48.1543Z" fill="#8A8A8A"/>
<path d="M40.5438 52.1885L38.7869 53.4639L40.0665 55.2241L41.8234 53.9484L40.5438 52.1885Z" fill="#8A8A8A"/>
<path d="M50.2008 48.1504L49.9154 49.9281L51.6933 50.2121L51.9787 48.4342L50.2008 48.1504Z" fill="#8A8A8A"/>
<path d="M32.3302 28.7695L30.5522 29.0514L30.8353 30.8291L32.6132 30.5475L32.3302 28.7695Z" fill="#8A8A8A"/>
<path d="M54.7766 45.0908L52.9987 45.3734L53.2817 47.1514L55.0596 46.8683L54.7766 45.0908Z" fill="#8A8A8A"/>
<path d="M47.4824 23.5615L45.8799 24.3798L46.6987 25.9833L48.3012 25.165L47.4824 23.5615Z" fill="#8A8A8A"/>
<path d="M36.8614 26.2773L36.403 27.6962L37.823 28.1557L38.2792 26.7366L36.8614 26.2773Z" fill="#8A8A8A"/>
<path d="M47.817 47.7773L47.3584 49.196L48.7761 49.6561L49.237 48.2377L47.817 47.7773Z" fill="#8A8A8A"/>
<path d="M31.563 42.4883L31.1021 43.9069L32.5151 44.3654L32.976 42.9466L31.563 42.4883Z" fill="#8A8A8A"/>
<path d="M52.0793 28.6846H50.5891V30.1759H52.0793V28.6846Z" fill="#8A8A8A"/>
<path d="M42.8059 26.6016L41.9357 27.4721L42.8059 28.3423L43.6762 27.4721L42.8059 26.6016Z" fill="#8A8A8A"/>
<path d="M34.831 31.0928L33.6099 31.2865L33.804 32.5067L35.0252 32.3128L34.831 31.0928Z" fill="#8A8A8A"/>
<path d="M32.3161 37.0898L31.4435 37.9636L32.3161 38.8369L33.191 37.9636L32.3161 37.0898Z" fill="#8A8A8A"/>
<path d="M52.5261 33.8984L51.9646 34.9996L53.0665 35.5594L53.6256 34.4583L52.5261 33.8984Z" fill="#8A8A8A"/>
<path d="M50.7716 31.0859L50.5774 32.3059L51.7986 32.4999L51.9904 31.2796L50.7716 31.0859Z" fill="#8A8A8A"/>
<path d="M37.1492 45.7441L35.9303 45.9378L36.1221 47.1578L37.3433 46.9641L37.1492 45.7441Z" fill="#8A8A8A"/>
<path d="M46.3173 27.1504L45.2178 27.7114L45.7769 28.8121L46.8788 28.2513L46.3173 27.1504Z" fill="#8A8A8A"/>
</svg>
