<svg width="129" height="100" viewBox="0 0 129 100" fill="none" xmlns="http://www.w3.org/2000/svg">
<g filter="url(#filter0_d_625_5163)">
<rect x="22.0501" y="21.3229" width="85.3542" height="57.3542" rx="14.5521" fill="white" stroke="#D9D9D9" stroke-width="2.64583"/>
<path fill-rule="evenodd" clip-rule="evenodd" d="M47.4421 60.645H42.111L38.1133 45.4804C37.9236 44.7828 37.5207 44.1661 36.9281 43.8754C35.4491 43.145 33.8193 42.5637 32.0414 42.2705V41.6867H40.6294C41.8147 41.6867 42.7036 42.5637 42.8518 43.5823L44.926 54.521L50.2545 41.6867H55.4374L47.4421 60.645ZM58.4007 60.645H53.3659L57.5117 41.6867H62.5465L58.4007 60.645ZM69.0602 46.9393C69.2084 45.9182 70.0973 45.3344 71.1345 45.3344C72.7642 45.1878 74.5395 45.4809 76.0211 46.2089L76.91 42.127C75.4284 41.5432 73.7987 41.25 72.3197 41.25C67.4331 41.25 63.8773 43.876 63.8773 47.5206C63.8773 50.2932 66.396 51.749 68.1739 52.626C70.0973 53.5005 70.8381 54.0844 70.69 54.9589C70.69 56.2706 69.2084 56.8545 67.7294 56.8545C65.9515 56.8545 64.1736 56.4172 62.5465 55.6868L61.6575 59.7711C63.4354 60.499 65.3589 60.7922 67.1368 60.7922C72.616 60.9363 76.0211 58.3128 76.0211 54.375C76.0211 49.4162 69.0602 49.1255 69.0602 46.9393V46.9393ZM93.6415 60.645L89.6438 41.6867H85.3498C84.4609 41.6867 83.5719 42.2705 83.2756 43.145L75.8729 60.645H81.0558L82.0904 57.875H88.4586L89.0512 60.645H93.6415ZM86.0905 46.7923L87.5695 53.9374H83.4236L86.0905 46.7923Z" fill="#172B85"/>
</g>
<defs>
<filter id="filter0_d_625_5163" x="0.727173" y="0" width="128" height="100" filterUnits="userSpaceOnUse" color-interpolation-filters="sRGB">
<feFlood flood-opacity="0" result="BackgroundImageFix"/>
<feColorMatrix in="SourceAlpha" type="matrix" values="0 0 0 0 0 0 0 0 0 0 0 0 0 0 0 0 0 0 127 0" result="hardAlpha"/>
<feOffset/>
<feGaussianBlur stdDeviation="10"/>
<feComposite in2="hardAlpha" operator="out"/>
<feColorMatrix type="matrix" values="0 0 0 0 0 0 0 0 0 0 0 0 0 0 0 0 0 0 0.07 0"/>
<feBlend mode="normal" in2="BackgroundImageFix" result="effect1_dropShadow_625_5163"/>
<feBlend mode="normal" in="SourceGraphic" in2="effect1_dropShadow_625_5163" result="shape"/>
</filter>
</defs>
</svg>
