<svg width="129" height="101" viewBox="0 0 129 101" fill="none" xmlns="http://www.w3.org/2000/svg">
<g filter="url(#filter0_d_625_5165)">
<rect x="22.0501" y="21.6657" width="85.3542" height="57.697" rx="14.5521" fill="white" stroke="#D9D9D9" stroke-width="2.64583"/>
<path fill-rule="evenodd" clip-rule="evenodd" d="M45.6187 58.6611H41.7075C41.4398 58.6611 41.2122 58.8557 41.1704 59.1198L39.5885 69.1494C39.5571 69.3474 39.7103 69.5258 39.9111 69.5258H41.7784C42.046 69.5258 42.2736 69.3313 42.3154 69.0666L42.742 66.3615C42.7832 66.0966 43.0114 65.9023 43.2785 65.9023H44.5167C47.0931 65.9023 48.58 64.6555 48.9685 62.1848C49.1435 61.104 48.976 60.2547 48.4697 59.6597C47.9139 59.0068 46.9277 58.6611 45.6187 58.6611ZM46.07 62.3243C45.8561 63.7278 44.7838 63.7278 43.7469 63.7278H43.1567L43.5707 61.1066C43.5953 60.9483 43.7326 60.8316 43.8927 60.8316H44.1632C44.8695 60.8316 45.5359 60.8316 45.8802 61.2342C46.0853 61.4745 46.1483 61.8313 46.07 62.3243ZM57.3104 62.2793H55.4374C55.2778 62.2793 55.1399 62.396 55.1153 62.5546L55.0325 63.0783L54.9015 62.8886C54.496 62.3 53.5919 62.1033 52.6894 62.1033C50.6195 62.1033 48.8518 63.6709 48.5075 65.87C48.3286 66.9668 48.5829 68.0156 49.2052 68.7471C49.776 69.4197 50.5928 69.6999 51.5643 69.6999C53.232 69.6999 54.157 68.6275 54.157 68.6275L54.0733 69.1481C54.0419 69.3471 54.1951 69.5255 54.3946 69.5255H56.0819C56.3502 69.5255 56.5765 69.331 56.6189 69.0663L57.6312 62.6557C57.6632 62.4585 57.5105 62.2793 57.3104 62.2793ZM54.6995 65.9248C54.5188 66.9948 53.6695 67.7131 52.5865 67.7131C52.0426 67.7131 51.6078 67.5387 51.3288 67.2081C51.052 66.88 50.9466 66.4126 51.0348 65.8922C51.2036 64.8312 52.0672 64.0896 53.1338 64.0896C53.6655 64.0896 54.098 64.2661 54.3827 64.5996C54.668 64.9365 54.7813 65.4066 54.6995 65.9248ZM65.4035 62.2791H67.2858C67.5494 62.2791 67.7032 62.5747 67.5534 62.7909L61.2933 71.827C61.192 71.9734 61.025 72.0605 60.8466 72.0605H58.9667C58.702 72.0605 58.5475 71.7624 58.7007 71.5457L60.6499 68.7943L58.5768 62.7102C58.5051 62.4987 58.6613 62.2791 58.8862 62.2791H60.7357C60.976 62.2791 61.188 62.4368 61.2573 62.6668L62.3575 66.3414L64.9536 62.5175C65.0552 62.3683 65.2241 62.2791 65.4035 62.2791Z" fill="#253B80"/>
<path fill-rule="evenodd" clip-rule="evenodd" d="M85.8106 69.15L87.4158 58.9369C87.4404 58.7784 87.5777 58.6617 87.7373 58.6611H89.5445C89.744 58.6611 89.8972 58.84 89.8657 59.038L88.2828 69.0671C88.2415 69.3318 88.0139 69.5263 87.7458 69.5263H86.1319C85.9323 69.5263 85.7791 69.3479 85.8106 69.15ZM73.5173 58.6617H69.6053C69.3383 58.6617 69.1107 58.8562 69.0688 59.1203L67.487 69.15C67.4555 69.3479 67.6087 69.5263 67.8085 69.5263H69.8157C70.0023 69.5263 70.1619 69.3903 70.191 69.205L70.6399 66.362C70.6812 66.0971 70.9093 65.9028 71.1764 65.9028H72.4139C74.9909 65.9028 76.4775 64.656 76.8663 62.1854C77.0418 61.1045 76.8732 60.2552 76.3672 59.6602C75.8117 59.0073 74.8263 58.6617 73.5173 58.6617ZM73.9685 62.3249C73.7552 63.7284 72.6828 63.7284 71.6453 63.7284H71.0557L71.4704 61.1071C71.495 60.9489 71.631 60.8322 71.7917 60.8322H72.0622C72.768 60.8322 73.435 60.8322 73.779 61.2347C73.9844 61.475 74.0469 61.8318 73.9685 62.3249ZM85.208 62.2799H83.3363C83.1754 62.2799 83.0388 62.3966 83.0147 62.5551L82.9319 63.0789L82.8003 62.8891C82.3949 62.3005 81.4913 62.1039 80.5888 62.1039C78.5189 62.1039 76.7517 63.6715 76.4074 65.8705C76.229 66.9673 76.4823 68.0161 77.1045 68.7477C77.6765 69.4202 78.4922 69.7005 79.4637 69.7005C81.1314 69.7005 82.0561 68.628 82.0561 68.628L81.9727 69.1486C81.9412 69.3477 82.0945 69.526 82.2954 69.526H83.9818C84.2488 69.526 84.4764 69.3315 84.5182 69.0669L85.5311 62.6562C85.5621 62.459 85.4088 62.2799 85.208 62.2799ZM82.5973 65.9253C82.4176 66.9953 81.5673 67.7136 80.484 67.7136C79.9412 67.7136 79.5055 67.5392 79.2263 67.2087C78.9495 66.8805 78.8455 66.4131 78.9325 65.8928C79.1022 64.8317 79.9647 64.0901 81.0313 64.0901C81.5633 64.0901 81.9955 64.2667 82.2805 64.6002C82.5669 64.9371 82.6802 65.4071 82.5973 65.9253Z" fill="#179BD7"/>
<path d="M60.0935 55.0731L60.5744 52.0189L59.5033 51.994H54.3887L57.9431 29.4564C57.954 29.3883 57.99 29.3249 58.0424 29.2798C58.0948 29.2348 58.162 29.21 58.2319 29.21H66.8559C69.719 29.21 71.6947 29.8057 72.7264 30.9817C73.2099 31.5333 73.518 32.1098 73.667 32.7442C73.8231 33.4099 73.8261 34.2051 73.6733 35.1751L73.6622 35.2459V35.8674L74.146 36.1414C74.5533 36.3575 74.8768 36.6048 75.125 36.888C75.539 37.3597 75.8065 37.9591 75.9195 38.6698C76.0363 39.4008 75.9976 40.2705 75.8065 41.2552C75.5858 42.3879 75.229 43.3745 74.7474 44.1817C74.304 44.9255 73.7395 45.5423 73.0694 46.0206C72.4294 46.4747 71.6691 46.8196 70.8094 47.0403C69.9763 47.2571 69.0267 47.3666 67.985 47.3666H67.3138C66.8339 47.3666 66.3676 47.5395 66.0018 47.8494C65.635 48.1657 65.3921 48.5976 65.3177 49.0703L65.2671 49.3453L64.4176 54.7282L64.3789 54.9259C64.3689 54.9886 64.3514 55.0199 64.3257 55.041C64.3027 55.0601 64.2696 55.0731 64.2373 55.0731H60.0935Z" fill="#253B80"/>
<path d="M74.6038 35.3184C74.5781 35.4829 74.5487 35.6512 74.5156 35.824C73.3781 41.6632 69.4873 43.6804 64.5178 43.6804H61.9876C61.3799 43.6804 60.8678 44.1217 60.773 44.7212L59.4775 52.9372L59.1107 55.266C59.049 55.6595 59.3526 56.0144 59.7496 56.0144H64.2375C64.7689 56.0144 65.2202 55.6283 65.3038 55.1042L65.348 54.8761L66.1931 49.514L66.2473 49.22C66.3299 48.6941 66.7822 48.308 67.3136 48.308H67.9848C72.3327 48.308 75.7365 46.5427 76.7314 41.4343C77.1469 39.3003 76.9317 37.5185 75.8321 36.2653C75.4994 35.8875 75.0865 35.5739 74.6038 35.3184Z" fill="#179BD7"/>
<path d="M73.4136 34.8457C73.24 34.7951 73.0605 34.7492 72.8766 34.7078C72.6919 34.6674 72.5024 34.6315 72.3076 34.6002C71.6253 34.4899 70.8779 34.4375 70.077 34.4375H63.3175C63.151 34.4375 62.993 34.4752 62.8514 34.5432C62.5397 34.6931 62.3081 34.9882 62.252 35.3496L60.8138 44.4573L60.7725 44.723C60.8673 44.1235 61.3794 43.6822 61.9871 43.6822H64.5172C69.4868 43.6822 73.3779 41.6641 74.5151 35.8258C74.549 35.653 74.5776 35.4847 74.6032 35.3201C74.3156 35.1675 74.0038 35.037 73.6682 34.9257C73.5856 34.8981 73.5001 34.8715 73.4136 34.8457Z" fill="#222D65"/>
<path d="M62.2522 35.3481C62.3083 34.9868 62.5401 34.6916 62.8516 34.5427C62.9943 34.4746 63.1515 34.437 63.3177 34.437H70.0774C70.8783 34.437 71.6257 34.4894 72.3077 34.5997C72.5028 34.631 72.6923 34.6668 72.877 34.7073C73.061 34.7486 73.2401 34.7946 73.414 34.8452C73.5003 34.8709 73.5858 34.8976 73.6694 34.9243C74.005 35.0355 74.3168 35.167 74.6045 35.3187C74.943 33.1608 74.6018 31.6916 73.4352 30.3612C72.1489 28.8966 69.8273 28.2695 66.8568 28.2695H58.2325C57.6256 28.2695 57.1082 28.7108 57.0142 29.3112L53.4222 52.0805C53.3513 52.531 53.6988 52.9375 54.153 52.9375H59.4774L60.8143 44.4558L62.2522 35.3481Z" fill="#253B80"/>
</g>
<defs>
<filter id="filter0_d_625_5165" x="0.727173" y="0.342773" width="128" height="100.343" filterUnits="userSpaceOnUse" color-interpolation-filters="sRGB">
<feFlood flood-opacity="0" result="BackgroundImageFix"/>
<feColorMatrix in="SourceAlpha" type="matrix" values="0 0 0 0 0 0 0 0 0 0 0 0 0 0 0 0 0 0 127 0" result="hardAlpha"/>
<feOffset/>
<feGaussianBlur stdDeviation="10"/>
<feComposite in2="hardAlpha" operator="out"/>
<feColorMatrix type="matrix" values="0 0 0 0 0 0 0 0 0 0 0 0 0 0 0 0 0 0 0.07 0"/>
<feBlend mode="normal" in2="BackgroundImageFix" result="effect1_dropShadow_625_5165"/>
<feBlend mode="normal" in="SourceGraphic" in2="effect1_dropShadow_625_5165" result="shape"/>
</filter>
</defs>
</svg>
