<svg width="129" height="101" viewBox="0 0 129 101" fill="none" xmlns="http://www.w3.org/2000/svg">
<g filter="url(#filter0_d_625_5166)">
<rect x="22.0501" y="21.6657" width="85.3542" height="57.697" rx="14.5521" fill="white" stroke="#D9D9D9" stroke-width="2.64583"/>
<path d="M89.8631 56.3457H89.907L93.577 47.1357H96.1561L88.2274 65.6006H85.7801L88.7283 59.1416L83.5252 47.1357H86.1043L89.8631 56.3457ZM77.4539 46.7168C79.2076 46.7168 80.5933 47.1958 81.6102 48.1377C82.6268 49.0796 83.1277 50.3953 83.1277 52.0547V59.9639H80.8582V58.1846H80.7547C79.7673 59.6498 78.4706 60.3828 76.8348 60.3828C75.4494 60.3828 74.2701 59.9643 73.3416 59.127C72.428 58.3495 71.9128 57.1983 71.9422 55.9873C71.9422 54.6566 72.4431 53.6098 73.4305 52.8174C74.4178 52.025 75.7439 51.6358 77.3943 51.6357C78.8092 51.6357 79.9591 51.9057 80.8729 52.4141V51.8604C80.8729 51.0381 80.519 50.2609 79.9002 49.7227C79.2665 49.1545 78.456 48.8399 77.616 48.8398C76.2896 48.8398 75.2427 49.4086 74.4764 50.5449L72.3836 49.2139C73.5037 47.5542 75.1991 46.7168 77.4539 46.7168ZM66.2088 41.2148C67.7268 41.1849 69.2003 41.7682 70.2762 42.8447C72.4279 44.8782 72.5608 48.3021 70.5418 50.5L70.2762 50.7695C69.1709 51.8309 67.815 52.3691 66.2088 52.3691H62.2889V59.9648H59.9158V41.2148H66.2088ZM77.7645 53.5801C76.8064 53.5801 75.9951 53.8197 75.3465 54.2832C74.7129 54.7467 74.3885 55.3296 74.3885 56.0322C74.3885 56.6602 74.6833 57.2437 75.1697 57.6025C75.7004 58.0211 76.3493 58.2454 77.0125 58.2305C78.0148 58.2304 78.973 57.826 79.6805 57.1084C80.4615 56.3609 80.8592 55.4785 80.8592 54.4619C80.1223 53.8641 79.0907 53.5652 77.7645 53.5801ZM62.2889 50.0674H66.2684C67.1527 50.0973 68.0078 49.7385 68.6121 49.0957C69.8503 47.7949 69.8213 45.7013 68.5389 44.4453C67.9345 43.8472 67.1233 43.5186 66.2684 43.5186H62.2889V50.0674Z" fill="#3C4043"/>
<path d="M54.097 50.723C54.097 49.9904 54.038 49.2577 53.9201 48.54H43.9133V52.6817H49.6462C49.4104 54.0124 48.644 55.2086 47.524 55.9562V58.6475H50.9431C52.9474 56.7785 54.097 54.0124 54.097 50.723Z" fill="#4285F4"/>
<path d="M43.9137 61.2498C46.7728 61.2498 49.1898 60.2929 50.9436 58.6482L47.5245 55.9569C46.5665 56.6148 45.3433 56.9886 43.9137 56.9886C41.1431 56.9886 38.7998 55.0897 37.9597 52.5479H34.4374V55.3289C36.2354 58.9622 39.9051 61.2498 43.9137 61.2498Z" fill="#34A853"/>
<path d="M37.9601 52.5491C37.5179 51.2183 37.5179 49.768 37.9601 48.4223V45.6562H34.4372C32.919 48.6915 32.919 52.2799 34.4372 55.3152L37.9601 52.5491Z" fill="#FBBC04"/>
<path d="M43.9137 43.9807C45.4317 43.9508 46.8907 44.5339 47.9813 45.5955L51.0173 42.5154C49.0866 40.6913 46.5518 39.6895 43.9137 39.7194C39.9051 39.7194 36.2354 42.022 34.4374 45.6553L37.9597 48.4363C38.7998 45.8796 41.1431 43.9807 43.9137 43.9807Z" fill="#EA4335"/>
</g>
<defs>
<filter id="filter0_d_625_5166" x="0.727173" y="0.342773" width="128" height="100.343" filterUnits="userSpaceOnUse" color-interpolation-filters="sRGB">
<feFlood flood-opacity="0" result="BackgroundImageFix"/>
<feColorMatrix in="SourceAlpha" type="matrix" values="0 0 0 0 0 0 0 0 0 0 0 0 0 0 0 0 0 0 127 0" result="hardAlpha"/>
<feOffset/>
<feGaussianBlur stdDeviation="10"/>
<feComposite in2="hardAlpha" operator="out"/>
<feColorMatrix type="matrix" values="0 0 0 0 0 0 0 0 0 0 0 0 0 0 0 0 0 0 0.07 0"/>
<feBlend mode="normal" in2="BackgroundImageFix" result="effect1_dropShadow_625_5166"/>
<feBlend mode="normal" in="SourceGraphic" in2="effect1_dropShadow_625_5166" result="shape"/>
</filter>
</defs>
</svg>
