<svg width="44" height="44" viewBox="0 0 44 44" fill="none" xmlns="http://www.w3.org/2000/svg">
<g clip-path="url(#clip0_41_2198)">
<path d="M42.6232 23.8612C41.58 22.6787 40.0767 22.0004 38.5 22.0004H3.66667V8.21738C3.66667 6.67555 4.36333 5.15022 5.6705 4.33072C7.667 3.07855 10.1053 3.69455 11.3667 5.37755L11.8415 6.01005L10.956 11.0902C10.8497 11.7025 10.9762 12.3332 11.3117 12.8557C12.0908 14.0694 13.7372 14.3664 14.8903 13.501L21.5013 8.54372C22.5408 7.76455 22.803 6.31255 22.1008 5.21805L22.077 5.17955C21.6425 4.50122 20.9037 4.07588 20.0988 4.03922L14.7712 3.80272L14.4522 3.37738C13.2458 1.76955 11.5317 0.550384 9.559 0.159884C4.47333 -0.846616 0 3.03638 0 7.94422C0 7.94422 0.00733333 18.4125 0.011 22.4697C0.011 23.5257 0.0788333 24.5689 0.209 25.6175C0.394167 27.1007 0.6435 29.1009 0.6435 29.1009C1.10367 32.7767 2.88567 36.007 5.47433 38.3354L4.6365 41.7271C4.39267 42.7097 4.99217 43.7034 5.97483 43.9472C6.12333 43.9839 6.27 44.0004 6.41667 44.0004C7.23983 44.0004 7.98783 43.4412 8.195 42.607L8.70283 40.5519C10.736 41.5859 13.0295 42.167 15.4422 42.167H29.04C31.2822 42.167 33.4217 41.6665 35.3467 40.7645L35.8032 42.607C36.0085 43.4412 36.7583 44.0004 37.5815 44.0004C37.7282 44.0004 37.8748 43.9821 38.0233 43.9472C39.006 43.7034 39.6055 42.7097 39.3617 41.7271L38.61 38.6837C41.415 36.3334 43.3602 32.9637 43.8423 29.1027L43.956 28.1842C44.1503 26.6186 43.6663 25.0455 42.6213 23.8631L42.6232 23.8612ZM40.3187 27.7277L40.205 28.6462C39.5028 34.2635 34.7032 38.5004 29.0418 38.5004H15.444C9.78267 38.5004 4.98483 34.2635 4.28267 28.6462L3.9105 25.667H38.5C39.0335 25.667 39.523 25.8871 39.875 26.2867C40.227 26.6882 40.3847 27.1979 40.3187 27.7277Z" fill="#020144"/>
</g>
<defs>
<clipPath id="clip0_41_2198">
<rect width="44" height="44" fill="white"/>
</clipPath>
</defs>
</svg>
