<svg width="490" height="95" viewBox="0 0 490 95" fill="none" xmlns="http://www.w3.org/2000/svg">
<g opacity="0.34">
<path d="M10.4189 11L19.0089 26H1.82888L10.4189 11Z" fill="#D9D9D9"/>
<path d="M310.96 11L319.55 26H302.371L310.96 11Z" fill="#D9D9D9"/>
<path d="M160.69 11L168.85 26H152.529L160.69 11Z" fill="#D9D9D9"/>
<path d="M461.231 11L470.251 26H452.212L461.231 11Z" fill="#D9D9D9"/>
<path d="M85.3063 11L94.3258 26H76.2868L85.3063 11Z" fill="#D9D9D9"/>
<path d="M385.352 11L393.942 26H376.762L385.352 11Z" fill="#D9D9D9"/>
<path d="M236.073 11L245.092 26H227.054L236.073 11Z" fill="#D9D9D9"/>
<path d="M48.1105 11L56.7005 26H39.5205L48.1105 11Z" fill="#D9D9D9"/>
<path d="M348.156 11L357.176 26H339.137L348.156 11Z" fill="#D9D9D9"/>
<path d="M198.381 11L207.401 26H189.362L198.381 11Z" fill="#D9D9D9"/>
<path d="M122.502 11L131.092 26H113.912L122.502 11Z" fill="#D9D9D9"/>
<path d="M423.539 11L431.7 26H415.379L423.539 11Z" fill="#D9D9D9"/>
<path d="M273.269 11L281.859 26H264.679L273.269 11Z" fill="#D9D9D9"/>
<path d="M28.7688 20L19.7493 5L37.7883 5L28.7688 20Z" fill="#D9D9D9"/>
<path d="M329.31 20L321.15 5L337.471 5L329.31 20Z" fill="#D9D9D9"/>
<path d="M179.04 20L170.45 5L187.629 5L179.04 20Z" fill="#D9D9D9"/>
<path d="M479.581 20L470.991 5L488.171 5L479.581 20Z" fill="#D9D9D9"/>
<path d="M104.648 20L96.058 5L113.238 5L104.648 20Z" fill="#D9D9D9"/>
<path d="M404.694 20L395.674 5L413.713 5L404.694 20Z" fill="#D9D9D9"/>
<path d="M253.927 20L244.908 5L262.946 5L253.927 20Z" fill="#D9D9D9"/>
<path d="M66.4604 20L58.2999 5L74.6209 5L66.4604 20Z" fill="#D9D9D9"/>
<path d="M367.498 20L358.908 5L376.088 5L367.498 20Z" fill="#D9D9D9"/>
<path d="M216.731 20L208.141 5L225.321 5L216.731 20Z" fill="#D9D9D9"/>
<path d="M141.844 20L132.824 5L150.863 5L141.844 20Z" fill="#D9D9D9"/>
<path d="M441.889 20L433.299 5L450.479 5L441.889 20Z" fill="#D9D9D9"/>
<path d="M291.619 20L282.599 5L300.638 5L291.619 20Z" fill="#D9D9D9"/>
<path d="M10.4189 33L7.84188 27.75L12.9959 27.75L10.4189 33Z" fill="#D9D9D9"/>
<path d="M311.456 33L308.45 27.75L314.463 27.75L311.456 33Z" fill="#D9D9D9"/>
<path d="M160.69 33L157.683 27.75L163.696 27.75L160.69 33Z" fill="#D9D9D9"/>
<path d="M461.231 33L458.225 27.75L464.238 27.75L461.231 33Z" fill="#D9D9D9"/>
<path d="M86.2982 33L83.2917 27.75L89.3047 27.75L86.2982 33Z" fill="#D9D9D9"/>
<path d="M385.848 33L382.841 27.75L388.854 27.75L385.848 33Z" fill="#D9D9D9"/>
<path d="M235.577 33L233 27.75L238.154 27.75L235.577 33Z" fill="#D9D9D9"/>
<path d="M48.1105 33L45.5335 27.75L50.6875 27.75L48.1105 33Z" fill="#D9D9D9"/>
<path d="M348.156 33L345.15 27.75L351.163 27.75L348.156 33Z" fill="#D9D9D9"/>
<path d="M198.877 33L196.3 27.75L201.454 27.75L198.877 33Z" fill="#D9D9D9"/>
<path d="M122.998 33L119.992 27.75L126.004 27.75L122.998 33Z" fill="#D9D9D9"/>
<path d="M423.54 33L420.533 27.75L426.546 27.75L423.54 33Z" fill="#D9D9D9"/>
<path d="M273.269 33L270.692 27.75L275.846 27.75L273.269 33Z" fill="#D9D9D9"/>
<path d="M10.4189 42L19.0089 57H1.82888L10.4189 42Z" fill="#D9D9D9"/>
<path d="M310.96 42L319.55 57H302.371L310.96 42Z" fill="#D9D9D9"/>
<path d="M160.69 42L168.85 57H152.529L160.69 42Z" fill="#D9D9D9"/>
<path d="M461.231 42L470.251 57H452.212L461.231 42Z" fill="#D9D9D9"/>
<path d="M85.3063 42L94.3258 57H76.2868L85.3063 42Z" fill="#D9D9D9"/>
<path d="M385.352 42L393.942 57H376.762L385.352 42Z" fill="#D9D9D9"/>
<path d="M236.073 42L245.092 57H227.054L236.073 42Z" fill="#D9D9D9"/>
<path d="M48.1105 42L56.7005 57H39.5205L48.1105 42Z" fill="#D9D9D9"/>
<path d="M348.156 42L357.176 57H339.137L348.156 42Z" fill="#D9D9D9"/>
<path d="M198.381 42L207.401 57H189.362L198.381 42Z" fill="#D9D9D9"/>
<path d="M122.502 42L131.092 57H113.912L122.502 42Z" fill="#D9D9D9"/>
<path d="M423.539 42L431.7 57H415.379L423.539 42Z" fill="#D9D9D9"/>
<path d="M273.269 42L281.859 57H264.679L273.269 42Z" fill="#D9D9D9"/>
<path d="M28.7688 51L19.7493 36L37.7883 36L28.7688 51Z" fill="#D9D9D9"/>
<path d="M329.31 51L321.15 36L337.471 36L329.31 51Z" fill="#D9D9D9"/>
<path d="M179.04 51L170.45 36L187.629 36L179.04 51Z" fill="#D9D9D9"/>
<path d="M479.581 51L470.991 36L488.171 36L479.581 51Z" fill="#D9D9D9"/>
<path d="M104.648 51L96.058 36L113.238 36L104.648 51Z" fill="#D9D9D9"/>
<path d="M404.694 51L395.674 36L413.713 36L404.694 51Z" fill="#D9D9D9"/>
<path d="M253.927 51L244.908 36L262.946 36L253.927 51Z" fill="#D9D9D9"/>
<path d="M66.4604 51L58.2999 36L74.6209 36L66.4604 51Z" fill="#D9D9D9"/>
<path d="M367.498 51L358.908 36L376.088 36L367.498 51Z" fill="#D9D9D9"/>
<path d="M216.731 51L208.141 36L225.321 36L216.731 51Z" fill="#D9D9D9"/>
<path d="M141.844 51L132.824 36L150.863 36L141.844 51Z" fill="#D9D9D9"/>
<path d="M441.889 51L433.299 36L450.479 36L441.889 51Z" fill="#D9D9D9"/>
<path d="M291.619 51L282.599 36L300.638 36L291.619 51Z" fill="#D9D9D9"/>
<path d="M10.4189 64L7.84188 58.75L12.9959 58.75L10.4189 64Z" fill="#D9D9D9"/>
<path d="M311.456 64L308.45 58.75L314.463 58.75L311.456 64Z" fill="#D9D9D9"/>
<path d="M160.69 64L157.683 58.75L163.696 58.75L160.69 64Z" fill="#D9D9D9"/>
<path d="M461.231 64L458.225 58.75L464.238 58.75L461.231 64Z" fill="#D9D9D9"/>
<path d="M86.2982 64L83.2917 58.75L89.3047 58.75L86.2982 64Z" fill="#D9D9D9"/>
<path d="M385.848 64L382.841 58.75L388.854 58.75L385.848 64Z" fill="#D9D9D9"/>
<path d="M235.577 64L233 58.75L238.154 58.75L235.577 64Z" fill="#D9D9D9"/>
<path d="M48.1105 64L45.5335 58.75L50.6875 58.75L48.1105 64Z" fill="#D9D9D9"/>
<path d="M348.156 64L345.15 58.75L351.163 58.75L348.156 64Z" fill="#D9D9D9"/>
<path d="M198.877 64L196.3 58.75L201.454 58.75L198.877 64Z" fill="#D9D9D9"/>
<path d="M122.998 64L119.992 58.75L126.004 58.75L122.998 64Z" fill="#D9D9D9"/>
<path d="M423.54 64L420.533 58.75L426.546 58.75L423.54 64Z" fill="#D9D9D9"/>
<path d="M273.269 64L270.692 58.75L275.846 58.75L273.269 64Z" fill="#D9D9D9"/>
<path d="M10.4189 73L19.0089 88H1.82888L10.4189 73Z" fill="#D9D9D9"/>
<path d="M310.96 73L319.55 88H302.371L310.96 73Z" fill="#D9D9D9"/>
<path d="M160.69 73L168.85 88H152.529L160.69 73Z" fill="#D9D9D9"/>
<path d="M461.231 73L470.251 88H452.212L461.231 73Z" fill="#D9D9D9"/>
<path d="M85.3063 73L94.3258 88H76.2868L85.3063 73Z" fill="#D9D9D9"/>
<path d="M385.352 73L393.942 88H376.762L385.352 73Z" fill="#D9D9D9"/>
<path d="M236.073 73L245.092 88H227.054L236.073 73Z" fill="#D9D9D9"/>
<path d="M48.1105 73L56.7005 88H39.5205L48.1105 73Z" fill="#D9D9D9"/>
<path d="M348.156 73L357.176 88H339.137L348.156 73Z" fill="#D9D9D9"/>
<path d="M198.381 73L207.401 88H189.362L198.381 73Z" fill="#D9D9D9"/>
<path d="M122.502 73L131.092 88H113.912L122.502 73Z" fill="#D9D9D9"/>
<path d="M423.539 73L431.7 88H415.379L423.539 73Z" fill="#D9D9D9"/>
<path d="M273.269 73L281.859 88H264.679L273.269 73Z" fill="#D9D9D9"/>
<path d="M28.7688 82L19.7493 67L37.7883 67L28.7688 82Z" fill="#D9D9D9"/>
<path d="M329.31 82L321.15 67L337.471 67L329.31 82Z" fill="#D9D9D9"/>
<path d="M179.04 82L170.45 67L187.629 67L179.04 82Z" fill="#D9D9D9"/>
<path d="M479.581 82L470.991 67L488.171 67L479.581 82Z" fill="#D9D9D9"/>
<path d="M104.648 82L96.058 67L113.238 67L104.648 82Z" fill="#D9D9D9"/>
<path d="M404.694 82L395.674 67L413.713 67L404.694 82Z" fill="#D9D9D9"/>
<path d="M253.927 82L244.908 67L262.946 67L253.927 82Z" fill="#D9D9D9"/>
<path d="M66.4604 82L58.2999 67L74.6209 67L66.4604 82Z" fill="#D9D9D9"/>
<path d="M367.498 82L358.908 67L376.088 67L367.498 82Z" fill="#D9D9D9"/>
<path d="M216.731 82L208.141 67L225.321 67L216.731 82Z" fill="#D9D9D9"/>
<path d="M141.844 82L132.824 67L150.863 67L141.844 82Z" fill="#D9D9D9"/>
<path d="M441.889 82L433.299 67L450.479 67L441.889 82Z" fill="#D9D9D9"/>
<path d="M291.619 82L282.599 67L300.638 67L291.619 82Z" fill="#D9D9D9"/>
<path d="M10.4189 95L7.84188 89.75L12.9959 89.75L10.4189 95Z" fill="#D9D9D9"/>
<path d="M311.456 95L308.45 89.75L314.463 89.75L311.456 95Z" fill="#D9D9D9"/>
<path d="M160.69 95L157.683 89.75L163.696 89.75L160.69 95Z" fill="#D9D9D9"/>
<path d="M461.231 95L458.225 89.75L464.238 89.75L461.231 95Z" fill="#D9D9D9"/>
<path d="M86.2982 95L83.2917 89.75L89.3047 89.75L86.2982 95Z" fill="#D9D9D9"/>
<path d="M385.848 95L382.841 89.75L388.854 89.75L385.848 95Z" fill="#D9D9D9"/>
<path d="M235.577 95L233 89.75L238.154 89.75L235.577 95Z" fill="#D9D9D9"/>
<path d="M48.1105 95L45.5335 89.75L50.6875 89.75L48.1105 95Z" fill="#D9D9D9"/>
<path d="M348.156 95L345.15 89.75L351.163 89.75L348.156 95Z" fill="#D9D9D9"/>
<path d="M198.877 95L196.3 89.75L201.454 89.75L198.877 95Z" fill="#D9D9D9"/>
<path d="M122.998 95L119.992 89.75L126.004 89.75L122.998 95Z" fill="#D9D9D9"/>
<path d="M423.54 95L420.533 89.75L426.546 89.75L423.54 95Z" fill="#D9D9D9"/>
<path d="M273.269 95L270.692 89.75L275.846 89.75L273.269 95Z" fill="#D9D9D9"/>
</g>
</svg>
