<svg width="116" height="78" viewBox="0 0 116 78" fill="none" xmlns="http://www.w3.org/2000/svg">
<path d="M15.0985 16.2919H13.7183V4.0659H15.0985V16.2875V16.2919ZM26.3838 12.9739V13.0092C26.3838 15.1051 24.6385 16.4683 22.2103 16.4683C20.2732 16.4683 18.6848 15.8243 17.2157 14.5137L18.0719 13.4989C19.3469 14.6506 20.5704 15.2284 22.2641 15.2284C23.9578 15.2284 24.9871 14.3549 24.9871 13.1503V13.1152C24.9871 11.9811 24.3719 11.3326 21.8079 10.7898C18.9983 10.1811 17.7046 9.27203 17.7046 7.26458V7.22926C17.7046 5.31 19.4007 3.89372 21.7214 3.89372C23.504 3.89372 24.7789 4.40114 26.0141 5.3982L25.2117 6.4617C24.0771 5.5395 22.9449 5.13361 21.6816 5.13361C20.0931 5.13361 19.0778 6.00715 19.0778 7.10574V7.14106C19.0778 8.29275 19.7095 8.93679 22.3951 9.51486C25.1228 10.1105 26.3791 11.1075 26.3791 12.9739M38.6633 3.8584C34.9436 3.8584 32.4124 6.81027 32.4124 10.1811V10.2165C32.4124 13.5871 34.9085 16.5036 38.6282 16.5036C42.3478 16.5036 44.8814 13.5517 44.8814 10.1811V10.1458C44.8814 6.77495 42.3829 3.8584 38.6633 3.8584ZM43.445 10.2165C43.445 12.9915 41.4565 15.2284 38.6633 15.2284C35.87 15.2284 33.8441 12.9608 33.8441 10.1811V10.1458C33.8441 7.36611 35.8349 5.13361 38.6282 5.13361C41.4214 5.13361 43.445 7.40144 43.445 10.1811V10.2165ZM28.653 4.07035H30.0333V16.2919H28.653V4.0659V4.07035ZM5.35964 16.3801L0.105347 4.07035H1.64229L2.39091 5.88807L5.98654 14.5977L6.33044 15.4315L6.19943 14.0903L10.3519 4.07035H11.8327L6.57846 16.3801H5.35728H5.35964ZM56.1315 4.07035H57.4767V16.2919H56.3795L47.7215 5.2969L48.4841 7.0793V16.2919H47.1389V4.0659H48.4326L56.7 14.5799L56.1339 13.0799V4.0659L56.1315 4.07035Z" fill="#8A8A8A"/>
<path d="M94.7854 17.5827H96.0791V18.8755H94.7854V17.5827ZM97.3704 17.5827H98.6641V18.8755H97.3704V17.5827ZM70.7224 2.78457H69.4287V1.49181H70.7224V2.78457ZM102.37 11.8339C102.859 12.1869 103.429 12.4426 104.077 12.6103C104.726 12.7781 105.411 12.8618 106.134 12.8618H106.473L106.903 11.9485V13.2368C106.903 13.9164 106.712 14.4016 106.323 14.6929C105.935 14.9841 105.392 15.1296 104.69 15.1296C104.295 15.1296 103.93 15.0899 103.614 15.015C103.296 14.9399 102.931 14.812 102.524 14.6267L102.117 15.871C102.613 16.0561 103.055 16.1931 103.436 16.2811C103.82 16.3737 104.206 16.4224 104.594 16.4224C105.855 16.4224 106.772 16.1225 107.343 15.5224C107.916 14.9221 108.204 14.1193 108.204 13.1046V4.07733H106.134C105.336 4.07733 104.606 4.19196 103.949 4.41701C103.291 4.64206 102.728 4.95531 102.26 5.3481C101.792 5.74065 101.427 6.2083 101.17 6.75549C100.91 7.29823 100.781 7.8894 100.781 8.52923C100.781 9.29235 100.922 9.94995 101.209 10.4925C101.495 11.0352 101.885 11.4853 102.374 11.8339M102.374 7.24957C102.573 6.86146 102.838 6.53044 103.167 6.25251C103.495 5.97904 103.869 5.76264 104.295 5.61268C104.704 5.46717 105.121 5.39208 105.563 5.38763H107.657L106.917 5.75843V11.5691H105.607C105.121 11.5691 104.669 11.5029 104.241 11.3662C103.813 11.2338 103.441 11.0352 103.116 10.7748C102.793 10.5147 102.538 10.197 102.358 9.81754C102.171 9.44253 102.084 9.00997 102.084 8.52478C102.084 8.03935 102.18 7.63347 102.384 7.24513M73.3238 2.78013H72.0324V1.48737H73.3238V2.78013ZM111.496 16.418C111.149 16.418 110.796 16.3695 110.443 16.2724L110.782 15.0283C110.934 15.0723 111.054 15.0943 111.142 15.1076C111.224 15.1163 111.33 15.1252 111.449 15.1252C111.699 15.1252 111.898 15.0899 112.055 15.0192C112.209 14.9488 112.338 14.8339 112.424 14.6795C112.518 14.5209 112.579 14.3179 112.619 14.0619C112.658 13.806 112.675 13.4972 112.675 13.1311V4.07733H113.968V13.1353C113.968 13.6427 113.931 14.0973 113.844 14.5031C113.767 14.9046 113.625 15.2487 113.435 15.5358C113.239 15.8223 112.986 16.0385 112.668 16.1885C112.35 16.3386 111.957 16.418 111.496 16.418ZM108.223 2.78013H105.383V1.72575C105.383 1.15657 105.514 0.737352 105.781 0.476976C106.045 0.221044 106.426 0.0888672 106.922 0.0888672H107.837V0.988838H106.943C106.74 0.988838 106.604 1.02861 106.548 1.09902C106.478 1.18745 106.447 1.31542 106.447 1.47848V1.77862H108.223V2.77568V2.78013ZM69.7959 16.2371H72.4863V15.2709C72.5143 15.3149 72.5401 15.3636 72.5658 15.4034C72.76 15.6899 73.0173 15.9061 73.3331 16.056C73.6513 16.2062 74.0443 16.2855 74.5075 16.2855H98.6828V4.07733H97.3891V14.993H74.5542C74.3086 14.993 74.1051 14.9575 73.9507 14.887C73.7939 14.8164 73.67 14.7018 73.5811 14.5471C73.4875 14.3885 73.422 14.1855 73.3869 13.934C73.3471 13.678 73.3284 13.3692 73.3284 13.0029V4.07733H69.8287C66.2517 4.07733 63.8164 6.91433 63.8164 10.1572V10.1925C63.8164 13.4354 66.2166 16.2416 69.7959 16.2416M65.1944 10.1263C65.1944 7.45708 67.1079 5.30833 69.7959 5.30833H72.8255L72.0324 5.70088V13.0073C72.0324 13.5147 72.0722 13.9693 72.1541 14.3752C72.2032 14.6091 72.271 14.8208 72.3575 15.015H69.8357C67.1477 15.015 65.199 12.8309 65.199 10.1617V10.1263H65.1944Z" fill="#8A8A8A"/>
<path d="M4.90325 77.5046H3.94873L2.1053 75.0779L1.19761 76.0045V77.5046H0.402222V72.3291H1.19761V75.1132L3.82943 72.3291H4.77924L2.63867 74.5396L4.90325 77.5046Z" fill="#8A8A8A"/>
<path d="M6.75848 72.3242H5.96545V77.5037H6.75848V72.3242Z" fill="#8A8A8A"/>
<path d="M12.8409 72.3242V77.5084H12.1601L9.12593 73.5859V77.5084H8.3446V72.3242H9.10722L12.0642 76.1407V72.3242H12.8409Z" fill="#8A8A8A"/>
<path d="M18.9772 74.6747V76.8059C18.5397 77.172 17.8215 77.5954 16.8226 77.5954C15.2459 77.5954 14.1323 76.5013 14.1323 74.9264V74.9131C14.1323 73.4084 15.3113 72.2305 16.8062 72.2305C17.6086 72.2305 18.1818 72.4246 18.7503 72.8923L18.2496 73.4926C17.8519 73.166 17.4426 72.9496 16.7711 72.9496C15.7769 72.9496 14.9745 73.8234 14.9745 74.9131C14.9745 76.0736 15.7465 76.8852 16.853 76.8852C17.349 76.8852 17.8215 76.7352 18.1818 76.4662L18.2098 76.444V75.3454H16.846V74.6705H18.9725L18.9772 74.6747Z" fill="#8A8A8A"/>
<path d="M22.325 72.3242H20.416V77.5037H22.325C23.9228 77.5037 25.0832 76.4142 25.0832 74.9139C25.0832 73.4139 23.9228 72.3242 22.325 72.3242ZM22.325 76.7934H21.2044V73.0342H22.325C23.4549 73.0342 24.2457 73.8065 24.2457 74.9139C24.2457 76.0214 23.4549 76.7934 22.325 76.7934Z" fill="#8A8A8A"/>
<path d="M28.8165 72.2305C27.2678 72.2305 26.0981 73.3822 26.0981 74.9131V74.9306C26.0981 76.4529 27.2585 77.5954 28.8025 77.5954C30.3465 77.5954 31.5256 76.4442 31.5256 74.9131C31.5256 73.3822 30.3605 72.2305 28.8189 72.2305M30.6881 74.9264C30.6881 76.0383 29.8833 76.8763 28.8189 76.8763C27.7568 76.8763 26.9403 76.0161 26.9403 74.9086C26.9403 73.8014 27.7427 72.9454 28.8071 72.9454C29.8692 72.9454 30.6881 73.8098 30.6881 74.9086V74.9264Z" fill="#8A8A8A"/>
<path d="M37.9168 72.3242V77.5084H37.1237V73.5288L35.3552 76.1625L33.6076 73.5419V77.5084H32.8263V72.3242H33.7129L35.3715 74.9008L37.0255 72.3242H37.9168Z" fill="#8A8A8A"/>
<path d="M44.5539 72.2305C43.0052 72.2305 41.8354 73.3822 41.8354 74.9131V74.9306C41.8354 76.4529 42.9958 77.5954 44.5398 77.5954C46.0838 77.5954 47.2629 76.4442 47.2629 74.9131C47.2629 73.3822 46.0978 72.2305 44.5585 72.2305M46.4254 74.9264C46.4254 76.0383 45.6206 76.8763 44.5585 76.8763C43.4941 76.8763 42.68 76.0161 42.68 74.9086C42.68 73.8014 43.4777 72.9454 44.5398 72.9454C45.6042 72.9454 46.4207 73.8098 46.4207 74.9086V74.9264H46.4254Z" fill="#8A8A8A"/>
<path d="M49.3589 73.0342V74.6271H52.0398V75.3376H49.3589V77.5084H48.5635V72.3242H52.3837V73.0342H49.3589Z" fill="#8A8A8A"/>
<path d="M59.9657 76.0661C59.9657 76.9883 59.2452 77.5839 58.1339 77.5839C57.3503 77.5839 56.6156 77.3104 56.0121 76.7939L56.4823 76.2336C57.0298 76.6926 57.5514 76.8954 58.155 76.8954C58.7609 76.8954 59.1703 76.6046 59.1703 76.1365C59.1703 75.6688 58.8802 75.4791 57.9141 75.2543C56.8028 74.985 56.1969 74.6631 56.1969 73.7187C56.1969 72.8541 56.9174 72.2451 57.9398 72.2451C58.6509 72.2451 59.2311 72.444 59.7762 72.8585L59.3528 73.4539C58.8708 73.1053 58.4006 72.9334 57.9281 72.9334C57.376 72.9334 56.9923 73.2246 56.9923 73.6525C56.9923 74.1159 57.2754 74.3146 58.3071 74.5616C59.4978 74.8529 59.961 75.2674 59.961 76.0661" fill="#8A8A8A"/>
<path d="M63.7205 72.291H62.9438L60.6628 77.506H61.4699L62.0127 76.2219H64.6234L65.1662 77.506H65.9967L63.7157 72.291H63.7205ZM62.3004 75.5381L63.3181 73.1557L64.3474 75.5381H62.3004Z" fill="#8A8A8A"/>
<path d="M71.1411 72.3242V75.2714C71.1411 76.7497 70.334 77.5921 68.9257 77.5921C67.5197 77.5921 66.729 76.7628 66.729 75.3198V72.3284H67.5244V75.2803C67.5244 76.2905 68.039 76.873 68.9397 76.873C69.8403 76.873 70.3503 76.3082 70.3503 75.3154V72.3242H71.1458H71.1411Z" fill="#8A8A8A"/>
<path d="M74.5707 72.3242H72.6523V77.5037H74.5707C76.1661 77.5037 77.3265 76.4142 77.3265 74.9139C77.3265 73.4139 76.1708 72.3242 74.5707 72.3242ZM74.5707 76.7934H73.4477V73.0342H74.5707C75.6983 73.0342 76.489 73.8065 76.489 74.9139C76.489 76.0214 75.6983 76.7934 74.5707 76.7934Z" fill="#8A8A8A"/>
<path d="M79.4435 72.3242H78.6504V77.5037H79.4435V72.3242Z" fill="#8A8A8A"/>
<path d="M86.4335 72.291H85.6615L83.3806 77.506H84.1831L84.7304 76.2219H87.3412L87.8793 77.506H88.7144L86.4335 72.291ZM85.0135 75.5381L86.0311 73.1557L87.0605 75.5381H85.0135Z" fill="#8A8A8A"/>
<path d="M92.668 75.5229L92.7639 75.492C93.55 75.267 93.9827 74.7198 93.9827 73.9478C93.9827 73.4977 93.8377 73.1138 93.5639 72.8361C93.2224 72.5006 92.7078 72.3242 92.0761 72.3242H89.7765V77.5037H90.5719V75.6464H91.8352L91.8679 75.6773L93.1569 77.5037H94.088L92.6703 75.5184L92.668 75.5229ZM90.5672 74.9626V73.0342H92.0012C92.7475 73.0342 93.1733 73.383 93.1733 73.9829C93.1733 74.5829 92.7147 74.9579 92.0106 74.9579H90.5719L90.5672 74.9626Z" fill="#8A8A8A"/>
<path d="M98.0721 72.291H97.2955L95.0145 77.506H95.817L96.3644 76.2219H98.9728L99.5109 77.506H100.344L98.0628 72.291H98.0721ZM96.6474 75.5381L97.6651 73.1557L98.6944 75.5381H96.6474Z" fill="#8A8A8A"/>
<path d="M104.697 74.8789L104.536 74.8213L104.681 74.7464C105.168 74.4947 105.406 74.1286 105.406 73.6214C105.406 73.2729 105.296 73.0036 105.065 72.7741C104.772 72.4828 104.307 72.3242 103.724 72.3242H101.404V77.5037H103.794C104.985 77.5037 105.692 76.9832 105.692 76.1141C105.692 75.492 105.383 75.1123 104.681 74.8742M102.18 73.008H103.596C104.227 73.008 104.604 73.2902 104.604 73.7536C104.604 74.2741 104.213 74.5654 103.53 74.5654H102.18V73.008ZM103.799 76.8157H102.18V75.2141H103.734C104.747 75.2141 104.896 75.7037 104.896 75.9992C104.896 76.5244 104.494 76.8157 103.799 76.8157Z" fill="#8A8A8A"/>
<path d="M107.802 72.3242H107.006V77.5037H107.802V72.3242Z" fill="#8A8A8A"/>
<path d="M111.924 72.291H111.149L108.869 77.506H109.673L110.218 76.2219H112.831L113.374 77.506H114.202L111.924 72.291ZM110.501 75.5381L111.521 73.1557L112.548 75.5381H110.501Z" fill="#8A8A8A"/>
<path d="M82.4098 60.6759H81.6449V61.4392H82.4098V60.6759ZM73.0827 67.3603H73.8266V60.6759H73.0827V67.3603ZM7.99133 62.3039H7.24506V66.6147H4.28333V62.3039H3.10899C2.64345 62.3039 2.22466 62.3656 1.84334 62.4936C1.46436 62.6216 1.14152 62.7982 0.874827 63.023C0.608136 63.2481 0.402322 63.5173 0.25728 63.8261C0.109898 64.1394 0.0350342 64.4746 0.0350342 64.8321C0.0350342 65.2733 0.11924 65.6525 0.285337 65.9704C0.456113 66.2881 0.680666 66.5485 0.956715 66.7513C1.23978 66.9588 1.56731 67.1088 1.93694 67.2059C2.30656 67.3074 2.70194 67.3558 3.10899 67.3558H7.99133V62.2997V62.3039ZM3.53942 66.6147H2.8025C2.52411 66.6147 2.25977 66.5747 2.01647 66.4954C1.76849 66.4159 1.55796 66.297 1.37315 66.1471C1.186 65.9969 1.04564 65.8069 0.940366 65.5865C0.832753 65.3659 0.781303 65.1145 0.781303 64.8365C0.781303 64.5586 0.837389 64.3247 0.954359 64.1041C1.06665 63.8837 1.22339 63.694 1.4082 63.5349C1.59769 63.3763 1.81294 63.257 2.05623 63.1732C2.29953 63.0895 2.54517 63.0452 2.8025 63.0452H3.53942V66.6147ZM5.92094 69.0103H6.68355V68.2472H5.92094V69.0103ZM4.28105 60.6759H3.516V61.4392H4.28105V60.6759ZM49.787 60.6759H49.022V61.4392H49.787V60.6759ZM7.22864 69.0103H7.99133V68.2472H7.22864V69.0103ZM51.0923 60.6759H50.3297V61.4392H51.0923V60.6759ZM81.1021 60.6759H80.3395V61.4392H81.1021V60.6759ZM2.97799 60.6759H2.2153V61.4392H2.97799V60.6759ZM53.5721 69.0103H54.3348V68.2472H53.5721V69.0103ZM58.3538 62.3039H57.6076V66.6147H54.7933V62.3039H54.0494V66.6147H51.0877V62.3039H49.9133C49.4478 62.3039 49.029 62.3656 48.6477 62.4936C48.2687 62.6216 47.9458 62.7982 47.6815 63.023C47.4124 63.2481 47.209 63.5173 47.0639 63.8261C46.9165 64.1394 46.8417 64.4746 46.8417 64.8321C46.8417 65.2733 46.9282 65.6525 47.0943 65.9704C47.2628 66.2881 47.4873 66.5485 47.7657 66.7513C48.0441 66.9588 48.3693 67.1088 48.7459 67.2059C49.1156 67.3074 49.5086 67.3558 49.918 67.3558H58.3586V62.2997L58.3538 62.3039ZM50.3461 66.6147H49.6092C49.3331 66.6147 49.0664 66.5747 48.8255 66.4954C48.5775 66.4159 48.3646 66.297 48.1798 66.1471C47.995 65.9969 47.8546 65.8069 47.747 65.5865C47.6417 65.3659 47.588 65.1145 47.588 64.8365C47.588 64.5586 47.6465 64.3247 47.7611 64.1041C47.8757 63.8837 48.0301 63.694 48.2196 63.5349C48.4091 63.3763 48.6266 63.257 48.8629 63.1732C49.1062 63.0895 49.3542 63.0452 49.6092 63.0452H50.3461V66.6147ZM54.8775 69.0103H55.6401V68.2472H54.8775V69.0103ZM12.7988 62.9526C12.6023 62.7364 12.38 62.5731 12.132 62.4627C11.8864 62.3525 11.5916 62.2997 11.2337 62.2997H10.6863V63.0452H11.339C11.5215 63.0452 11.6876 63.0848 11.8513 63.1643C12.0151 63.2436 12.1484 63.3407 12.2513 63.4687C12.3589 63.5966 12.4291 63.7421 12.4736 63.8968C12.518 64.0512 12.5344 64.2365 12.5344 64.4571V66.6189H9.04166V67.3647H13.2807V64.4306C13.2807 64.1394 13.2409 63.8659 13.166 63.61C13.0865 63.354 12.9672 63.1379 12.8081 62.957M70.1772 66.6189H67.0096L68.3126 63.4998C68.1138 63.3232 67.9009 63.1643 67.681 63.0099C67.4564 62.8555 67.2272 62.7229 66.9932 62.6085C66.7546 62.4936 66.516 62.401 66.2751 62.3392C66.0318 62.273 65.7931 62.2421 65.5545 62.2421C65.3182 62.2421 65.0702 62.2774 64.827 62.3392C64.5836 62.4056 64.3427 62.4936 64.1041 62.6038C63.8655 62.7142 63.6362 62.8508 63.4139 63.0052C63.194 63.1599 62.9858 63.3232 62.7987 63.4998L64.1111 66.6189H61.3366V62.3083H60.5903V67.5233C60.5903 67.7353 60.5833 67.9119 60.5599 68.0574C60.5388 68.2029 60.5037 68.322 60.4499 68.4104C60.3985 68.4984 60.3283 68.5649 60.2324 68.6044C60.1458 68.6442 60.0265 68.6664 59.8838 68.6664C59.8183 68.6664 59.7575 68.6664 59.7084 68.6575C59.6592 68.6488 59.589 68.6353 59.5025 68.6088L59.3083 69.328C59.5095 69.3853 59.7131 69.412 59.9119 69.412C60.1809 69.412 60.4032 69.368 60.5856 69.2837C60.7681 69.1958 60.9178 69.072 61.0278 68.9087C61.1377 68.7455 61.2173 68.5471 61.2664 68.3134C61.3155 68.0794 61.3366 67.8193 61.3366 67.5278V67.3692H70.9211V60.6848H70.1748V66.6234L70.1772 66.6189ZM64.8995 66.6189L63.7321 63.7599C64.0199 63.5173 64.31 63.3407 64.6164 63.2305C64.9159 63.1157 65.2317 63.063 65.5592 63.063C65.8867 63.063 66.2259 63.129 66.5558 63.2658C66.888 63.398 67.1663 63.566 67.3956 63.7644L66.2306 66.6234H64.8995V66.6189ZM57.6123 69.0147H58.3773V68.2514H57.6123V69.0147ZM113.171 67.3647H113.917V60.6803H113.171V67.3647ZM110.256 66.6189H107.694C107.848 66.2792 107.93 65.9131 107.93 65.5206C107.93 65.1278 107.858 64.7792 107.717 64.4437C107.577 64.113 107.385 63.8261 107.142 63.5835C106.901 63.3407 106.616 63.151 106.283 63.0099C105.951 62.8686 105.589 62.7982 105.207 62.7982C104.821 62.7982 104.487 62.8686 104.162 63.0144C103.839 63.1557 103.558 63.3496 103.317 63.5966C103.081 63.8437 102.889 64.1307 102.753 64.4571C102.615 64.7837 102.55 65.1409 102.55 65.5206C102.55 65.719 102.573 65.9087 102.613 66.094C102.653 66.2792 102.706 66.4514 102.774 66.6189H100.463C100.617 66.2792 100.697 65.9131 100.697 65.5206C100.697 65.1278 100.627 64.7792 100.489 64.4437C100.348 64.113 100.159 63.8261 99.9156 63.5835C99.6746 63.3407 99.3869 63.151 99.0571 63.0099C98.7249 62.8686 98.3622 62.7982 97.9809 62.7982C97.5949 62.7982 97.2604 62.8686 96.9375 63.0144C96.6147 63.1557 96.3339 63.3496 96.0953 63.5966C95.8567 63.8437 95.6672 64.1307 95.5315 64.4571C95.3935 64.7837 95.328 65.1409 95.328 65.5206C95.328 65.719 95.3491 65.9087 95.3888 66.094C95.4286 66.2792 95.4824 66.4514 95.5526 66.6189H93.1875V60.6803H92.4412V66.6189H90.0691V65.4761C90.0691 65.1895 90.0293 64.9203 89.9591 64.6601C89.8843 64.3995 89.7673 64.1834 89.6059 64.0028C89.4117 63.7864 89.1942 63.6231 88.9532 63.5173C88.7099 63.4114 88.4057 63.3585 88.0314 63.3585H84.7352L86.1389 60.6759H85.3247L83.8954 63.3496C83.9188 63.5129 83.9586 63.6495 84.01 63.7688C84.0638 63.8879 84.134 63.9981 84.2323 64.1041H88.0314C88.2654 64.1041 88.4666 64.1394 88.6397 64.2098C88.8128 64.2807 88.9462 64.3778 89.0538 64.5013C89.1591 64.6248 89.2292 64.7706 89.269 64.9292C89.3111 65.0925 89.3274 65.2689 89.3274 65.4675V66.61H82.4356V62.2997H81.2636C80.7957 62.2997 80.3746 62.3614 79.9956 62.4894C79.6166 62.6171 79.2938 62.7938 79.0247 63.0188C78.7557 63.2436 78.5522 63.5129 78.4071 63.8217C78.2621 64.1349 78.1872 64.4704 78.1872 64.8276C78.1872 65.2689 78.2715 65.6483 78.4399 65.966C78.606 66.2839 78.8306 66.5438 79.109 66.7469C79.3874 66.9544 79.7149 67.1046 80.0845 67.2014C80.4588 67.3027 80.8472 67.3516 81.2589 67.3516H96.0392C96.2825 67.6118 96.5679 67.8193 96.8978 67.969C97.23 68.1192 97.5902 68.1983 97.9832 68.1983C98.3763 68.1983 98.7529 68.1234 99.0945 67.9737C99.4384 67.8233 99.7354 67.6162 99.9881 67.3516H103.263C103.509 67.6118 103.794 67.8193 104.127 67.969C104.456 68.1192 104.819 68.1983 105.21 68.1983C105.603 68.1983 105.979 68.1234 106.323 67.9737C106.665 67.8233 106.962 67.6162 107.215 67.3516H111.004V60.667H110.258V66.6058L110.256 66.6189ZM81.68 66.6189H80.9454C80.667 66.6189 80.4004 66.5794 80.1594 66.4998C79.9114 66.4205 79.6985 66.3015 79.516 66.1513C79.3288 66.0013 79.1885 65.8116 79.0832 65.591C78.9756 65.3701 78.9242 65.1189 78.9242 64.8407C78.9242 64.5631 78.9803 64.3291 79.0949 64.1085C79.2096 63.8879 79.3663 63.6982 79.5535 63.5393C79.7453 63.3802 79.9605 63.2612 80.2038 63.1774C80.4448 63.0937 80.6928 63.0497 80.9454 63.0497H81.68V66.6189ZM99.801 66.2881C99.7004 66.5263 99.56 66.7338 99.3822 66.9102C99.2067 67.0824 98.9985 67.219 98.7599 67.3163C98.5213 67.4132 98.2616 67.4618 97.9809 67.4618C97.6978 67.4618 97.4546 67.4087 97.2206 67.3074C96.9867 67.2059 96.7878 67.0646 96.6147 66.8882C96.4439 66.7116 96.3129 66.5043 96.2146 66.2706C96.1164 66.0369 96.0696 65.7852 96.0696 65.5159C96.0696 65.2469 96.1164 64.9951 96.2146 64.757C96.3129 64.5188 96.4439 64.3113 96.6124 64.1349C96.7785 63.9586 96.9773 63.8173 97.2113 63.7115C97.4452 63.6055 97.7025 63.5524 97.9809 63.5524C98.2569 63.5524 98.526 63.6013 98.7693 63.7026C99.0079 63.8042 99.2137 63.941 99.3915 64.113C99.567 64.2893 99.705 64.4922 99.8056 64.7306C99.9085 64.9687 99.9577 65.2338 99.9577 65.5206C99.9577 65.8069 99.9086 66.0586 99.801 66.297M107.03 66.297C106.929 66.5352 106.786 66.7427 106.609 66.9188C106.433 67.091 106.227 67.2279 105.984 67.325C105.745 67.422 105.486 67.4707 105.207 67.4707C104.929 67.4707 104.681 67.4176 104.447 67.3163C104.213 67.2148 104.01 67.0732 103.839 66.8971C103.666 66.7205 103.535 66.5132 103.436 66.2792C103.34 66.0453 103.291 65.7938 103.291 65.5245C103.291 65.2557 103.34 65.004 103.436 64.7659C103.535 64.5275 103.666 64.3202 103.834 64.1438C104.003 63.9674 104.201 63.8261 104.433 63.7204C104.669 63.6144 104.922 63.5613 105.203 63.5613C105.481 63.5613 105.75 63.61 105.989 63.7115C106.227 63.813 106.433 63.9497 106.609 64.1218C106.786 64.2982 106.922 64.5013 107.025 64.7394C107.121 64.9776 107.175 65.2422 107.175 65.5292C107.175 65.816 107.121 66.0675 107.018 66.3057M38.7076 66.6365H37.4865C37.0537 66.6365 36.7097 66.5747 36.4618 66.4514C36.2138 66.3277 36.0149 66.1426 35.8745 65.8911C35.919 65.7014 35.9401 65.4675 35.9401 65.1938V62.7938H35.1938V65.3175C35.1938 65.7454 35.0815 66.0895 34.8499 66.3455C34.6207 66.6012 34.2721 66.7338 33.8112 66.7338C33.5937 66.7338 33.3948 66.6985 33.2147 66.6323C33.0345 66.5663 32.8802 66.469 32.7468 66.3541C32.6158 66.235 32.5128 66.0984 32.438 65.9396C32.3631 65.7807 32.3234 65.613 32.3187 65.4319V62.7982H31.5724V65.379C31.5724 65.6088 31.5397 65.8029 31.4718 65.9616C31.4063 66.1204 31.3081 66.2484 31.1935 66.3541C31.0742 66.4556 30.9431 66.5307 30.7934 66.5794C30.6413 66.6234 30.4823 66.65 30.3208 66.65H28.8774V62.8024H28.1311V66.65H24.2197L25.5227 63.5307C25.3239 63.354 25.1134 63.1952 24.8888 63.0406C24.6642 62.8862 24.435 62.7542 24.1963 62.6394C23.9624 62.5247 23.7237 62.4318 23.4758 62.3701C23.2348 62.3039 22.9962 62.273 22.7576 62.273C22.5189 62.273 22.2733 62.3083 22.03 62.3701C21.7867 62.4363 21.5481 62.5245 21.3095 62.6349C21.0732 62.7451 20.8439 62.8819 20.6217 63.0366C20.4018 63.191 20.196 63.354 19.9994 63.5307L21.3165 66.65H18.7338V62.3392H17.543C17.0845 62.3392 16.6658 62.4056 16.2845 62.5336C15.9055 62.6658 15.578 62.8422 15.3089 63.0672C15.0422 63.2923 14.8293 63.566 14.6796 63.879C14.5276 64.1923 14.4527 64.5322 14.4527 64.8983C14.4527 65.3395 14.5369 65.719 14.7007 66.0322C14.8644 66.3455 15.0891 66.6011 15.3721 66.8044C15.6529 67.0073 15.9803 67.1528 16.3546 67.2499C16.7266 67.3469 17.1243 67.3954 17.5384 67.3954H17.9829V67.6118C17.9829 68.0001 17.8729 68.2825 17.6483 68.45C17.4238 68.6175 17.1103 68.7017 16.7079 68.7017C16.4786 68.7017 16.2727 68.6795 16.0903 68.6353C15.9101 68.591 15.6996 68.5162 15.4656 68.4104L15.2294 69.1293C15.5172 69.2353 15.7698 69.3149 15.9897 69.368C16.2096 69.4206 16.4295 69.447 16.6541 69.447C17.3793 69.447 17.908 69.2751 18.2402 68.9312C18.5677 68.5868 18.7338 68.1234 18.7338 67.5369V67.3954H30.3115C30.6694 67.3954 30.9899 67.3163 31.273 67.1619C31.5561 67.0073 31.7853 66.7955 31.9561 66.5352C32.1386 66.8353 32.3795 67.0646 32.693 67.2323C33.0018 67.4001 33.3714 67.4838 33.8019 67.4838C34.23 67.4838 34.6254 67.4043 34.9435 67.2499C35.257 67.0957 35.5003 66.8571 35.664 66.5307C35.7248 66.6365 35.8044 66.7427 35.8933 66.844C35.9822 66.9455 36.0992 67.0381 36.2419 67.1177C36.3822 67.2014 36.56 67.2632 36.7589 67.3116C36.9133 67.3516 37.0934 67.3692 37.2899 67.3778V67.3865H39.4445V60.7023H38.6982V66.6412L38.7076 66.6365ZM17.9946 66.6365H17.2389C16.9605 66.6365 16.6962 66.5969 16.4529 66.5221C16.2049 66.4425 15.9897 66.3324 15.8026 66.1819C15.6201 66.0322 15.4727 65.8511 15.3674 65.6352C15.2621 65.4188 15.2083 65.1673 15.2083 64.8894C15.2083 64.6115 15.2668 64.3778 15.3791 64.1525C15.4961 63.9274 15.6505 63.7379 15.8353 63.5791C16.0248 63.4202 16.2423 63.2967 16.4833 63.2085C16.7266 63.1201 16.9769 63.0761 17.2389 63.0761H17.9946V66.6323V66.6365ZM22.1002 66.6365L20.9352 63.7775C21.2229 63.5349 21.513 63.3585 21.8148 63.2481C22.1189 63.1332 22.43 63.0806 22.7576 63.0806C23.0851 63.0806 23.4243 63.1468 23.7541 63.2836C24.0816 63.4156 24.3647 63.5835 24.594 63.7819L23.4267 66.6412H22.0955L22.1002 66.6365ZM41.6224 67.3823H42.3687V60.6979H41.6224V67.3823Z" fill="#8A8A8A"/>
<path d="M99.5108 22.8677C90.3778 22.8677 83.7408 29.7592 83.7408 38.1731V38.2571C83.7408 46.671 90.2935 53.4745 99.4265 53.4745C108.562 53.4745 115.196 46.5828 115.196 38.1691V38.0851C115.196 29.6712 108.644 22.8633 99.5108 22.8633M108.386 38.2526C108.386 43.3266 104.753 47.4697 99.5108 47.4697C94.2682 47.4697 90.5485 43.2428 90.5485 38.1691V38.0851C90.5485 33.0112 94.1863 28.8683 99.4265 28.8683C104.669 28.8683 108.386 33.0949 108.386 38.1691V38.2526ZM10.6557 47.3417H21.9363V52.9671H0.0395508V47.8094L9.89311 39.7351C13.5683 36.6908 15.0047 35.089 15.0047 32.6317C15.0047 30.1742 13.3554 28.7843 11.03 28.7843C8.70467 28.7843 7.18176 30.0507 4.98507 32.7597L0.418575 29.08C3.3358 25.1047 6.16877 22.9515 11.4535 22.9515C17.5827 22.9515 21.6416 26.5474 21.6416 32.0845V32.1683C21.6416 37.1143 19.1033 39.5632 13.863 43.6223L7.39465 48.6169L6.1407 49.5873L10.6557 47.3459V47.3417ZM82.0659 43.7063V43.79C82.0659 49.3711 78.0046 53.47 71.4099 53.47C66.0831 53.47 62.4056 51.3566 59.8673 48.3563L64.3496 44.0855C66.3802 46.3664 68.495 47.6372 71.4941 47.6372C73.9458 47.6372 75.6793 46.2431 75.6793 44.0459V43.962C75.6793 41.5531 73.5224 40.1986 69.8869 40.1986H67.1826L66.1697 36.0555L75.663 26.5076L71.8591 28.9563H61.6055V23.3749H81.6003V28.2769L74.119 35.4203C78.1334 36.095 82.0659 38.2131 82.0659 43.7063Z" fill="#8A8A8A"/>
<path d="M50.3461 39.5505C50.1567 39.4403 49.8058 39.2595 49.3192 39.1051C48.622 38.88 47.6465 38.7169 46.4955 38.8978C46.1072 38.9593 45.6954 39.0608 45.272 39.2152C45.2345 39.2286 45.1925 39.2417 45.1504 39.2595C44.9328 39.339 44.7152 39.4403 44.5 39.5463C44.3152 39.6389 44.1304 39.7446 43.9503 39.8506C43.5339 40.1023 43.1198 40.3889 42.7174 40.6977C42.2636 37.9358 42.4858 35.3767 42.5888 34.1193C42.5888 34.1193 42.5981 34.1104 42.6051 34.1149C43.5783 34.7325 43.3046 36.4489 43.1034 36.9385C43.1034 36.9477 43.1104 36.9563 43.1198 36.9476C44.3339 35.5091 43.742 33.9207 43.4894 33.5192C43.487 33.5104 43.4941 33.5015 43.5034 33.5104C43.6812 33.6517 43.8216 33.8016 43.9456 33.9605C44.3199 34.4414 44.4602 34.962 44.4953 35.421C44.5187 35.6635 44.5093 35.8886 44.4953 36.0828C44.4953 36.1356 44.4883 36.1799 44.4837 36.2283C44.4837 36.2372 44.4906 36.2372 44.4953 36.2372C44.4953 36.2372 44.4953 36.2372 44.5 36.2372C44.8275 35.5929 44.9866 34.6181 44.4953 33.6694C44.3643 33.4135 44.1842 33.1576 43.9456 32.9103C43.8801 32.8399 43.8052 32.7692 43.7233 32.703C43.714 32.6944 43.7233 32.6852 43.7327 32.6852C43.8075 32.703 43.8801 32.7208 43.9456 32.7472C44.1514 32.8177 44.3362 32.919 44.4953 33.0383C44.8673 33.3117 45.1129 33.687 45.2626 34.0751C45.3866 34.3972 45.4451 34.7325 45.4451 35.024C45.4451 35.0326 45.4615 35.0371 45.4615 35.024C45.6908 34.1813 45.5551 33.5457 45.2626 33.0825C45.0614 32.7515 44.7784 32.5086 44.4953 32.3411C44.3035 32.222 44.1117 32.1427 43.9456 32.0941C43.8473 32.0634 43.7607 32.0456 43.6812 32.037C43.6672 32.037 43.6718 32.0192 43.6812 32.0192C43.7724 32.0103 43.8567 32.0059 43.9386 32.0059C44.1421 32.0059 44.3292 32.0192 44.4907 32.0501C44.8182 32.1119 45.0709 32.2263 45.2603 32.3547C45.5668 32.5617 45.7235 32.8088 45.775 32.9103C45.782 32.919 45.7984 32.9103 45.7937 32.9059C45.7493 32.4604 45.5457 32.1119 45.2603 31.8648C45.0381 31.6706 44.769 31.5382 44.4907 31.4587C44.3082 31.4058 44.121 31.3838 43.9386 31.3796C43.6929 31.3796 43.4567 31.4149 43.2531 31.5029C43.2438 31.5029 43.2344 31.4985 43.2391 31.4898C43.4192 31.2339 43.6719 31.0748 43.9386 30.991C44.1257 30.9337 44.3152 30.9162 44.4907 30.9251C44.6591 30.9337 44.8182 30.9735 44.9421 31.0308C44.9515 31.0353 44.9609 31.0219 44.9515 31.0133C44.8135 30.8542 44.6567 30.7309 44.4883 30.638C44.3105 30.5412 44.121 30.4792 43.9362 30.4574C43.4403 30.3996 42.942 30.6071 42.6075 31.119C42.6075 31.119 42.5934 31.1235 42.5888 31.119C42.5279 31.0046 42.4671 30.8764 42.4063 30.744C42.2729 30.4352 42.163 30.0866 42.1045 29.7383C42.1045 29.7292 42.0881 29.7292 42.0881 29.7383C42.0296 30.0866 41.9196 30.4352 41.7839 30.7484C41.7255 30.8809 41.6646 31.0088 41.6015 31.119C41.6015 31.119 41.5875 31.1235 41.5851 31.119C41.0026 30.2321 39.9031 30.2541 39.2411 31.0133C39.2364 31.0219 39.2411 31.0353 39.2504 31.0308C39.6949 30.8189 40.5348 30.8809 40.9535 31.4851C40.9582 31.494 40.9535 31.5029 40.9442 31.4985C40.2961 31.225 39.2902 31.4014 38.7568 32.0412C38.565 32.2707 38.4339 32.5575 38.3989 32.9014C38.3989 32.9103 38.4129 32.9147 38.4152 32.9059C38.4573 32.8265 38.5627 32.659 38.7568 32.4869C39.068 32.2132 39.6153 31.9308 40.516 32.0145C40.53 32.0145 40.53 32.0323 40.516 32.0323C40.0528 32.0896 39.1054 32.5 38.7521 33.4444C38.5977 33.8634 38.5579 34.3841 38.731 35.024C38.731 35.0371 38.7474 35.0326 38.7474 35.024C38.7474 35.0106 38.7474 34.9973 38.7474 34.9795C38.7568 34.1235 39.2457 32.9721 40.4599 32.6808C40.4669 32.6808 40.4762 32.6897 40.4669 32.6986C39.1147 33.8898 39.2457 35.3634 39.6902 36.2325C39.6902 36.2414 39.7089 36.2372 39.7089 36.2325C39.6528 35.5751 39.6037 34.4017 40.6891 33.5192C40.6985 33.5148 40.7102 33.5192 40.7032 33.5279C40.4552 33.9296 39.8587 35.5178 41.0728 36.9563C41.0775 36.9652 41.0938 36.9563 41.0892 36.9476C40.888 36.4578 40.6143 34.7414 41.5875 34.1235C41.5922 34.1235 41.6015 34.1235 41.6062 34.1282C41.7114 35.3856 41.9337 37.9447 41.4799 40.7066C40.6915 40.1066 39.868 39.5772 39.0469 39.2681C38.9463 39.2286 38.848 39.1933 38.7474 39.1624C37.9052 38.8845 37.1286 38.8049 36.4525 38.836C35.367 38.88 34.5389 39.2064 34.085 39.4361C33.9914 39.4845 33.9166 39.524 33.8558 39.5594C33.8324 39.5771 33.8488 39.6078 33.8768 39.5991C33.947 39.5771 34.0172 39.5594 34.085 39.5374C34.9178 39.3034 35.7085 39.2375 36.4525 39.3034C37.2689 39.3743 38.0339 39.5991 38.7474 39.9213C39.7533 40.3714 40.6634 41.0199 41.4799 41.7037C40.3219 42.7141 39.3416 43.698 38.7474 44.0421C38.717 44.0597 38.6889 44.0775 38.6609 44.0908C38.5182 43.8964 38.2702 43.782 37.9965 43.8438C37.7625 43.8964 37.5731 44.0819 37.5169 44.3156C37.4678 44.5273 37.5262 44.7524 37.6409 44.8673C37.959 45.185 38.324 45.2069 38.7428 45.0306C39.5452 44.6951 40.5418 43.6318 41.77 42.5068C41.8705 42.4142 41.9781 42.3215 42.0787 42.2242C42.184 42.3168 42.2869 42.4095 42.3875 42.5026C42.9419 43.0142 43.4496 43.5083 43.9128 43.9317C44.1046 44.1039 44.2894 44.2672 44.4649 44.4127C44.7386 44.638 44.996 44.8186 45.2346 44.9466C45.7048 45.1936 46.1072 45.2245 46.4557 44.9201C46.4721 44.9026 46.4955 44.8892 46.5119 44.8673C46.5914 44.7877 46.685 44.5231 46.6359 44.3156C46.6101 44.1965 46.5423 44.0861 46.4557 44.0024C46.3715 43.9231 46.2686 43.8655 46.1563 43.8438C45.885 43.782 45.6393 43.8964 45.4919 44.0908C45.4124 44.0508 45.3258 43.9979 45.2299 43.9317C45.0077 43.7773 44.7527 43.5656 44.4602 43.3097C44.2895 43.16 44.1046 42.992 43.9104 42.8156C43.5315 42.4715 43.1151 42.0923 42.6729 41.7081C43.0613 41.3818 43.4777 41.0641 43.9104 40.7728C44.0906 40.6491 44.2754 40.5344 44.4602 40.4198C44.7082 40.2741 44.9679 40.133 45.2299 40.0095C45.6206 39.8197 46.0277 39.6609 46.4511 39.5374C47.3237 39.2903 48.2641 39.2021 49.2747 39.3608C49.6022 39.4139 49.9368 39.4887 50.2807 39.5991C50.3064 39.6078 50.3251 39.5729 50.304 39.5594" fill="#8A8A8A"/>
<path d="M42.1162 54.4688L40.2657 56.3213L42.1162 58.1751L43.969 56.3225L42.1162 54.4688Z" fill="#8A8A8A"/>
<path d="M27.1953 43.832L26.5239 45.8968L28.5896 46.5668L29.2586 44.502L27.1953 43.832Z" fill="#8A8A8A"/>
<path d="M33.2241 25.7109L32.9434 27.4889L34.7213 27.7708L35.002 25.9928L33.2241 25.7109Z" fill="#8A8A8A"/>
<path d="M55.9865 36.6924L54.7139 37.9655L55.9865 39.2381L57.2592 37.9655L55.9865 36.6924Z" fill="#8A8A8A"/>
<path d="M54.9032 32.4561L54.0868 34.06L55.6893 34.8773L56.5057 33.2734L54.9032 32.4561Z" fill="#8A8A8A"/>
<path d="M34.7098 48.1611L32.9294 48.443L33.2125 50.221L34.9905 49.9391L34.7098 48.1611Z" fill="#8A8A8A"/>
<path d="M51.0151 25.708L49.2395 25.9908L49.5202 27.7686L51.2982 27.4857L51.0151 25.708Z" fill="#8A8A8A"/>
<path d="M38.2163 49.9365L36.6138 50.7539L37.4302 52.3578L39.0351 51.5407L38.2163 49.9365Z" fill="#8A8A8A"/>
<path d="M42.1092 22.8135L40.8389 24.0863L42.1092 25.3592L43.3842 24.0863L42.1092 22.8135Z" fill="#8A8A8A"/>
<path d="M40.0576 25L39.1803 26.2067L40.3874 27.083L41.2647 25.8763L40.0576 25Z" fill="#8A8A8A"/>
<path d="M43.8308 48.8262L42.9535 50.0328L44.1607 50.9092L45.0356 49.7025L43.8308 48.8262Z" fill="#8A8A8A"/>
<path d="M31.8392 31.5361L30.4238 31.9954L30.8847 33.414L32.2977 32.9548L31.8392 31.5361Z" fill="#8A8A8A"/>
<path d="M53.3383 42.4902L51.923 42.9492L52.3815 44.3676L53.7968 43.9089L53.3383 42.4902Z" fill="#8A8A8A"/>
<path d="M30.026 38.7969L29.1487 40.0035L30.3559 40.8799L31.2308 39.6732L30.026 38.7969Z" fill="#8A8A8A"/>
<path d="M60.1388 41.8857L57.7994 43.0779L58.9902 45.4129L61.3296 44.2207L60.1388 41.8857Z" fill="#8A8A8A"/>
<path d="M32.4168 51.2881L29.8271 51.6977L30.2366 54.2907L32.8263 53.8811L32.4168 51.2881Z" fill="#8A8A8A"/>
<path d="M53.9887 21.6162L51.399 22.0261L51.8108 24.6191L54.3981 24.209L53.9887 21.6162Z" fill="#8A8A8A"/>
<path d="M26.1194 38.9502L24.8444 40.7064L26.5989 41.9821L27.8763 40.2256L26.1194 38.9502Z" fill="#8A8A8A"/>
<path d="M37.4421 23.5635L36.6233 25.1671L38.2258 25.9852L39.0446 24.3816L37.4421 23.5635Z" fill="#8A8A8A"/>
<path d="M29.3102 32.4561L27.7054 33.2734L28.5242 34.8773L30.129 34.06L29.3102 32.4561Z" fill="#8A8A8A"/>
<path d="M42.1092 50.5605L40.8389 51.8337L42.1092 53.1065L43.3842 51.8337L42.1092 50.5605Z" fill="#8A8A8A"/>
<path d="M52.3627 31.5342L51.9019 32.9528L53.3172 33.4113L53.7757 31.9927L52.3627 31.5342Z" fill="#8A8A8A"/>
<path d="M34.3305 45.7461H32.8402V47.2375H34.3305V45.7461Z" fill="#8A8A8A"/>
<path d="M25.2398 30.543L22.9004 31.7347L24.0912 34.0699L26.4282 32.8782L25.2398 30.543Z" fill="#8A8A8A"/>
<path d="M24.1029 41.876L22.9121 44.2107L25.2492 45.4036L26.4423 43.0691L24.1029 41.876Z" fill="#8A8A8A"/>
<path d="M34.1762 22.3818L33.5071 24.4466L35.5705 25.1171L36.2419 23.0523L34.1762 22.3818Z" fill="#8A8A8A"/>
<path d="M48.6641 50.8135L47.9927 52.878L50.056 53.5487L50.7274 51.4842L48.6641 50.8135Z" fill="#8A8A8A"/>
<path d="M57.018 43.8154L54.9523 44.4871L55.6261 46.5516L57.6918 45.8793L57.018 43.8154Z" fill="#8A8A8A"/>
<path d="M58.1012 38.9238L56.3467 40.2004L57.624 41.9559L59.3785 40.6791L58.1012 38.9238Z" fill="#8A8A8A"/>
<path d="M55.6309 29.3516L54.9618 31.4161L57.0252 32.0866L57.6943 30.022L55.6309 29.3516Z" fill="#8A8A8A"/>
<path d="M54.4775 25.5967H52.3065V27.7674H54.4775V25.5967Z" fill="#8A8A8A"/>
<path d="M35.5659 50.8066L33.5002 51.4771L34.1716 53.5416L36.2373 52.8712L35.5659 50.8066Z" fill="#8A8A8A"/>
<path d="M44.3783 52.2188L43.0986 53.974L44.8555 55.2511L46.1328 53.4956L44.3783 52.2188Z" fill="#8A8A8A"/>
<path d="M28.5264 41.0439L27.71 42.6478L29.3124 43.4652L30.1312 41.8611L28.5264 41.0439Z" fill="#8A8A8A"/>
<path d="M34.3259 28.6846H32.8357V30.1759H34.3259V28.6846Z" fill="#8A8A8A"/>
<path d="M30.3676 35.043L29.1604 35.9193L30.0377 37.126L31.2449 36.2496L30.3676 35.043Z" fill="#8A8A8A"/>
<path d="M48.0699 26.2891L46.6499 26.749L47.1107 28.1676L48.5307 27.7077L48.0699 26.2891Z" fill="#8A8A8A"/>
<path d="M44.1677 25.0098L42.9606 25.8861L43.8378 27.0928L45.045 26.2164L44.1677 25.0098Z" fill="#8A8A8A"/>
<path d="M51.1112 43.4189L49.8923 43.614L50.0865 44.8338L51.3077 44.6389L51.1112 43.4189Z" fill="#8A8A8A"/>
<path d="M52.6132 37.1035L51.7406 37.9775L52.6155 38.8506L53.4882 37.9768L52.6132 37.1035Z" fill="#8A8A8A"/>
<path d="M59.0019 30.543L57.8112 32.8777L60.1506 34.0706L61.3413 31.7361L59.0019 30.543Z" fill="#8A8A8A"/>
<path d="M54.4775 48.1543H52.3065V50.3253H54.4775V48.1543Z" fill="#8A8A8A"/>
<path d="M28.5921 29.3496L26.5264 30.0201L27.1978 32.0846L29.2635 31.4144L28.5921 29.3496Z" fill="#8A8A8A"/>
<path d="M50.0515 22.3789L47.9882 23.0494L48.6573 25.1139L50.7229 24.4434L50.0515 22.3789Z" fill="#8A8A8A"/>
<path d="M39.3884 20.6982L38.1111 22.4537L39.8656 23.7306L41.1429 21.9751L39.3884 20.6982Z" fill="#8A8A8A"/>
<path d="M55.6965 41.0283L54.0917 41.8457L54.9081 43.4498L56.513 42.6322L55.6965 41.0283Z" fill="#8A8A8A"/>
<path d="M28.2387 36.6924L26.9661 37.9653L28.2387 39.2381L29.5113 37.9653L28.2387 36.6924Z" fill="#8A8A8A"/>
<path d="M54.1968 38.8145L52.9873 39.6908L53.8646 40.8975L55.0718 40.0214L54.1968 38.8145Z" fill="#8A8A8A"/>
<path d="M37.1121 47.7568L35.692 48.2172L36.1506 49.6356L37.5706 49.1755L37.1121 47.7568Z" fill="#8A8A8A"/>
<path d="M42.1139 47.5791L41.2389 48.4526L42.1139 49.3262L42.9864 48.4526L42.1139 47.5791Z" fill="#8A8A8A"/>
<path d="M35.4323 28.7646L35.2382 29.9849L36.4593 30.1788L36.6512 28.9588L35.4323 28.7646Z" fill="#8A8A8A"/>
<path d="M31.8697 40.373L31.3105 41.474L32.4101 42.0345L32.9715 40.9336L31.8697 40.373Z" fill="#8A8A8A"/>
<path d="M31.9139 25.5967H29.7429V27.7674H31.9139V25.5967Z" fill="#8A8A8A"/>
<path d="M44.8391 20.6729L43.0846 21.9485L44.3596 23.7047L46.1141 22.4293L44.8391 20.6729Z" fill="#8A8A8A"/>
<path d="M46.0137 49.9541L45.1973 51.558L46.8021 52.3752L47.6186 50.7713L46.0137 49.9541Z" fill="#8A8A8A"/>
<path d="M30.1477 45.0879L29.8669 46.8658L31.6426 47.148L31.9256 45.3698L30.1477 45.0879Z" fill="#8A8A8A"/>
<path d="M52.585 28.7734L52.3019 30.5514L54.0798 30.8342L54.3629 29.0565L52.585 28.7734Z" fill="#8A8A8A"/>
<path d="M51.3872 45.7461H49.897V47.2375H51.3872V45.7461Z" fill="#8A8A8A"/>
<path d="M53.8552 35.0273L52.9779 36.2342L54.1851 37.1106L55.0624 35.9037L53.8552 35.0273Z" fill="#8A8A8A"/>
<path d="M40.3942 48.8398L39.1871 49.7162L40.0621 50.9229L41.2692 50.0465L40.3942 48.8398Z" fill="#8A8A8A"/>
<path d="M38.614 27.1641L38.0525 28.265L39.1544 28.8255L39.7135 27.7246L38.614 27.1641Z" fill="#8A8A8A"/>
<path d="M45.0963 47.1172L44.5349 48.2184L45.6367 48.7789L46.1982 47.6779L45.0963 47.1172Z" fill="#8A8A8A"/>
<path d="M47.7633 45.7422L47.5692 46.9624L48.7904 47.1564L48.9845 45.9364L47.7633 45.7422Z" fill="#8A8A8A"/>
<path d="M32.4123 33.8984L31.3127 34.4599L31.8718 35.5604L32.9737 34.9984L32.4123 33.8984Z" fill="#8A8A8A"/>
<path d="M52.3602 40.373L51.2607 40.934L51.8222 42.0347L52.9217 41.4733L52.3602 40.373Z" fill="#8A8A8A"/>
<path d="M33.1024 43.4189L32.9105 44.6392L34.1293 44.8329L34.3235 43.6131L33.1024 43.4189Z" fill="#8A8A8A"/>
<path d="M48.7926 28.7695L47.5714 28.9635L47.7656 30.1832L48.9868 29.9895L48.7926 28.7695Z" fill="#8A8A8A"/>
<path d="M39.1475 47.126L38.0457 47.6856L38.6071 48.7867L39.7066 48.2271L39.1475 47.126Z" fill="#8A8A8A"/>
<path d="M30.2345 21.6143L29.8204 24.207L32.4101 24.6178L32.8219 22.0251L30.2345 21.6143Z" fill="#8A8A8A"/>
<path d="M51.8081 51.3018L51.3964 53.8948L53.9861 54.3049L54.3955 51.7119L51.8081 51.3018Z" fill="#8A8A8A"/>
<path d="M42.1068 17.7607L40.254 19.614L42.1068 21.4673L43.9597 19.614L42.1068 17.7607Z" fill="#8A8A8A"/>
<path d="M26.5989 33.96L24.8444 35.2356L26.1194 36.9921L27.8739 35.7162L26.5989 33.96Z" fill="#8A8A8A"/>
<path d="M57.6192 33.9424L56.3442 35.6983L58.1011 36.9745L59.3761 35.2183L57.6192 33.9424Z" fill="#8A8A8A"/>
<path d="M31.9163 48.1543H29.7454V50.3253H31.9163V48.1543Z" fill="#8A8A8A"/>
<path d="M39.8516 52.1885L38.0947 53.4639L39.3744 55.2241L41.1313 53.9484L39.8516 52.1885Z" fill="#8A8A8A"/>
<path d="M49.5086 48.1504L49.2233 49.9281L51.0012 50.2121L51.2866 48.4342L49.5086 48.1504Z" fill="#8A8A8A"/>
<path d="M31.6381 28.7695L29.8601 29.0514L30.1432 30.8291L31.9211 30.5475L31.6381 28.7695Z" fill="#8A8A8A"/>
<path d="M54.0844 45.0908L52.3065 45.3734L52.5896 47.1514L54.3675 46.8683L54.0844 45.0908Z" fill="#8A8A8A"/>
<path d="M46.7902 23.5615L45.1877 24.3798L46.0065 25.9833L47.609 25.165L46.7902 23.5615Z" fill="#8A8A8A"/>
<path d="M36.1693 26.2773L35.7108 27.6962L37.1308 28.1557L37.587 26.7366L36.1693 26.2773Z" fill="#8A8A8A"/>
<path d="M47.1248 47.7773L46.6663 49.196L48.084 49.6561L48.5448 48.2377L47.1248 47.7773Z" fill="#8A8A8A"/>
<path d="M30.8708 42.4883L30.4099 43.9069L31.8229 44.3654L32.2838 42.9466L30.8708 42.4883Z" fill="#8A8A8A"/>
<path d="M51.3872 28.6846H49.897V30.1759H51.3872V28.6846Z" fill="#8A8A8A"/>
<path d="M42.1138 26.6016L41.2435 27.4721L42.1138 28.3423L42.984 27.4721L42.1138 26.6016Z" fill="#8A8A8A"/>
<path d="M34.1389 31.0928L32.9177 31.2865L33.1118 32.5067L34.333 32.3128L34.1389 31.0928Z" fill="#8A8A8A"/>
<path d="M31.624 37.0898L30.7513 37.9636L31.624 38.8369L32.4989 37.9636L31.624 37.0898Z" fill="#8A8A8A"/>
<path d="M51.834 33.8984L51.2725 34.9996L52.3743 35.5594L52.9335 34.4583L51.834 33.8984Z" fill="#8A8A8A"/>
<path d="M50.0794 31.0859L49.8853 32.3059L51.1064 32.4999L51.2983 31.2796L50.0794 31.0859Z" fill="#8A8A8A"/>
<path d="M36.457 45.7441L35.2382 45.9378L35.43 47.1578L36.6512 46.9641L36.457 45.7441Z" fill="#8A8A8A"/>
<path d="M45.6252 27.1504L44.5256 27.7114L45.0848 28.8121L46.1867 28.2513L45.6252 27.1504Z" fill="#8A8A8A"/>
</svg>
