<svg width="186" height="66" viewBox="0 0 186 66" fill="none" xmlns="http://www.w3.org/2000/svg">
<path d="M5.35517 25.6227H34.2798V20.8082C34.2798 19.4233 33.9261 18.3475 33.2154 17.5797C32.5046 16.8118 31.4301 16.4277 29.9819 16.4277C28.4202 16.4277 27.2055 16.8749 26.3379 17.7682C25.4703 18.6622 25.0365 19.757 25.0365 21.0538C25.0365 22.3498 25.3869 23.2565 26.0977 23.7727L25.9842 23.7534C25.9074 23.7283 25.784 23.703 25.6071 23.6779C25.4336 23.6529 25.2367 23.6399 25.0365 23.6399H9.29611V17.0951L8.79889 16.9253C8.47187 16.8118 7.968 16.6984 7.30395 16.5916C6.63989 16.4845 5.97251 16.4277 5.29845 16.4277C3.65 16.4277 2.39861 16.8872 1.54769 17.8062C0.700105 18.7252 0.269653 19.8578 0.269653 21.2046C0.269653 24.1501 1.9615 25.6227 5.3485 25.6227H5.35517ZM28.1399 19.1213C28.5403 18.6435 29.0942 18.4106 29.7916 18.4106C31.1531 18.4106 31.8305 19.3105 31.8305 21.1102V23.6399H30.3856C29.4079 23.6399 28.6838 23.4197 28.2266 22.9859C27.7595 22.545 27.5359 21.878 27.5359 20.9783C27.5359 20.2165 27.7328 19.5998 28.1399 19.1213ZM3.39972 19.1213C3.80016 18.6435 4.35407 18.4106 5.0515 18.4106C5.75226 18.4106 6.37963 18.5237 6.86015 18.7503V23.6399H5.63878C3.73672 23.6399 2.7824 22.7526 2.7824 20.9783C2.7824 20.2165 2.98261 19.5998 3.39305 19.1213H3.39972Z" fill="#8A8A8A"/>
<path d="M3.54988 15.3816C3.9036 15.3816 4.19727 15.2621 4.43753 15.0228C4.67446 14.7839 4.79121 14.4879 4.79121 14.1479C4.79121 13.8082 4.66774 13.4998 4.43081 13.2606C4.19055 13.028 3.89692 12.9082 3.55655 12.9082C3.21619 12.9082 2.91922 13.0343 2.6823 13.2796C2.44204 13.5252 2.3219 13.8149 2.3219 14.1479C2.3219 14.4819 2.44199 14.7839 2.67557 15.0228C2.90916 15.2621 3.20286 15.3816 3.55991 15.3816H3.54988Z" fill="#8A8A8A"/>
<path d="M6.58971 15.3816C6.93008 15.3816 7.22376 15.2558 7.46402 15.0102C7.70428 14.7652 7.82442 14.4752 7.82442 14.1419C7.82442 13.8082 7.69762 13.5062 7.45068 13.2669C7.20709 13.028 6.91674 12.9082 6.58304 12.9082C6.24935 12.9082 5.94571 13.0343 5.70878 13.2796C5.46852 13.5252 5.34839 13.8149 5.34839 14.1479C5.34839 14.4819 5.46852 14.7839 5.70878 15.0228C5.94571 15.2621 6.24267 15.3816 6.58304 15.3816H6.58971Z" fill="#8A8A8A"/>
<path d="M49.0525 15.5124C49.4028 15.5124 49.7132 15.3806 49.9768 15.1223C50.2338 14.8643 50.3673 14.556 50.3673 14.1973C50.3673 13.8385 50.2338 13.5365 49.9768 13.2723C49.7165 13.014 49.4095 12.8818 49.0525 12.8818C48.6921 12.8818 48.3917 13.014 48.1247 13.2723C47.8678 13.5302 47.7377 13.8385 47.7377 14.1973C47.7377 14.556 47.8678 14.858 48.1247 15.1223C48.385 15.3806 48.6921 15.5124 49.0525 15.5124Z" fill="#8A8A8A"/>
<path d="M48.4986 16.5658C47.6844 16.5658 46.8969 16.6352 46.1394 16.7737V18.7308C46.8969 18.6053 47.611 18.5423 48.2717 18.5423C49.6065 18.5423 50.5542 18.8376 51.1282 19.4356C51.7022 20.0335 51.9858 20.9525 51.9858 22.1989C51.9858 22.6581 51.9524 23.1366 51.889 23.6461H44.471C44.3575 21.5755 43.7769 19.9581 42.7257 18.7812C41.6813 17.6106 40.1462 16.7546 38.1307 16.2197L37.5201 18.3153C39.0083 18.6931 40.1096 19.3224 40.8337 20.197C41.5545 21.072 41.9449 22.2239 42.0149 23.6398H36.3822V25.6223H54.1615C54.375 24.3259 54.4818 23.1553 54.4818 22.1041C54.4818 20.2411 54.0113 18.8503 53.0669 17.9376C52.1226 17.0253 50.601 16.5658 48.5087 16.5658H48.4986Z" fill="#8A8A8A"/>
<path d="M68.5306 27.2567C68.2836 27.0174 67.9766 26.8916 67.6062 26.8916C67.2325 26.8916 66.9321 27.0174 66.6785 27.263C66.4349 27.5086 66.3081 27.8166 66.3081 28.188C66.3081 28.5591 66.4349 28.8617 66.6785 29.1133C66.9254 29.3589 67.2325 29.4844 67.6062 29.4844C67.9766 29.4844 68.2803 29.3589 68.5306 29.1133C68.7742 28.8677 68.9009 28.5591 68.9009 28.188C68.9009 27.8166 68.7742 27.4959 68.5306 27.2567Z" fill="#8A8A8A"/>
<path d="M61.6629 30.6572C62.5806 31.3623 63.942 31.7147 65.7473 31.7147L65.9175 29.7322C64.893 29.7322 64.1122 29.537 63.5783 29.1532C63.0411 28.7631 62.7775 28.2846 62.7775 27.7187C62.7775 26.3211 63.9688 25.6227 66.358 25.6227H81.8915V20.8082C81.8915 19.4233 81.5378 18.3475 80.827 17.5797C80.1163 16.8118 79.0418 16.4277 77.5902 16.4277C76.0318 16.4277 74.8172 16.8749 73.9496 17.7682C73.0786 18.6622 72.6448 19.757 72.6448 21.0538C72.6448 22.3498 72.9986 23.2565 73.7093 23.7727L73.5959 23.7534C73.5191 23.7283 73.3957 23.703 73.2188 23.6779C73.0419 23.6529 72.8451 23.6399 72.6448 23.6399H70.2656C70.3156 23.143 70.3423 22.6331 70.3423 22.0982C70.3423 20.2355 69.8684 18.8444 68.9241 17.932C67.9831 17.0194 66.4614 16.5599 64.3692 16.5599C63.6317 16.5599 62.8208 16.6166 61.9332 16.7301V18.6872C62.684 18.5864 63.4115 18.536 64.1222 18.536C65.4603 18.536 66.4081 18.832 66.9887 19.43C67.566 20.0276 67.8563 20.9463 67.8563 22.1927C67.8563 22.6518 67.8229 23.1304 67.7595 23.6399H66.4648C64.3825 23.6399 62.8342 24.0303 61.8231 24.8045C60.8053 25.5783 60.2981 26.5985 60.2981 27.8695C60.2981 29.0211 60.7586 29.9524 61.6762 30.6572H61.6629ZM75.7348 19.1213C76.1386 18.6435 76.6926 18.4106 77.39 18.4106C78.7515 18.4106 79.4322 19.3105 79.4322 21.1102V23.6399H77.9806C77.0096 23.6399 76.2821 23.4197 75.825 22.9859C75.3578 22.545 75.1309 21.878 75.1309 20.9783C75.1309 20.2165 75.3344 19.5998 75.7415 19.1213H75.7348Z" fill="#8A8A8A"/>
<path d="M92.3131 15.5124C92.6635 15.5124 92.9739 15.3806 93.2375 15.1223C93.4944 14.8643 93.6279 14.556 93.6279 14.1973C93.6279 13.8385 93.4944 13.5365 93.2375 13.2723C92.9805 13.014 92.6702 12.8818 92.3131 12.8818C91.9527 12.8818 91.6524 13.014 91.3855 13.2723C91.1285 13.5302 90.9984 13.8385 90.9984 14.1973C90.9984 14.556 91.1285 14.858 91.3855 15.1223C91.6458 15.3806 91.9527 15.5124 92.3131 15.5124Z" fill="#8A8A8A"/>
<path d="M89.0962 25.622H93.5643V16.679H91.055V23.6455H89.0962H88.8092H87.134V12.2041H84.6213V25.622H88.8092H89.0962Z" fill="#8A8A8A"/>
<path d="M97.8188 30.0649C98.4629 29.8066 98.9467 29.4419 99.2738 28.9701C99.6008 28.4979 99.8311 28.007 99.9679 27.4848C100.098 26.9626 100.168 26.3706 100.168 25.6975V25.6218H106.145V16.6787H103.635V23.6456H100.175V16.6787H97.662V25.8357C97.662 26.8114 97.4918 27.5035 97.1481 27.9002C96.8044 28.303 96.2906 28.4979 95.6032 28.4979C95.0926 28.4979 94.5854 28.4225 94.0615 28.2713L93.8746 30.2665C94.3819 30.3923 94.9124 30.455 95.473 30.455C96.3974 30.455 97.1848 30.3229 97.8188 30.0649Z" fill="#8A8A8A"/>
<path d="M103.855 27.2695C103.608 27.5151 103.485 27.8238 103.485 28.1948C103.485 28.5663 103.608 28.8682 103.855 29.1198C104.102 29.3654 104.409 29.4916 104.78 29.4916C105.15 29.4916 105.454 29.3654 105.707 29.1198C105.951 28.8749 106.074 28.5663 106.074 28.1948C106.074 27.8238 105.951 27.5028 105.707 27.2635C105.46 27.0242 105.15 26.8984 104.78 26.8984C104.409 26.8984 104.106 27.0242 103.855 27.2695Z" fill="#8A8A8A"/>
<path d="M4.18726 41.3924C3.92698 41.6503 3.79688 41.9587 3.79688 42.3174C3.79688 42.6761 3.92698 42.9784 4.18726 43.2424C4.44421 43.507 4.75123 43.6325 5.11162 43.6325C5.46868 43.6325 5.76898 43.5003 6.03593 43.2424C6.29288 42.9848 6.42637 42.6761 6.42637 42.3174C6.42637 41.9587 6.29288 41.6567 6.03593 41.3924C5.77565 41.1341 5.46868 41.002 5.11162 41.002C4.75123 41.002 4.44754 41.1341 4.18726 41.3924Z" fill="#8A8A8A"/>
<path d="M32.5648 42.2359C31.6171 41.3236 30.0955 40.8644 28.0065 40.8644C27.1923 40.8644 26.4081 40.9335 25.6473 41.072V43.0291C26.4081 42.903 27.1189 42.8406 27.7797 42.8406C29.1144 42.8406 30.0655 43.1362 30.6361 43.7339C31.21 44.3318 31.4937 45.2508 31.4937 46.4965C31.4937 46.9564 31.4603 47.4342 31.3969 47.9444H23.5183V45.1063C23.5183 43.7215 23.1646 42.6453 22.4539 41.8775C21.7431 41.1097 20.6686 40.7256 19.2204 40.7256C17.662 40.7256 16.444 41.1724 15.5764 42.0664C14.7088 42.96 14.275 44.0552 14.275 45.3513C14.275 46.289 14.1081 46.9564 13.7878 47.3465C13.4675 47.7429 13.0003 47.9381 12.393 47.9381H10.5844V40.9712H8.07497V48.7186C8.07497 50.0277 7.84802 50.9527 7.40087 51.5063C6.94705 52.0602 6.28636 52.3312 5.41207 52.3312C4.6379 52.3312 3.99723 52.0539 3.48 51.4936C2.96277 50.9337 2.70579 49.99 2.70579 48.6552C2.70579 47.4155 2.88266 46.1949 3.23972 44.9989L0.63354 45.4774C0.346563 46.61 0.196411 47.7429 0.196411 48.8821C0.196411 50.7198 0.633589 52.0856 1.51788 52.9662C2.39884 53.8475 3.62349 54.2883 5.19852 54.2883C8.34527 54.2883 10.1072 52.8281 10.4909 49.9076H12.6633C14.0848 49.9076 14.9858 49.417 15.3628 48.4416C15.7399 48.9388 16.2305 49.3036 16.8278 49.5428C17.4251 49.7821 18.3561 49.9016 19.6308 49.9016H33.676C33.8896 48.6051 33.9964 47.4342 33.9964 46.3837C33.9964 44.5207 33.5259 43.1299 32.5815 42.2172L32.5648 42.2359ZM21.059 47.9444H19.6108C18.6331 47.9444 17.9123 47.7242 17.4518 47.2897C16.988 46.8489 16.761 46.1818 16.761 45.2822C16.761 44.5207 16.9613 43.9037 17.3717 43.4255C17.7721 42.9473 18.326 42.7144 19.0235 42.7144C20.3849 42.7144 21.0624 43.6144 21.0624 45.4143V47.9444H21.059Z" fill="#8A8A8A"/>
<path d="M43.6267 47.9496H40.1629V40.983H37.6536V50.1396C37.6536 51.115 37.4834 51.8071 37.1363 52.2042C36.7993 52.607 36.2821 52.8018 35.5946 52.8018C35.0874 52.8018 34.5769 52.7261 34.0563 52.5753L33.8661 54.5704C34.3766 54.6962 34.9039 54.759 35.4645 54.759C36.3888 54.759 37.1764 54.6268 37.8104 54.3689C38.4511 54.1106 38.9383 53.7455 39.2653 53.274C39.5923 52.8018 39.8259 52.311 39.9561 51.7884C40.0895 51.2665 40.1596 50.6745 40.1596 50.0015V49.9257H46.1394V36.5078H43.6267V47.9496Z" fill="#8A8A8A"/>
<path d="M51.6958 36.5078H49.1831V49.9257H51.6958V36.5078Z" fill="#8A8A8A"/>
<path d="M69.9454 40.7314C68.5105 40.7314 67.3459 41.1783 66.455 42.0656C65.5607 42.9529 65.1135 44.0921 65.1135 45.4703C65.1135 46.5968 65.3905 47.4277 65.9511 47.9436H65.3405C63.8155 47.9436 62.7142 47.6286 62.0368 46.9932C61.3561 46.3579 61.0157 45.3631 61.0157 44.004C61.0157 42.8397 61.236 41.7886 61.6832 40.8636L58.9835 41.3041C58.6565 42.204 58.4863 43.1981 58.4863 44.2933C58.4863 46.1183 59.0269 47.5158 60.1148 48.4785C61.196 49.4416 62.9845 49.9261 65.4705 49.9261H69.525C70.9465 49.9261 72.1111 49.4796 73.0188 48.5916C73.9231 47.7044 74.3769 46.5654 74.3769 45.1679C74.3769 43.6953 73.9865 42.5878 73.2056 41.8453C72.4248 41.1025 71.3369 40.7314 69.9388 40.7314H69.9454ZM71.2602 47.2575C70.8664 47.717 70.3626 47.9436 69.7386 47.9436C68.327 47.9436 67.6229 47.05 67.6229 45.2627C67.6229 44.4255 67.8298 43.7901 68.2536 43.362C68.674 42.9342 69.1779 42.7139 69.7752 42.7139C71.16 42.7139 71.8508 43.5759 71.8508 45.3004C71.8508 46.15 71.6573 46.8044 71.2602 47.2575Z" fill="#8A8A8A"/>
<path d="M69.7953 39.82C70.1456 39.82 70.456 39.6882 70.7196 39.4299C70.9799 39.1723 71.11 38.8636 71.11 38.5049C71.11 38.1462 70.9799 37.8442 70.7196 37.5795C70.4627 37.3216 70.1523 37.1895 69.7953 37.1895C69.4349 37.1895 69.1345 37.3216 68.8709 37.5795C68.6106 37.8378 68.4805 38.1462 68.4805 38.5049C68.4805 38.8636 68.6106 39.1656 68.8709 39.4299C69.1279 39.6882 69.4349 39.82 69.7953 39.82Z" fill="#8A8A8A"/>
<path d="M91.9492 51.3179C91.6089 51.3179 91.3119 51.4373 91.0716 51.6766C90.8347 51.9158 90.7145 52.2115 90.7145 52.5515C90.7145 52.8912 90.8347 53.1869 91.0716 53.4261C91.3119 53.6654 91.6089 53.7849 91.9492 53.7849C92.2863 53.7849 92.5832 53.6591 92.8235 53.4138C93.0604 53.1682 93.1805 52.8789 93.1805 52.5452C93.1805 52.2115 93.0537 51.9092 92.8102 51.6702C92.5632 51.431 92.2729 51.3115 91.9425 51.3115L91.9492 51.3179Z" fill="#8A8A8A"/>
<path d="M88.9026 51.3179C88.5623 51.3179 88.2653 51.4373 88.0284 51.6766C87.7881 51.9158 87.668 52.2115 87.668 52.5515C87.668 52.8912 87.7881 53.1869 88.0284 53.4261C88.2653 53.6654 88.5623 53.7849 88.9026 53.7849C89.243 53.7849 89.5367 53.6591 89.777 53.4138C90.0172 53.1682 90.134 52.8789 90.134 52.5452C90.134 52.2115 90.0106 51.9092 89.7636 51.6702C89.52 51.431 89.2297 51.3115 88.896 51.3115L88.9026 51.3179Z" fill="#8A8A8A"/>
<path d="M105.748 41.877C105.064 41.1152 104.069 40.7375 102.761 40.7375C101.72 40.7375 100.759 41.0461 99.8779 41.6691C98.9969 42.2918 98.3563 43.1604 97.9459 44.2746H97.9057C98.0592 43.4624 98.136 42.5247 98.136 41.4549V40.9767H95.6233V47.9436H91.7024V40.9767H89.193V47.9436H85.2721V41.3985L84.7748 41.2287C84.4478 41.1152 83.9406 41.0017 83.2833 40.895C82.6125 40.7878 81.9485 40.7314 81.2745 40.7314C79.626 40.7314 78.3712 41.1906 77.5236 42.1093C76.6727 43.0286 76.2456 44.1612 76.2456 45.5083C76.2456 48.4535 77.9374 49.9261 81.3245 49.9261H82.8295V50.2094C82.8295 51.8959 81.7349 52.7392 79.5392 52.7392C78.5481 52.7392 77.5537 52.6324 76.566 52.4181L76.4159 54.476L76.8363 54.5328C77.1032 54.5835 77.4803 54.6272 77.9575 54.6649C78.4413 54.7026 78.8885 54.7216 79.3089 54.7216C81.3311 54.7216 82.8228 54.2812 83.8038 53.4002C84.7816 52.5189 85.2721 51.3737 85.2721 49.9638V49.9261H100.956C102.961 49.9261 104.426 49.4793 105.374 48.5916C106.312 47.7044 106.782 46.5211 106.782 45.0551C106.782 43.6953 106.442 42.6382 105.754 41.877H105.748ZM82.8327 47.95H81.6148C79.7127 47.95 78.7584 47.0627 78.7584 45.2881C78.7584 44.5262 78.9585 43.9096 79.3656 43.4314C79.7694 42.9529 80.3234 42.7199 81.0208 42.7199C81.7215 42.7199 82.3523 42.8334 82.8295 43.0596L82.8327 47.95ZM103.535 47.2198C103.081 47.7107 102.3 47.95 101.186 47.95H98.1226C98.3229 46.5528 98.8134 45.3378 99.5943 44.2933C100.375 43.2548 101.263 42.7326 102.25 42.7326C103.559 42.7326 104.209 43.5572 104.209 45.2056C104.209 46.0556 103.982 46.7226 103.535 47.2135V47.2198Z" fill="#8A8A8A"/>
<path d="M101.249 37.5851C100.992 37.8434 100.859 38.1517 100.859 38.5104C100.859 38.8688 100.992 39.1711 101.249 39.4354C101.506 39.6937 101.817 39.8258 102.177 39.8258C102.534 39.8258 102.834 39.6937 103.101 39.4354C103.358 39.1775 103.492 38.8688 103.492 38.5104C103.492 38.1517 103.358 37.8494 103.101 37.5851C102.841 37.3271 102.534 37.1953 102.177 37.1953C101.817 37.1953 101.513 37.3271 101.249 37.5851Z" fill="#8A8A8A"/>
<path d="M167.878 35.4079C167.571 35.2313 167.004 34.9353 166.223 34.6901C165.095 34.3314 163.53 34.0607 161.668 34.3567C161.044 34.4575 160.383 34.6207 159.699 34.8663C159.636 34.8916 159.566 34.9103 159.502 34.9353C159.155 35.0675 158.805 35.2253 158.458 35.4012C158.161 35.5523 157.864 35.7159 157.57 35.8921C156.896 36.2952 156.229 36.7607 155.588 37.2579C154.854 32.8084 155.211 28.6799 155.381 26.6473C155.381 26.6347 155.391 26.628 155.405 26.6347C156.98 27.6287 156.539 30.3981 156.205 31.1909C156.205 31.2036 156.222 31.2163 156.235 31.2036C158.194 28.8811 157.237 26.326 156.833 25.6716C156.826 25.6593 156.846 25.6463 156.859 25.6526C157.143 25.8855 157.377 26.1244 157.57 26.3767C158.181 27.1506 158.401 27.9878 158.458 28.7303C158.491 29.1207 158.485 29.4854 158.458 29.7934C158.458 29.8758 158.444 29.9573 158.438 30.033C158.438 30.0457 158.445 30.0457 158.458 30.0457C158.458 30.0457 158.465 30.0457 158.471 30.0457C158.998 29.0072 159.249 27.4335 158.458 25.9042C158.244 25.4891 157.954 25.08 157.57 24.6835C157.457 24.5701 157.343 24.4566 157.216 24.3438C157.206 24.3312 157.216 24.3121 157.23 24.3185C157.35 24.3498 157.463 24.3812 157.57 24.4189C157.904 24.5387 158.201 24.6962 158.458 24.8911C159.055 25.3312 159.459 25.9359 159.699 26.5649C159.899 27.0875 159.986 27.6224 159.986 28.0946C159.986 28.1133 160.013 28.1133 160.02 28.0946C160.383 26.7351 160.163 25.7157 159.699 24.9665C159.362 24.4316 158.912 24.0412 158.458 23.7645C158.148 23.576 157.84 23.4499 157.57 23.3681C157.413 23.3237 157.27 23.2927 157.143 23.2737C157.123 23.2737 157.13 23.2483 157.143 23.2423C157.287 23.2296 157.43 23.2236 157.564 23.2169C157.891 23.2169 158.188 23.2423 158.451 23.2927C158.975 23.3871 159.382 23.576 159.693 23.7836C160.19 24.1236 160.44 24.5137 160.523 24.6772C160.527 24.6895 160.553 24.6772 160.553 24.6645C160.483 23.9471 160.15 23.3871 159.693 22.984C159.332 22.6757 158.905 22.4558 158.451 22.3297C158.154 22.2482 157.854 22.2038 157.564 22.2038C157.17 22.2038 156.783 22.2669 156.449 22.4054C156.436 22.4054 156.426 22.3927 156.429 22.38C156.719 21.9646 157.13 21.7126 157.557 21.5805C157.854 21.4927 158.161 21.461 158.444 21.4737C158.721 21.4927 158.975 21.5495 159.175 21.6436C159.189 21.6502 159.202 21.6309 159.195 21.6185C158.965 21.3603 158.715 21.159 158.444 21.0079C158.161 20.8504 157.857 20.7499 157.557 20.7186C156.766 20.6301 155.952 20.9638 155.411 21.7824C155.411 21.7824 155.391 21.7947 155.388 21.7824C155.284 21.5999 155.184 21.392 155.091 21.1777C154.877 20.6809 154.7 20.1146 154.607 19.5543C154.607 19.5353 154.58 19.5353 154.58 19.5543C154.487 20.1146 154.31 20.6809 154.09 21.1841C153.996 21.3983 153.9 21.5999 153.793 21.7824C153.793 21.7947 153.776 21.7884 153.769 21.7824C152.825 20.3535 151.063 20.3849 149.992 21.6185C149.979 21.6309 149.992 21.6502 150.012 21.6436C150.729 21.3039 152.081 21.4046 152.762 22.38C152.768 22.3927 152.762 22.4054 152.745 22.4054C151.697 21.9646 150.082 22.2539 149.221 23.28C148.911 23.6451 148.697 24.1109 148.647 24.6645C148.647 24.6835 148.664 24.6895 148.671 24.6772C148.741 24.5514 148.911 24.2808 149.221 24.0035C149.722 23.5633 150.603 23.1035 152.058 23.2423C152.078 23.2423 152.078 23.2673 152.058 23.2737C151.313 23.3681 149.778 24.0288 149.214 25.5518C148.961 26.2252 148.898 27.0625 149.181 28.0946C149.181 28.1133 149.214 28.1133 149.214 28.0946C149.214 28.0696 149.214 28.0502 149.214 28.0252C149.224 26.6407 150.019 24.7907 151.971 24.3185C151.981 24.3185 151.994 24.3372 151.981 24.3438C149.798 26.2696 150.012 28.6422 150.723 30.0457C150.729 30.0584 150.756 30.0517 150.756 30.039C150.659 28.9819 150.583 27.0875 152.334 25.6593C152.348 25.6462 152.365 25.6593 152.361 25.678C151.957 26.326 151 28.8874 152.959 31.2096C152.969 31.2223 152.995 31.2096 152.982 31.1969C152.655 30.4041 152.214 27.6347 153.789 26.6407C153.789 26.6407 153.813 26.6407 153.813 26.6533C153.983 28.6799 154.343 32.8144 153.613 37.2639C152.348 36.2952 151.013 35.4389 149.692 34.942C149.528 34.879 149.371 34.8222 149.204 34.7718C147.84 34.325 146.595 34.1992 145.507 34.2433C143.755 34.3187 142.42 34.8409 141.686 35.2126C141.533 35.2877 141.409 35.3571 141.313 35.4139C141.276 35.4389 141.303 35.4956 141.346 35.4829C141.459 35.4452 141.573 35.4139 141.686 35.3825C143.031 35.0051 144.306 34.8976 145.507 35.0051C146.822 35.1179 148.053 35.4829 149.204 36.0052C150.823 36.7356 152.291 37.7738 153.613 38.8813C151.744 40.5117 150.162 42.0975 149.204 42.6577C149.154 42.6824 149.114 42.7141 149.068 42.7328C148.841 42.4185 148.44 42.2359 148.006 42.33C147.626 42.4125 147.319 42.7205 147.229 43.0919C147.156 43.4316 147.242 43.7906 147.433 43.9855C147.943 44.4954 148.534 44.5268 149.204 44.2435C150.496 43.7025 152.108 41.9843 154.083 40.1717C154.247 40.0209 154.417 39.8694 154.587 39.7185C154.757 39.8694 154.921 40.0209 155.084 40.1717C155.978 40.9896 156.796 41.7951 157.55 42.4752C157.857 42.7582 158.154 43.0165 158.438 43.249C158.882 43.6081 159.295 43.9101 159.679 44.1113C160.433 44.5141 161.091 44.5585 161.648 44.0673C161.678 44.0422 161.711 44.0172 161.741 43.9855C161.868 43.8597 162.022 43.4316 161.945 43.0919C161.902 42.8967 161.795 42.7205 161.655 42.5883C161.521 42.4629 161.358 42.3681 161.174 42.33C160.74 42.2359 160.34 42.4185 160.113 42.7328C159.983 42.6704 159.843 42.5823 159.686 42.4752C159.332 42.2299 158.912 41.8836 158.444 41.4748C158.167 41.2292 157.864 40.9586 157.557 40.6749C156.946 40.1213 156.282 39.5046 155.568 38.8813C156.199 38.3591 156.859 37.8432 157.557 37.371C157.847 37.1758 158.141 36.9872 158.444 36.8047C158.848 36.5658 159.262 36.3389 159.686 36.1376C160.313 35.8353 160.974 35.5774 161.655 35.3825C163.063 34.9797 164.581 34.8412 166.213 35.0992C166.74 35.1809 167.281 35.3067 167.835 35.4829C167.878 35.4956 167.905 35.4389 167.868 35.4139" fill="#8A8A8A"/>
<path d="M154.607 59.4365L151.617 62.4271L154.607 65.4177L157.597 62.4271L154.607 59.4365Z" fill="#8A8A8A"/>
<path d="M130.558 42.3281L129.476 45.6557L132.803 46.7376L133.888 43.41L130.558 42.3281Z" fill="#8A8A8A"/>
<path d="M140.245 13.084L139.791 15.9498L142.657 16.4036L143.111 13.5378L140.245 13.084Z" fill="#8A8A8A"/>
<path d="M176.978 30.7891L174.926 32.8403L176.978 34.8915L179.03 32.8403L176.978 30.7891Z" fill="#8A8A8A"/>
<path d="M175.233 23.9678L173.918 26.5529L176.501 27.8697L177.819 25.2845L175.233 23.9678Z" fill="#8A8A8A"/>
<path d="M142.661 49.2881L139.794 49.7422L140.248 52.6077L143.115 52.1535L142.661 49.2881Z" fill="#8A8A8A"/>
<path d="M168.956 13.0967L166.089 13.5508L166.543 16.4163L169.406 15.9621L168.956 13.0967Z" fill="#8A8A8A"/>
<path d="M148.327 52.1816L145.744 53.4984L147.059 56.0839L149.645 54.7668L148.327 52.1816Z" fill="#8A8A8A"/>
<path d="M154.607 8.4248L152.552 10.4764L154.607 12.5279L156.656 10.4764L154.607 8.4248Z" fill="#8A8A8A"/>
<path d="M151.297 11.9531L149.885 13.8982L151.831 15.3111L153.242 13.3663L151.297 11.9531Z" fill="#8A8A8A"/>
<path d="M157.387 50.3799L155.972 52.3247L157.917 53.7382L159.329 51.7928L157.387 50.3799Z" fill="#8A8A8A"/>
<path d="M138.046 22.4922L135.763 23.235L136.504 25.5211L138.79 24.7787L138.046 22.4922Z" fill="#8A8A8A"/>
<path d="M172.707 40.1514L170.424 40.8945L171.165 43.181L173.451 42.4382L172.707 40.1514Z" fill="#8A8A8A"/>
<path d="M135.129 34.208L133.714 36.1531L135.66 37.566L137.071 35.6209L135.129 34.208Z" fill="#8A8A8A"/>
<path d="M183.662 39.1582L179.891 41.0779L181.813 44.8464L185.581 42.926L183.662 39.1582Z" fill="#8A8A8A"/>
<path d="M138.98 54.3525L134.805 55.0149L135.466 59.1918L139.644 58.5294L138.98 54.3525Z" fill="#8A8A8A"/>
<path d="M173.751 6.48145L169.573 7.14383L170.238 11.3207L174.412 10.6586L173.751 6.48145Z" fill="#8A8A8A"/>
<path d="M128.802 34.4238L126.747 37.2549L129.577 39.3118L131.632 36.4804L128.802 34.4238Z" fill="#8A8A8A"/>
<path d="M147.049 9.61035L145.734 12.1955L148.317 13.5123L149.635 10.9268L147.049 9.61035Z" fill="#8A8A8A"/>
<path d="M133.965 23.9912L131.379 25.3076L132.697 27.8928L135.28 26.5764L133.965 23.9912Z" fill="#8A8A8A"/>
<path d="M154.604 53.1631L152.552 55.2146L154.604 57.2665L156.656 55.215L154.604 53.1631Z" fill="#8A8A8A"/>
<path d="M171.172 22.498L170.428 24.7845L172.717 25.5277L173.458 23.2409L171.172 22.498Z" fill="#8A8A8A"/>
<path d="M142.05 45.3945H139.644V47.7985H142.05V45.3945Z" fill="#8A8A8A"/>
<path d="M127.394 20.8672L123.627 22.7869L125.546 26.5554L129.316 24.6353L127.394 20.8672Z" fill="#8A8A8A"/>
<path d="M125.539 39.1318L123.617 42.8999L127.384 44.82L129.306 41.0523L125.539 39.1318Z" fill="#8A8A8A"/>
<path d="M141.797 7.70996L140.715 11.0382L144.049 12.1214L145.13 8.79347L141.797 7.70996Z" fill="#8A8A8A"/>
<path d="M165.145 53.5547L164.064 56.8823L167.398 57.9658L168.482 54.6379L165.145 53.5547Z" fill="#8A8A8A"/>
<path d="M178.65 42.3281L175.316 43.4113L176.397 46.7392L179.731 45.6561L178.65 42.3281Z" fill="#8A8A8A"/>
<path d="M180.398 34.4336L177.569 36.4902L179.628 39.3212L182.457 37.2643L180.398 34.4336Z" fill="#8A8A8A"/>
<path d="M176.394 18.9531L175.31 22.2867L178.64 23.3683L179.721 20.0343L176.394 18.9531Z" fill="#8A8A8A"/>
<path d="M174.542 12.9014H171.045V16.4005H174.542V12.9014Z" fill="#8A8A8A"/>
<path d="M144.049 53.5645L140.722 54.646L141.803 57.9796L145.134 56.8984L144.049 53.5645Z" fill="#8A8A8A"/>
<path d="M158.238 55.8027L156.182 58.6338L159.012 60.6907L161.067 57.8596L158.238 55.8027Z" fill="#8A8A8A"/>
<path d="M132.69 37.7949L131.375 40.3804L133.958 41.6968L135.276 39.1117L132.69 37.7949Z" fill="#8A8A8A"/>
<path d="M142.05 17.8867H139.644V20.2913H142.05V17.8867Z" fill="#8A8A8A"/>
<path d="M135.656 28.1191L133.714 29.532L135.126 31.4771L137.071 30.0639L135.656 28.1191Z" fill="#8A8A8A"/>
<path d="M164.208 13.9863L161.925 14.7291L162.666 17.0156L164.952 16.2728L164.208 13.9863Z" fill="#8A8A8A"/>
<path d="M157.911 11.9473L155.965 13.3605L157.377 15.3052L159.322 13.892L157.911 11.9473Z" fill="#8A8A8A"/>
<path d="M169.119 41.6348L167.154 41.9461L167.464 43.9106L169.43 43.5992L169.119 41.6348Z" fill="#8A8A8A"/>
<path d="M171.519 31.4375L170.114 32.8437L171.519 34.2499L172.927 32.8437L171.519 31.4375Z" fill="#8A8A8A"/>
<path d="M181.8 20.8477L179.881 24.6157L183.649 26.5358L185.568 22.7681L181.8 20.8477Z" fill="#8A8A8A"/>
<path d="M174.542 49.2861H171.045V52.7849H174.542V49.2861Z" fill="#8A8A8A"/>
<path d="M132.8 18.9688L129.473 20.0503L130.557 23.3842L133.884 22.3027L132.8 18.9688Z" fill="#8A8A8A"/>
<path d="M167.404 7.7041L164.074 8.78594L165.158 12.1136L168.485 11.0317L167.404 7.7041Z" fill="#8A8A8A"/>
<path d="M150.186 4.98633L148.13 7.8174L150.96 9.8743L153.015 7.04323L150.186 4.98633Z" fill="#8A8A8A"/>
<path d="M176.521 37.8223L173.935 39.139L175.25 41.7242L177.836 40.4077L176.521 37.8223Z" fill="#8A8A8A"/>
<path d="M132.233 30.792L130.181 32.8439L132.233 34.8955L134.282 32.8439L132.233 30.792Z" fill="#8A8A8A"/>
<path d="M174.081 34.2002L172.136 35.6134L173.548 37.5582L175.493 36.1453L174.081 34.2002Z" fill="#8A8A8A"/>
<path d="M146.551 48.6562L144.266 49.3994L145.01 51.6855L147.296 50.9431L146.551 48.6562Z" fill="#8A8A8A"/>
<path d="M154.604 48.3506L153.199 49.7564L154.604 51.1626L156.008 49.7564L154.604 48.3506Z" fill="#8A8A8A"/>
<path d="M143.842 18.0244L143.528 19.9885L145.494 20.3002L145.807 18.3361L143.842 18.0244Z" fill="#8A8A8A"/>
<path d="M138.072 36.7266L137.168 38.4985L138.94 39.4015L139.844 37.6295L138.072 36.7266Z" fill="#8A8A8A"/>
<path d="M138.159 12.9014H134.662V16.4005H138.159V12.9014Z" fill="#8A8A8A"/>
<path d="M159.015 4.99316L156.185 7.04973L158.237 9.88081L161.071 7.8239L159.015 4.99316Z" fill="#8A8A8A"/>
<path d="M160.877 52.1523L159.559 54.7378L162.142 56.0542L163.46 53.4691L160.877 52.1523Z" fill="#8A8A8A"/>
<path d="M135.293 44.3262L134.836 47.1916L137.702 47.6458L138.156 44.78L135.293 44.3262Z" fill="#8A8A8A"/>
<path d="M171.492 18.0303L171.038 20.8961L173.901 21.3499L174.355 18.4844L171.492 18.0303Z" fill="#8A8A8A"/>
<path d="M169.556 45.3945H167.154V47.7985H169.556V45.3945Z" fill="#8A8A8A"/>
<path d="M173.554 28.1191L172.139 30.0646L174.088 31.4778L175.5 29.5323L173.554 28.1191Z" fill="#8A8A8A"/>
<path d="M151.828 50.377L149.882 51.7902L151.297 53.7356L153.242 52.3221L151.828 50.377Z" fill="#8A8A8A"/>
<path d="M148.931 15.4141L148.03 17.186L149.802 18.089L150.703 16.3167L148.931 15.4141Z" fill="#8A8A8A"/>
<path d="M159.389 47.5889L158.488 49.3608L160.26 50.2634L161.161 48.4912L159.389 47.5889Z" fill="#8A8A8A"/>
<path d="M163.73 45.4014L163.417 47.3655L165.382 47.6768L165.696 45.7127L163.73 45.4014Z" fill="#8A8A8A"/>
<path d="M138.95 26.2949L137.178 27.1979L138.079 28.9698L139.854 28.0668L138.95 26.2949Z" fill="#8A8A8A"/>
<path d="M171.125 36.7471L169.353 37.6497L170.257 39.4216L172.029 38.519L171.125 36.7471Z" fill="#8A8A8A"/>
<path d="M140.101 41.6543L139.788 43.6188L141.753 43.9298L142.064 41.966L140.101 41.6543Z" fill="#8A8A8A"/>
<path d="M165.369 18.0107L163.407 18.3217L163.717 20.2862L165.682 19.9749L165.369 18.0107Z" fill="#8A8A8A"/>
<path d="M149.808 47.6084L148.036 48.511L148.941 50.283L150.713 49.3803L149.808 47.6084Z" fill="#8A8A8A"/>
<path d="M135.47 6.49512L134.809 10.6723L138.987 11.3347L139.647 7.1575L135.47 6.49512Z" fill="#8A8A8A"/>
<path d="M170.254 54.3623L169.59 58.5398L173.768 59.2019L174.429 55.025L170.254 54.3623Z" fill="#8A8A8A"/>
<path d="M154.6 0.267578L151.611 3.25816L154.6 6.24874L157.594 3.25816L154.6 0.267578Z" fill="#8A8A8A"/>
<path d="M129.583 26.3789L126.754 28.4355L128.809 31.2662L131.639 29.2096L129.583 26.3789Z" fill="#8A8A8A"/>
<path d="M179.621 26.3691L177.565 29.1999L180.395 31.2568L182.45 28.4257L179.621 26.3691Z" fill="#8A8A8A"/>
<path d="M138.159 49.2861H134.662V52.7849H138.159V49.2861Z" fill="#8A8A8A"/>
<path d="M150.97 55.8164L148.14 57.8733L150.192 60.7044L153.025 58.6475L150.97 55.8164Z" fill="#8A8A8A"/>
<path d="M166.543 49.2783L166.089 52.1438L168.953 52.5976L169.406 49.7322L166.543 49.2783Z" fill="#8A8A8A"/>
<path d="M137.716 18.0439L134.849 18.4978L135.303 21.3632L138.169 20.9094L137.716 18.0439Z" fill="#8A8A8A"/>
<path d="M173.904 44.3359L171.041 44.7898L171.495 47.6552L174.362 47.2017L173.904 44.3359Z" fill="#8A8A8A"/>
<path d="M162.155 9.62988L159.569 10.9466L160.887 13.5321L163.473 12.2154L162.155 9.62988Z" fill="#8A8A8A"/>
<path d="M145.006 14L144.266 16.2865L146.551 17.0293L147.296 14.7428L145.006 14Z" fill="#8A8A8A"/>
<path d="M162.669 48.6699L161.929 50.9564L164.214 51.6996L164.959 49.4127L162.669 48.6699Z" fill="#8A8A8A"/>
<path d="M136.504 40.1611L135.763 42.4476L138.049 43.1904L138.79 40.9039L136.504 40.1611Z" fill="#8A8A8A"/>
<path d="M169.556 17.8867H167.154V20.2913H169.556V17.8867Z" fill="#8A8A8A"/>
<path d="M154.607 14.5244L153.199 15.9306L154.607 17.3371L156.012 15.9306L154.607 14.5244Z" fill="#8A8A8A"/>
<path d="M141.747 21.7588L139.785 22.0701L140.095 24.0346L142.06 23.7229L141.747 21.7588Z" fill="#8A8A8A"/>
<path d="M137.689 31.4375L136.281 32.8444L137.689 34.2506L139.094 32.8444L137.689 31.4375Z" fill="#8A8A8A"/>
<path d="M170.244 26.2656L169.343 28.0376L171.115 28.9405L172.019 27.1683L170.244 26.2656Z" fill="#8A8A8A"/>
<path d="M167.471 21.7666L167.161 23.7307L169.123 24.0424L169.433 22.0779L167.471 21.7666Z" fill="#8A8A8A"/>
<path d="M145.491 45.3818L143.525 45.6935L143.839 47.6573L145.801 47.3463L145.491 45.3818Z" fill="#8A8A8A"/>
<path d="M160.266 15.4307L158.495 16.3336L159.399 18.1056L161.171 17.2026L160.266 15.4307Z" fill="#8A8A8A"/>
</svg>
