<svg width="818" height="95" viewBox="0 0 818 95" fill="none" xmlns="http://www.w3.org/2000/svg">
<path d="M688.918 0.0059622C690.29 0.0059622 692.219 0.208797 694.338 1.13345C699.086 3.20347 701.422 7.43895 702.165 8.93032C703.617 7.83863 705.449 6.65747 707.666 5.63737C711.08 4.06249 714.181 3.42418 716.5 3.1617C715.579 4.3548 714.614 5.55385 713.601 6.76485C710.462 10.4992 707.303 13.7564 704.23 16.596C703.53 17.2402 702.663 17.6399 701.747 17.6578C701.742 17.6578 701.731 17.6578 701.726 17.6578C701.715 17.6578 701.709 17.6578 701.699 17.6578C700.674 17.6578 699.731 17.0672 699.146 16.1426L688.918 0V0.0059622Z" fill="#D0D0D0" fill-opacity="0.22"/>
<path d="M703.261 34.1442C704.578 34.1442 706.43 34.347 708.464 35.2717C713.022 37.3417 715.265 41.5772 715.978 43.0686C717.372 41.9769 719.131 40.7957 721.259 39.7756C724.537 38.2007 727.513 37.5624 729.74 37.2999C728.855 38.493 727.929 39.6921 726.956 40.9031C723.943 44.6375 720.91 47.8946 717.96 50.7342C717.289 51.3785 716.456 51.7782 715.577 51.7961C715.572 51.7961 715.561 51.7961 715.556 51.7961C715.546 51.7961 715.541 51.7961 715.53 51.7961C714.547 51.7961 713.641 51.2055 713.079 50.2808L703.261 34.1382V34.1442Z" fill="#D0D0D0" fill-opacity="0.22"/>
<path d="M715.397 67.1052C716.768 67.1052 718.698 67.2945 720.817 68.1575C725.565 70.0895 727.901 74.0426 728.643 75.4346C730.096 74.4157 731.928 73.3132 734.144 72.3612C737.559 70.8913 740.659 70.2955 742.979 70.0505C742.057 71.1641 741.093 72.2832 740.079 73.4135C736.941 76.8989 733.781 79.9389 730.708 82.5892C730.009 83.1905 729.142 83.5635 728.226 83.5802C728.22 83.5802 728.21 83.5802 728.204 83.5802C728.193 83.5802 728.188 83.5802 728.177 83.5802C727.153 83.5802 726.21 83.029 725.624 82.166L715.397 67.0996V67.1052Z" fill="#D0D0D0" fill-opacity="0.22"/>
<path d="M539.978 0.0059622C541.349 0.0059622 543.279 0.208797 545.398 1.13345C550.146 3.20347 552.482 7.43895 553.224 8.93032C554.677 7.83863 556.509 6.65747 558.725 5.63737C562.14 4.06249 565.24 3.42418 567.56 3.1617C566.638 4.3548 565.674 5.55385 564.66 6.76485C561.522 10.4992 558.362 13.7564 555.289 16.596C554.59 17.2402 553.723 17.6399 552.807 17.6578C552.801 17.6578 552.791 17.6578 552.785 17.6578C552.774 17.6578 552.769 17.6578 552.758 17.6578C551.734 17.6578 550.791 17.0672 550.205 16.1426L539.978 0V0.0059622Z" fill="#D0D0D0" fill-opacity="0.22"/>
<path d="M553.217 34.1442C554.534 34.1442 556.386 34.347 558.42 35.2717C562.978 37.3417 565.221 41.5772 565.934 43.0686C567.328 41.9769 569.087 40.7957 571.215 39.7756C574.493 38.2007 577.469 37.5624 579.696 37.2999C578.811 38.493 577.885 39.6921 576.912 40.9031C573.9 44.6375 570.866 47.8946 567.916 50.7342C567.245 51.3785 566.412 51.7782 565.533 51.7961C565.528 51.7961 565.517 51.7961 565.512 51.7961C565.502 51.7961 565.497 51.7961 565.486 51.7961C564.503 51.7961 563.597 51.2055 563.036 50.2808L553.217 34.1382V34.1442Z" fill="#D0D0D0" fill-opacity="0.22"/>
<path d="M565.352 67.1052C566.723 67.1052 568.653 67.2945 570.772 68.1575C575.52 70.0895 577.856 74.0426 578.598 75.4346C580.051 74.4157 581.883 73.3132 584.099 72.3612C587.514 70.8913 590.614 70.2955 592.934 70.0505C592.012 71.1641 591.048 72.2832 590.034 73.4135C586.896 76.8989 583.736 79.9389 580.663 82.5892C579.964 83.1905 579.097 83.5635 578.181 83.5802C578.175 83.5802 578.165 83.5802 578.159 83.5802C578.148 83.5802 578.143 83.5802 578.132 83.5802C577.108 83.5802 576.165 83.029 575.579 82.166L565.352 67.0996V67.1052Z" fill="#D0D0D0" fill-opacity="0.22"/>
<path d="M389.933 0.0059622C391.304 0.0059622 393.234 0.208797 395.353 1.13345C400.101 3.20347 402.437 7.43895 403.179 8.93032C404.632 7.83863 406.464 6.65747 408.68 5.63737C412.095 4.06249 415.195 3.42418 417.515 3.1617C416.593 4.3548 415.629 5.55385 414.615 6.76485C411.477 10.4992 408.317 13.7564 405.244 16.596C404.545 17.2402 403.678 17.6399 402.762 17.6578C402.757 17.6578 402.746 17.6578 402.74 17.6578C402.729 17.6578 402.724 17.6578 402.713 17.6578C401.689 17.6578 400.746 17.0672 400.16 16.1426L389.933 0V0.0059622Z" fill="#D0D0D0" fill-opacity="0.22"/>
<path d="M403.172 34.1442C404.544 34.1442 406.473 34.347 408.592 35.2717C413.34 37.3417 415.676 41.5772 416.419 43.0686C417.871 41.9769 419.703 40.7957 421.92 39.7756C425.334 38.2007 428.434 37.5624 430.754 37.2999C429.833 38.493 428.868 39.6921 427.854 40.9031C424.716 44.6375 421.557 47.8946 418.484 50.7342C417.784 51.3785 416.917 51.7782 416.001 51.7961C415.996 51.7961 415.985 51.7961 415.98 51.7961C415.969 51.7961 415.963 51.7961 415.952 51.7961C414.928 51.7961 413.985 51.2055 413.4 50.2808L403.172 34.1382V34.1442Z" fill="#D0D0D0" fill-opacity="0.22"/>
<path d="M416.412 67.1052C417.783 67.1052 419.712 67.2945 421.832 68.1575C426.579 70.0895 428.915 74.0426 429.658 75.4346C431.11 74.4157 432.942 73.3132 435.159 72.3612C438.574 70.8913 441.674 70.2955 443.993 70.0505C443.072 71.1641 442.107 72.2832 441.094 73.4135C437.956 76.8989 434.796 79.9389 431.723 82.5892C431.024 83.1905 430.156 83.5635 429.24 83.5802C429.235 83.5802 429.224 83.5802 429.219 83.5802C429.208 83.5802 429.203 83.5802 429.192 83.5802C428.167 83.5802 427.224 83.029 426.639 82.166L416.412 67.0996V67.1052Z" fill="#D0D0D0" fill-opacity="0.22"/>
<path d="M240.99 0.0059622C242.361 0.0059622 244.29 0.208797 246.41 1.13345C251.157 3.20347 253.493 7.43895 254.236 8.93032C255.688 7.83863 257.52 6.65747 259.737 5.63737C263.152 4.06249 266.252 3.42418 268.572 3.1617C267.65 4.3548 266.685 5.55385 265.672 6.76485C262.534 10.4992 259.374 13.7564 256.301 16.596C255.602 17.2402 254.735 17.6399 253.819 17.6578C253.813 17.6578 253.802 17.6578 253.797 17.6578C253.786 17.6578 253.781 17.6578 253.77 17.6578C252.745 17.6578 251.802 17.0672 251.217 16.1426L240.99 0V0.0059622Z" fill="#D0D0D0" fill-opacity="0.22"/>
<path d="M254.229 34.1442C255.545 34.1442 257.398 34.347 259.432 35.2717C263.99 37.3417 266.233 41.5772 266.945 43.0686C268.34 41.9769 270.098 40.7957 272.226 39.7756C275.504 38.2007 278.481 37.5624 280.708 37.2999C279.823 38.493 278.897 39.6921 277.924 40.9031C274.911 44.6375 271.878 47.8946 268.928 50.7342C268.257 51.3785 267.424 51.7782 266.545 51.7961C266.54 51.7961 266.529 51.7961 266.524 51.7961C266.513 51.7961 266.508 51.7961 266.498 51.7961C265.514 51.7961 264.609 51.2055 264.047 50.2808L254.229 34.1382V34.1442Z" fill="#D0D0D0" fill-opacity="0.22"/>
<path d="M266.365 67.1052C267.736 67.1052 269.665 67.2945 271.785 68.1575C276.532 70.0895 278.868 74.0426 279.611 75.4346C281.063 74.4157 282.895 73.3132 285.112 72.3612C288.527 70.8913 291.627 70.2955 293.947 70.0505C293.025 71.1641 292.06 72.2832 291.047 73.4135C287.909 76.8989 284.749 79.9389 281.676 82.5892C280.977 83.1905 280.11 83.5635 279.194 83.5802C279.188 83.5802 279.177 83.5802 279.172 83.5802C279.161 83.5802 279.156 83.5802 279.145 83.5802C278.12 83.5802 277.177 83.029 276.592 82.166L266.365 67.0996V67.1052Z" fill="#D0D0D0" fill-opacity="0.22"/>
<path d="M90.9448 0.0059622C92.3161 0.0059622 94.2455 0.208797 96.3647 1.13345C101.113 3.20347 103.448 7.43895 104.191 8.93032C105.644 7.83863 107.475 6.65747 109.692 5.63737C113.107 4.06249 116.207 3.42418 118.527 3.1617C117.605 4.3548 116.64 5.55385 115.627 6.76485C112.489 10.4992 109.329 13.7564 106.256 16.596C105.557 17.2402 104.69 17.6399 103.774 17.6578C103.768 17.6578 103.757 17.6578 103.752 17.6578C103.741 17.6578 103.736 17.6578 103.725 17.6578C102.701 17.6578 101.757 17.0672 101.172 16.1426L90.9448 0V0.0059622Z" fill="#D0D0D0" fill-opacity="0.22"/>
<path d="M97.1841 34.1441C98.5005 34.1441 100.353 34.347 102.387 35.2716C106.945 37.3416 109.188 41.5771 109.9 43.0685C111.295 41.9768 113.053 40.7956 115.182 39.7755C118.459 38.2006 121.436 37.5623 123.663 37.2999C122.778 38.493 121.852 39.692 120.879 40.903C117.866 44.6374 114.833 47.8945 111.883 50.7341C111.212 51.3784 110.379 51.7781 109.5 51.796C109.495 51.796 109.484 51.796 109.479 51.796C109.469 51.796 109.463 51.796 109.453 51.796C108.47 51.796 107.564 51.2054 107.002 50.2807L97.1841 34.1382V34.1441Z" fill="#D0D0D0" fill-opacity="0.22"/>
<path d="M2.98584 34.1442C4.30222 34.1442 6.15452 34.347 8.18892 35.2717C12.7468 37.3417 14.9894 41.5772 15.7022 43.0686C17.0966 41.9769 18.8553 40.7957 20.9833 39.7756C24.2613 38.2007 27.2374 37.5624 29.4643 37.2999C28.5798 38.493 27.6537 39.6921 26.6807 40.9031C23.6681 44.6375 20.6347 47.8946 17.6846 50.7342C17.0134 51.3785 16.1809 51.7782 15.3015 51.7961C15.2963 51.7961 15.2859 51.7961 15.2807 51.7961C15.2703 51.7961 15.2651 51.7961 15.2547 51.7961C14.2713 51.7961 13.366 51.2055 12.8041 50.2808L2.98584 34.1382V34.1442Z" fill="#D0D0D0" fill-opacity="0.22"/>
<path d="M117.423 67.1052C118.795 67.1052 120.724 67.2945 122.843 68.1575C127.591 70.0895 129.927 74.0426 130.67 75.4346C132.122 74.4157 133.954 73.3132 136.171 72.3612C139.585 70.8913 142.685 70.2955 145.005 70.0505C144.084 71.1641 143.119 72.2832 142.105 73.4135C138.967 76.8989 135.808 79.9389 132.734 82.5892C132.035 83.1905 131.168 83.5635 130.252 83.5802C130.247 83.5802 130.236 83.5802 130.231 83.5802C130.22 83.5802 130.214 83.5802 130.203 83.5802C129.179 83.5802 128.236 83.029 127.651 82.166L117.423 67.0996V67.1052Z" fill="#D0D0D0" fill-opacity="0.22"/>
<path d="M615 0.0059622C616.371 0.0059622 618.3 0.208797 620.419 1.13345C625.167 3.20347 627.503 7.43895 628.246 8.93032C629.698 7.83863 631.53 6.65747 633.747 5.63737C637.161 4.06249 640.262 3.42418 642.581 3.1617C641.66 4.3548 640.695 5.55385 639.682 6.76485C636.544 10.4992 633.384 13.7564 630.311 16.596C629.612 17.2402 628.744 17.6399 627.828 17.6578C627.823 17.6578 627.812 17.6578 627.807 17.6578C627.796 17.6578 627.79 17.6578 627.78 17.6578C626.755 17.6578 625.812 17.0672 625.227 16.1426L615 0V0.0059622Z" fill="#D0D0D0" fill-opacity="0.22"/>
<path d="M628.239 34.1442C629.555 34.1442 631.407 34.347 633.442 35.2717C638 37.3417 640.242 41.5772 640.955 43.0686C642.35 41.9769 644.108 40.7957 646.236 39.7756C649.514 38.2007 652.49 37.5624 654.717 37.2999C653.833 38.493 652.907 39.6921 651.934 40.9031C648.921 44.6375 645.888 47.8946 642.937 50.7342C642.266 51.3785 641.434 51.7782 640.554 51.7961C640.549 51.7961 640.539 51.7961 640.534 51.7961C640.523 51.7961 640.518 51.7961 640.508 51.7961C639.524 51.7961 638.619 51.2055 638.057 50.2808L628.239 34.1382V34.1442Z" fill="#D0D0D0" fill-opacity="0.22"/>
<path d="M640.375 67.1052C641.746 67.1052 643.675 67.2945 645.794 68.1575C650.542 70.0895 652.878 74.0426 653.621 75.4346C655.073 74.4157 656.905 73.3132 659.122 72.3612C662.536 70.8913 665.637 70.2955 667.956 70.0505C667.035 71.1641 666.07 72.2832 665.057 73.4135C661.919 76.8989 658.759 79.9389 655.686 82.5892C654.987 83.1905 654.119 83.5635 653.203 83.5802C653.198 83.5802 653.187 83.5802 653.182 83.5802C653.171 83.5802 653.165 83.5802 653.155 83.5802C652.13 83.5802 651.187 83.029 650.602 82.166L640.375 67.0996V67.1052Z" fill="#D0D0D0" fill-opacity="0.22"/>
<path d="M464.956 0.0059622C466.327 0.0059622 468.256 0.208797 470.375 1.13345C475.123 3.20347 477.459 7.43895 478.202 8.93032C479.654 7.83863 481.486 6.65747 483.703 5.63737C487.117 4.06249 490.218 3.42418 492.537 3.1617C491.616 4.3548 490.651 5.55385 489.638 6.76485C486.5 10.4992 483.34 13.7564 480.267 16.596C479.568 17.2402 478.7 17.6399 477.784 17.6578C477.779 17.6578 477.768 17.6578 477.763 17.6578C477.752 17.6578 477.746 17.6578 477.736 17.6578C476.711 17.6578 475.768 17.0672 475.183 16.1426L464.956 0V0.0059622Z" fill="#D0D0D0" fill-opacity="0.22"/>
<path d="M478.195 34.1442C479.511 34.1442 481.364 34.347 483.398 35.2717C487.956 37.3417 490.198 41.5772 490.911 43.0686C492.306 41.9769 494.064 40.7957 496.192 39.7756C499.47 38.2007 502.446 37.5624 504.673 37.2999C503.789 38.493 502.863 39.6921 501.89 40.9031C498.877 44.6375 495.844 47.8946 492.894 50.7342C492.222 51.3785 491.39 51.7782 490.511 51.7961C490.505 51.7961 490.495 51.7961 490.49 51.7961C490.479 51.7961 490.474 51.7961 490.464 51.7961C489.48 51.7961 488.575 51.2055 488.013 50.2808L478.195 34.1382V34.1442Z" fill="#D0D0D0" fill-opacity="0.22"/>
<path d="M490.331 67.1052C491.757 67.1052 493.763 67.2945 495.967 68.1575C500.905 70.0895 503.334 74.0426 504.107 75.4346C505.617 74.4157 507.522 73.3132 509.828 72.3612C513.379 70.8913 516.603 70.2955 519.016 70.0505C518.057 71.1641 517.054 72.2832 516 73.4135C512.736 76.8989 509.45 79.9389 506.254 82.5892C505.527 83.1905 504.625 83.5635 503.673 83.5802C503.667 83.5802 503.656 83.5802 503.65 83.5802C503.639 83.5802 503.633 83.5802 503.622 83.5802C502.557 83.5802 501.576 83.029 500.967 82.166L490.331 67.0996V67.1052Z" fill="#D0D0D0" fill-opacity="0.22"/>
<path d="M314.911 0.0059622C316.337 0.0059622 318.343 0.208797 320.547 1.13345C325.485 3.20347 327.914 7.43895 328.687 8.93032C330.197 7.83863 332.103 6.65747 334.408 5.63737C337.959 4.06249 341.183 3.42418 343.596 3.1617C342.637 4.3548 341.634 5.55385 340.58 6.76485C337.316 10.4992 334.03 13.7564 330.834 16.596C330.107 17.2402 329.205 17.6399 328.253 17.6578C328.247 17.6578 328.236 17.6578 328.23 17.6578C328.219 17.6578 328.213 17.6578 328.202 17.6578C327.137 17.6578 326.156 17.0672 325.547 16.1426L314.911 0V0.0059622Z" fill="#D0D0D0" fill-opacity="0.22"/>
<path d="M329.253 34.1442C330.57 34.1442 332.422 34.347 334.457 35.2717C339.014 37.3417 341.257 41.5772 341.97 43.0686C343.364 41.9769 345.123 40.7957 347.251 39.7756C350.529 38.2007 353.505 37.5624 355.732 37.2999C354.847 38.493 353.921 39.6921 352.948 40.9031C349.936 44.6375 346.902 47.8946 343.952 50.7342C343.281 51.3785 342.448 51.7782 341.569 51.7961C341.564 51.7961 341.554 51.7961 341.548 51.7961C341.538 51.7961 341.533 51.7961 341.522 51.7961C340.539 51.7961 339.634 51.2055 339.072 50.2808L329.253 34.1382V34.1442Z" fill="#D0D0D0" fill-opacity="0.22"/>
<path d="M341.389 67.1052C342.76 67.1052 344.69 67.2945 346.809 68.1575C351.557 70.0895 353.893 74.0426 354.635 75.4346C356.088 74.4157 357.92 73.3132 360.137 72.3612C363.551 70.8913 366.651 70.2955 368.971 70.0505C368.05 71.1641 367.085 72.2832 366.071 73.4135C362.933 76.8989 359.773 79.9389 356.7 82.5892C356.001 83.1905 355.134 83.5635 354.218 83.5802C354.213 83.5802 354.202 83.5802 354.196 83.5802C354.185 83.5802 354.18 83.5802 354.169 83.5802C353.145 83.5802 352.202 83.029 351.616 82.166L341.389 67.0996V67.1052Z" fill="#D0D0D0" fill-opacity="0.22"/>
<path d="M165.967 0.0059622C167.339 0.0059622 169.268 0.208797 171.387 1.13345C176.135 3.20347 178.471 7.43895 179.213 8.93032C180.666 7.83863 182.498 6.65747 184.715 5.63737C188.129 4.06249 191.229 3.42418 193.549 3.1617C192.628 4.3548 191.663 5.55385 190.649 6.76485C187.511 10.4992 184.352 13.7564 181.278 16.596C180.579 17.2402 179.712 17.6399 178.796 17.6578C178.791 17.6578 178.78 17.6578 178.774 17.6578C178.764 17.6578 178.758 17.6578 178.747 17.6578C177.723 17.6578 176.78 17.0672 176.195 16.1426L165.967 0V0.0059622Z" fill="#D0D0D0" fill-opacity="0.22"/>
<path d="M179.207 34.1442C180.523 34.1442 182.375 34.347 184.41 35.2717C188.968 37.3417 191.21 41.5772 191.923 43.0686C193.317 41.9769 195.076 40.7957 197.204 39.7756C200.482 38.2007 203.458 37.5624 205.685 37.2999C204.801 38.493 203.874 39.6921 202.901 40.9031C199.889 44.6375 196.855 47.8946 193.905 50.7342C193.234 51.3785 192.402 51.7782 191.522 51.7961C191.517 51.7961 191.507 51.7961 191.501 51.7961C191.491 51.7961 191.486 51.7961 191.475 51.7961C190.492 51.7961 189.587 51.2055 189.025 50.2808L179.207 34.1382V34.1442Z" fill="#D0D0D0" fill-opacity="0.22"/>
<path d="M191.342 67.1052C192.714 67.1052 194.643 67.2945 196.762 68.1575C201.51 70.0895 203.846 74.0426 204.588 75.4346C206.041 74.4157 207.873 73.3132 210.09 72.3612C213.504 70.8913 216.604 70.2955 218.924 70.0505C218.003 71.1641 217.038 72.2832 216.024 73.4135C212.886 76.8989 209.727 79.9389 206.653 82.5892C205.954 83.1905 205.087 83.5635 204.171 83.5802C204.166 83.5802 204.155 83.5802 204.149 83.5802C204.139 83.5802 204.133 83.5802 204.122 83.5802C203.098 83.5802 202.155 83.029 201.57 82.166L191.342 67.0996V67.1052Z" fill="#D0D0D0" fill-opacity="0.22"/>
<path d="M15.9224 0.0059622C17.2936 0.0059622 19.2231 0.208797 21.3422 1.13345C26.0901 3.20347 28.426 7.43895 29.1686 8.93032C30.6211 7.83863 32.453 6.65747 34.6697 5.63737C38.0843 4.06249 41.1844 3.42418 43.5041 3.1617C42.5828 4.3548 41.618 5.55385 40.6045 6.76485C37.4664 10.4992 34.3066 13.7564 31.2335 16.596C30.5344 17.2402 29.6672 17.6399 28.7512 17.6578C28.7458 17.6578 28.735 17.6578 28.7295 17.6578C28.7187 17.6578 28.7133 17.6578 28.7024 17.6578C27.6781 17.6578 26.735 17.0672 26.1497 16.1426L15.9224 0V0.0059622Z" fill="#D0D0D0" fill-opacity="0.22"/>
<path d="M42.4009 67.1052C43.7721 67.1052 45.7016 67.2945 47.8208 68.1575C52.5686 70.0895 54.9045 74.0426 55.6471 75.4346C57.0996 74.4157 58.9315 73.3132 61.1482 72.3612C64.5628 70.8913 67.6629 70.2955 69.9826 70.0505C69.0613 71.1641 68.0965 72.2832 67.083 73.4135C63.9449 76.8989 60.7851 79.9389 57.712 82.5892C57.0129 83.1905 56.1457 83.5635 55.2297 83.5802C55.2243 83.5802 55.2135 83.5802 55.2081 83.5802C55.1972 83.5802 55.1918 83.5802 55.181 83.5802C54.1566 83.5802 53.2135 83.029 52.6282 82.166L42.4009 67.0996V67.1052Z" fill="#D0D0D0" fill-opacity="0.22"/>
<path d="M0 75.6357C1.37123 75.6357 3.30071 75.8251 5.41988 76.6881C10.1677 78.6201 12.5037 82.5732 13.2462 83.9651C14.6987 82.9462 16.5306 81.8438 18.7474 80.8917C22.1619 79.4218 25.2621 78.8261 27.5818 78.5811C26.6604 79.6947 25.6956 80.8138 24.6821 81.944C21.544 85.4295 18.3842 88.4695 15.3112 91.1197C14.612 91.7211 13.7448 92.0941 12.8289 92.1108C12.8234 92.1108 12.8126 92.1108 12.8072 92.1108C12.7963 92.1108 12.7909 92.1108 12.7801 92.1108C11.7557 92.1108 10.8127 91.5596 10.2273 90.6966L0 75.6302V75.6357Z" fill="#D0D0D0" fill-opacity="0.22"/>
<path d="M763.941 0.0059622C765.312 0.0059622 767.242 0.208797 769.361 1.13345C774.109 3.20347 776.445 7.43895 777.187 8.93032C778.64 7.83863 780.472 6.65747 782.688 5.63737C786.103 4.06249 789.203 3.42418 791.523 3.1617C790.601 4.3548 789.637 5.55385 788.623 6.76485C785.485 10.4992 782.325 13.7564 779.252 16.596C778.553 17.2402 777.686 17.6399 776.77 17.6578C776.764 17.6578 776.754 17.6578 776.748 17.6578C776.737 17.6578 776.732 17.6578 776.721 17.6578C775.697 17.6578 774.754 17.0672 774.168 16.1426L763.941 0V0.0059622Z" fill="#D0D0D0" fill-opacity="0.22"/>
<path d="M777.18 34.1442C778.551 34.1442 780.481 34.347 782.6 35.2717C787.348 37.3417 789.684 41.5772 790.426 43.0686C791.879 41.9769 793.711 40.7957 795.928 39.7756C799.342 38.2007 802.442 37.5624 804.762 37.2999C803.841 38.493 802.876 39.6921 801.862 40.9031C798.724 44.6375 795.564 47.8946 792.491 50.7342C791.792 51.3785 790.925 51.7782 790.009 51.7961C790.004 51.7961 789.993 51.7961 789.987 51.7961C789.977 51.7961 789.971 51.7961 789.96 51.7961C788.936 51.7961 787.993 51.2055 787.407 50.2808L777.18 34.1382V34.1442Z" fill="#D0D0D0" fill-opacity="0.22"/>
<path d="M790.419 67.1052C791.791 67.1052 793.72 67.2945 795.839 68.1575C800.587 70.0895 802.923 74.0426 803.666 75.4346C805.118 74.4157 806.95 73.3132 809.167 72.3612C812.581 70.8913 815.681 70.2955 818.001 70.0505C817.08 71.1641 816.115 72.2832 815.102 73.4135C811.963 76.8989 808.804 79.9389 805.731 82.5892C805.031 83.1905 804.164 83.5635 803.248 83.5802C803.243 83.5802 803.232 83.5802 803.227 83.5802C803.216 83.5802 803.21 83.5802 803.2 83.5802C802.175 83.5802 801.232 83.029 800.647 82.166L790.419 67.0996V67.1052Z" fill="#D0D0D0" fill-opacity="0.22"/>
<path d="M731.946 11.7773C733.317 11.7773 735.247 11.9667 737.366 12.8297C742.113 14.7617 744.449 18.7148 745.192 20.1067C746.645 19.0878 748.476 17.9854 750.693 17.0333C754.108 15.5634 757.208 14.9677 759.528 14.7227C758.606 15.8363 757.641 16.9554 756.628 18.0856C753.49 21.5711 750.33 24.6111 747.257 27.2613C746.558 27.8627 745.691 28.2357 744.775 28.2524C744.769 28.2524 744.758 28.2524 744.753 28.2524C744.742 28.2524 744.737 28.2524 744.726 28.2524C743.702 28.2524 742.758 27.7012 742.173 26.8382L731.946 11.7718V11.7773Z" fill="#D0D0D0" fill-opacity="0.22"/>
<path d="M745.185 43.5618C746.556 43.5618 748.486 43.7646 750.605 44.6893C755.353 46.7593 757.689 50.9948 758.431 52.4861C759.884 51.3945 761.716 50.2133 763.932 49.1932C767.347 47.6183 770.447 46.98 772.767 46.7175C771.845 47.9106 770.881 49.1097 769.867 50.3207C766.729 54.0551 763.569 57.3122 760.496 60.1518C759.797 60.796 758.93 61.1957 758.014 61.2136C758.008 61.2136 757.998 61.2136 757.992 61.2136C757.981 61.2136 757.976 61.2136 757.965 61.2136C756.941 61.2136 755.998 60.623 755.412 59.6984L745.185 43.5558V43.5618Z" fill="#D0D0D0" fill-opacity="0.22"/>
<path d="M757.322 76.5229C758.693 76.5229 760.622 76.7257 762.742 77.6504C767.489 79.7204 769.825 83.9559 770.568 85.4473C772.02 84.3556 773.852 83.1744 776.069 82.1543C779.484 80.5794 782.584 79.9411 784.904 79.6786C783.982 80.8717 783.017 82.0708 782.004 83.2818C778.866 87.0162 775.706 90.2733 772.633 93.1129C771.934 93.7572 771.067 94.1569 770.151 94.1747C770.145 94.1747 770.134 94.1747 770.129 94.1747C770.118 94.1747 770.113 94.1747 770.102 94.1747C769.077 94.1747 768.134 93.5842 767.549 92.6595L757.322 76.5169V76.5229Z" fill="#D0D0D0" fill-opacity="0.22"/>
<path d="M581.901 11.7773C583.272 11.7773 585.202 11.9667 587.321 12.8297C592.069 14.7617 594.405 18.7148 595.147 20.1067C596.6 19.0878 598.432 17.9854 600.648 17.0333C604.063 15.5634 607.163 14.9677 609.483 14.7227C608.561 15.8363 607.597 16.9554 606.583 18.0856C603.445 21.5711 600.285 24.6111 597.212 27.2613C596.513 27.8627 595.646 28.2357 594.73 28.2524C594.724 28.2524 594.713 28.2524 594.708 28.2524C594.697 28.2524 594.692 28.2524 594.681 28.2524C593.657 28.2524 592.714 27.7012 592.128 26.8382L581.901 11.7718V11.7773Z" fill="#D0D0D0" fill-opacity="0.22"/>
<path d="M595.14 43.5618C596.511 43.5618 598.441 43.7646 600.56 44.6893C605.308 46.7593 607.644 50.9948 608.386 52.4861C609.839 51.3945 611.671 50.2133 613.888 49.1932C617.302 47.6183 620.402 46.98 622.722 46.7175C621.801 47.9106 620.836 49.1097 619.822 50.3207C616.684 54.0551 613.524 57.3122 610.451 60.1518C609.752 60.796 608.885 61.1957 607.969 61.2136C607.964 61.2136 607.953 61.2136 607.947 61.2136C607.936 61.2136 607.931 61.2136 607.92 61.2136C606.896 61.2136 605.953 60.623 605.367 59.6984L595.14 43.5558V43.5618Z" fill="#D0D0D0" fill-opacity="0.22"/>
<path d="M607.276 76.5229C608.702 76.5229 610.709 76.7257 612.913 77.6504C617.85 79.7204 620.28 83.9559 621.052 85.4473C622.563 84.3556 624.468 83.1744 626.773 82.1543C630.324 80.5794 633.548 79.9411 635.961 79.6786C635.003 80.8717 633.999 82.0708 632.945 83.2818C629.682 87.0162 626.395 90.2733 623.199 93.1129C622.472 93.7572 621.57 94.1569 620.618 94.1747C620.612 94.1747 620.601 94.1747 620.595 94.1747C620.584 94.1747 620.578 94.1747 620.567 94.1747C619.502 94.1747 618.521 93.5842 617.912 92.6595L607.276 76.5169V76.5229Z" fill="#D0D0D0" fill-opacity="0.22"/>
<path d="M431.857 11.7773C433.283 11.7773 435.29 11.9667 437.494 12.8297C442.431 14.7617 444.861 18.7148 445.633 20.1067C447.144 19.0878 449.049 17.9854 451.354 17.0333C454.905 15.5634 458.129 14.9677 460.542 14.7227C459.584 15.8363 458.58 16.9554 457.526 18.0856C454.263 21.5711 450.977 24.6111 447.781 27.2613C447.053 27.8627 446.152 28.2357 445.199 28.2524C445.193 28.2524 445.182 28.2524 445.176 28.2524C445.165 28.2524 445.159 28.2524 445.148 28.2524C444.083 28.2524 443.102 27.7012 442.493 26.8382L431.857 11.7718V11.7773Z" fill="#D0D0D0" fill-opacity="0.22"/>
<path d="M446.2 43.5618C447.516 43.5618 449.368 43.7646 451.403 44.6893C455.961 46.7593 458.203 50.9948 458.916 52.4861C460.31 51.3945 462.069 50.2133 464.197 49.1932C467.475 47.6183 470.451 46.98 472.678 46.7175C471.794 47.9106 470.868 49.1097 469.895 50.3207C466.882 54.0551 463.849 57.3122 460.898 60.1518C460.227 60.796 459.395 61.1957 458.515 61.2136C458.51 61.2136 458.5 61.2136 458.495 61.2136C458.484 61.2136 458.479 61.2136 458.469 61.2136C457.485 61.2136 456.58 60.623 456.018 59.6984L446.2 43.5558V43.5618Z" fill="#D0D0D0" fill-opacity="0.22"/>
<path d="M458.335 76.5229C459.707 76.5229 461.636 76.7257 463.755 77.6504C468.503 79.7204 470.839 83.9559 471.582 85.4473C473.034 84.3556 474.866 83.1744 477.083 82.1543C480.497 80.5794 483.598 79.9411 485.917 79.6786C484.996 80.8717 484.031 82.0708 483.018 83.2818C479.879 87.0162 476.72 90.2733 473.647 93.1129C472.947 93.7572 472.08 94.1569 471.164 94.1747C471.159 94.1747 471.148 94.1747 471.143 94.1747C471.132 94.1747 471.126 94.1747 471.116 94.1747C470.091 94.1747 469.148 93.5842 468.563 92.6595L458.335 76.5169V76.5229Z" fill="#D0D0D0" fill-opacity="0.22"/>
<path d="M282.914 11.7773C284.285 11.7773 286.214 11.9667 288.333 12.8297C293.081 14.7617 295.417 18.7148 296.16 20.1067C297.612 19.0878 299.444 17.9854 301.661 17.0333C305.075 15.5634 308.176 14.9677 310.495 14.7227C309.574 15.8363 308.609 16.9554 307.596 18.0856C304.458 21.5711 301.298 24.6111 298.225 27.2613C297.526 27.8627 296.658 28.2357 295.742 28.2524C295.737 28.2524 295.726 28.2524 295.721 28.2524C295.71 28.2524 295.704 28.2524 295.694 28.2524C294.669 28.2524 293.726 27.7012 293.141 26.8382L282.914 11.7718V11.7773Z" fill="#D0D0D0" fill-opacity="0.22"/>
<path d="M296.153 43.5618C297.524 43.5618 299.454 43.7646 301.573 44.6893C306.321 46.7593 308.656 50.9948 309.399 52.4861C310.852 51.3945 312.683 50.2133 314.9 49.1932C318.315 47.6183 321.415 46.98 323.735 46.7175C322.813 47.9106 321.848 49.1097 320.835 50.3207C317.697 54.0551 314.537 57.3122 311.464 60.1518C310.765 60.796 309.898 61.1957 308.982 61.2136C308.976 61.2136 308.965 61.2136 308.96 61.2136C308.949 61.2136 308.944 61.2136 308.933 61.2136C307.909 61.2136 306.965 60.623 306.38 59.6984L296.153 43.5558V43.5618Z" fill="#D0D0D0" fill-opacity="0.22"/>
<path d="M308.291 76.5229C309.662 76.5229 311.591 76.7257 313.71 77.6504C318.458 79.7204 320.794 83.9559 321.537 85.4473C322.989 84.3556 324.821 83.1744 327.038 82.1543C330.452 80.5794 333.553 79.9411 335.872 79.6786C334.951 80.8717 333.986 82.0708 332.973 83.2818C329.835 87.0162 326.675 90.2733 323.602 93.1129C322.903 93.7572 322.035 94.1569 321.119 94.1747C321.114 94.1747 321.103 94.1747 321.098 94.1747C321.087 94.1747 321.081 94.1747 321.071 94.1747C320.046 94.1747 319.103 93.5842 318.518 92.6595L308.291 76.5169V76.5229Z" fill="#D0D0D0" fill-opacity="0.22"/>
<path d="M132.869 11.7773C134.24 11.7773 136.17 11.9667 138.289 12.8297C143.037 14.7617 145.373 18.7148 146.115 20.1067C147.568 19.0878 149.4 17.9854 151.617 17.0333C155.031 15.5634 158.131 14.9677 160.451 14.7227C159.53 15.8363 158.565 16.9554 157.551 18.0856C154.413 21.5711 151.253 24.6111 148.18 27.2613C147.481 27.8627 146.614 28.2357 145.698 28.2524C145.693 28.2524 145.682 28.2524 145.676 28.2524C145.665 28.2524 145.66 28.2524 145.649 28.2524C144.625 28.2524 143.682 27.7012 143.096 26.8382L132.869 11.7718V11.7773Z" fill="#D0D0D0" fill-opacity="0.22"/>
<path d="M147.211 43.5618C148.528 43.5618 150.38 43.7646 152.415 44.6893C156.972 46.7593 159.215 50.9948 159.928 52.4861C161.322 51.3945 163.081 50.2133 165.209 49.1932C168.487 47.6183 171.463 46.98 173.69 46.7175C172.805 47.9106 171.879 49.1097 170.906 50.3207C167.894 54.0551 164.86 57.3122 161.91 60.1518C161.239 60.796 160.406 61.1957 159.527 61.2136C159.522 61.2136 159.512 61.2136 159.506 61.2136C159.496 61.2136 159.491 61.2136 159.48 61.2136C158.497 61.2136 157.592 60.623 157.03 59.6984L147.211 43.5558V43.5618Z" fill="#D0D0D0" fill-opacity="0.22"/>
<path d="M159.348 76.5229C160.719 76.5229 162.648 76.7257 164.768 77.6504C169.515 79.7204 171.851 83.9559 172.594 85.4473C174.046 84.3556 175.878 83.1744 178.095 82.1543C181.51 80.5794 184.61 79.9411 186.929 79.6786C186.008 80.8717 185.043 82.0708 184.03 83.2818C180.892 87.0162 177.732 90.2733 174.659 93.1129C173.96 93.7572 173.092 94.1569 172.177 94.1747C172.171 94.1747 172.16 94.1747 172.155 94.1747C172.144 94.1747 172.139 94.1747 172.128 94.1747C171.103 94.1747 170.16 93.5842 169.575 92.6595L159.348 76.5169V76.5229Z" fill="#D0D0D0" fill-opacity="0.22"/>
<path d="M656.923 11.7773C658.295 11.7773 660.224 11.9667 662.343 12.8297C667.091 14.7617 669.427 18.7148 670.17 20.1067C671.622 19.0878 673.454 17.9854 675.671 17.0333C679.085 15.5634 682.185 14.9677 684.505 14.7227C683.584 15.8363 682.619 16.9554 681.605 18.0856C678.467 21.5711 675.308 24.6111 672.234 27.2613C671.535 27.8627 670.668 28.2357 669.752 28.2524C669.747 28.2524 669.736 28.2524 669.731 28.2524C669.72 28.2524 669.714 28.2524 669.703 28.2524C668.679 28.2524 667.736 27.7012 667.151 26.8382L656.923 11.7718V11.7773Z" fill="#D0D0D0" fill-opacity="0.22"/>
<path d="M670.163 43.5618C671.534 43.5618 673.463 43.7646 675.582 44.6893C680.33 46.7593 682.666 50.9948 683.409 52.4861C684.861 51.3945 686.693 50.2133 688.91 49.1932C692.324 47.6183 695.425 46.98 697.744 46.7175C696.823 47.9106 695.858 49.1097 694.845 50.3207C691.707 54.0551 688.547 57.3122 685.474 60.1518C684.775 60.796 683.907 61.1957 682.991 61.2136C682.986 61.2136 682.975 61.2136 682.97 61.2136C682.959 61.2136 682.954 61.2136 682.943 61.2136C681.918 61.2136 680.975 60.623 680.39 59.6984L670.163 43.5558V43.5618Z" fill="#D0D0D0" fill-opacity="0.22"/>
<path d="M682.298 76.5229C683.67 76.5229 685.599 76.7257 687.718 77.6504C692.466 79.7204 694.802 83.9559 695.545 85.4473C696.997 84.3556 698.829 83.1744 701.046 82.1543C704.46 80.5794 707.56 79.9411 709.88 79.6786C708.959 80.8717 707.994 82.0708 706.98 83.2818C703.842 87.0162 700.683 90.2733 697.609 93.1129C696.91 93.7572 696.043 94.1569 695.127 94.1747C695.122 94.1747 695.111 94.1747 695.106 94.1747C695.095 94.1747 695.089 94.1747 695.078 94.1747C694.054 94.1747 693.111 93.5842 692.526 92.6595L682.298 76.5169V76.5229Z" fill="#D0D0D0" fill-opacity="0.22"/>
<path d="M506.879 11.7773C508.251 11.7773 510.18 11.9667 512.299 12.8297C517.047 14.7617 519.383 18.7148 520.126 20.1067C521.578 19.0878 523.41 17.9854 525.627 17.0333C529.041 15.5634 532.141 14.9677 534.461 14.7227C533.54 15.8363 532.575 16.9554 531.562 18.0856C528.423 21.5711 525.264 24.6111 522.191 27.2613C521.491 27.8627 520.624 28.2357 519.708 28.2524C519.703 28.2524 519.692 28.2524 519.687 28.2524C519.676 28.2524 519.67 28.2524 519.659 28.2524C518.635 28.2524 517.692 27.7012 517.107 26.8382L506.879 11.7718V11.7773Z" fill="#D0D0D0" fill-opacity="0.22"/>
<path d="M520.119 43.5618C521.49 43.5618 523.419 43.7646 525.539 44.6893C530.286 46.7593 532.622 50.9948 533.365 52.4861C534.817 51.3945 536.649 50.2133 538.866 49.1932C542.281 47.6183 545.381 46.98 547.7 46.7175C546.779 47.9106 545.814 49.1097 544.801 50.3207C541.663 54.0551 538.503 57.3122 535.43 60.1518C534.731 60.796 533.863 61.1957 532.948 61.2136C532.942 61.2136 532.931 61.2136 532.926 61.2136C532.915 61.2136 532.91 61.2136 532.899 61.2136C531.874 61.2136 530.931 60.623 530.346 59.6984L520.119 43.5558V43.5618Z" fill="#D0D0D0" fill-opacity="0.22"/>
<path d="M533.358 76.5229C534.729 76.5229 536.659 76.7257 538.778 77.6504C543.526 79.7204 545.862 83.9559 546.604 85.4473C548.057 84.3556 549.889 83.1744 552.105 82.1543C555.52 80.5794 558.62 79.9411 560.94 79.6786C560.018 80.8717 559.054 82.0708 558.04 83.2818C554.902 87.0162 551.742 90.2733 548.669 93.1129C547.97 93.7572 547.103 94.1569 546.187 94.1747C546.181 94.1747 546.171 94.1747 546.165 94.1747C546.154 94.1747 546.149 94.1747 546.138 94.1747C545.114 94.1747 544.171 93.5842 543.585 92.6595L533.358 76.5169V76.5229Z" fill="#D0D0D0" fill-opacity="0.22"/>
<path d="M357.938 11.7773C359.309 11.7773 361.239 11.9667 363.358 12.8297C368.106 14.7617 370.442 18.7148 371.184 20.1067C372.637 19.0878 374.469 17.9854 376.685 17.0333C380.1 15.5634 383.2 14.9677 385.52 14.7227C384.598 15.8363 383.634 16.9554 382.62 18.0856C379.482 21.5711 376.322 24.6111 373.249 27.2613C372.55 27.8627 371.683 28.2357 370.767 28.2524C370.761 28.2524 370.751 28.2524 370.745 28.2524C370.734 28.2524 370.729 28.2524 370.718 28.2524C369.694 28.2524 368.751 27.7012 368.165 26.8382L357.938 11.7718V11.7773Z" fill="#D0D0D0" fill-opacity="0.22"/>
<path d="M371.177 43.5618C372.548 43.5618 374.478 43.7646 376.597 44.6893C381.345 46.7593 383.681 50.9948 384.423 52.4861C385.876 51.3945 387.708 50.2133 389.925 49.1932C393.339 47.6183 396.439 46.98 398.759 46.7175C397.838 47.9106 396.873 49.1097 395.859 50.3207C392.721 54.0551 389.561 57.3122 386.488 60.1518C385.789 60.796 384.922 61.1957 384.006 61.2136C384.001 61.2136 383.99 61.2136 383.984 61.2136C383.974 61.2136 383.968 61.2136 383.957 61.2136C382.933 61.2136 381.99 60.623 381.405 59.6984L371.177 43.5558V43.5618Z" fill="#D0D0D0" fill-opacity="0.22"/>
<path d="M383.313 76.5229C384.684 76.5229 386.614 76.7257 388.733 77.6504C393.481 79.7204 395.817 83.9559 396.559 85.4473C398.012 84.3556 399.844 83.1744 402.06 82.1543C405.475 80.5794 408.575 79.9411 410.895 79.6786C409.973 80.8717 409.009 82.0708 407.995 83.2818C404.857 87.0162 401.697 90.2733 398.624 93.1129C397.925 93.7572 397.058 94.1569 396.142 94.1747C396.136 94.1747 396.126 94.1747 396.12 94.1747C396.109 94.1747 396.104 94.1747 396.093 94.1747C395.069 94.1747 394.126 93.5842 393.54 92.6595L383.313 76.5169V76.5229Z" fill="#D0D0D0" fill-opacity="0.22"/>
<path d="M207.892 11.7773C209.263 11.7773 211.192 11.9667 213.311 12.8297C218.059 14.7617 220.395 18.7148 221.138 20.1067C222.59 19.0878 224.422 17.9854 226.639 17.0333C230.053 15.5634 233.154 14.9677 235.473 14.7227C234.552 15.8363 233.587 16.9554 232.574 18.0856C229.436 21.5711 226.276 24.6111 223.203 27.2613C222.504 27.8627 221.636 28.2357 220.72 28.2524C220.715 28.2524 220.704 28.2524 220.699 28.2524C220.688 28.2524 220.683 28.2524 220.672 28.2524C219.647 28.2524 218.704 27.7012 218.119 26.8382L207.892 11.7718V11.7773Z" fill="#D0D0D0" fill-opacity="0.22"/>
<path d="M221.131 43.5618C222.502 43.5618 224.432 43.7646 226.551 44.6893C231.299 46.7593 233.635 50.9948 234.377 52.4861C235.83 51.3945 237.661 50.2133 239.878 49.1932C243.293 47.6183 246.393 46.98 248.713 46.7175C247.791 47.9106 246.827 49.1097 245.813 50.3207C242.675 54.0551 239.515 57.3122 236.442 60.1518C235.743 60.796 234.876 61.1957 233.96 61.2136C233.954 61.2136 233.943 61.2136 233.938 61.2136C233.927 61.2136 233.922 61.2136 233.911 61.2136C232.887 61.2136 231.944 60.623 231.358 59.6984L221.131 43.5558V43.5618Z" fill="#D0D0D0" fill-opacity="0.22"/>
<path d="M234.37 76.5229C235.741 76.5229 237.671 76.7257 239.79 77.6504C244.538 79.7204 246.874 83.9559 247.616 85.4473C249.069 84.3556 250.901 83.1744 253.117 82.1543C256.532 80.5794 259.632 79.9411 261.952 79.6786C261.031 80.8717 260.066 82.0708 259.052 83.2818C255.914 87.0162 252.754 90.2733 249.681 93.1129C248.982 93.7572 248.115 94.1569 247.199 94.1747C247.194 94.1747 247.183 94.1747 247.177 94.1747C247.166 94.1747 247.161 94.1747 247.15 94.1747C246.126 94.1747 245.183 93.5842 244.597 92.6595L234.37 76.5169V76.5229Z" fill="#D0D0D0" fill-opacity="0.22"/>
<path d="M84.3252 76.5229C85.6964 76.5229 87.6259 76.7257 89.7451 77.6504C94.4929 79.7204 96.8289 83.9559 97.5714 85.4473C99.0239 84.3556 100.856 83.1744 103.073 82.1543C106.487 80.5794 109.587 79.9411 111.907 79.6786C110.986 80.8717 110.021 82.0708 109.007 83.2818C105.869 87.0162 102.709 90.2733 99.6364 93.1129C98.9372 93.7572 98.07 94.1569 97.154 94.1747C97.1486 94.1747 97.1378 94.1747 97.1324 94.1747C97.1215 94.1747 97.1161 94.1747 97.1053 94.1747C96.0809 94.1747 95.1379 93.5842 94.5525 92.6595L84.3252 76.5169V76.5229Z" fill="#D0D0D0" fill-opacity="0.22"/>
</svg>
