<svg width="459" height="17" viewBox="0 0 459 17" fill="none" xmlns="http://www.w3.org/2000/svg">
<path d="M448.66 7.5L7.32019 9V10.5H448.66V7.5Z" fill="#01004C"/>
<path d="M6.02191 13.3963C6.75418 14.8103 8.76494 14.8431 9.54296 13.4537L12.9891 7.29927C13.7286 5.97868 12.79 4.34708 11.2767 4.32239L4.58696 4.21324C3.07364 4.18855 2.08235 5.78866 2.77834 7.13267L6.02191 13.3963Z" fill="#01004C"/>
<path d="M449.022 13.3963C449.754 14.8103 451.765 14.8431 452.543 13.4537L455.989 7.29927C456.729 5.97868 455.79 4.34708 454.277 4.32239L447.587 4.21324C446.074 4.18855 445.082 5.78866 445.778 7.13267L449.022 13.3963Z" fill="#01004C"/>
</svg>
