<svg xmlns="http://www.w3.org/2000/svg" xmlns:xlink="http://www.w3.org/1999/xlink" width="1901" zoomAndPan="magnify" viewBox="0 0 1425.75 948.749989" height="1265" preserveAspectRatio="xMidYMid meet" version="1.0"><defs><filter x="0%" y="0%" width="100%" height="100%" id="9969fe416e"><feColorMatrix values="0 0 0 0 1 0 0 0 0 1 0 0 0 0 1 0 0 0 1 0" color-interpolation-filters="sRGB"/></filter><clipPath id="90f1869509"><path d="M 127 3 L 1292 3 L 1292 948.5 L 127 948.5 Z M 127 3 " clip-rule="nonzero"/></clipPath><mask id="55cd7e17e1"><g filter="url(#9969fe416e)"><rect x="-142.575" width="1710.9" fill="#000000" y="-94.874999" height="1138.499987" fill-opacity="0.52"/></g></mask><clipPath id="31de0fd04f"><path d="M 10 0.597656 L 1155 0.597656 L 1155 945.5 L 10 945.5 Z M 10 0.597656 " clip-rule="nonzero"/></clipPath><clipPath id="930d102efa"><rect x="0" width="1165" y="0" height="946"/></clipPath></defs><g clip-path="url(#90f1869509)"><g mask="url(#55cd7e17e1)"><g transform="matrix(1, 0, 0, 1, 127, 3)"><g clip-path="url(#930d102efa)"><g clip-path="url(#31de0fd04f)"><path fill="#efdbc8" d="M 1152.140625 680.910156 C 1146.0625 667.78125 1133.925781 665.101562 1117.128906 661.394531 C 1105.980469 658.933594 1092.105469 655.871094 1074.164062 649.011719 C 1042.511719 636.902344 1019.644531 628.160156 1005.496094 607.054688 C 991.859375 586.707031 985.117188 552.691406 988.734375 522.410156 C 989.171875 518.703125 989.769531 515.03125 990.332031 511.542969 C 992.632812 497.371094 994.804688 483.988281 984.65625 477.402344 C 975.597656 471.503906 965.160156 477.164062 956.78125 481.707031 C 956 482.132812 955.074219 482.632812 954.109375 483.144531 C 956.828125 462.429688 954.773438 453.296875 947.207031 449.617188 C 937.777344 445.019531 930.542969 453.988281 924.148438 461.902344 C 919.324219 467.871094 912.035156 476.902344 906.738281 477.144531 C 904.058594 477.328125 889.351562 474.511719 866.019531 407.488281 C 864.3125 402.601562 866.59375 397.152344 871.308594 394.808594 C 879.355469 390.800781 884.945312 383.449219 886.632812 374.628906 C 888.34375 365.6875 885.808594 356.648438 879.695312 349.824219 C 869.84375 338.839844 859.035156 329.785156 847.578125 322.925781 L 845.488281 321.6875 C 840.507812 318.761719 834.3125 315.121094 833.621094 311.050781 C 833.214844 308.625 834.785156 306.125 837.390625 302.273438 C 840.652344 297.421875 845.132812 290.789062 842.417969 282.503906 C 838.957031 271.917969 827.679688 269.683594 818.621094 267.902344 C 813.835938 266.960938 806.585938 265.523438 805.484375 263.226562 C 804.394531 260.980469 808.09375 254.46875 810.300781 250.578125 C 814.460938 243.246094 819.621094 234.125 813.945312 225.765625 C 807.683594 216.546875 796.261719 219.390625 786.195312 221.90625 C 776.265625 224.375 765.011719 227.191406 755.625 222.675781 C 748.800781 219.398438 746.148438 213.835938 742.378906 205.035156 C 738.328125 195.578125 733.292969 183.820312 719.019531 177.222656 C 708.671875 172.4375 700.660156 173.691406 692.191406 175.015625 C 686.324219 175.933594 679.671875 176.980469 670.152344 176.398438 C 647.929688 175.054688 632.019531 166.339844 619.238281 159.34375 C 594.933594 146.035156 585.832031 130.109375 574.300781 109.9375 C 564.335938 92.496094 553.042969 72.714844 529.757812 51.640625 C 519.652344 42.488281 488.917969 14.652344 443.621094 4.132812 C 415.726562 -2.347656 398.738281 1.441406 379.03125 5.820312 C 362.6875 9.464844 344.199219 13.554688 314.046875 12.980469 C 286 12.417969 260.722656 7.929688 242.28125 4.660156 C 215.671875 -0.0664062 201.007812 -2.671875 196 9.539062 C 192.574219 17.878906 198.445312 24.273438 204.113281 30.453125 C 210.082031 36.976562 218.304688 45.941406 223.066406 61.070312 C 225.519531 68.855469 229.226562 80.640625 223.820312 90.1875 C 218.1875 100.152344 205.058594 103.378906 202.480469 103.925781 C 195.902344 105.304688 191.324219 104.289062 186.472656 103.1875 C 180.367188 101.816406 172.742188 100.097656 163.730469 104.722656 C 156.417969 108.476562 153.472656 112.980469 151.09375 116.605469 C 149.375 119.242188 148.132812 121.140625 144.722656 123.320312 C 133.875 130.273438 117.558594 126.664062 96.863281 122.09375 C 85.496094 119.585938 79.320312 117.226562 74.8125 115.5 C 68.960938 113.265625 64.355469 111.511719 56.707031 112.964844 C 34.527344 117.207031 18.148438 141.910156 12.316406 163.070312 C 9.691406 172.589844 8.183594 185.382812 15.894531 192.222656 C 24.089844 199.511719 34.21875 194.324219 43.152344 189.761719 C 50.355469 186.089844 58.523438 181.921875 63.394531 184.429688 C 66.972656 186.265625 67.734375 191.96875 68.734375 205.515625 C 69.652344 218.007812 70.804688 233.542969 77.210938 251.960938 C 85.5625 275.972656 96.871094 287.011719 105.957031 295.886719 C 114.105469 303.84375 119.992188 309.597656 122.457031 323.214844 C 125.609375 340.640625 120.394531 355.222656 115.351562 369.324219 C 109.617188 385.359375 103.6875 401.9375 114.871094 417.648438 C 119.320312 423.90625 123.699219 425.933594 128.324219 428.078125 C 132.042969 429.792969 136.65625 431.9375 144.050781 437.707031 C 146.621094 439.714844 169.398438 457.902344 177.648438 479.21875 C 183.035156 493.117188 179.902344 502.546875 175.570312 515.605469 C 171.808594 526.933594 167.546875 539.78125 167.910156 557.824219 C 169.027344 612.570312 211.601562 651.429688 225.601562 664.203125 C 260.46875 696.027344 299.136719 707.3125 325.421875 711.164062 C 327.527344 711.472656 329.390625 712.300781 330.808594 713.5625 C 337.332031 719.367188 340.839844 725.15625 341.246094 730.761719 C 341.628906 736.058594 339.15625 739.28125 334.378906 745.007812 C 330.390625 749.777344 325.421875 755.71875 323.265625 764.175781 C 312.746094 805.46875 377.679688 860.070312 428.601562 883.601562 C 437.152344 887.554688 444.199219 890.1875 450.425781 892.496094 C 462.535156 897.019531 470.539062 900 481.105469 909.378906 C 488.273438 915.738281 494.570312 923.304688 499.832031 931.855469 C 505.144531 940.511719 514.382812 945.480469 524.25 945.480469 C 526.859375 945.480469 529.511719 945.136719 532.144531 944.417969 C 544.53125 941.046875 552.679688 930.726562 552.925781 918.136719 C 553.042969 911.992188 552.261719 905.925781 550.625 900.121094 C 548.582031 892.894531 545.210938 886.046875 540.59375 879.742188 C 539.515625 877.222656 539.394531 874.445312 540.269531 871.828125 C 541.214844 868.984375 543.230469 866.667969 545.929688 865.324219 C 551.28125 862.660156 557.75 864.613281 560.746094 869.636719 C 562.917969 877.542969 566.515625 884.492188 571.441406 890.296875 C 588.691406 910.628906 616.601562 910.777344 643.585938 910.921875 C 651.953125 910.957031 660.601562 911.011719 668.898438 911.640625 C 696.308594 913.71875 724.007812 922.632812 751.246094 938.132812 C 763.421875 945.054688 778.691406 942.410156 787.585938 931.835938 C 806.949219 908.839844 827.742188 885.855469 849.511719 863.40625 C 858.652344 853.984375 864.683594 847.761719 866.675781 846.234375 C 889.105469 828.953125 911.21875 831.371094 939.230469 834.414062 C 964.503906 837.167969 993.160156 840.285156 1028 829.554688 C 1075.261719 815 1102.527344 780.574219 1122.433594 755.445312 L 1123.679688 753.875 C 1140.257812 732.96875 1162.980469 704.296875 1152.140625 680.910156 Z M 1109.414062 742.636719 L 1108.179688 744.199219 C 1088.726562 768.765625 1064.515625 799.328125 1022.640625 812.21875 C 991.371094 821.851562 965.859375 819.050781 941.191406 816.378906 C 911.699219 813.164062 883.816406 810.128906 855.589844 831.863281 C 852.566406 834.195312 847.851562 839.058594 836.355469 850.894531 C 814.398438 873.542969 793.3125 896.847656 773.675781 920.171875 C 770.433594 924.03125 764.773438 924.957031 760.222656 922.378906 C 730.632812 905.535156 700.367188 895.847656 670.261719 893.558594 C 661.328125 892.878906 652.351562 892.832031 643.667969 892.796875 C 618.691406 892.667969 597.125 892.550781 585.285156 878.597656 C 581.925781 874.636719 579.488281 869.746094 578.035156 864.070312 C 577.871094 863.433594 577.644531 862.816406 577.355469 862.234375 C 570.085938 847.761719 552.359375 841.855469 537.816406 849.097656 C 530.757812 852.613281 525.503906 858.652344 523.015625 866.121094 C 520.535156 873.5625 521.109375 881.523438 524.632812 888.542969 C 524.878906 889.035156 525.167969 889.5 525.503906 889.945312 C 529.058594 894.648438 531.621094 899.746094 533.128906 905.089844 C 534.28125 909.1875 534.835938 913.472656 534.746094 917.835938 C 534.617188 924.449219 529.066406 926.464844 527.367188 926.929688 C 523.535156 927.972656 518.347656 927.328125 515.3125 922.386719 C 509.125 912.3125 501.675781 903.378906 493.171875 895.832031 C 480.070312 884.191406 469.277344 880.167969 456.765625 875.515625 C 450.851562 873.308594 444.136719 870.800781 436.214844 867.148438 C 381.839844 842.019531 334.613281 793.257812 340.875 768.699219 C 342.011719 764.242188 344.9375 760.742188 348.316406 756.691406 C 353.648438 750.304688 360.296875 742.355469 359.371094 729.488281 C 358.617188 718.996094 353.066406 709.074219 342.890625 700.015625 C 338.820312 696.402344 333.707031 694.046875 328.074219 693.210938 C 308.605469 690.351562 270.992188 681.039062 237.847656 650.792969 C 225.28125 639.328125 187.042969 604.421875 186.089844 557.46875 C 185.78125 542.542969 189.359375 531.765625 192.820312 521.335938 C 197.5 507.238281 202.34375 492.65625 194.601562 472.667969 C 184.789062 447.335938 160.078125 427.175781 155.234375 423.398438 C 146.195312 416.347656 140.28125 413.613281 135.976562 411.613281 C 132.332031 409.925781 131.351562 409.46875 129.6875 407.136719 C 124.253906 399.503906 126.90625 391.035156 132.476562 375.472656 C 137.773438 360.65625 144.378906 342.210938 140.355469 320.007812 C 136.855469 300.683594 127.605469 291.652344 118.667969 282.921875 C 110.144531 274.589844 101.332031 265.988281 94.382812 246.015625 C 88.757812 229.855469 87.714844 215.636719 86.867188 204.207031 C 85.695312 188.507812 84.699219 174.960938 71.6875 168.273438 C 67.800781 166.277344 63.867188 165.476562 59.996094 165.476562 C 50.773438 165.476562 41.925781 170 34.890625 173.589844 C 32.957031 174.582031 30.394531 175.886719 28.371094 176.742188 C 28.46875 172.34375 30.175781 163.785156 35.664062 153.585938 C 42.453125 140.957031 51.601562 132.441406 60.121094 130.816406 C 62.59375 130.324219 63.246094 130.535156 68.328125 132.46875 C 73.078125 134.289062 80.273438 137.03125 92.957031 139.839844 C 116.796875 145.109375 137.363281 149.640625 154.546875 138.613281 C 161.214844 134.332031 164.15625 129.835938 166.300781 126.554688 C 168.089844 123.820312 168.992188 122.441406 172.023438 120.886719 C 175.023438 119.351562 177.058594 119.695312 182.480469 120.90625 C 188.097656 122.175781 195.808594 123.910156 206.242188 121.6875 C 211.738281 120.523438 230.390625 115.453125 239.628906 99.117188 C 248.90625 82.703125 243.363281 65.074219 240.382812 55.609375 C 234.695312 37.53125 225.164062 26.574219 218.433594 19.203125 C 224.191406 19.875 231.90625 21.238281 239.046875 22.511719 C 258.089844 25.890625 284.15625 30.515625 313.628906 31.113281 C 345.84375 31.722656 366.441406 27.191406 382.929688 23.527344 C 401.890625 19.3125 415.601562 16.269531 439.457031 21.804688 C 480.160156 31.261719 508.269531 56.71875 517.511719 65.074219 C 538.640625 84.210938 548.726562 101.851562 558.476562 118.914062 C 570.394531 139.773438 581.652344 159.472656 610.460938 175.242188 C 624.078125 182.695312 642.722656 192.90625 668.996094 194.503906 C 680.464844 195.214844 688.484375 193.949219 694.9375 192.941406 C 702.792969 191.707031 706.191406 191.304688 711.34375 193.6875 C 719.285156 197.347656 722.082031 203.890625 725.617188 212.15625 C 729.523438 221.269531 734.382812 232.625 747.703125 239.023438 C 763.003906 246.371094 778.917969 242.402344 790.53125 239.503906 C 792.339844 239.058594 794.457031 238.523438 796.355469 238.121094 C 795.71875 239.320312 795.019531 240.566406 794.4375 241.585938 C 789.96875 249.46875 783.835938 260.261719 789.058594 271.09375 C 794.109375 281.558594 805.710938 283.859375 815.042969 285.691406 C 818.003906 286.273438 822.691406 287.210938 824.699219 288.210938 C 824.144531 289.289062 823.054688 290.917969 822.265625 292.078125 C 818.976562 296.957031 814.007812 304.328125 815.640625 314.03125 C 817.730469 326.46875 828.863281 333 836.230469 337.324219 L 838.175781 338.476562 C 848.078125 344.410156 857.472656 352.296875 866.109375 361.9375 C 868.410156 364.5 869.363281 367.878906 868.726562 371.195312 C 868.363281 373.074219 867.175781 376.519531 863.148438 378.527344 C 850.265625 384.941406 844.097656 399.957031 848.804688 413.457031 C 868.855469 471.023438 887.261719 496.105469 907.53125 495.289062 C 920.039062 494.707031 929.535156 483.988281 936.65625 475.238281 C 936.292969 479.082031 935.640625 484.125 934.515625 490.691406 C 934.03125 493.507812 933.488281 496.6875 936.230469 499.949219 C 936.683594 500.496094 937.210938 500.984375 937.785156 501.402344 C 946.550781 507.882812 957 502.210938 965.386719 497.679688 C 967.855469 496.335938 971.617188 494.300781 974.082031 493.445312 C 974.234375 497.023438 973.136719 503.828125 972.355469 508.617188 C 971.746094 512.359375 971.117188 516.285156 970.644531 520.246094 C 966.492188 555.0625 974.242188 593.101562 990.359375 617.160156 C 1007.714844 643.0625 1034.152344 653.171875 1067.628906 665.984375 C 1086.808594 673.324219 1102.035156 676.675781 1113.15625 679.128906 C 1128.382812 682.492188 1133.480469 683.964844 1135.605469 688.550781 C 1141.785156 701.777344 1121.523438 727.355469 1109.414062 742.636719 Z M 1109.414062 742.636719 " fill-opacity="1" fill-rule="nonzero"/></g></g></g></g></g></svg>