<svg width="187" height="66" viewBox="0 0 187 66" fill="none" xmlns="http://www.w3.org/2000/svg">
<path d="M6.04731 25.6227H34.972V20.8082C34.972 19.4233 34.6183 18.3475 33.9075 17.5797C33.1967 16.8118 32.1222 16.4277 30.674 16.4277C29.1123 16.4277 27.8976 16.8749 27.03 17.7682C26.1624 18.6622 25.7286 19.757 25.7286 21.0538C25.7286 22.3498 26.079 23.2565 26.7898 23.7727L26.6763 23.7534C26.5996 23.7283 26.4761 23.703 26.2993 23.6779C26.1257 23.6529 25.9288 23.6399 25.7286 23.6399H9.98825V17.0951L9.49103 16.9253C9.16401 16.8118 8.66014 16.6984 7.99609 16.5916C7.33203 16.4845 6.66465 16.4277 5.99059 16.4277C4.34213 16.4277 3.09075 16.8872 2.23983 17.8062C1.39224 18.7252 0.961792 19.8578 0.961792 21.2046C0.961792 24.1501 2.65364 25.6227 6.04064 25.6227H6.04731ZM28.832 19.1213C29.2324 18.6435 29.7864 18.4106 30.4838 18.4106C31.8453 18.4106 32.5227 19.3105 32.5227 21.1102V23.6399H31.0777C30.1 23.6399 29.3759 23.4197 28.9188 22.9859C28.4516 22.545 28.228 21.878 28.228 20.9783C28.228 20.2165 28.4249 19.5998 28.832 19.1213ZM4.09186 19.1213C4.4923 18.6435 5.04621 18.4106 5.74364 18.4106C6.44439 18.4106 7.07177 18.5237 7.55229 18.7503V23.6399H6.33092C4.42886 23.6399 3.47453 22.7526 3.47453 20.9783C3.47453 20.2165 3.67475 19.5998 4.08519 19.1213H4.09186Z" fill="#8A8A8A"/>
<path d="M4.24202 15.3816C4.59574 15.3816 4.88941 15.2621 5.12967 15.0228C5.3666 14.7839 5.48335 14.4879 5.48335 14.1479C5.48335 13.8082 5.35988 13.4998 5.12295 13.2606C4.88269 13.028 4.58906 12.9082 4.24869 12.9082C3.90832 12.9082 3.61136 13.0343 3.37443 13.2796C3.13417 13.5252 3.01404 13.8149 3.01404 14.1479C3.01404 14.4819 3.13413 14.7839 3.36771 15.0228C3.6013 15.2621 3.895 15.3816 4.25205 15.3816H4.24202Z" fill="#8A8A8A"/>
<path d="M7.28185 15.3816C7.62222 15.3816 7.9159 15.2558 8.15616 15.0102C8.39642 14.7652 8.51656 14.4752 8.51656 14.1419C8.51656 13.8082 8.38976 13.5062 8.14282 13.2669C7.89922 13.028 7.60888 12.9082 7.27518 12.9082C6.94149 12.9082 6.63785 13.0343 6.40092 13.2796C6.16066 13.5252 6.04053 13.8149 6.04053 14.1479C6.04053 14.4819 6.16066 14.7839 6.40092 15.0228C6.63785 15.2621 6.93481 15.3816 7.27518 15.3816H7.28185Z" fill="#8A8A8A"/>
<path d="M49.7446 15.5124C50.095 15.5124 50.4054 15.3806 50.669 15.1223C50.9259 14.8643 51.0594 14.556 51.0594 14.1973C51.0594 13.8385 50.9259 13.5365 50.669 13.2723C50.4087 13.014 50.1017 12.8818 49.7446 12.8818C49.3842 12.8818 49.0838 13.014 48.8169 13.2723C48.5599 13.5302 48.4298 13.8385 48.4298 14.1973C48.4298 14.556 48.5599 14.858 48.8169 15.1223C49.0772 15.3806 49.3842 15.5124 49.7446 15.5124Z" fill="#8A8A8A"/>
<path d="M49.1907 16.5658C48.3765 16.5658 47.5891 16.6352 46.8316 16.7737V18.7308C47.5891 18.6053 48.3031 18.5423 48.9639 18.5423C50.2986 18.5423 51.2464 18.8376 51.8203 19.4356C52.3943 20.0335 52.6779 20.9525 52.6779 22.1989C52.6779 22.6581 52.6446 23.1366 52.5812 23.6461H45.1631C45.0496 21.5755 44.469 19.9581 43.4179 18.7812C42.3734 17.6106 40.8384 16.7546 38.8229 16.2197L38.2122 18.3153C39.7005 18.6931 40.8017 19.3224 41.5258 20.197C42.2466 21.072 42.637 22.2239 42.7071 23.6398H37.0743V25.6223H54.8536C55.0672 24.3259 55.1739 23.1553 55.1739 22.1041C55.1739 20.2411 54.7034 18.8503 53.7591 17.9376C52.8147 17.0253 51.2931 16.5658 49.2008 16.5658H49.1907Z" fill="#8A8A8A"/>
<path d="M69.2227 27.2567C68.9758 27.0174 68.6687 26.8916 68.2983 26.8916C67.9246 26.8916 67.6242 27.0174 67.3706 27.263C67.127 27.5086 67.0002 27.8166 67.0002 28.188C67.0002 28.5591 67.127 28.8617 67.3706 29.1133C67.6176 29.3589 67.9246 29.4844 68.2983 29.4844C68.6687 29.4844 68.9724 29.3589 69.2227 29.1133C69.4663 28.8677 69.5931 28.5591 69.5931 28.188C69.5931 27.8166 69.4663 27.4959 69.2227 27.2567Z" fill="#8A8A8A"/>
<path d="M62.355 30.6572C63.2727 31.3623 64.6342 31.7147 66.4395 31.7147L66.6096 29.7322C65.5852 29.7322 64.8044 29.537 64.2705 29.1532C63.7332 28.7631 63.4696 28.2846 63.4696 27.7187C63.4696 26.3211 64.6609 25.6227 67.0502 25.6227H82.5837V20.8082C82.5837 19.4233 82.2299 18.3475 81.5192 17.5797C80.8084 16.8118 79.7339 16.4277 78.2823 16.4277C76.724 16.4277 75.5093 16.8749 74.6417 17.7682C73.7708 18.6622 73.337 19.757 73.337 21.0538C73.337 22.3498 73.6907 23.2565 74.4015 23.7727L74.288 23.7534C74.2113 23.7283 74.0878 23.703 73.9109 23.6779C73.7341 23.6529 73.5372 23.6399 73.337 23.6399H70.9577C71.0078 23.143 71.0345 22.6331 71.0345 22.0982C71.0345 20.2355 70.5606 18.8444 69.6162 17.932C68.6752 17.0194 67.1536 16.5599 65.0613 16.5599C64.3239 16.5599 63.5129 16.6166 62.6253 16.7301V18.6872C63.3761 18.5864 64.1036 18.536 64.8144 18.536C66.1525 18.536 67.1002 18.832 67.6808 19.43C68.2581 20.0276 68.5485 20.9463 68.5485 22.1927C68.5485 22.6518 68.515 23.1304 68.4516 23.6399H67.1569C65.0746 23.6399 63.5263 24.0303 62.5152 24.8045C61.4975 25.5783 60.9902 26.5985 60.9902 27.8695C60.9902 29.0211 61.4507 29.9524 62.3684 30.6572H62.355ZM76.427 19.1213C76.8308 18.6435 77.3847 18.4106 78.0821 18.4106C79.4436 18.4106 80.1243 19.3105 80.1243 21.1102V23.6399H78.6728C77.7017 23.6399 76.9743 23.4197 76.5171 22.9859C76.0499 22.545 75.823 21.878 75.823 20.9783C75.823 20.2165 76.0265 19.5998 76.4336 19.1213H76.427Z" fill="#8A8A8A"/>
<path d="M93.0052 15.5124C93.3556 15.5124 93.666 15.3806 93.9296 15.1223C94.1866 14.8643 94.32 14.556 94.32 14.1973C94.32 13.8385 94.1866 13.5365 93.9296 13.2723C93.6727 13.014 93.3623 12.8818 93.0052 12.8818C92.6449 12.8818 92.3446 13.014 92.0776 13.2723C91.8207 13.5302 91.6906 13.8385 91.6906 14.1973C91.6906 14.556 91.8207 14.858 92.0776 15.1223C92.3379 15.3806 92.6449 15.5124 93.0052 15.5124Z" fill="#8A8A8A"/>
<path d="M89.7883 25.622H94.2565V16.679H91.7471V23.6455H89.7883H89.5014H87.8262V12.2041H85.3135V25.622H89.5014H89.7883Z" fill="#8A8A8A"/>
<path d="M98.511 30.0649C99.155 29.8066 99.6389 29.4419 99.9659 28.9701C100.293 28.4979 100.523 28.007 100.66 27.4848C100.79 26.9626 100.86 26.3706 100.86 25.6975V25.6218H106.837V16.6787H104.327V23.6456H100.867V16.6787H98.3541V25.8357C98.3541 26.8114 98.184 27.5035 97.8403 27.9002C97.4966 28.303 96.9827 28.4979 96.2953 28.4979C95.7848 28.4979 95.2775 28.4225 94.7536 28.2713L94.5668 30.2665C95.074 30.3923 95.6046 30.455 96.1652 30.455C97.0895 30.455 97.8769 30.3229 98.511 30.0649Z" fill="#8A8A8A"/>
<path d="M104.547 27.2695C104.3 27.5151 104.177 27.8238 104.177 28.1948C104.177 28.5663 104.3 28.8682 104.547 29.1198C104.794 29.3654 105.101 29.4916 105.472 29.4916C105.842 29.4916 106.146 29.3654 106.399 29.1198C106.643 28.8749 106.766 28.5663 106.766 28.1948C106.766 27.8238 106.643 27.5028 106.399 27.2635C106.152 27.0242 105.842 26.8984 105.472 26.8984C105.101 26.8984 104.798 27.0242 104.547 27.2695Z" fill="#8A8A8A"/>
<path d="M4.8794 41.3924C4.61912 41.6503 4.48901 41.9587 4.48901 42.3174C4.48901 42.6761 4.61912 42.9784 4.8794 43.2424C5.13635 43.507 5.44337 43.6325 5.80376 43.6325C6.16082 43.6325 6.46112 43.5003 6.72807 43.2424C6.98502 42.9848 7.11851 42.6761 7.11851 42.3174C7.11851 41.9587 6.98502 41.6567 6.72807 41.3924C6.46779 41.1341 6.16082 41.002 5.80376 41.002C5.44337 41.002 5.13968 41.1341 4.8794 41.3924Z" fill="#8A8A8A"/>
<path d="M33.2569 42.2359C32.3093 41.3236 30.7876 40.8644 28.6987 40.8644C27.8845 40.8644 27.1003 40.9335 26.3395 41.072V43.0291C27.1003 42.903 27.8111 42.8406 28.4718 42.8406C29.8066 42.8406 30.7576 43.1362 31.3282 43.7338C31.9022 44.3318 32.1858 45.2508 32.1858 46.4965C32.1858 46.9564 32.1524 47.4342 32.089 47.9444H24.2105V45.1063C24.2105 43.7215 23.8568 42.6453 23.146 41.8775C22.4352 41.1097 21.3607 40.7256 19.9125 40.7256C18.3542 40.7256 17.1362 41.1724 16.2686 42.0664C15.401 42.96 14.9672 44.0552 14.9672 45.3513C14.9672 46.289 14.8003 46.9564 14.4799 47.3465C14.1596 47.7429 13.6924 47.9381 13.0851 47.9381H11.2765V40.9712H8.76711V48.7186C8.76711 50.0277 8.54016 50.9527 8.09301 51.5063C7.63919 52.0602 6.97849 52.3312 6.10421 52.3312C5.33004 52.3312 4.68936 52.0539 4.17214 51.4936C3.65491 50.9337 3.39793 49.99 3.39793 48.6552C3.39793 47.4155 3.5748 46.1949 3.93186 44.9989L1.32568 45.4774C1.0387 46.61 0.88855 47.7429 0.88855 48.8821C0.88855 50.7198 1.32573 52.0856 2.21002 52.9662C3.09097 53.8475 4.31562 54.2883 5.89066 54.2883C9.03741 54.2883 10.7993 52.8281 11.1831 49.9076H13.3554C14.777 49.9076 15.6779 49.417 16.055 48.4416C16.4321 48.9388 16.9226 49.3036 17.5199 49.5428C18.1172 49.7821 19.0482 49.9016 20.323 49.9016H34.3682C34.5817 48.6051 34.6885 47.4342 34.6885 46.3837C34.6885 44.5207 34.218 43.1299 33.2736 42.2172L33.2569 42.2359ZM21.7512 47.9444H20.3029C19.3252 47.9444 18.6044 47.7242 18.1439 47.2897C17.6801 46.8489 17.4532 46.1818 17.4532 45.2822C17.4532 44.5207 17.6534 43.9037 18.0638 43.4255C18.4643 42.9473 19.0182 42.7144 19.7156 42.7144C21.0771 42.7144 21.7545 43.6144 21.7545 45.4143V47.9444H21.7512Z" fill="#8A8A8A"/>
<path d="M44.3188 47.9496H40.8551V40.983H38.3457V50.1396C38.3457 51.115 38.1755 51.8071 37.8285 52.2042C37.4914 52.607 36.9742 52.8018 36.2868 52.8018C35.7796 52.8018 35.269 52.7261 34.7485 52.5753L34.5582 54.5704C35.0688 54.6962 35.596 54.759 36.1566 54.759C37.081 54.759 37.8685 54.6268 38.5025 54.3689C39.1432 54.1106 39.6304 53.7455 39.9574 53.274C40.2845 52.8018 40.5181 52.311 40.6482 51.7884C40.7817 51.2665 40.8517 50.6745 40.8517 50.0015V49.9257H46.8316V36.5078H44.3188V47.9496Z" fill="#8A8A8A"/>
<path d="M52.3879 36.5078H49.8752V49.9257H52.3879V36.5078Z" fill="#8A8A8A"/>
<path d="M70.6375 40.7314C69.2026 40.7314 68.0381 41.1783 67.1471 42.0656C66.2528 42.9529 65.8056 44.0921 65.8056 45.4703C65.8056 46.5968 66.0826 47.4277 66.6432 47.9436H66.0326C64.5076 47.9436 63.4064 47.6286 62.729 46.9932C62.0482 46.3579 61.7079 45.3631 61.7079 44.004C61.7079 42.8397 61.9281 41.7886 62.3753 40.8636L59.6756 41.3041C59.3486 42.204 59.1785 43.1981 59.1785 44.2933C59.1785 46.1183 59.7191 47.5158 60.8069 48.4785C61.8881 49.4416 63.6766 49.9261 66.1627 49.9261H70.2171C71.6387 49.9261 72.8033 49.4796 73.7109 48.5916C74.6152 47.7044 75.069 46.5654 75.069 45.1679C75.069 43.6953 74.6786 42.5878 73.8978 41.8453C73.1169 41.1025 72.0291 40.7314 70.6309 40.7314H70.6375ZM71.9523 47.2575C71.5586 47.717 71.0547 47.9436 70.4307 47.9436C69.0192 47.9436 68.3151 47.05 68.3151 45.2627C68.3151 44.4255 68.5219 43.7901 68.9457 43.362C69.3662 42.9342 69.87 42.7139 70.4674 42.7139C71.8522 42.7139 72.543 43.5759 72.543 45.3004C72.543 46.15 72.3494 46.8044 71.9523 47.2575Z" fill="#8A8A8A"/>
<path d="M70.4874 39.82C70.8378 39.82 71.1481 39.6882 71.4118 39.4299C71.6721 39.1723 71.8021 38.8636 71.8021 38.5049C71.8021 38.1462 71.6721 37.8442 71.4118 37.5795C71.1548 37.3216 70.8445 37.1895 70.4874 37.1895C70.127 37.1895 69.8267 37.3216 69.563 37.5795C69.3028 37.8378 69.1726 38.1462 69.1726 38.5049C69.1726 38.8636 69.3028 39.1656 69.563 39.4299C69.82 39.6882 70.127 39.82 70.4874 39.82Z" fill="#8A8A8A"/>
<path d="M92.6414 51.3179C92.301 51.3179 92.004 51.4373 91.7638 51.6766C91.5268 51.9158 91.4066 52.2115 91.4066 52.5515C91.4066 52.8912 91.5268 53.1869 91.7638 53.4261C92.004 53.6654 92.301 53.7849 92.6414 53.7849C92.9784 53.7849 93.2754 53.6591 93.5156 53.4138C93.7526 53.1682 93.8727 52.8789 93.8727 52.5452C93.8727 52.2115 93.7459 51.9092 93.5023 51.6702C93.2554 51.431 92.965 51.3115 92.6347 51.3115L92.6414 51.3179Z" fill="#8A8A8A"/>
<path d="M89.5948 51.3179C89.2544 51.3179 88.9574 51.4373 88.7205 51.6766C88.4802 51.9158 88.3601 52.2115 88.3601 52.5515C88.3601 52.8912 88.4802 53.1869 88.7205 53.4261C88.9574 53.6654 89.2544 53.7849 89.5948 53.7849C89.9351 53.7849 90.2289 53.6591 90.4691 53.4138C90.7094 53.1682 90.8262 52.8789 90.8262 52.5452C90.8262 52.2115 90.7027 51.9092 90.4558 51.6702C90.2122 51.431 89.9218 51.3115 89.5881 51.3115L89.5948 51.3179Z" fill="#8A8A8A"/>
<path d="M106.44 41.877C105.756 41.1152 104.761 40.7375 103.453 40.7375C102.412 40.7375 101.451 41.0461 100.57 41.6691C99.6891 42.2918 99.0484 43.1604 98.638 44.2746H98.5979C98.7514 43.4624 98.8281 42.5247 98.8281 41.4549V40.9767H96.3154V47.9436H92.3946V40.9767H89.8851V47.9436H85.9642V41.3985L85.467 41.2287C85.14 41.1152 84.6328 41.0017 83.9754 40.895C83.3047 40.7878 82.6407 40.7314 81.9666 40.7314C80.3181 40.7314 79.0634 41.1906 78.2158 42.1093C77.3649 43.0286 76.9377 44.1612 76.9377 45.5083C76.9377 48.4535 78.6296 49.9261 82.0166 49.9261H83.5216V50.2094C83.5216 51.8959 82.427 52.7392 80.2313 52.7392C79.2402 52.7392 78.2459 52.6324 77.2581 52.4181L77.108 54.476L77.5284 54.5328C77.7953 54.5835 78.1724 54.6272 78.6496 54.6649C79.1335 54.7026 79.5806 54.7216 80.0011 54.7216C82.0233 54.7216 83.5149 54.2812 84.496 53.4002C85.4737 52.5189 85.9642 51.3737 85.9642 49.9638V49.9261H101.648C103.653 49.9261 105.118 49.4793 106.066 48.5916C107.004 47.7044 107.474 46.5211 107.474 45.0551C107.474 43.6953 107.134 42.6382 106.446 41.877H106.44ZM83.5249 47.95H82.3069C80.4049 47.95 79.4505 47.0627 79.4505 45.2881C79.4505 44.5262 79.6507 43.9096 80.0578 43.4314C80.4616 42.9529 81.0155 42.7199 81.7129 42.7199C82.4137 42.7199 83.0444 42.8334 83.5216 43.0596L83.5249 47.95ZM104.227 47.2198C103.774 47.7107 102.993 47.95 101.878 47.95H98.8148C99.015 46.5528 99.5056 45.3378 100.286 44.2933C101.067 43.2548 101.955 42.7326 102.943 42.7326C104.251 42.7326 104.901 43.5572 104.901 45.2056C104.901 46.0556 104.674 46.7226 104.227 47.2135V47.2198Z" fill="#8A8A8A"/>
<path d="M101.941 37.5851C101.685 37.8434 101.551 38.1517 101.551 38.5104C101.551 38.8688 101.685 39.1711 101.941 39.4354C102.198 39.6937 102.509 39.8258 102.869 39.8258C103.226 39.8258 103.526 39.6937 103.793 39.4354C104.05 39.1775 104.184 38.8688 104.184 38.5104C104.184 38.1517 104.05 37.8494 103.793 37.5851C103.533 37.3271 103.226 37.1953 102.869 37.1953C102.509 37.1953 102.205 37.3271 101.941 37.5851Z" fill="#8A8A8A"/>
<path d="M168.57 35.4079C168.263 35.2313 167.696 34.9353 166.915 34.6901C165.787 34.3314 164.222 34.0607 162.36 34.3567C161.736 34.4575 161.075 34.6207 160.391 34.8663C160.328 34.8916 160.258 34.9103 160.194 34.9353C159.847 35.0675 159.497 35.2253 159.15 35.4012C158.853 35.5523 158.556 35.7159 158.262 35.8921C157.588 36.2952 156.921 36.7607 156.28 37.2579C155.546 32.8084 155.903 28.6799 156.073 26.6473C156.073 26.6347 156.083 26.628 156.097 26.6347C157.672 27.6287 157.231 30.3981 156.897 31.1909C156.897 31.2036 156.914 31.2163 156.928 31.2036C158.886 28.8811 157.929 26.326 157.525 25.6716C157.518 25.6593 157.538 25.6463 157.552 25.6526C157.835 25.8855 158.069 26.1244 158.262 26.3767C158.873 27.1506 159.093 27.9878 159.15 28.7303C159.183 29.1207 159.177 29.4854 159.15 29.7934C159.15 29.8758 159.137 29.9573 159.13 30.033C159.13 30.0457 159.137 30.0457 159.15 30.0457C159.15 30.0457 159.157 30.0457 159.163 30.0457C159.691 29.0072 159.941 27.4335 159.15 25.9042C158.936 25.4891 158.646 25.08 158.262 24.6835C158.149 24.5701 158.035 24.4566 157.909 24.3438C157.899 24.3312 157.909 24.3121 157.922 24.3185C158.042 24.3498 158.156 24.3812 158.262 24.4189C158.596 24.5387 158.893 24.6962 159.15 24.8911C159.747 25.3312 160.151 25.9359 160.391 26.5649C160.591 27.0875 160.678 27.6224 160.678 28.0946C160.678 28.1133 160.705 28.1133 160.712 28.0946C161.075 26.7351 160.855 25.7157 160.391 24.9665C160.054 24.4316 159.604 24.0412 159.15 23.7645C158.84 23.576 158.533 23.4499 158.262 23.3681C158.105 23.3237 157.962 23.2927 157.835 23.2737C157.815 23.2737 157.822 23.2483 157.835 23.2423C157.979 23.2296 158.122 23.2236 158.256 23.2169C158.583 23.2169 158.88 23.2423 159.143 23.2927C159.667 23.3871 160.074 23.576 160.385 23.7836C160.882 24.1236 161.132 24.5137 161.216 24.6772C161.219 24.6895 161.246 24.6772 161.246 24.6645C161.175 23.9471 160.842 23.3871 160.385 22.984C160.024 22.6757 159.597 22.4558 159.143 22.3297C158.846 22.2482 158.546 22.2038 158.256 22.2038C157.862 22.2038 157.475 22.2669 157.141 22.4054C157.128 22.4054 157.118 22.3927 157.121 22.38C157.411 21.9646 157.822 21.7126 158.249 21.5805C158.546 21.4927 158.853 21.461 159.137 21.4737C159.414 21.4927 159.667 21.5495 159.867 21.6436C159.881 21.6502 159.894 21.6309 159.887 21.6185C159.657 21.3603 159.407 21.159 159.137 21.0079C158.853 20.8504 158.549 20.7499 158.249 20.7186C157.458 20.6301 156.644 20.9638 156.103 21.7824C156.103 21.7824 156.083 21.7947 156.08 21.7824C155.977 21.5999 155.876 21.392 155.783 21.1777C155.569 20.6809 155.393 20.1146 155.299 19.5543C155.299 19.5353 155.272 19.5353 155.272 19.5543C155.179 20.1146 155.002 20.6809 154.782 21.1841C154.688 21.3983 154.592 21.5999 154.485 21.7824C154.485 21.7947 154.468 21.7884 154.462 21.7824C153.517 20.3535 151.755 20.3849 150.684 21.6185C150.671 21.6309 150.684 21.6502 150.704 21.6436C151.422 21.3039 152.773 21.4046 153.454 22.38C153.46 22.3927 153.454 22.4054 153.437 22.4054C152.389 21.9646 150.774 22.2539 149.913 23.28C149.603 23.6451 149.389 24.1109 149.339 24.6645C149.339 24.6835 149.356 24.6895 149.363 24.6772C149.433 24.5514 149.603 24.2808 149.913 24.0035C150.414 23.5633 151.295 23.1035 152.75 23.2423C152.77 23.2423 152.77 23.2673 152.75 23.2737C152.006 23.3681 150.471 24.0288 149.907 25.5518C149.653 26.2252 149.59 27.0625 149.873 28.0946C149.873 28.1133 149.907 28.1133 149.907 28.0946C149.907 28.0696 149.907 28.0502 149.907 28.0252C149.917 26.6407 150.711 24.7907 152.663 24.3185C152.673 24.3185 152.686 24.3372 152.673 24.3438C150.491 26.2696 150.704 28.6422 151.415 30.0457C151.422 30.0584 151.448 30.0517 151.448 30.039C151.351 28.9819 151.275 27.0875 153.027 25.6593C153.04 25.6463 153.057 25.6593 153.053 25.678C152.65 26.326 151.692 28.8874 153.651 31.2096C153.661 31.2223 153.687 31.2096 153.674 31.1969C153.347 30.4041 152.907 27.6347 154.482 26.6407C154.482 26.6407 154.505 26.6407 154.505 26.6533C154.675 28.6799 155.035 32.8144 154.305 37.2639C153.04 36.2952 151.705 35.4389 150.384 34.942C150.22 34.879 150.063 34.8222 149.897 34.7718C148.532 34.325 147.287 34.1992 146.199 34.2433C144.447 34.3187 143.113 34.8409 142.378 35.2126C142.225 35.2877 142.102 35.3571 142.005 35.4139C141.968 35.4389 141.995 35.4956 142.038 35.4829C142.152 35.4452 142.265 35.4139 142.378 35.3825C143.723 35.0051 144.998 34.8976 146.199 35.0051C147.514 35.1179 148.745 35.4829 149.897 36.0052C151.515 36.7356 152.983 37.7738 154.305 38.8813C152.436 40.5117 150.854 42.0975 149.897 42.6577C149.847 42.6824 149.806 42.7141 149.76 42.7328C149.533 42.4185 149.132 42.2359 148.699 42.33C148.318 42.4125 148.011 42.7205 147.921 43.0919C147.848 43.4316 147.934 43.7906 148.125 43.9855C148.635 44.4954 149.226 44.5268 149.897 44.2435C151.188 43.7025 152.8 41.9843 154.775 40.1717C154.939 40.0209 155.109 39.8694 155.279 39.7185C155.449 39.8694 155.613 40.0209 155.776 40.1717C156.671 40.9896 157.488 41.7951 158.242 42.4752C158.549 42.7582 158.846 43.0165 159.13 43.249C159.574 43.6081 159.988 43.9101 160.371 44.1113C161.125 44.5141 161.783 44.5585 162.34 44.0673C162.37 44.0422 162.403 44.0172 162.433 43.9855C162.56 43.8597 162.714 43.4316 162.637 43.0919C162.594 42.8967 162.487 42.7205 162.347 42.5883C162.213 42.4629 162.05 42.3681 161.866 42.33C161.432 42.2359 161.032 42.4185 160.805 42.7328C160.675 42.6704 160.535 42.5823 160.378 42.4752C160.024 42.2299 159.604 41.8836 159.137 41.4748C158.86 41.2292 158.556 40.9586 158.249 40.6749C157.638 40.1213 156.974 39.5046 156.26 38.8813C156.891 38.3591 157.552 37.8432 158.249 37.371C158.539 37.1758 158.833 36.9872 159.137 36.8047C159.54 36.5658 159.954 36.3389 160.378 36.1376C161.005 35.8353 161.666 35.5774 162.347 35.3825C163.755 34.9797 165.273 34.8412 166.905 35.0992C167.432 35.1809 167.973 35.3067 168.527 35.4829C168.57 35.4956 168.597 35.4389 168.56 35.4139" fill="#8A8A8A"/>
<path d="M155.299 59.4365L152.309 62.4271L155.299 65.4177L158.289 62.4271L155.299 59.4365Z" fill="#8A8A8A"/>
<path d="M131.25 42.3281L130.169 45.6557L133.496 46.7376L134.58 43.41L131.25 42.3281Z" fill="#8A8A8A"/>
<path d="M140.937 13.084L140.483 15.9498L143.35 16.4036L143.804 13.5378L140.937 13.084Z" fill="#8A8A8A"/>
<path d="M177.67 30.7891L175.618 32.8403L177.67 34.8915L179.722 32.8403L177.67 30.7891Z" fill="#8A8A8A"/>
<path d="M175.925 23.9678L174.61 26.5529L177.193 27.8697L178.511 25.2845L175.925 23.9678Z" fill="#8A8A8A"/>
<path d="M143.353 49.2881L140.486 49.7422L140.94 52.6077L143.807 52.1535L143.353 49.2881Z" fill="#8A8A8A"/>
<path d="M169.648 13.0967L166.782 13.5508L167.235 16.4163L170.099 15.9621L169.648 13.0967Z" fill="#8A8A8A"/>
<path d="M149.019 52.1816L146.436 53.4984L147.751 56.0839L150.337 54.7668L149.019 52.1816Z" fill="#8A8A8A"/>
<path d="M155.299 8.4248L153.244 10.4764L155.299 12.5279L157.348 10.4764L155.299 8.4248Z" fill="#8A8A8A"/>
<path d="M151.989 11.9531L150.578 13.8982L152.523 15.3111L153.934 13.3663L151.989 11.9531Z" fill="#8A8A8A"/>
<path d="M158.079 50.3799L156.664 52.3247L158.61 53.7382L160.021 51.7928L158.079 50.3799Z" fill="#8A8A8A"/>
<path d="M138.738 22.4922L136.455 23.235L137.196 25.5211L139.482 24.7787L138.738 22.4922Z" fill="#8A8A8A"/>
<path d="M173.399 40.1514L171.117 40.8945L171.857 43.181L174.143 42.4382L173.399 40.1514Z" fill="#8A8A8A"/>
<path d="M135.821 34.208L134.406 36.1531L136.352 37.566L137.763 35.6209L135.821 34.208Z" fill="#8A8A8A"/>
<path d="M184.354 39.1582L180.583 41.0779L182.505 44.8464L186.273 42.926L184.354 39.1582Z" fill="#8A8A8A"/>
<path d="M139.672 54.3525L135.498 55.0149L136.158 59.1918L140.336 58.5294L139.672 54.3525Z" fill="#8A8A8A"/>
<path d="M174.443 6.48145L170.266 7.14383L170.93 11.3207L175.104 10.6586L174.443 6.48145Z" fill="#8A8A8A"/>
<path d="M129.494 34.4238L127.439 37.2549L130.269 39.3118L132.324 36.4804L129.494 34.4238Z" fill="#8A8A8A"/>
<path d="M147.741 9.61035L146.426 12.1955L149.009 13.5123L150.327 10.9268L147.741 9.61035Z" fill="#8A8A8A"/>
<path d="M134.657 23.9912L132.071 25.3076L133.389 27.8928L135.972 26.5764L134.657 23.9912Z" fill="#8A8A8A"/>
<path d="M155.296 53.1631L153.244 55.2146L155.296 57.2665L157.348 55.215L155.296 53.1631Z" fill="#8A8A8A"/>
<path d="M171.864 22.498L171.12 24.7845L173.409 25.5277L174.15 23.2409L171.864 22.498Z" fill="#8A8A8A"/>
<path d="M142.742 45.3945H140.336V47.7985H142.742V45.3945Z" fill="#8A8A8A"/>
<path d="M128.086 20.8672L124.319 22.7869L126.238 26.5554L130.009 24.6353L128.086 20.8672Z" fill="#8A8A8A"/>
<path d="M126.231 39.1318L124.309 42.8999L128.076 44.82L129.998 41.0523L126.231 39.1318Z" fill="#8A8A8A"/>
<path d="M142.489 7.70996L141.408 11.0382L144.741 12.1214L145.822 8.79347L142.489 7.70996Z" fill="#8A8A8A"/>
<path d="M165.837 53.5547L164.756 56.8823L168.09 57.9658L169.174 54.6379L165.837 53.5547Z" fill="#8A8A8A"/>
<path d="M179.342 42.3281L176.008 43.4113L177.089 46.7392L180.423 45.6561L179.342 42.3281Z" fill="#8A8A8A"/>
<path d="M181.091 34.4336L178.261 36.4902L180.32 39.3212L183.149 37.2643L181.091 34.4336Z" fill="#8A8A8A"/>
<path d="M177.086 18.9531L176.002 22.2867L179.332 23.3683L180.413 20.0343L177.086 18.9531Z" fill="#8A8A8A"/>
<path d="M175.234 12.9014H171.737V16.4005H175.234V12.9014Z" fill="#8A8A8A"/>
<path d="M144.741 53.5645L141.414 54.646L142.496 57.9796L145.826 56.8984L144.741 53.5645Z" fill="#8A8A8A"/>
<path d="M158.93 55.8027L156.874 58.6338L159.704 60.6907L161.76 57.8596L158.93 55.8027Z" fill="#8A8A8A"/>
<path d="M133.382 37.7949L132.068 40.3804L134.65 41.6968L135.968 39.1117L133.382 37.7949Z" fill="#8A8A8A"/>
<path d="M142.742 17.8867H140.336V20.2913H142.742V17.8867Z" fill="#8A8A8A"/>
<path d="M136.349 28.1191L134.406 29.532L135.818 31.4771L137.763 30.0639L136.349 28.1191Z" fill="#8A8A8A"/>
<path d="M164.9 13.9863L162.617 14.7291L163.358 17.0156L165.644 16.2728L164.9 13.9863Z" fill="#8A8A8A"/>
<path d="M158.603 11.9473L156.657 13.3605L158.069 15.3052L160.014 13.892L158.603 11.9473Z" fill="#8A8A8A"/>
<path d="M169.811 41.6348L167.846 41.9461L168.156 43.9106L170.122 43.5992L169.811 41.6348Z" fill="#8A8A8A"/>
<path d="M172.211 31.4375L170.806 32.8437L172.211 34.2499L173.619 32.8437L172.211 31.4375Z" fill="#8A8A8A"/>
<path d="M182.492 20.8477L180.573 24.6157L184.341 26.5358L186.26 22.7681L182.492 20.8477Z" fill="#8A8A8A"/>
<path d="M175.234 49.2861H171.737V52.7849H175.234V49.2861Z" fill="#8A8A8A"/>
<path d="M133.492 18.9688L130.165 20.0503L131.25 23.3842L134.577 22.3027L133.492 18.9688Z" fill="#8A8A8A"/>
<path d="M168.096 7.7041L164.766 8.78594L165.851 12.1136L169.177 11.0317L168.096 7.7041Z" fill="#8A8A8A"/>
<path d="M150.878 4.98633L148.822 7.8174L151.652 9.8743L153.708 7.04323L150.878 4.98633Z" fill="#8A8A8A"/>
<path d="M177.213 37.8223L174.627 39.139L175.942 41.7242L178.528 40.4077L177.213 37.8223Z" fill="#8A8A8A"/>
<path d="M132.925 30.792L130.873 32.8439L132.925 34.8955L134.974 32.8439L132.925 30.792Z" fill="#8A8A8A"/>
<path d="M174.774 34.2002L172.828 35.6134L174.24 37.5582L176.185 36.1453L174.774 34.2002Z" fill="#8A8A8A"/>
<path d="M147.244 48.6562L144.958 49.3994L145.702 51.6855L147.988 50.9431L147.244 48.6562Z" fill="#8A8A8A"/>
<path d="M155.296 48.3506L153.891 49.7564L155.296 51.1626L156.701 49.7564L155.296 48.3506Z" fill="#8A8A8A"/>
<path d="M144.534 18.0244L144.22 19.9885L146.186 20.3002L146.5 18.3361L144.534 18.0244Z" fill="#8A8A8A"/>
<path d="M138.765 36.7266L137.86 38.4985L139.632 39.4015L140.536 37.6295L138.765 36.7266Z" fill="#8A8A8A"/>
<path d="M138.852 12.9014H135.354V16.4005H138.852V12.9014Z" fill="#8A8A8A"/>
<path d="M159.707 4.99316L156.877 7.04973L158.93 9.88081L161.763 7.8239L159.707 4.99316Z" fill="#8A8A8A"/>
<path d="M161.569 52.1523L160.251 54.7378L162.834 56.0542L164.152 53.4691L161.569 52.1523Z" fill="#8A8A8A"/>
<path d="M135.985 44.3262L135.528 47.1916L138.394 47.6458L138.848 44.78L135.985 44.3262Z" fill="#8A8A8A"/>
<path d="M172.184 18.0303L171.73 20.8961L174.593 21.3499L175.047 18.4844L172.184 18.0303Z" fill="#8A8A8A"/>
<path d="M170.248 45.3945H167.846V47.7985H170.248V45.3945Z" fill="#8A8A8A"/>
<path d="M174.246 28.1191L172.831 30.0646L174.78 31.4778L176.192 29.5323L174.246 28.1191Z" fill="#8A8A8A"/>
<path d="M152.52 50.377L150.574 51.7902L151.989 53.7356L153.934 52.3221L152.52 50.377Z" fill="#8A8A8A"/>
<path d="M149.623 15.4141L148.722 17.186L150.494 18.089L151.395 16.3167L149.623 15.4141Z" fill="#8A8A8A"/>
<path d="M160.081 47.5889L159.18 49.3608L160.952 50.2634L161.853 48.4912L160.081 47.5889Z" fill="#8A8A8A"/>
<path d="M164.422 45.4014L164.109 47.3655L166.074 47.6768L166.388 45.7127L164.422 45.4014Z" fill="#8A8A8A"/>
<path d="M139.642 26.2949L137.87 27.1979L138.771 28.9698L140.547 28.0668L139.642 26.2949Z" fill="#8A8A8A"/>
<path d="M171.817 36.7471L170.045 37.6497L170.949 39.4216L172.721 38.519L171.817 36.7471Z" fill="#8A8A8A"/>
<path d="M140.794 41.6543L140.48 43.6188L142.445 43.9298L142.756 41.966L140.794 41.6543Z" fill="#8A8A8A"/>
<path d="M166.061 18.0107L164.099 18.3217L164.409 20.2862L166.375 19.9749L166.061 18.0107Z" fill="#8A8A8A"/>
<path d="M150.501 47.6084L148.729 48.511L149.633 50.283L151.405 49.3803L150.501 47.6084Z" fill="#8A8A8A"/>
<path d="M136.162 6.49512L135.501 10.6723L139.679 11.3347L140.339 7.1575L136.162 6.49512Z" fill="#8A8A8A"/>
<path d="M170.946 54.3623L170.282 58.5398L174.46 59.2019L175.121 55.025L170.946 54.3623Z" fill="#8A8A8A"/>
<path d="M155.293 0.267578L152.303 3.25816L155.293 6.24874L158.286 3.25816L155.293 0.267578Z" fill="#8A8A8A"/>
<path d="M130.276 26.3789L127.446 28.4355L129.501 31.2662L132.331 29.2096L130.276 26.3789Z" fill="#8A8A8A"/>
<path d="M180.313 26.3691L178.257 29.1999L181.087 31.2568L183.142 28.4257L180.313 26.3691Z" fill="#8A8A8A"/>
<path d="M138.852 49.2861H135.354V52.7849H138.852V49.2861Z" fill="#8A8A8A"/>
<path d="M151.662 55.8164L148.832 57.8733L150.884 60.7044L153.717 58.6475L151.662 55.8164Z" fill="#8A8A8A"/>
<path d="M167.235 49.2783L166.782 52.1438L169.645 52.5976L170.099 49.7322L167.235 49.2783Z" fill="#8A8A8A"/>
<path d="M138.408 18.0439L135.541 18.4978L135.995 21.3632L138.862 20.9094L138.408 18.0439Z" fill="#8A8A8A"/>
<path d="M174.597 44.3359L171.734 44.7898L172.187 47.6552L175.054 47.2017L174.597 44.3359Z" fill="#8A8A8A"/>
<path d="M162.848 9.62988L160.261 10.9466L161.58 13.5321L164.166 12.2154L162.848 9.62988Z" fill="#8A8A8A"/>
<path d="M145.699 14L144.958 16.2865L147.244 17.0293L147.988 14.7428L145.699 14Z" fill="#8A8A8A"/>
<path d="M163.362 48.6699L162.621 50.9564L164.907 51.6996L165.651 49.4127L163.362 48.6699Z" fill="#8A8A8A"/>
<path d="M137.196 40.1611L136.455 42.4476L138.741 43.1904L139.482 40.9039L137.196 40.1611Z" fill="#8A8A8A"/>
<path d="M170.248 17.8867H167.846V20.2913H170.248V17.8867Z" fill="#8A8A8A"/>
<path d="M155.299 14.5244L153.891 15.9306L155.299 17.3371L156.704 15.9306L155.299 14.5244Z" fill="#8A8A8A"/>
<path d="M142.439 21.7588L140.477 22.0701L140.787 24.0346L142.753 23.7229L142.439 21.7588Z" fill="#8A8A8A"/>
<path d="M138.381 31.4375L136.973 32.8444L138.381 34.2506L139.786 32.8444L138.381 31.4375Z" fill="#8A8A8A"/>
<path d="M170.936 26.2656L170.035 28.0376L171.807 28.9405L172.711 27.1683L170.936 26.2656Z" fill="#8A8A8A"/>
<path d="M168.163 21.7666L167.853 23.7307L169.815 24.0424L170.125 22.0779L168.163 21.7666Z" fill="#8A8A8A"/>
<path d="M146.183 45.3818L144.217 45.6935L144.531 47.6573L146.493 47.3463L146.183 45.3818Z" fill="#8A8A8A"/>
<path d="M160.959 15.4307L159.187 16.3336L160.091 18.1056L161.863 17.2026L160.959 15.4307Z" fill="#8A8A8A"/>
</svg>
