<svg width="50" height="50" viewBox="0 0 50 50" fill="none" xmlns="http://www.w3.org/2000/svg">
<path d="M47.9167 39.5833V35.4166C47.9091 29.7027 45.7692 24.1974 41.9158 19.9784C38.0625 15.7593 32.7731 13.1304 27.0833 12.6062V9.83956C27.8777 9.38095 28.4985 8.67304 28.8495 7.82563C29.2005 6.97823 29.2621 6.03868 29.0247 5.15271C28.7873 4.26674 28.2642 3.48385 27.5365 2.92548C26.8088 2.36711 25.9172 2.06445 25 2.06445C24.0828 2.06445 23.1912 2.36711 22.4635 2.92548C21.7358 3.48385 21.2127 4.26674 20.9753 5.15271C20.7379 6.03868 20.7995 6.97823 21.1505 7.82563C21.5015 8.67304 22.1223 9.38095 22.9167 9.83956V12.6062C17.2269 13.1304 11.9375 15.7593 8.08418 19.9784C4.23082 24.1974 2.0909 29.7027 2.08333 35.4166V39.5833C1.5308 39.5833 1.0009 39.8028 0.610194 40.1935C0.219493 40.5842 0 41.1141 0 41.6666C0 42.2192 0.219493 42.7491 0.610194 43.1398C1.0009 43.5305 1.5308 43.75 2.08333 43.75H47.9167C48.4692 43.75 48.9991 43.5305 49.3898 43.1398C49.7805 42.7491 50 42.2192 50 41.6666C50 41.1141 49.7805 40.5842 49.3898 40.1935C48.9991 39.8028 48.4692 39.5833 47.9167 39.5833ZM6.25 35.4166C7.23542 10.5541 42.7729 10.5729 43.75 35.4166V39.5833H6.25V35.4166Z" fill="#A67D5F"/>
</svg>
