<svg width="44" height="44" viewBox="0 0 44 44" fill="none" xmlns="http://www.w3.org/2000/svg">
<path d="M34.9635 5.38265C31.5021 1.91948 26.8986 0.0128174 22 0.0128174C17.1013 0.0128174 12.4978 1.91948 9.03646 5.38265C5.57329 8.84582 3.66663 13.4475 3.66663 18.3462C3.66663 23.2448 5.57329 27.8465 9.05846 31.3298L22 43.989L34.9635 31.3078C38.4266 27.8447 40.3333 23.243 40.3333 18.3462C40.3333 13.4493 38.4266 8.84398 34.9635 5.38265ZM31.097 27.3992L22.0018 36.2963L12.9268 27.4212C10.5031 24.9975 9.16846 21.7745 9.16846 18.348C9.16846 14.9215 10.5031 11.6967 12.9286 9.27298C15.3505 6.84932 18.5735 5.51465 22.0036 5.51465C25.4338 5.51465 28.6531 6.84932 31.0768 9.27298C33.5005 11.6967 34.8351 14.9197 34.8351 18.348C34.8351 21.7763 33.5005 24.9975 31.097 27.401V27.3992ZM22.9166 9.16665H16.5V27.5H20.1666V22H22.9166C26.455 22 29.3333 19.1217 29.3333 15.5833C29.3333 12.045 26.455 9.16665 22.9166 9.16665ZM22.9166 18.3333H20.1666V12.8333H22.9166C24.4328 12.8333 25.6666 14.0672 25.6666 15.5833C25.6666 17.0995 24.4328 18.3333 22.9166 18.3333Z" fill="#A67D5F"/>
</svg>
