<svg width="129" height="101" viewBox="0 0 129 101" fill="none" xmlns="http://www.w3.org/2000/svg">
<g filter="url(#filter0_d_625_5164)">
<rect x="22.0501" y="21.3229" width="85.3542" height="57.697" rx="14.5521" fill="white" stroke="#D9D9D9" stroke-width="2.64583"/>
<path fill-rule="evenodd" clip-rule="evenodd" d="M41.712 42.4616C42.8938 42.5613 44.0756 41.8634 44.8142 40.9786C45.5406 40.069 46.0207 38.8477 45.8976 37.6016C44.8512 37.6514 43.5586 38.2994 42.8199 39.2091C42.1429 39.9942 41.5643 41.2653 41.712 42.4616ZM55.7706 58.5122V39.0847H62.9723C66.6901 39.0847 69.2876 41.6767 69.2876 45.465C69.2876 49.2533 66.6408 51.8702 62.8738 51.8702H58.7497V58.5122H55.7706ZM45.8851 42.6982C44.8439 42.6375 43.8939 43.0151 43.1266 43.3201C42.6328 43.5164 42.2146 43.6826 41.8965 43.6826C41.5395 43.6826 41.104 43.5075 40.6151 43.3109C39.9745 43.0533 39.2422 42.7588 38.4741 42.7729C36.7137 42.7979 35.0764 43.8072 34.1777 45.4148C32.3311 48.6299 33.6976 53.3902 35.4826 56.0071C36.3567 57.3031 37.4031 58.7237 38.7819 58.6739C39.3885 58.6507 39.8248 58.4633 40.2764 58.2693C40.7963 58.046 41.3363 57.814 42.1796 57.814C42.9937 57.814 43.5101 58.04 44.0059 58.2568C44.4773 58.4631 44.9299 58.6611 45.602 58.649C47.03 58.624 47.9287 57.353 48.8027 56.0569C49.7459 54.666 50.1605 53.3085 50.2234 53.1025L50.2307 53.0786C50.2292 53.0771 50.2176 53.0717 50.197 53.0622C49.8817 52.9161 47.4717 51.7992 47.4485 48.8043C47.4253 46.2905 49.3601 45.0169 49.6647 44.8164C49.6832 44.8042 49.6957 44.796 49.7014 44.7917C48.4703 42.9474 46.5499 42.748 45.8851 42.6982ZM74.7291 58.6621C76.6003 58.6621 78.3361 57.7026 79.124 56.1823H79.1856V58.5126H81.9431V48.8424C81.9431 46.0386 79.7272 44.2316 76.3172 44.2316C73.1534 44.2316 70.8144 46.0635 70.7282 48.5807H73.4119C73.6335 47.3844 74.7291 46.5993 76.231 46.5993C78.053 46.5993 79.0748 47.4592 79.0748 49.0418V50.1135L75.357 50.3378C71.8977 50.5497 70.0265 51.9827 70.0265 54.475C70.0265 56.9923 71.9592 58.6621 74.7291 58.6621ZM75.529 56.3553C73.941 56.3553 72.9315 55.5827 72.9315 54.3988C72.9315 53.1776 73.904 52.4673 75.7629 52.3552L79.0745 52.1433V53.2399C79.0745 55.0593 77.548 56.3553 75.529 56.3553ZM91.0897 59.2718C89.8956 62.6739 88.5291 63.7954 85.6238 63.7954C85.4022 63.7954 84.6636 63.7705 84.4912 63.7206V61.3903C84.6759 61.4152 85.1314 61.4402 85.3653 61.4402C86.6825 61.4402 87.4211 60.8794 87.8766 59.4214L88.1475 58.5615L83.1001 44.4177H86.2147L89.7232 55.8948H89.7848L93.2933 44.4177H96.3217L91.0897 59.2718ZM58.7495 41.6272H62.1842C64.7694 41.6272 66.2467 43.0229 66.2467 45.4778C66.2467 47.9327 64.7694 49.3409 62.1719 49.3409H58.7495V41.6272Z" fill="black"/>
</g>
<defs>
<filter id="filter0_d_625_5164" x="0.727173" y="0" width="128" height="100.343" filterUnits="userSpaceOnUse" color-interpolation-filters="sRGB">
<feFlood flood-opacity="0" result="BackgroundImageFix"/>
<feColorMatrix in="SourceAlpha" type="matrix" values="0 0 0 0 0 0 0 0 0 0 0 0 0 0 0 0 0 0 127 0" result="hardAlpha"/>
<feOffset/>
<feGaussianBlur stdDeviation="10"/>
<feComposite in2="hardAlpha" operator="out"/>
<feColorMatrix type="matrix" values="0 0 0 0 0 0 0 0 0 0 0 0 0 0 0 0 0 0 0.07 0"/>
<feBlend mode="normal" in2="BackgroundImageFix" result="effect1_dropShadow_625_5164"/>
<feBlend mode="normal" in="SourceGraphic" in2="effect1_dropShadow_625_5164" result="shape"/>
</filter>
</defs>
</svg>
