<svg width="129" height="101" viewBox="0 0 129 101" fill="none" xmlns="http://www.w3.org/2000/svg">
<g filter="url(#filter0_d_625_5167)">
<rect x="22.0501" y="21.3229" width="85.3542" height="57.697" rx="14.5521" fill="white" stroke="#D9D9D9" stroke-width="2.64583"/>
<path d="M76.4841 32.5703C85.9596 32.5703 93.6413 40.3413 93.6413 49.9268C93.6411 59.5121 85.9594 67.2822 76.4841 67.2822C72.2371 67.2821 68.3512 65.7206 65.3552 63.1348C62.3592 65.7203 58.4739 67.2821 54.2272 67.2822C44.7519 67.2822 37.0702 59.5121 37.07 49.9268C37.07 40.3413 44.7517 32.5703 54.2272 32.5703C58.4739 32.5704 62.3592 34.1323 65.3552 36.7178C68.3512 34.132 72.2372 32.5704 76.4841 32.5703Z" fill="#ED0006"/>
<path d="M76.4847 32.5703C85.9601 32.5704 93.6419 40.3413 93.6419 49.9268C93.6417 59.512 85.96 67.2822 76.4847 67.2822C72.2375 67.2822 68.3519 65.7198 65.3558 63.1338C69.0439 59.9505 71.384 55.2156 71.3841 49.9268C71.3841 44.6375 69.0443 39.9012 65.3558 36.7178C68.3518 34.132 72.2378 32.5703 76.4847 32.5703Z" fill="#F9A000"/>
<path d="M65.355 36.7178C69.0438 39.9012 71.3834 44.6373 71.3834 49.9268C71.3832 55.216 69.0437 59.9514 65.355 63.1348C61.6669 59.9514 59.3278 55.2156 59.3277 49.9268C59.3277 44.6377 61.6667 39.9012 65.355 36.7178Z" fill="#FF5E00"/>
</g>
<defs>
<filter id="filter0_d_625_5167" x="0.727173" y="0" width="128" height="100.343" filterUnits="userSpaceOnUse" color-interpolation-filters="sRGB">
<feFlood flood-opacity="0" result="BackgroundImageFix"/>
<feColorMatrix in="SourceAlpha" type="matrix" values="0 0 0 0 0 0 0 0 0 0 0 0 0 0 0 0 0 0 127 0" result="hardAlpha"/>
<feOffset/>
<feGaussianBlur stdDeviation="10"/>
<feComposite in2="hardAlpha" operator="out"/>
<feColorMatrix type="matrix" values="0 0 0 0 0 0 0 0 0 0 0 0 0 0 0 0 0 0 0.07 0"/>
<feBlend mode="normal" in2="BackgroundImageFix" result="effect1_dropShadow_625_5167"/>
<feBlend mode="normal" in="SourceGraphic" in2="effect1_dropShadow_625_5167" result="shape"/>
</filter>
</defs>
</svg>
