<svg width="40" height="41" viewBox="0 0 40 41" fill="none" xmlns="http://www.w3.org/2000/svg">
<path d="M39.9929 19.4671C39.9929 19.4671 40.7893 13.8689 25.5651 14.2385C26.6794 13.2252 27.868 12.0292 29.0648 10.638C30.6124 8.84389 31.8463 7.09966 32.8244 5.52985C31.7968 5.61291 30.5463 5.82056 29.1803 6.28153C26.2667 7.27408 24.2817 8.94356 23.1798 10.0482C23.1592 9.04738 23.0601 7.89287 22.796 6.62623C22.2471 3.96835 21.2113 1.90435 20.3487 0.513117C20.0392 -0.641396 19.6513 0.513117 19.6513 0.513117C18.7888 1.90435 17.757 3.96835 17.204 6.62623C16.944 7.89287 16.8408 9.05153 16.8202 10.0482C15.7183 8.94356 13.7374 7.26993 10.8197 6.28153C9.45366 5.8164 8.19908 5.61291 7.1756 5.52985C8.15368 7.09966 9.39176 8.83974 10.9352 10.638C12.132 12.0292 13.3206 13.2211 14.4349 14.2385C-0.789348 13.8689 0.00714665 19.4671 0.00714665 19.4671C15.7802 17.8682 13.7044 20.0194 13.7044 20.0194C5.14516 23.8941 5.57436 33.7407 5.57436 33.7407C15.1117 21.4979 18.2894 22.7894 18.2894 22.7894C18.4132 29.3095 11.2571 41 11.2571 41H28.7346C28.7346 41 21.5827 29.0147 21.7024 22.4946C21.7024 22.4946 24.8801 21.4979 34.4174 33.7407C34.4174 33.7407 34.8466 23.8982 26.2874 20.0194C26.2874 20.0194 24.2074 17.864 39.9846 19.4671H39.9929Z" fill="url(#paint0_linear_177_231)"/>
<path d="M39.9929 19.4671C39.9929 19.4671 40.7893 13.8689 25.5651 14.2385C26.6794 13.2252 27.868 12.0292 29.0648 10.638C30.6124 8.84389 31.8463 7.09966 32.8244 5.52985C31.7968 5.61291 30.5463 5.82056 29.1803 6.28153C26.2667 7.27408 24.2817 8.94356 23.1798 10.0482C23.1592 9.04738 23.0601 7.89287 22.796 6.62623C22.2471 3.96835 21.2113 1.90435 20.3487 0.513117C20.0392 -0.641396 19.6513 0.513117 19.6513 0.513117C18.7888 1.90435 17.757 3.96835 17.204 6.62623C16.944 7.89287 16.8408 9.05153 16.8202 10.0482C15.7183 8.94356 13.7374 7.26993 10.8197 6.28153C9.45366 5.8164 8.19908 5.61291 7.1756 5.52985C8.15368 7.09966 9.39176 8.83974 10.9352 10.638C12.132 12.0292 13.3206 13.2211 14.4349 14.2385C-0.789348 13.8689 0.00714665 19.4671 0.00714665 19.4671C15.7802 17.8682 13.7044 20.0194 13.7044 20.0194C5.14516 23.8941 5.57436 33.7407 5.57436 33.7407C15.1117 21.4979 18.2894 22.7894 18.2894 22.7894C18.4132 29.3095 11.2571 41 11.2571 41H28.7346C28.7346 41 21.5827 29.0147 21.7024 22.4946C21.7024 22.4946 24.8801 21.4979 34.4174 33.7407C34.4174 33.7407 34.8466 23.8982 26.2874 20.0194C26.2874 20.0194 24.2074 17.864 39.9846 19.4671H39.9929Z" fill="black" fill-opacity="0.2"/>
<defs>
<linearGradient id="paint0_linear_177_231" x1="0" y1="20.5" x2="40" y2="20.5" gradientUnits="userSpaceOnUse">
<stop stop-color="#C0987A"/>
<stop offset="1" stop-color="#F2DDC9"/>
</linearGradient>
</defs>
</svg>
